<?xml version="1.0" encoding="UTF-8" standalone="no"?>
<!-- Created with Inkscape (http://www.inkscape.org/) -->

<svg
   version="1.1"
   id="svg2"
   width="286.66666"
   height="94.666664"
   viewBox="0 0 286.66666 94.666664"
   sodipodi:docname="seedstars.ai"
   xmlns:inkscape="http://www.inkscape.org/namespaces/inkscape"
   xmlns:sodipodi="http://sodipodi.sourceforge.net/DTD/sodipodi-0.dtd"
   xmlns="http://www.w3.org/2000/svg"
   xmlns:svg="http://www.w3.org/2000/svg">
  <defs
     id="defs6">
    <clipPath
       clipPathUnits="userSpaceOnUse"
       id="clipPath16">
      <path
         d="M 0,71 H 215 V 0 H 0 Z"
         id="path14" />
    </clipPath>
  </defs>
  <sodipodi:namedview
     id="namedview4"
     pagecolor="#ffffff"
     bordercolor="#000000"
     borderopacity="0.25"
     inkscape:showpageshadow="2"
     inkscape:pageopacity="0.0"
     inkscape:pagecheckerboard="0"
     inkscape:deskcolor="#d1d1d1" />
  <g
     id="g8"
     inkscape:groupmode="layer"
     inkscape:label="seedstars"
     transform="matrix(1.3333333,0,0,-1.3333333,0,94.666667)">
    <g
       id="g10">
      <g
         id="g12"
         clip-path="url(#clipPath16)">
        <g
           id="g18"
           transform="translate(95.5293,40.1758)">
          <path
             d="M 0,0 C -1.484,0 -2.729,-0.483 -3.735,-1.451 -4.741,-2.417 -5.312,-3.679 -5.449,-5.233 H 5.479 C 5.342,-3.679 4.771,-2.417 3.765,-1.451 2.759,-0.483 1.504,0 0,0 m 7.441,-6.818 h -12.89 c 0.117,-1.636 0.732,-2.956 1.845,-3.963 1.114,-1.007 2.52,-1.511 4.219,-1.511 0.957,0 1.836,0.175 2.637,0.523 0.801,0.35 1.494,0.863 2.08,1.54 l 1.172,-1.375 c -0.684,-0.837 -1.538,-1.475 -2.564,-1.914 -1.025,-0.438 -2.153,-0.658 -3.383,-0.658 -1.582,0 -2.984,0.344 -4.204,1.032 -1.221,0.688 -2.173,1.64 -2.857,2.856 -0.683,1.217 -1.025,2.592 -1.025,4.127 0,1.536 0.327,2.911 0.981,4.127 0.654,1.217 1.553,2.163 2.695,2.842 1.143,0.677 2.427,1.016 3.853,1.016 1.426,0 2.705,-0.339 3.838,-1.016 1.133,-0.679 2.021,-1.62 2.666,-2.827 0.644,-1.206 0.967,-2.586 0.967,-4.142 z M -18,0 c -1.484,0 -2.729,-0.483 -3.735,-1.451 -1.006,-0.966 -1.577,-2.228 -1.714,-3.782 h 10.928 c -0.137,1.554 -0.708,2.816 -1.714,3.782 C -15.241,-0.483 -16.496,0 -18,0 m 7.441,-6.818 h -12.89 c 0.117,-1.636 0.732,-2.956 1.845,-3.963 1.114,-1.007 2.52,-1.511 4.219,-1.511 0.957,0 1.836,0.175 2.637,0.523 0.801,0.35 1.494,0.863 2.08,1.54 l 1.172,-1.375 c -0.684,-0.837 -1.538,-1.475 -2.564,-1.914 -1.025,-0.438 -2.153,-0.658 -3.383,-0.658 -1.582,0 -2.984,0.344 -4.204,1.032 -1.221,0.688 -2.173,1.64 -2.857,2.856 -0.683,1.217 -1.025,2.592 -1.025,4.127 0,1.536 0.327,2.911 0.981,4.127 0.654,1.217 1.553,2.163 2.695,2.842 1.143,0.677 2.427,1.016 3.853,1.016 1.426,0 2.705,-0.339 3.838,-1.016 1.133,-0.679 2.021,-1.62 2.666,-2.827 0.644,-1.206 0.967,-2.586 0.967,-4.142 z m 101.537,-7.358 c -1.278,0 -2.499,0.182 -3.666,0.545 -1.167,0.363 -2.08,0.819 -2.739,1.369 l 0.958,1.65 c 0.658,-0.511 1.487,-0.928 2.484,-1.252 0.998,-0.324 2.035,-0.486 3.112,-0.486 1.436,0 2.499,0.221 3.186,0.662 0.689,0.443 1.033,1.066 1.033,1.871 0,0.569 -0.19,1.016 -0.569,1.34 -0.379,0.324 -0.857,0.57 -1.436,0.737 -0.578,0.166 -1.346,0.328 -2.304,0.485 -1.276,0.235 -2.304,0.477 -3.082,0.722 -0.778,0.245 -1.441,0.663 -1.99,1.252 -0.549,0.589 -0.822,1.403 -0.822,2.444 0,1.296 0.547,2.356 1.645,3.181 1.097,0.824 2.623,1.237 4.578,1.237 1.018,0 2.035,-0.133 3.053,-0.398 1.017,-0.265 1.854,-0.614 2.513,-1.045 l -0.927,-1.679 c -1.297,0.883 -2.843,1.325 -4.639,1.325 -1.356,0 -2.379,-0.236 -3.067,-0.707 -0.688,-0.471 -1.032,-1.09 -1.032,-1.855 0,-0.589 0.194,-1.06 0.584,-1.414 0.388,-0.353 0.872,-0.613 1.451,-0.78 0.578,-0.167 1.376,-0.339 2.393,-0.515 1.257,-0.237 2.265,-0.472 3.023,-0.707 0.758,-0.236 1.406,-0.639 1.945,-1.208 0.538,-0.57 0.808,-1.355 0.808,-2.356 0,-1.355 -0.574,-2.43 -1.721,-3.225 -1.147,-0.795 -2.738,-1.193 -4.772,-1.193 M 76.794,-1.571 c 0.498,1.041 1.241,1.826 2.228,2.356 0.989,0.53 2.21,0.796 3.666,0.796 v -2.033 l -0.508,0.03 c -1.656,0 -2.952,-0.501 -3.89,-1.502 -0.937,-1.001 -1.407,-2.405 -1.407,-4.212 v -7.892 H 74.759 V 1.463 h 2.035 z M 63.001,-12.32 c 1.098,0 2.09,0.25 2.978,0.751 0.887,0.501 1.585,1.212 2.094,2.134 0.509,0.923 0.763,1.974 0.763,3.152 0,1.178 -0.254,2.229 -0.763,3.151 -0.509,0.923 -1.207,1.635 -2.094,2.135 -0.888,0.501 -1.88,0.751 -2.978,0.751 -1.117,0 -2.119,-0.25 -3.007,-0.751 -0.888,-0.5 -1.586,-1.212 -2.095,-2.135 -0.508,-0.922 -0.762,-1.973 -0.762,-3.151 0,-1.178 0.254,-2.229 0.762,-3.152 0.509,-0.922 1.207,-1.633 2.095,-2.134 0.888,-0.501 1.89,-0.751 3.007,-0.751 m 7.93,13.783 v -15.491 h -2.035 v 3.062 c -0.638,-1.04 -1.481,-1.836 -2.529,-2.386 -1.047,-0.549 -2.228,-0.824 -3.546,-0.824 -1.475,0 -2.812,0.334 -4.009,1.001 -1.197,0.668 -2.134,1.601 -2.813,2.798 -0.678,1.198 -1.018,2.563 -1.018,4.094 0,1.532 0.34,2.896 1.018,4.094 0.679,1.197 1.616,2.125 2.813,2.783 1.197,0.658 2.534,0.987 4.009,0.987 1.278,0 2.43,-0.261 3.457,-0.781 1.028,-0.52 1.87,-1.281 2.529,-2.282 V 1.463 Z M 52.708,-13.086 c -0.399,-0.353 -0.889,-0.623 -1.467,-0.81 -0.578,-0.186 -1.186,-0.28 -1.825,-0.28 -1.477,0 -2.613,0.393 -3.411,1.178 -0.798,0.786 -1.197,1.894 -1.197,3.328 V 4.85 h 2.125 V 1.463 h 4.757 v -1.767 h -4.757 v -9.248 c 0,-0.923 0.229,-1.625 0.687,-2.105 0.459,-0.482 1.128,-0.722 2.005,-0.722 0.958,0 1.736,0.265 2.334,0.795 z m -17.164,-1.09 c -1.276,0 -2.499,0.182 -3.666,0.545 -1.167,0.363 -2.079,0.819 -2.737,1.369 l 0.957,1.65 c 0.658,-0.511 1.486,-0.928 2.483,-1.252 0.998,-0.324 2.035,-0.486 3.112,-0.486 1.437,0 2.499,0.221 3.188,0.662 0.687,0.443 1.032,1.066 1.032,1.871 0,0.569 -0.189,1.016 -0.569,1.34 -0.379,0.324 -0.858,0.57 -1.436,0.737 -0.579,0.166 -1.346,0.328 -2.304,0.485 -1.277,0.235 -2.304,0.477 -3.083,0.722 -0.778,0.245 -1.441,0.663 -1.99,1.252 -0.548,0.589 -0.822,1.403 -0.822,2.444 0,1.296 0.549,2.356 1.645,3.181 1.098,0.824 2.624,1.237 4.579,1.237 1.017,0 2.035,-0.133 3.052,-0.398 1.018,-0.265 1.856,-0.614 2.514,-1.045 l -0.928,-1.679 c -1.297,0.883 -2.842,1.325 -4.638,1.325 -1.357,0 -2.379,-0.236 -3.067,-0.707 -0.688,-0.471 -1.033,-1.09 -1.033,-1.855 0,-0.589 0.195,-1.06 0.584,-1.414 0.389,-0.353 0.873,-0.613 1.451,-0.78 0.578,-0.167 1.377,-0.339 2.394,-0.515 1.257,-0.237 2.264,-0.472 3.022,-0.707 0.758,-0.236 1.406,-0.639 1.945,-1.208 0.539,-0.57 0.808,-1.355 0.808,-2.356 0,-1.355 -0.573,-2.43 -1.721,-3.225 -1.146,-0.795 -2.737,-1.193 -4.772,-1.193 m -17.675,1.856 c 1.097,0 2.09,0.25 2.978,0.751 0.887,0.501 1.586,1.212 2.094,2.134 0.509,0.923 0.763,1.974 0.763,3.152 0,1.178 -0.254,2.229 -0.763,3.151 -0.508,0.923 -1.207,1.635 -2.094,2.135 -0.888,0.501 -1.881,0.751 -2.978,0.751 -1.117,0 -2.12,-0.25 -3.008,-0.751 -0.887,-0.5 -1.586,-1.212 -2.094,-2.135 -0.509,-0.922 -0.763,-1.973 -0.763,-3.151 0,-1.178 0.254,-2.229 0.763,-3.152 0.508,-0.922 1.207,-1.633 2.094,-2.134 0.888,-0.501 1.891,-0.751 3.008,-0.751 m 7.93,20.144 v -21.852 h -2.035 v 3.062 c -0.638,-1.04 -1.481,-1.836 -2.529,-2.386 -1.047,-0.549 -2.229,-0.824 -3.546,-0.824 -1.476,0 -2.812,0.334 -4.009,1.001 -1.198,0.668 -2.135,1.601 -2.813,2.798 -0.679,1.198 -1.017,2.563 -1.017,4.094 0,1.532 0.338,2.896 1.017,4.094 0.678,1.197 1.615,2.125 2.813,2.783 1.197,0.658 2.533,0.987 4.009,0.987 1.277,0 2.429,-0.261 3.457,-0.781 1.027,-0.52 1.87,-1.281 2.528,-2.282 v 9.306 z m -59.924,-22 c -1.277,0 -2.499,0.182 -3.667,0.545 -1.166,0.363 -2.079,0.819 -2.737,1.369 l 0.957,1.65 c 0.658,-0.511 1.487,-0.928 2.484,-1.252 0.997,-0.324 2.035,-0.486 3.112,-0.486 1.436,0 2.498,0.221 3.187,0.662 0.688,0.443 1.032,1.066 1.032,1.871 0,0.569 -0.189,1.016 -0.568,1.34 -0.38,0.324 -0.858,0.57 -1.437,0.737 -0.578,0.166 -1.346,0.328 -2.304,0.485 -1.277,0.235 -2.304,0.477 -3.082,0.722 -0.778,0.245 -1.441,0.663 -1.99,1.252 -0.549,0.589 -0.823,1.403 -0.823,2.444 0,1.296 0.549,2.356 1.646,3.181 1.097,0.824 2.623,1.237 4.578,1.237 1.018,0 2.035,-0.133 3.052,-0.398 1.018,-0.265 1.856,-0.614 2.514,-1.045 l -0.928,-1.679 c -1.296,0.883 -2.842,1.325 -4.638,1.325 -1.356,0 -2.379,-0.236 -3.067,-0.707 -0.688,-0.471 -1.032,-1.09 -1.032,-1.855 0,-0.589 0.194,-1.06 0.584,-1.414 0.388,-0.353 0.872,-0.613 1.451,-0.78 0.578,-0.167 1.376,-0.339 2.393,-0.515 1.257,-0.237 2.265,-0.472 3.023,-0.707 0.758,-0.236 1.406,-0.639 1.945,-1.208 0.539,-0.57 0.808,-1.355 0.808,-2.356 0,-1.355 -0.574,-2.43 -1.721,-3.225 -1.147,-0.795 -2.738,-1.193 -4.772,-1.193"
             style="fill:#0865ac;fill-opacity:1;fill-rule:nonzero;stroke:none"
             id="path20" />
        </g>
        <g
           id="g22"
           transform="translate(33.4604,46.2998)">
          <path
             d="m 0,0 c -0.273,0 -0.492,-0.225 -0.483,-0.501 0.058,-1.661 0.283,-4.392 0.676,-8.193 -1.58,0.912 -4.074,1.985 -7.483,3.217 -0.255,0.093 -0.54,-0.047 -0.623,-0.309 l -1.274,-3.987 c -0.085,-0.268 0.066,-0.554 0.334,-0.624 2.517,-0.67 5.165,-1.279 7.945,-1.824 -1.101,-1.027 -2.898,-3.092 -5.391,-6.195 -0.176,-0.218 -0.135,-0.544 0.09,-0.707 l 3.262,-2.384 c 0.214,-0.156 0.513,-0.111 0.668,0.105 1.22,1.703 2.618,4.076 4.195,7.121 1.687,-2.948 3.167,-5.321 4.438,-7.117 0.153,-0.219 0.452,-0.266 0.668,-0.111 l 3.32,2.385 c 0.228,0.163 0.269,0.493 0.092,0.713 -2.389,2.946 -4.253,5.01 -5.592,6.19 2.652,0.309 5.355,0.909 8.111,1.803 0.254,0.082 0.396,0.362 0.313,0.62 l -1.284,4.019 C 11.899,-5.52 11.62,-5.378 11.365,-5.465 8.502,-6.447 5.948,-7.511 3.705,-8.659 4.131,-5.439 4.39,-2.721 4.48,-0.503 4.491,-0.227 4.271,0 3.997,0 Z"
             style="fill:#054b81;fill-opacity:1;fill-rule:nonzero;stroke:none"
             id="path24" />
        </g>
      </g>
    </g>
  </g>
</svg>
