<?xml version="1.0" encoding="utf-8"?>
<svg viewBox="0 0 180 230" width="180" height="230" xmlns="http://www.w3.org/2000/svg">
  <defs>
    <clipPath clipPathUnits="userSpaceOnUse" id="clipPath16">
      <path d="M 0,858.898 H 612.288 V 0 H 0 Z" id="path-1"/>
    </clipPath>
  </defs>
  <g id="g-1" transform="matrix(0.418585, 0, 0, -0.418585, -37.815022, 276.028778)" style="">
    <g id="g-2">
      <g id="g12" clip-path="url(#clipPath16)">
        <g id="g-3" transform="translate(278.7329,432.9174)">
          <path d="m 0,0 h 31.047 c 1.359,0 2.622,-0.706 3.333,-1.863 0.713,-1.157 0.775,-2.601 0.161,-3.815 L -40.74,-154.782 76.655,24.898 H 46.27 c -1.341,0 -2.589,0.685 -3.308,1.817 -0.713,1.134 -0.805,2.554 -0.234,3.766 l 59.663,126.586 z m -75.938,-219.726 c -0.666,0 -1.338,0.169 -1.953,0.526 -1.801,1.034 -2.476,3.297 -1.539,5.152 L 24.687,-7.828 H -7.224 c -1.437,0 -2.757,0.785 -3.44,2.049 -0.686,1.263 -0.625,2.8 0.161,4.003 l 137.428,210.814 c 1.121,1.717 3.395,2.275 5.183,1.279 1.8,-1.002 2.513,-3.223 1.637,-5.086 L 52.442,32.726 h 31.444 c 1.438,0 2.757,-0.787 3.441,-2.051 0.687,-1.264 0.621,-2.8 -0.163,-4.003 L -72.659,-217.952 c -0.749,-1.147 -2,-1.774 -3.279,-1.774" style="fill:#231815;fill-opacity:1;fill-rule:nonzero;stroke:none" id="path-2"/>
        </g>
        <g id="g22" transform="translate(313.8574,437.9198)">
          <path d="m 0,0 c -5.044,0 -9.133,4.089 -9.133,9.132 0,5.044 4.089,9.133 9.133,9.133 5.044,0 9.133,-4.089 9.133,-9.133 C 9.133,4.089 5.044,0 0,0 M 95.078,201.898 -42.348,-8.916 H -4.077 L -111.061,-220.816 48.762,23.81 H 11.144 Z" style="fill:#231815;fill-opacity:1;fill-rule:nonzero;stroke:none" id="path24"/>
        </g>
        <g id="g26" transform="translate(273.917,430.308)">
          <path d="m 0,0 h 35.863 c 0.453,0 0.874,-0.234 1.111,-0.622 0.237,-0.385 0.257,-0.866 0.053,-1.272 L -59.388,-192.862 86.292,30.117 H 51.086 c -0.448,0 -0.861,0.229 -1.101,0.607 -0.24,0.377 -0.27,0.851 -0.082,1.253 l 75.845,160.92 z m -71.12,-214.507 c -0.222,0 -0.446,0.057 -0.652,0.174 -0.599,0.347 -0.826,1.101 -0.513,1.717 L 33.743,-2.609 H -2.408 c -0.479,0 -0.92,0.259 -1.147,0.682 -0.229,0.421 -0.209,0.933 0.054,1.336 l 137.429,210.814 c 0.372,0.57 1.131,0.749 1.727,0.425 0.596,-0.334 0.836,-1.075 0.545,-1.694 L 53.145,32.726 h 35.557 c 0.48,0 0.917,-0.262 1.147,-0.683 0.229,-0.423 0.209,-0.935 -0.056,-1.335 l -159.82,-244.623 c -0.249,-0.383 -0.667,-0.592 -1.093,-0.592" style="fill:#ffffff;fill-opacity:1;fill-rule:nonzero;stroke:none" id="path28"/>
        </g>
      </g>
    </g>
  </g>
  <g id="g50" transform="matrix(1.333333, 0, 0, -1.333333, 18.218199, 216.651779)">
    <path d="m 0,0 c -0.156,-0.264 -0.3,-0.503 -0.563,-0.815 -1.068,-1.271 -2.496,-1.679 -3.863,-1.679 -3.382,0 -4.761,2.459 -4.761,4.485 0,2.567 2.086,4.462 4.761,4.462 0.924,0 1.787,-0.228 2.495,-0.612 C -0.96,5.302 -0.527,4.63 -0.216,4.126 L -0.924,3.73 c -0.143,0.241 -0.239,0.408 -0.479,0.696 -0.72,0.887 -1.86,1.271 -2.975,1.271 -2.278,0 -3.909,-1.571 -3.909,-3.765 0,-1.967 1.451,-3.683 3.909,-3.683 2.363,0 3.299,1.523 3.647,2.1 z" style="fill:#231f20;fill-opacity:1;fill-rule:nonzero;stroke:none" id="path52"/>
  </g>
  <g id="g54" transform="matrix(1.333333, 0, 0, -1.333333, 20.201262, 214.076187)">
    <path d="m 0,0 c 0,-2.327 1.799,-3.718 4.125,-3.718 2.243,0 4.066,1.355 4.066,3.814 0,1.067 -0.444,2.278 -1.487,2.974 C 6.309,3.334 5.276,3.85 3.873,3.79 1.163,3.67 0,1.763 0,0 m 9.114,0.048 c 0,-2.447 -1.954,-4.486 -5.06,-4.486 -2.963,0 -4.942,1.907 -4.942,4.474 0,2.494 1.943,4.485 5.026,4.485 C 7.495,4.497 9.114,2.219 9.114,0.048" style="fill:#231f20;fill-opacity:1;fill-rule:nonzero;stroke:none" id="path56"/>
  </g>
  <g id="g58" transform="matrix(1.333333, 0, 0, -1.333333, 35.742977, 208.399124)">
    <path d="m 0,0 3.227,-6.86 c 0.192,-0.42 0.24,-0.552 0.372,-0.9 L 7.16,0 H 8.216 V -8.468 H 7.46 v 7.532 C 7.364,-1.176 7.341,-1.235 7.208,-1.512 L 4.006,-8.468 H 3.167 L -0.06,-1.56 c -0.131,0.276 -0.156,0.325 -0.252,0.624 V -8.468 H -1.067 V 0 Z" style="fill:#231f20;fill-opacity:1;fill-rule:nonzero;stroke:none" id="path60"/>
  </g>
  <g id="g62" transform="matrix(1.333333, 0, 0, -1.333333, 50.761135, 208.399124)">
    <path d="m 0,0 3.227,-6.86 c 0.192,-0.42 0.24,-0.552 0.372,-0.9 L 7.16,0 H 8.216 V -8.468 H 7.46 v 7.532 C 7.364,-1.176 7.341,-1.235 7.208,-1.512 L 4.006,-8.468 H 3.167 L -0.06,-1.56 c -0.131,0.276 -0.156,0.325 -0.252,0.624 V -8.468 H -1.067 V 0 Z" style="fill:#231f20;fill-opacity:1;fill-rule:nonzero;stroke:none" id="path64"/>
  </g>
  <g id="g66" transform="matrix(1.333333, 0, 0, -1.333333, 64.281921, 208.38353)">
    <path d="m 0,0 h 0.78 v -5.05 c -0.049,-2.158 1.295,-2.878 3.514,-2.878 2.591,0 3.514,0.924 3.514,3.023 V 0 h 0.767 v -5.025 c 0,-2.567 -1.415,-3.67 -4.281,-3.67 C 1.403,-8.695 0,-7.568 0,-5.121 Z" style="fill:#231f20;fill-opacity:1;fill-rule:nonzero;stroke:none" id="path68"/>
  </g>
  <g id="g70" transform="matrix(1.333333, 0, 0, -1.333333, 89.995514, 208.399124)">
    <path d="M 0,0 V -8.468 H -0.756 L -8.012,-1.08 V -8.468 H -8.768 V 0 h 0.756 l 7.256,-7.425 V 0 Z" style="fill:#231f20;fill-opacity:1;fill-rule:nonzero;stroke:none" id="path72"/>
  </g>
  <path d="M 92.626 208.4 L 93.698 208.4 L 93.698 219.691 L 92.626 219.691 L 92.626 208.4 Z" style="fill:#231f20;fill-opacity:1;fill-rule:nonzero;stroke:none" id="path74"/>
  <g id="g76" transform="matrix(1.333333, 0, 0, -1.333333, 107.867889, 216.651779)">
    <path d="m 0,0 c -0.156,-0.264 -0.3,-0.503 -0.563,-0.815 -1.068,-1.271 -2.496,-1.679 -3.863,-1.679 -3.382,0 -4.761,2.459 -4.761,4.485 0,2.567 2.086,4.462 4.761,4.462 0.924,0 1.787,-0.228 2.495,-0.612 C -0.96,5.302 -0.527,4.63 -0.216,4.126 L -0.924,3.73 c -0.143,0.241 -0.239,0.408 -0.479,0.696 -0.72,0.887 -1.86,1.271 -2.975,1.271 -2.278,0 -3.909,-1.571 -3.909,-3.765 0,-1.967 1.451,-3.683 3.909,-3.683 2.363,0 3.299,1.523 3.647,2.1 z" style="fill:#231f20;fill-opacity:1;fill-rule:nonzero;stroke:none" id="path78"/>
  </g>
  <g id="g80" transform="matrix(1.333333, 0, 0, -1.333333, 114.094452, 209.406998)">
    <path d="m 0,0 -2.374,-4.846 h 4.797 z m 0.456,0.756 4.27,-8.468 H 3.851 l -1.092,2.194 h -5.457 l -1.079,-2.194 h -0.84 l 4.162,8.468 z" style="fill:#231f20;fill-opacity:1;fill-rule:nonzero;stroke:none" id="path82"/>
  </g>
  <g id="g84" transform="matrix(1.333333, 0, 0, -1.333333, 118.529388, 208.399124)">
    <path d="M 0,0 H 8.239 V -0.708 H 4.605 v -7.76 H 3.802 v 7.76 l -3.802,0 z" style="fill:#231f20;fill-opacity:1;fill-rule:nonzero;stroke:none" id="path86"/>
  </g>
  <path d="M 130.824 208.4 L 131.896 208.4 L 131.896 219.691 L 130.824 219.691 L 130.824 208.4 Z" style="fill:#231f20;fill-opacity:1;fill-rule:nonzero;stroke:none" id="path88"/>
  <g id="g90" transform="matrix(1.333333, 0, 0, -1.333333, 135.016327, 214.076187)">
    <path d="m 0,0 c 0,-2.327 1.799,-3.718 4.125,-3.718 2.243,0 4.066,1.355 4.066,3.814 0,1.067 -0.444,2.278 -1.487,2.974 C 6.309,3.334 5.276,3.85 3.873,3.79 1.163,3.67 0,1.763 0,0 m 9.114,0.048 c 0,-2.447 -1.954,-4.486 -5.06,-4.486 -2.963,0 -4.942,1.907 -4.942,4.474 0,2.494 1.943,4.485 5.026,4.485 C 7.495,4.497 9.114,2.219 9.114,0.048" style="fill:#231f20;fill-opacity:1;fill-rule:nonzero;stroke:none" id="path92"/>
  </g>
  <g id="g94" transform="matrix(1.333333, 0, 0, -1.333333, 160.826324, 208.399124)">
    <path d="M 0,0 V -8.468 H -0.756 L -8.012,-1.08 V -8.468 H -8.768 V 0 h 0.756 l 7.256,-7.425 V 0 Z" style="fill:#231f20;fill-opacity:1;fill-rule:nonzero;stroke:none" id="path96"/>
  </g>
  <g id="g98" transform="matrix(1.333333, 0, 0, -1.333333, 163.701263, 216.410873)">
    <path d="m 0,0 c 0.288,-0.684 0.743,-1.476 2.291,-1.8 0.455,-0.096 0.935,-0.132 1.402,-0.132 1.98,0 3.323,0.781 3.323,1.944 0,1.092 -1.068,1.319 -2.89,1.559 C 3.598,1.631 3.07,1.703 2.555,1.774 1.835,1.883 1.283,1.967 0.827,2.183 0.168,2.494 -0.229,3.046 -0.229,3.777 c 0,1.272 1.236,2.459 3.899,2.459 1.619,0 2.986,-0.467 3.981,-1.667 L 6.884,4.149 C 6.62,4.497 5.864,5.505 3.609,5.505 1.811,5.505 0.636,4.809 0.636,3.813 0.636,3.094 1.319,2.83 1.847,2.722 2.255,2.639 4.281,2.374 4.749,2.303 5.505,2.183 6.177,2.063 6.645,1.858 7.376,1.535 7.892,0.923 7.892,0.06 7.892,-0.396 7.735,-0.828 7.52,-1.164 7.112,-1.787 6.116,-2.675 3.766,-2.675 c -1.511,0 -2.303,0.216 -2.975,0.564 -1.067,0.551 -1.354,1.151 -1.679,1.775 z" style="fill:#231f20;fill-opacity:1;fill-rule:nonzero;stroke:none" id="path100"/>
  </g>
  <g id="g10" transform="matrix(1.333333, 0, 0, -1.333333, 5.982007, 192.152756)">
    <path d="m 0,0 v -8.467 h 6.812 v 1.03 H 1.199 l 0,7.437 z" style="fill:#231f20;fill-opacity:1;fill-rule:nonzero;stroke:none" id="path12"/>
  </g>
  <path d="M 16.447 192.153 L 18.094 192.153 L 18.094 203.443 L 16.447 203.443 L 16.447 192.153 Z" style="fill:#231f20;fill-opacity:1;fill-rule:nonzero;stroke:none" id="path14"/>
  <g id="g24" transform="matrix(1.333333, 0, 0, -1.333333, 31.644789, 201.9077)">
    <path d="m 0,0 c -0.156,-0.144 -0.288,-0.275 -0.468,-0.42 -0.611,-0.468 -1.787,-0.935 -3.226,-0.935 -2.926,0 -4.845,2.027 -4.845,4.45 0,1.186 0.491,2.062 0.731,2.422 0.792,1.151 2.351,2.003 4.318,2.003 1.955,0 3.19,-0.803 3.67,-1.211 C 0.647,5.913 0.827,5.577 1.008,5.277 L -0.18,4.917 c -0.156,0.229 -0.276,0.408 -0.54,0.636 -0.719,0.624 -1.703,0.924 -2.675,0.924 -2.085,0 -3.861,-1.176 -3.861,-3.311 0,-0.875 0.323,-1.583 0.575,-1.967 0.924,-1.427 2.7,-1.547 3.251,-1.547 0.803,0 1.991,0.252 2.794,1.116 0.529,0.576 0.6,1.043 0.672,1.535 h -3.73 v 1.008 h 4.737 v -4.474 l -1.043,0 z" style="fill:#231f20;fill-opacity:1;fill-rule:nonzero;stroke:none" id="path26"/>
  </g>
  <g id="g28" transform="matrix(1.333333, 0, 0, -1.333333, 35.668133, 192.136887)">
    <path d="M 0,0 H 1.211 V -3.466 H 7.699 V 0 H 8.911 V -8.48 H 7.699 v 4.006 H 1.211 V -8.48 H 0 Z" style="fill:#231f20;fill-opacity:1;fill-rule:nonzero;stroke:none" id="path30"/>
  </g>
  <g id="g32" transform="matrix(1.333333, 0, 0, -1.333333, 49.157726, 192.152481)">
    <path d="M 0,0 H 8.119 V -1.008 H 4.653 v -7.46 H 3.454 v 7.46 H 0 Z" style="fill:#231f20;fill-opacity:1;fill-rule:nonzero;stroke:none" id="path34"/>
  </g>
  <g id="g36" transform="matrix(1.333333, 0, 0, -1.333333, 63.222912, 192.152481)">
    <path d="m 0,0 5.709,-6.057 c 0.407,-0.432 0.491,-0.528 0.899,-1.032 -0.06,0.6 -0.06,0.708 -0.072,1.248 V 0 H 7.687 V -8.468 H 6.513 l -5.997,6.345 c -0.312,0.348 -0.409,0.468 -0.661,0.779 0.049,-0.588 0.061,-0.756 0.061,-1.463 V -8.468 H -1.235 V 0 Z" style="fill:#231f20;fill-opacity:1;fill-rule:nonzero;stroke:none" id="path38"/>
  </g>
  <path d="M 76.293 192.153 L 77.939 192.153 L 77.939 203.443 L 76.293 203.443 L 76.293 192.153 Z" style="fill:#231f20;fill-opacity:1;fill-rule:nonzero;stroke:none" id="path40"/>
  <g id="g42" transform="matrix(1.333333, 0, 0, -1.333333, 82.363464, 192.152481)">
    <path d="m 0,0 5.709,-6.057 c 0.407,-0.432 0.491,-0.528 0.899,-1.032 -0.06,0.6 -0.06,0.708 -0.072,1.248 V 0 H 7.687 V -8.468 H 6.513 l -5.997,6.345 c -0.312,0.348 -0.409,0.468 -0.661,0.779 0.049,-0.588 0.061,-0.756 0.061,-1.463 V -8.468 H -1.235 V 0 Z" style="fill:#231f20;fill-opacity:1;fill-rule:nonzero;stroke:none" id="path44"/>
  </g>
  <g id="g46" transform="matrix(1.333333, 0, 0, -1.333333, 106.19812, 201.9077)">
    <path d="m 0,0 c -0.156,-0.144 -0.288,-0.275 -0.468,-0.42 -0.611,-0.468 -1.787,-0.935 -3.226,-0.935 -2.926,0 -4.845,2.027 -4.845,4.45 0,1.186 0.491,2.062 0.731,2.422 0.791,1.151 2.351,2.003 4.318,2.003 1.955,0 3.19,-0.803 3.67,-1.211 C 0.647,5.913 0.827,5.577 1.008,5.277 L -0.18,4.917 c -0.156,0.229 -0.276,0.408 -0.54,0.636 -0.719,0.624 -1.703,0.924 -2.675,0.924 -2.086,0 -3.861,-1.176 -3.861,-3.311 0,-0.875 0.323,-1.583 0.575,-1.967 0.924,-1.427 2.7,-1.547 3.251,-1.547 0.803,0 1.991,0.252 2.794,1.116 0.528,0.576 0.6,1.043 0.672,1.535 h -3.73 v 1.008 h 4.738 v -4.474 l -1.044,0 z" style="fill:#231f20;fill-opacity:1;fill-rule:nonzero;stroke:none" id="path48"/>
  </g>
</svg>