<svg xmlns="http://www.w3.org/2000/svg" viewBox="0 0 1000 863.926">
  <defs>
    <style>
      .cls-1 {
        fill: #353e44;
      }
    </style>
  </defs>
  <g id="Layer_2" data-name="Layer 2">
    <g id="Layer_1-2" data-name="Layer 1">
      <g>
        <path class="cls-1" d="M997.148,157.534l-.463-2.664h-167.6v70.787h94.75a119.582,119.582,0,1,1-26.665-116.7l3.523,3.783,1.841-4.833a231.714,231.714,0,0,1,31.741-57.335l1.821-2.407-2.286-1.97A190.087,190.087,0,0,0,809.737,0C716.919,0,639.425,66.815,622.791,154.87H519.344v70.787h94.75a119.464,119.464,0,0,1-233.567-35.272c0-.042,0-.083,0-.125s0-.1,0-.144a119.393,119.393,0,0,1,206.9-81.157l3.523,3.783,1.841-4.833a231.714,231.714,0,0,1,31.741-57.335l1.821-2.407-2.286-1.97a189.929,189.929,0,0,0-278.9,33.615l-.035-.05-2.494,3.675c-.525.771-1.039,1.55-1.553,2.329-.258.391-.518.781-.773,1.174q-.669,1.03-1.323,2.071-.44.7-.872,1.4c-.412.665-.823,1.331-1.227,2-.333.553-.658,1.11-.985,1.665q-.813,1.382-1.6,2.775c-.429.759-.858,1.518-1.276,2.281-.29.53-.574,1.062-.859,1.595q-.578,1.077-1.141,2.16-.39.75-.774,1.5-.671,1.319-1.317,2.647c-.168.344-.341.687-.507,1.032q-.9,1.862-1.748,3.739c-.134.294-.263.59-.395.885q-.681,1.518-1.335,3.047-.231.542-.459,1.083-.676,1.61-1.321,3.228c-.094.236-.191.469-.283.7q-.8,2.026-1.551,4.07c-.048.133-.094.266-.143.4q-.661,1.814-1.284,3.639-.163.479-.324.957-.572,1.7-1.112,3.418c-.075.24-.153.479-.228.72q-.648,2.088-1.25,4.191c-.04.14-.076.281-.116.421q-.522,1.845-1,3.7c-.095.362-.187.725-.28,1.089q-.425,1.669-.819,3.347c-.07.3-.144.6-.213.9q-.48,2.088-.914,4.189c-.053.255-.1.512-.152.768q-.346,1.716-.661,3.44-.118.648-.232,1.3-.285,1.629-.542,3.264c-.054.343-.112.685-.164,1.028q-.317,2.088-.587,4.186c-.047.359-.087.719-.131,1.079q-.2,1.623-.373,3.252-.074.687-.141,1.375-.173,1.752-.313,3.509c-.022.273-.048.545-.068.819q-.162,2.137-.273,4.282c-.021.4-.036.791-.055,1.187q-.076,1.656-.126,3.316c-.013.424-.026.847-.036,1.272-.033,1.456-.055,2.915-.055,4.375v.277a119.681,119.681,0,1,1-32.046-81.562l3.523,3.783,1.84-4.833A231.75,231.75,0,0,1,314.8,50.574l1.819-2.407-2.284-1.97A190.086,190.086,0,0,0,190.263,0C85.352,0,0,85.352,0,190.26S85.352,380.523,190.263,380.523a190.158,190.158,0,0,0,154.869-79.858,190.271,190.271,0,0,0,309.829.123A190.194,190.194,0,0,0,997.148,157.534Z"/>
        <path class="cls-1" d="M212.444,566.987l8.928-22.078h48.053l8.928,22.078h33.439L261.469,453.355H229.814L179.653,566.987ZM245.4,484.845l14.611,36.365H230.789Z"/>
        <path class="cls-1" d="M415.269,516.905q5.759-9.169,5.761-21.509,0-12.822-6.166-22.319a39.72,39.72,0,0,0-17.532-14.611q-11.367-5.111-26.787-5.111H318.6V566.987h32.143V536.793h17.532l20.615,30.194H423.3l-24.511-35.712A39.012,39.012,0,0,0,415.269,516.905Zm-31.736-9.25q-5.033,4.3-14.934,4.3H350.743V478.679H368.6q9.9,0,14.934,4.379t5.033,12.338Q388.566,503.357,383.533,507.655Z"/>
        <path class="cls-1" d="M543.027,540.2q7.95-12.821,7.953-30.031t-7.953-30.032a52.615,52.615,0,0,0-22.4-19.805q-14.449-6.975-33.115-6.977H433.777V566.987H487.51q18.664,0,33.115-6.981A52.591,52.591,0,0,0,543.027,540.2Zm-33.36-7.143q-8.849,8.277-23.456,8.282H465.92V479h20.291q14.607,0,23.456,8.277t8.847,22.889Q518.514,524.779,509.667,533.057Z"/>
        <path class="cls-1" d="M676.746,566.987,626.423,453.355H594.768l-50.16,113.632H577.4l8.928-22.078h48.053l8.928,22.078Zm-81-45.777,14.608-36.365,14.611,36.365Z"/>
        <polygon class="cls-1" points="763.391 513.905 713.231 453.355 686.771 453.355 686.771 566.987 718.263 566.987 718.263 506.437 768.424 566.987 794.884 566.987 794.884 453.355 763.391 453.355 763.391 513.905"/>
        <path class="cls-1" d="M900.945,458.712q-14.365-7.63-32.384-7.63t-32.386,7.63a58.1,58.1,0,0,0,0,102.919q14.364,7.629,32.386,7.629t32.384-7.629a58.1,58.1,0,0,0,0-102.919Zm-5.762,68.419a29.142,29.142,0,0,1-11.039,11.444,31.932,31.932,0,0,1-31.168,0,29.115,29.115,0,0,1-11.039-11.444,37.481,37.481,0,0,1,0-33.925,29.181,29.181,0,0,1,11.039-11.444,31.939,31.939,0,0,1,31.168,0,29.208,29.208,0,0,1,11.039,11.444,37.481,37.481,0,0,1,0,33.925Z"/>
        <path class="cls-1" d="M115.939,481.764a33.066,33.066,0,0,1,16.478-4.058q15.739,0,26.782,13.31l20.454-18.506a54.053,54.053,0,0,0-20.78-15.908,68.843,68.843,0,0,0-28.081-5.52q-17.854,0-32.063,7.55a56.428,56.428,0,0,0-22.317,21.02,61.413,61.413,0,0,0,0,61.038,56.432,56.432,0,0,0,22.317,21.022q14.2,7.547,32.063,7.548a68.81,68.81,0,0,0,28.081-5.52,54,54,0,0,0,20.78-15.908L159.2,529.326q-11.044,13.314-26.782,13.312a33.055,33.055,0,0,1-16.478-4.057,28.142,28.142,0,0,1-11.2-11.445,38.175,38.175,0,0,1,0-33.927A28.16,28.16,0,0,1,115.939,481.764Z"/>
        <path class="cls-1" d="M266.644,808.892q0,27.27-21.428,27.273-21.593,0-21.59-27.273V746.884H191.483v62.985q0,25.318,14.041,39.12t39.368,13.8q25.322,0,39.365-13.8t14.041-39.12V746.884H266.644Z"/>
        <rect class="cls-1" x="311.45" y="746.884" width="32.143" height="113.633"/>
        <polygon class="cls-1" points="390.552 746.884 358.409 746.884 358.409 860.516 444.771 860.516 444.771 835.031 390.552 835.031 390.552 746.884"/>
        <path class="cls-1" d="M544.771,753.861q-14.448-6.975-33.115-6.977H457.923V860.516h53.733q18.666,0,33.115-6.981a52.586,52.586,0,0,0,22.4-19.8q7.95-12.822,7.954-30.032t-7.954-30.032A52.612,52.612,0,0,0,544.771,753.861Zm-10.958,72.725q-8.847,8.279-23.455,8.283H490.066V772.532h20.292q14.607,0,23.455,8.277T542.66,803.7Q542.66,818.308,533.813,826.586Z"/>
        <path class="cls-1" d="M133.227,772.372q16.071,0,27.6,12.66l20.454-18.506a55.1,55.1,0,0,0-21.1-15.421,72.719,72.719,0,0,0-28.571-5.357q-18.19,0-32.63,7.55a56,56,0,0,0-22.564,21.02,61.413,61.413,0,0,0,0,61.038,56.277,56.277,0,0,0,22.4,21.022,67.726,67.726,0,0,0,32.142,7.548,89.07,89.07,0,0,0,25.32-3.734,73.971,73.971,0,0,0,22.405-10.714V802.4H150.269V833.57A41.032,41.032,0,0,1,132.9,837.3a33.293,33.293,0,0,1-16.716-4.139,29.089,29.089,0,0,1-11.365-11.527,34.269,34.269,0,0,1-4.06-16.8q0-14.77,8.926-23.619T133.227,772.372Z"/>
        <path class="cls-1" d="M228.546,692.242H276.6l8.928,22.078h33.439L268.642,600.688H236.988L186.827,714.32h32.791Zm24.025-60.064,14.611,36.365h-29.22Z"/>
        <polygon class="cls-1" points="355.45 600.688 328.99 600.688 328.99 714.32 358.698 714.32 358.698 655.714 387.755 703.116 402.039 703.116 431.258 654.094 431.585 714.32 461.128 714.32 460.804 600.688 434.344 600.688 395.384 666.27 355.45 600.688"/>
        <rect class="cls-1" x="474.735" y="600.688" width="32.143" height="113.632"/>
        <polygon class="cls-1" points="597.264 661.238 547.103 600.688 520.643 600.688 520.643 714.32 552.136 714.32 552.136 653.77 602.297 714.32 628.757 714.32 628.757 600.688 597.264 600.688 597.264 661.238"/>
        <path class="cls-1" d="M704.285,625.035q16.07,0,27.6,12.661l20.453-18.5a55.056,55.056,0,0,0-21.1-15.421,72.622,72.622,0,0,0-28.568-5.356q-18.183,0-32.629,7.546a56.044,56.044,0,0,0-22.565,21.023,61.427,61.427,0,0,0,0,61.035,56.284,56.284,0,0,0,22.4,21.023,67.717,67.717,0,0,0,32.14,7.551,89.146,89.146,0,0,0,25.324-3.736,74.044,74.044,0,0,0,22.4-10.713V655.066H721.331v31.171a41.07,41.07,0,0,1-17.37,3.731,33.328,33.328,0,0,1-16.722-4.138A29.094,29.094,0,0,1,675.876,674.3a34.291,34.291,0,0,1-4.058-16.8q0-14.766,8.928-23.62T704.285,625.035Z"/>
        <path class="cls-1" d="M160.177,603.772a72.719,72.719,0,0,0-28.571-5.357q-18.19,0-32.63,7.55a56,56,0,0,0-22.564,21.02,61.413,61.413,0,0,0,0,61.038,56.277,56.277,0,0,0,22.4,21.022,67.726,67.726,0,0,0,32.142,7.548,89.07,89.07,0,0,0,25.32-3.734,73.971,73.971,0,0,0,22.405-10.714V655.069H150.269v31.168a41.032,41.032,0,0,1-17.368,3.734,33.293,33.293,0,0,1-16.716-4.139,29.093,29.093,0,0,1-11.365-11.526,34.272,34.272,0,0,1-4.06-16.8q0-14.769,8.926-23.618t23.541-8.847q16.071,0,27.6,12.66l20.454-18.506A55.1,55.1,0,0,0,160.177,603.772Z"/>
      </g>
    </g>
  </g>
</svg>
