<svg width="2729" height="1664" viewBox="0 0 2729 1664" fill="none" xmlns="http://www.w3.org/2000/svg">
<path d="M168.871 1446.35L57.9274 1354.29H0L0.000202576 1663.19H93.7944V1511.89L168.871 1563.76L244.479 1511.89V1663.19H338.273L338.273 1354.29H280.248L168.871 1446.35Z" fill="url(#paint0_linear_40147_20578)"/>
<path d="M834.306 1436.43V1663.19H928.631V1436.43H1050.6V1354.29H712.332V1436.43H834.306Z" fill="url(#paint1_linear_40147_20578)"/>
<path d="M2431.68 1663.19V1353.08L2337.59 1352.63V1663.19H2431.68Z" fill="url(#paint2_linear_40147_20578)"/>
<path d="M667.24 1435.22V1353.08H436.878L385.257 1401.07V1661.98H667.24V1573.81H479.051V1435.22H667.24Z" fill="url(#paint3_linear_40147_20578)"/>
<path d="M1257.07 1662.93H1336.77L1213.28 1353.23L1127.27 1353.23L998.501 1662.93H1092.3L1167.37 1472.01L1257.07 1662.93Z" fill="url(#paint4_linear_40147_20578)"/>
<path fill-rule="evenodd" clip-rule="evenodd" d="M2507.56 1353.08H2729V1432.93H2560.84V1459.5L2729 1490.49V1627.76L2693.6 1663.19H2472.33V1592.34L2640.49 1583.48V1556.91L2472.33 1534.77V1388.65L2507.56 1353.08Z" fill="url(#paint5_linear_40147_20578)"/>
<path fill-rule="evenodd" clip-rule="evenodd" d="M2075.8 1352.78H2297.07V1432.48H2128.91V1459.5L2297.07 1490.49V1627.76L2261.67 1663.19H2040.4V1592.34L2208.56 1583.48V1556.91L2040.4 1534.77V1388.2L2075.8 1352.78Z" fill="url(#paint6_linear_40147_20578)"/>
<path fill-rule="evenodd" clip-rule="evenodd" d="M1612.18 1353.23H1361.31L1361.24 1377.49V1619.58L1409.59 1664H1625.66L1660.52 1628.58V1402.14L1612.18 1353.23ZM1567.1 1437.29H1454.82V1575.89H1567.1V1437.29Z" fill="url(#paint7_linear_40147_20578)"/>
<path d="M561.405 1448.99L583.614 1485L619.568 1507.25L583.614 1529.49L561.405 1565.51L539.196 1529.49L503.242 1507.25L539.196 1485L561.405 1448.99Z" fill="url(#paint8_linear_40147_20578)"/>
<path d="M1218 1632.08L1203.18 1606.45H1074.49V1662.93H1218L1218 1632.08Z" fill="url(#paint9_linear_40147_20578)"/>
<path d="M1935.79 1662.93H2015.5L1892 1353.23L1805.99 1353.23L1677.22 1662.93H1771.02L1846.09 1472.01L1935.79 1662.93Z" fill="url(#paint10_linear_40147_20578)"/>
<path d="M1896.72 1632.08L1881.9 1606.45H1753.21V1662.93H1896.72V1632.08Z" fill="url(#paint11_linear_40147_20578)"/>
<path d="M789.828 137.398L1104.62 0V188.493L1023 234.292V645.636C937.75 678.146 873.188 715.236 789.828 774.763V137.398Z" fill="url(#paint12_linear_40147_20578)"/>
<path d="M1938.24 140.287L1623.45 2.88803V191.381L1705.06 237.18V645.636C1788.5 677.231 1865.88 722.104 1938.24 774.763V140.287Z" fill="url(#paint13_linear_40147_20578)"/>
<path d="M1364.03 300.677L1248.2 208.117V591.604C1288.32 586.757 1325.5 584.277 1366.94 584.277C1406.38 584.277 1442.55 587.208 1480.8 591.604V208.117L1364.03 300.677Z" fill="url(#paint14_linear_40147_20578)"/>
<path d="M1480.8 837.953C1442.61 833.226 1406.43 832 1366.94 832C1325.45 832 1288.26 832.741 1248.2 837.953V950.983L1364.03 1086.93L1480.8 950.983V837.953Z" fill="url(#paint15_linear_40147_20578)"/>
<path d="M1364.03 767.969C1727.42 767.969 2048.49 923.913 2241.81 1198.78C2077.36 883.983 1746.01 650.574 1364.03 650.574C982.071 650.574 650.729 883.969 486.274 1198.75C679.599 923.9 1000.66 767.969 1364.03 767.969Z" fill="url(#paint16_linear_40147_20578)"/>
<defs>
<linearGradient id="paint0_linear_40147_20578" x1="0" y1="0" x2="1479.26" y2="2426.02" gradientUnits="userSpaceOnUse">
<stop stop-color="#DA0BD5"/>
<stop offset="1" stop-color="#6C49CD"/>
</linearGradient>
<linearGradient id="paint1_linear_40147_20578" x1="0" y1="0" x2="1479.26" y2="2426.02" gradientUnits="userSpaceOnUse">
<stop stop-color="#DA0BD5"/>
<stop offset="1" stop-color="#6C49CD"/>
</linearGradient>
<linearGradient id="paint2_linear_40147_20578" x1="0" y1="0" x2="1479.26" y2="2426.02" gradientUnits="userSpaceOnUse">
<stop stop-color="#DA0BD5"/>
<stop offset="1" stop-color="#6C49CD"/>
</linearGradient>
<linearGradient id="paint3_linear_40147_20578" x1="0" y1="0" x2="1479.26" y2="2426.02" gradientUnits="userSpaceOnUse">
<stop stop-color="#DA0BD5"/>
<stop offset="1" stop-color="#6C49CD"/>
</linearGradient>
<linearGradient id="paint4_linear_40147_20578" x1="0" y1="0" x2="1479.26" y2="2426.02" gradientUnits="userSpaceOnUse">
<stop stop-color="#DA0BD5"/>
<stop offset="1" stop-color="#6C49CD"/>
</linearGradient>
<linearGradient id="paint5_linear_40147_20578" x1="0" y1="0" x2="1479.26" y2="2426.02" gradientUnits="userSpaceOnUse">
<stop stop-color="#DA0BD5"/>
<stop offset="1" stop-color="#6C49CD"/>
</linearGradient>
<linearGradient id="paint6_linear_40147_20578" x1="0" y1="0" x2="1479.26" y2="2426.02" gradientUnits="userSpaceOnUse">
<stop stop-color="#DA0BD5"/>
<stop offset="1" stop-color="#6C49CD"/>
</linearGradient>
<linearGradient id="paint7_linear_40147_20578" x1="0" y1="0" x2="1479.26" y2="2426.02" gradientUnits="userSpaceOnUse">
<stop stop-color="#DA0BD5"/>
<stop offset="1" stop-color="#6C49CD"/>
</linearGradient>
<linearGradient id="paint8_linear_40147_20578" x1="0" y1="0" x2="1479.26" y2="2426.02" gradientUnits="userSpaceOnUse">
<stop stop-color="#DA0BD5"/>
<stop offset="1" stop-color="#6C49CD"/>
</linearGradient>
<linearGradient id="paint9_linear_40147_20578" x1="0" y1="0" x2="1479.26" y2="2426.02" gradientUnits="userSpaceOnUse">
<stop stop-color="#DA0BD5"/>
<stop offset="1" stop-color="#6C49CD"/>
</linearGradient>
<linearGradient id="paint10_linear_40147_20578" x1="0" y1="0" x2="1479.26" y2="2426.02" gradientUnits="userSpaceOnUse">
<stop stop-color="#DA0BD5"/>
<stop offset="1" stop-color="#6C49CD"/>
</linearGradient>
<linearGradient id="paint11_linear_40147_20578" x1="0" y1="0" x2="1479.26" y2="2426.02" gradientUnits="userSpaceOnUse">
<stop stop-color="#DA0BD5"/>
<stop offset="1" stop-color="#6C49CD"/>
</linearGradient>
<linearGradient id="paint12_linear_40147_20578" x1="0" y1="0" x2="1479.26" y2="2426.02" gradientUnits="userSpaceOnUse">
<stop stop-color="#DA0BD5"/>
<stop offset="1" stop-color="#6C49CD"/>
</linearGradient>
<linearGradient id="paint13_linear_40147_20578" x1="0" y1="0" x2="1479.26" y2="2426.02" gradientUnits="userSpaceOnUse">
<stop stop-color="#DA0BD5"/>
<stop offset="1" stop-color="#6C49CD"/>
</linearGradient>
<linearGradient id="paint14_linear_40147_20578" x1="0" y1="0" x2="1479.26" y2="2426.02" gradientUnits="userSpaceOnUse">
<stop stop-color="#DA0BD5"/>
<stop offset="1" stop-color="#6C49CD"/>
</linearGradient>
<linearGradient id="paint15_linear_40147_20578" x1="0" y1="0" x2="1479.26" y2="2426.02" gradientUnits="userSpaceOnUse">
<stop stop-color="#DA0BD5"/>
<stop offset="1" stop-color="#6C49CD"/>
</linearGradient>
<linearGradient id="paint16_linear_40147_20578" x1="0" y1="0" x2="1479.26" y2="2426.02" gradientUnits="userSpaceOnUse">
<stop stop-color="#DA0BD5"/>
<stop offset="1" stop-color="#6C49CD"/>
</linearGradient>
</defs>
</svg>
