<svg width="305" height="355" xmlns="http://www.w3.org/2000/svg" preserveAspectRatio="xMidYMid meet" version="1.0">
 <defs>
  <linearGradient y2="0" x2="1" y1="0" x1="0" id="svg_18">
   <stop offset="0" stop-opacity="0.98828" stop-color="#277e6d"/>
   <stop offset="0.17188" stop-opacity="0.98438" stop-color="#247578"/>
   <stop offset="0.375" stop-opacity="0.98828" stop-color="#1c55a6"/>
   <stop offset="0.84766" stop-opacity="0.98828" stop-color="#1626ed"/>
   <stop offset="1" stop-opacity="0.97266" stop-color="#132bff"/>
  </linearGradient>
 </defs>
 <g>
  <title>Layer 1</title>
  <g id="svg_1" fill="#000000" transform="translate(0, 400) scale(0.1, -0.1)">
   <path fill="url(#svg_18)" id="svg_2" d="m390,3962c-169,-56 -285,-173 -351,-353c-32,-87 -35,-118 -18,-170c39,-116 164,-170 275,-120c50,23 86,68 109,139c30,92 94,143 161,126c17,-4 92,-69 191,-165c141,-137 173,-163 246,-199c110,-54 194,-68 322,-52c209,26 336,116 380,267c25,85 94,130 160,105c16,-6 94,-75 174,-154c204,-200 295,-253 456,-263c276,-18 506,133 506,331c0,134 -115,226 -243,196c-48,-12 -108,-58 -133,-103c-7,-14 -26,-20 -70,-24c-55,-4 -64,-2 -105,26c-25,16 -97,83 -160,148c-185,189 -293,246 -465,246c-203,-1 -374,-109 -462,-293c-40,-82 -50,-90 -117,-90c-58,0 -107,34 -238,168c-189,194 -282,244 -458,249c-81,2 -118,-1 -160,-15z"/>
   <path fill="url(#svg_18)" id="svg_3" d="m410,3092c-94,-27 -166,-68 -235,-137c-98,-98 -178,-279 -161,-367c18,-96 120,-176 211,-166c73,9 129,49 160,115c56,123 69,145 96,159c71,36 109,15 282,-159c136,-138 206,-188 311,-225c65,-23 81,-24 201,-19c139,5 205,22 281,70c59,37 119,107 139,163c9,27 22,62 28,78c13,34 61,66 102,66c43,0 71,-22 219,-168c206,-203 303,-254 486,-254c274,0 472,138 472,330c0,65 -16,103 -59,143c-93,87 -215,77 -298,-25c-37,-45 -38,-46 -97,-46c-33,0 -69,5 -81,11c-12,7 -85,73 -162,149c-216,212 -297,254 -480,254c-91,0 -121,-5 -170,-24c-132,-51 -234,-144 -298,-273c-35,-72 -37,-74 -79,-80c-80,-11 -94,-2 -248,148c-212,208 -309,264 -470,271c-62,3 -103,-1 -150,-14z"/>
   <path fill="url(#svg_18)" id="svg_4" d="m401,2214c-83,-22 -150,-63 -222,-134c-73,-73 -117,-144 -148,-239c-27,-82 -26,-126 1,-181c45,-87 129,-125 233,-106c55,11 118,78 140,150c11,34 32,73 50,92c28,29 39,34 78,34c55,0 95,-29 237,-175c115,-118 182,-169 275,-209c66,-29 77,-31 200,-31c105,0 143,4 200,22c132,42 229,131 261,241c23,77 59,112 116,112c57,0 79,-17 239,-178c183,-185 294,-242 470,-242c211,0 372,78 439,213c80,164 1,317 -165,317c-71,0 -126,-27 -161,-79c-14,-22 -35,-42 -47,-45c-34,-9 -93,-7 -122,4c-14,5 -96,78 -183,162c-210,205 -292,248 -467,248c-137,0 -257,-47 -350,-138c-51,-50 -113,-139 -135,-194c-8,-18 -19,-36 -24,-40c-21,-15 -116,-8 -144,9c-15,9 -94,83 -177,163c-156,151 -215,192 -324,224c-67,20 -197,20 -270,0z"/>
  </g>
  <path id="svg_5" stroke-width=" 0px" stroke=" rgb(0, 0, 0)" d="m 45.145 279.7 l 0 42.297 l 26.151 0 l 0 8.003 l -35.051 0 l 0 -50.3 l 8.9 0 z m 43.703 11.73 l 0 38.57 l -8.624 0 l 0 -38.57 l 8.624 0 z m -4.312 -5.038 c -1.469 0 -2.886 -0.589 -3.905 -1.525 c -0.964 -0.993 -1.58 -2.363 -1.58 -3.753 c 0 -1.388 0.949 -3.114 1.57 -3.777 C 81.64 276.375 83.063 275.767 84.536 275.767 c 1.464 0 2.877 0.571 3.896 1.482 C 89.399 278.221 90.021 279.584 90.021 280.976 C 90.021 282.406 89.412 283.807 88.452 284.823 C 87.432 285.785 86.009 286.392 84.536 286.392 z m 54.159 56.994 l -8.624 0 l 0 -17.367 c -1.234 1.135 -1.848 1.71 -4.135 2.784 c -2.292 1.048 -4.905 1.611 -7.63 1.611 c -3.662 0 -7.088 -0.844 -10.009 -2.473 c -2.925 -1.63 -5.305 -4.035 -6.975 -6.973 c -1.637 -2.955 -2.508 -6.455 -2.508 -10.253 c 0 -3.799 0.873 -7.288 2.51 -10.221 c 1.67 -2.915 4.049 -5.307 6.973 -6.936 c 2.921 -1.629 6.347 -2.473 10.009 -2.473 c 2.816 0 5.509 0.574 7.869 1.644 c 2.363 1.103 2.946 1.683 4.172 2.854 l 0 -4.153 l 8.348 0 l 0 51.956 z m -19.837 -20.768 c 2.175 0 4.019 -0.458 5.782 -1.489 c 1.775 -0.995 3.056 -2.317 4.034 -4.162 c 1.011 -1.832 1.466 -3.837 1.466 -6.252 c 0 -2.412 -0.463 -4.399 -1.495 -6.205 c -1.002 -1.826 -2.288 -3.144 -4.045 -4.142 c -1.737 -1.03 -3.568 -1.487 -5.742 -1.487 c -2.224 0 -4.082 0.449 -5.82 1.457 c -1.752 0.972 -3.033 2.286 -4.035 4.134 c -1.032 1.83 -1.496 3.83 -1.496 6.243 c 0 2.413 0.464 4.414 1.496 6.244 c 1.003 1.849 2.288 3.176 4.043 4.173 c 1.737 1.029 3.59 1.486 5.812 1.486 z m 62.723 7.382 l -8.279 0 l 0 -3.871 c -1.12 1.056 -1.56 1.534 -3.85 2.637 c -2.293 1.071 -4.888 1.648 -7.57 1.648 c -5.041 0 -9.228 -1.513 -12.215 -4.314 c -2.931 -2.886 -4.488 -7.214 -4.517 -12.625 l 0 -22.045 l 8.624 0 l 0 21.286 c -0.023 3.391 0.692 5.728 2.283 7.355 c 1.511 1.69 3.585 2.409 6.584 2.409 c 3.317 0 5.681 -0.904 7.557 -2.865 c 1.878 -1.963 2.785 -4.575 2.759 -8.279 l 0 -19.906 l 8.624 0 l 0 38.57 z m 15.838 -38.57 l 0 38.57 l -8.624 0 l 0 -38.57 l 8.624 0 z m -4.312 -5.038 c -1.469 0 -2.886 -0.589 -3.905 -1.525 c -0.964 -0.993 -1.58 -2.363 -1.58 -3.753 c 0 -1.388 0.61 -2.765 1.57 -3.777 c 1.019 -0.962 2.442 -1.57 3.915 -1.57 c 1.464 0 2.877 0.571 3.896 1.482 c 0.967 0.972 1.589 2.335 1.589 3.727 c 0 1.43 -0.609 2.831 -1.569 3.847 c -1.02 0.962 -2.443 1.569 -3.916 1.569 z m 32.045 -2.553 c -1.808 0 -2.884 0.383 -3.716 1.283 c -0.842 0.911 -1.24 2.142 -1.218 4.134 l 0 2.174 l 10.626 0 l 0 7.451 l -10.488 0 l 0 31.119 l -8.624 0 l 0 -31.119 l -6.21 0 l 0 -7.451 l 6.21 0 l 0 -2.243 c 0.031 -3.807 1.203 -7.068 3.467 -9.332 c 2.267 -2.268 5.622 -3.467 9.608 -3.467 c 1.538 0 3.057 0.203 4.415 0.59 c 1.368 0.392 2.633 1.008 3.637 1.749 l 0.614 0.453 l -2.778 6.994 l -1.041 -0.813 c -1.376 -1.075 -2.776 -1.522 -4.502 -1.522 z m 32.936 49.215 c -1.614 3.813 -3.607 6.642 -5.817 8.279 c -2.242 1.592 -5.054 2.467 -8.142 2.467 c -1.876 0 -3.774 -0.321 -5.534 -0.917 c -1.775 -0.62 -3.358 -1.578 -4.557 -2.757 l -0.543 -0.533 l 3.852 -6.763 l 0.916 0.896 c 1.731 1.694 3.572 2.416 5.866 2.416 c 1.459 0 2.496 -0.296 3.418 -1.063 c 0.975 -0.736 1.813 -2.026 2.642 -4.012 l 0.985 -2.144 l -16.585 -37.493 l 9.091 0 l 12.105 27.744 l 11.974 -27.744 l 8.678 0 l -18.349 41.624 z"/>
 </g>
</svg>