<?xml version="1.0" encoding="UTF-8"?>
<svg xmlns="http://www.w3.org/2000/svg" xmlns:xlink="http://www.w3.org/1999/xlink" version="1.1" id="Layer_1" x="0px" y="0px" viewBox="0 0 2500 797.9" style="enable-background:new 0 0 2500 797.9;" xml:space="preserve">
<style type="text/css">
	.st0{fill:url(#SVGID_1_);}
	.st1{opacity:0.9;fill:url(#SVGID_00000145751594447547036740000002447335838932614043_);enable-background:new    ;}
	.st2{opacity:0.8;fill:#FFFFFF;enable-background:new    ;}
	.st3{opacity:0.5;fill:url(#SVGID_00000080917721473610377620000000578701724768738699_);enable-background:new    ;}
	.st4{opacity:0.6;fill:url(#SVGID_00000129922444078376697770000009194718681568872330_);enable-background:new    ;}
	.st5{opacity:0.9;fill:url(#SVGID_00000111180976236732145560000000310165652870213787_);enable-background:new    ;}
	.st6{opacity:0.4;fill:url(#SVGID_00000182517332830628242290000009819143779654675365_);enable-background:new    ;}
	.st7{opacity:0.5;fill:url(#SVGID_00000141427278038434151750000007086938021315100044_);enable-background:new    ;}
	.st8{opacity:0.9;fill:url(#SVGID_00000105420651725437718190000013509685225190150046_);enable-background:new    ;}
	.st9{opacity:0.3;fill:url(#SVGID_00000106124089191082904590000005669032281161846949_);enable-background:new    ;}
	.st10{opacity:0.4;fill:url(#SVGID_00000013158510985998828450000002562498406869627779_);enable-background:new    ;}
	.st11{opacity:0.4;fill:url(#SVGID_00000173867560785958398300000011233558771434348198_);enable-background:new    ;}
	.st12{opacity:0.4;fill:url(#SVGID_00000060722933285372628050000010394073710103464576_);enable-background:new    ;}
	.st13{opacity:0.4;fill:url(#SVGID_00000007388162046828260110000001469921159728557441_);enable-background:new    ;}
	.st14{opacity:0.5;fill:url(#SVGID_00000003809637251312430410000017263124887356988820_);enable-background:new    ;}
	.st15{opacity:0.5;fill:url(#SVGID_00000008139367296461034530000003945196933878525061_);enable-background:new    ;}
	.st16{opacity:0.5;fill:url(#SVGID_00000106133682236401219380000011412191276324635056_);enable-background:new    ;}
	.st17{opacity:0.6;fill:url(#SVGID_00000023966090904834287860000015174565853767783570_);enable-background:new    ;}
	.st18{opacity:0.5;fill:url(#SVGID_00000085966999053467840130000012062549069042356624_);enable-background:new    ;}
	.st19{opacity:0.6;fill:url(#SVGID_00000018227525835114474650000006475779566769821855_);enable-background:new    ;}
	.st20{opacity:0.3;fill:url(#SVGID_00000039854925539552294830000005595602268461139348_);enable-background:new    ;}
	.st21{opacity:0.3;fill:url(#SVGID_00000117678158661743302950000018027268966215632028_);enable-background:new    ;}
	.st22{opacity:0.3;fill:url(#SVGID_00000062152381694330302790000016533301804915895433_);enable-background:new    ;}
	.st23{opacity:0.3;fill:url(#SVGID_00000023244546033560986400000015832703752723677337_);enable-background:new    ;}
	.st24{opacity:0.3;fill:url(#SVGID_00000070796825085465927470000014514652650836640915_);enable-background:new    ;}
	.st25{opacity:0.3;fill:url(#SVGID_00000115486040349489662480000002879761438238769573_);enable-background:new    ;}
	.st26{fill:url(#SVGID_00000000207104483107009250000012470488739711106960_);}
	.st27{fill:url(#SVGID_00000006675012180093840990000003471817274672370842_);}
</style>
<g>
	
		<linearGradient id="SVGID_1_" gradientUnits="userSpaceOnUse" x1="126.7447" y1="2371.7166" x2="636.1031" y2="1862.2915" gradientTransform="matrix(1 0 0 1 0 -1700.1277)">
		<stop offset="0" style="stop-color:#E6007A"></stop>
		<stop offset="0.21" style="stop-color:#703AC2"></stop>
		<stop offset="0.46" style="stop-color:#0070EB"></stop>
		<stop offset="0.77" style="stop-color:#0297FB"></stop>
		<stop offset="1" style="stop-color:#0AE2FF"></stop>
	</linearGradient>
	<path class="st0" d="M797.9,371.8C782.9,151.7,592.3-14.6,372.2,0.4c-109.6,7.5-205.9,58.5-273.1,135l-0.2-0.1   c-0.5,0.6-0.9,1.2-1.3,1.8c-66.7,77-104.3,179.3-96.8,289c0.7,10.5,1.9,20.7,3.4,30.9c0,0.5,0.1,0.9,0.2,1.4c1,6.7,2.2,13.4,3.5,20   c1.2,6.1,2.6,12.1,4.1,18.1c46.2,184,218.5,314.3,414.5,301C646.6,782.5,812.9,592,797.9,371.8   C797.9,371.7,797.9,371.8,797.9,371.8z M710.9,377.8c1.9,27.1,0.1,53.6-4.7,79.2c0-0.1-0.1-0.3-0.1-0.4   c-29-70.8-86.3-121.9-136.6-150.1C579.7,186.6,539,136,492.9,127.8c-36.2-6.8-71,17-77.8,53.2c-0.2,1.3-0.4,2.6-0.6,3.9   c-4.7,36.5,21.1,69.9,57.6,74.6h0.1c3.2,0.4,6.4,0.5,9.4,0.5c0.2,4.3,0.3,8.6,0.3,12.9c-42.6-10.5-82.4-12.7-118.7-9.4   c-13.7,0.9-27.2,2.6-40.7,5.1c4.5-40.5,19.8-86,49.2-119.2c28.5-32.2,70.9-50.6,117.1-45.9c8.8,0.9,18.1,3.1,26.5,5.9   c0.4,0.1,0.8,0.3,1.2,0.3C623.7,153.3,702.5,254.9,710.9,377.8C710.8,377.8,710.9,377.8,710.9,377.8z M432.4,438.8   c0,0,0,0.1-0.1,0.1c-10.1,14.5-21.5,28-34.2,40.4c-19.1-20.2-35.3-43-48.1-67.8c-0.6-1.3-1.3-2.5-1.9-3.8v-0.1   c-7.5-16-13.5-32.7-17.9-49.8c28.4-6.7,56.2-9.2,82.8-7.9l4.2,0.2h0.1c16.7,1.4,34.1,4.4,52,9.4   C461.1,387.6,448.6,414.3,432.4,438.8C432.5,438.7,432.4,438.8,432.4,438.8z M296,104.2l-0.2,0.3C248.9,165,233.3,240.1,234,297.8   c-109,51.1-132.4,111.6-116.5,155.7c0.4,1.2,0.9,2.4,1.4,3.6c14.2,34,53.3,50,87.3,35.8s50-53.3,35.8-87.3   c-1.2-2.9-2.7-5.7-4.3-8.4c3.4-2.3,7.1-4.5,11.1-6.8c12.2,42.2,30.1,77.8,51.1,107.6c7.6,11.3,15.8,22.1,24.7,32.6   c-37.3,16.3-84.4,25.9-127.9,17c-42.1-8.6-79.2-36.1-98.3-78.5c-3.7-8.3-6.4-17-8.2-25.9c-1.1-7.6-2-15.3-2.5-23   C78,277,166.7,149.6,296,104.2z M420.5,710.5c-85,5.8-164.4-23.2-224.5-74.7c75.8,10.3,148.6-13.7,198.3-43.2   c98.8,68.8,162.9,58.9,193.1,23.1c24-28,20.8-70.1-7.2-94.1c-1-0.9-2-1.7-3.1-2.5c-29.3-22.3-71.2-16.7-93.5,12.6l0,0   c-1.9,2.5-3.6,5.3-5.1,8c-3.6-1.9-7.5-3.9-11.3-6.2c27.8-28.7,50.6-61.9,67.5-98.2c6-12.3,11.3-24.9,15.9-37.8   c32.8,24.2,64.7,60.1,78.8,102.3c13.6,40.7,8.4,86.7-18.8,124.4c-5.4,7.3-11.5,14-18.3,20l-0.3,0.3   C542.8,683.3,483,706.2,420.5,710.5C420.6,710.4,420.5,710.5,420.5,710.5z"></path>
	
		<radialGradient id="SVGID_00000001664060367670695910000006294024480406427054_" cx="42.5222" cy="174.8686" r="13.3169" gradientTransform="matrix(11.408 0 0 11.408 28.142 -1676.8679)" gradientUnits="userSpaceOnUse">
		<stop offset="0" style="stop-color:#FFFFFF"></stop>
		<stop offset="1" style="stop-color:#FFFFFF;stop-opacity:0"></stop>
	</radialGradient>
	<path style="opacity:0.9;fill:url(#SVGID_00000001664060367670695910000006294024480406427054_);enable-background:new    ;" d="   M492.9,127.6c-7.5-1.4-15.2-1.5-22.7-0.3c38.2,20.8,66.1,78.7,51.4,193c-4.8,37.2-15.8,73.3-32.3,106.9   c-14.3,30.7-32.9,59.2-55.2,84.6c10.6,8,21.7,15.2,33.2,21.8c27.8-28.7,50.7-61.9,67.5-98.2c16.6-33.6,27.5-69.7,32.3-106.9   C584.5,192.6,541.7,136.4,492.9,127.6L492.9,127.6L492.9,127.6z"></path>
	<path class="st2" d="M521.6,320.3c14.6-114.3-13.2-172.2-51.4-193c-1.5,0.2-2.9,0.5-4.4,0.9c37.4,21.5,64.3,79.4,49.9,192.1   c-4.8,37.2-15.8,73.3-32.3,106.9c-13.8,29.6-31.5,57.2-52.9,81.9c1.2,1,2.4,1.9,3.6,2.7c22.3-25.5,40.9-54,55.2-84.6   C505.8,393.6,516.8,357.5,521.6,320.3L521.6,320.3z"></path>
	
		<radialGradient id="SVGID_00000129901515283346007790000002715675913927556755_" cx="41.0734" cy="339.7297" r="13.3169" gradientTransform="matrix(6.6384 0 0 6.6384 16.0516 -1655.4167)" gradientUnits="userSpaceOnUse">
		<stop offset="0" style="stop-color:#FFFFFF"></stop>
		<stop offset="1" style="stop-color:#FFFFFF;stop-opacity:0"></stop>
	</radialGradient>
	<path style="opacity:0.5;fill:url(#SVGID_00000129901515283346007790000002715675913927556755_);enable-background:new    ;" d="   M376.3,579.5c-3.6-2.7-7-5.6-10.5-8.5c-56.4,23.5-134.6,38.3-212.2,20.2c12.6,16.2,26.9,31.1,42.5,44.5   c75.8,10.3,148.6-13.7,198.3-43.2C388.2,588.3,382.2,583.9,376.3,579.5L376.3,579.5z"></path>
	
		<linearGradient id="SVGID_00000136405268641997999640000004915726428677784506_" gradientUnits="userSpaceOnUse" x1="156.0632" y1="2285.0273" x2="241.2647" y2="2283.8555" gradientTransform="matrix(1 0 0 1 0 -1700.1277)">
		<stop offset="0" style="stop-color:#FFFFFF;stop-opacity:0"></stop>
		<stop offset="1" style="stop-color:#FFFFFF"></stop>
	</linearGradient>
	<path style="opacity:0.6;fill:url(#SVGID_00000136405268641997999640000004915726428677784506_);enable-background:new    ;" d="   M365.8,571c-1.7-1.4-3.5-2.9-5.1-4.3c-56.8,22.7-135.4,36.3-212.8,17c1.9,2.5,3.8,5.1,5.7,7.6C231.2,609.3,309.4,594.5,365.8,571   L365.8,571z"></path>
	
		<radialGradient id="SVGID_00000118387680666163968690000003140356109706171805_" cx="-162.9755" cy="-69.2094" r="13.3169" gradientTransform="matrix(-5.704 -9.8796 9.8796 -5.704 26.5679 -1664.193)" gradientUnits="userSpaceOnUse">
		<stop offset="0" style="stop-color:#FFFFFF"></stop>
		<stop offset="1" style="stop-color:#FFFFFF;stop-opacity:0"></stop>
	</radialGradient>
	<path style="opacity:0.9;fill:url(#SVGID_00000118387680666163968690000003140356109706171805_);enable-background:new    ;" d="   M117.6,453.5c0.4,1.2,0.9,2.4,1.4,3.6c2.5,6,5.8,11.4,9.8,16.3c-1.1-43.5,35.1-96.6,141.4-141.1c34.6-14.4,71.4-23,108.8-25.4   c33.7-3,67.7-1.2,100.9,5.5c1.7-14.4,2.4-27.8,2.3-39.6c-38.8-9.8-78.9-12.9-118.8-9.4c-37.4,2.5-74.2,11-108.8,25.4   C128,341.8,100.7,406.9,117.6,453.5L117.6,453.5L117.6,453.5z"></path>
	<path class="st2" d="M270.1,332.4c-106.2,44.4-142.5,97.6-141.4,141c1,1.2,2,2.3,3,3.4c-0.1-43.1,36.6-95.4,141.4-139.3   c34.6-14.4,71.4-23,108.8-25.4c32.5-2.9,65.3-1.3,97.4,4.8c0.2-1.5,0.4-3,0.5-4.5c-33.2-6.6-67.2-8.4-100.9-5.5   C341.5,309.4,304.7,317.9,270.1,332.4C270.1,332.3,270.1,332.4,270.1,332.4z"></path>
	
		<radialGradient id="SVGID_00000098941716014837159860000016028376949046645154_" cx="-312.0754" cy="-79.7154" r="13.3169" gradientTransform="matrix(-3.3192 -5.749 5.749 -3.3192 51.1841 -1664.4386)" gradientUnits="userSpaceOnUse">
		<stop offset="0" style="stop-color:#FFFFFF"></stop>
		<stop offset="1" style="stop-color:#FFFFFF;stop-opacity:0"></stop>
	</radialGradient>
	<path style="opacity:0.4;fill:url(#SVGID_00000098941716014837159860000016028376949046645154_);enable-background:new    ;" d="   M567.2,328.6c-0.5,4.5-1.3,8.9-2.1,13.3c48.5,37.1,100.4,97.4,123.7,173.7c7.7-19.1,13.5-38.9,17.3-59.1   c-28.9-70.8-86.2-121.8-136.5-150.1C569,313.6,568.2,320.9,567.2,328.6L567.2,328.6z"></path>
	
		<linearGradient id="SVGID_00000041283959776354318990000017780110906405402299_" gradientUnits="userSpaceOnUse" x1="681.981" y1="2216.7324" x2="638.3682" y2="2143.5427" gradientTransform="matrix(1 0 0 1 0 -1700.1277)">
		<stop offset="0" style="stop-color:#FFFFFF;stop-opacity:0"></stop>
		<stop offset="1" style="stop-color:#FFFFFF"></stop>
	</linearGradient>
	<path style="opacity:0.5;fill:url(#SVGID_00000041283959776354318990000017780110906405402299_);enable-background:new    ;" d="   M565.1,341.9c-0.4,2.2-0.8,4.4-1.2,6.6C612,386.4,663,447.6,685,524.3c1.3-2.9,2.5-5.9,3.7-8.8C665.5,439.3,613.7,379,565.1,341.9   L565.1,341.9z"></path>
	
		<radialGradient id="SVGID_00000016068284472764112450000001790354908580564645_" cx="150.9503" cy="-124.346" r="13.3169" gradientTransform="matrix(-5.704 9.8796 -9.8796 -5.704 37.7455 -1669.6686)" gradientUnits="userSpaceOnUse">
		<stop offset="0" style="stop-color:#FFFFFF"></stop>
		<stop offset="1" style="stop-color:#FFFFFF;stop-opacity:0"></stop>
	</radialGradient>
	<path style="opacity:0.9;fill:url(#SVGID_00000016068284472764112450000001790354908580564645_);enable-background:new    ;" d="   M587.5,615.6c4.9-5.8,8.9-12.4,11.6-19.5c-37.1,22.7-101.2,17.8-192.9-52c-29.8-22.8-55.6-50.3-76.4-81.5   c-19.5-27.7-34.9-58-45.7-90.1c-13.3,5.7-25.2,11.8-35.5,17.8c11,38.5,28.3,74.8,51.3,107.5c20.5,30.6,46.1,58.3,76.4,81.5   C485.4,662.5,555.5,653.5,587.5,615.6L587.5,615.6L587.5,615.6z"></path>
	<path class="st2" d="M406.3,544.1c91.6,69.8,155.7,74.7,192.9,51.9c0.5-1.4,1-2.9,1.4-4.2c-37.3,21.7-100.9,16-191.3-52.8   c-29.8-22.8-55.6-50.3-76.4-81.5c-18.8-26.7-33.7-55.9-44.5-86.7c-1.4,0.6-2.8,1.2-4.2,1.8c10.9,32.1,26.3,62.4,45.7,90.1   C350.4,493.3,376,521,406.3,544.1L406.3,544.1L406.3,544.1z"></path>
	
		<radialGradient id="SVGID_00000129184398695700039790000011476897921848833725_" cx="227.7598" cy="-175.8274" r="13.3169" gradientTransform="matrix(-3.3192 5.749 -5.749 -3.3192 25.7593 -1690.3243)" gradientUnits="userSpaceOnUse">
		<stop offset="0" style="stop-color:#FFFFFF"></stop>
		<stop offset="1" style="stop-color:#FFFFFF;stop-opacity:0"></stop>
	</radialGradient>
	<path style="opacity:0.3;fill:url(#SVGID_00000129184398695700039790000011476897921848833725_);enable-background:new    ;" d="   M254.4,288.7c4.2-1.7,8.3-3.3,12.6-4.9c7.8-60.6,34.1-135.7,88.6-193.9c-20.4,2.9-40.4,7.7-59.8,14.5   C248.9,164.9,233.3,240,234,297.7C240.5,294.7,247.3,291.7,254.4,288.7L254.4,288.7L254.4,288.7z"></path>
	
		<linearGradient id="SVGID_00000108278942134268895430000005479056413196495502_" gradientUnits="userSpaceOnUse" x1="359.7518" y1="1795.2994" x2="318.2164" y2="1869.7009" gradientTransform="matrix(1 0 0 1 0 -1700.1277)">
		<stop offset="0" style="stop-color:#FFFFFF;stop-opacity:0"></stop>
		<stop offset="1" style="stop-color:#FFFFFF"></stop>
	</linearGradient>
	<path style="opacity:0.4;fill:url(#SVGID_00000108278942134268895430000005479056413196495502_);enable-background:new    ;" d="   M267,283.8c2.1-0.7,4.2-1.6,6.3-2.3c8.7-60.6,36.2-135.4,91.7-192.8c-3.1,0.3-6.3,0.8-9.4,1.2C301.1,148.1,274.8,223.2,267,283.8   L267,283.8L267,283.8z"></path>
	
		<linearGradient id="SVGID_00000065771738208163441410000000425271231317766578_" gradientUnits="userSpaceOnUse" x1="378.4128" y1="1757.5261" x2="248.2267" y2="1795.3993" gradientTransform="matrix(1 0 0 1 0 -1700.1277)">
		<stop offset="0" style="stop-color:#231F20"></stop>
		<stop offset="1" style="stop-color:#FFFFFF"></stop>
	</linearGradient>
	<path style="opacity:0.4;fill:url(#SVGID_00000065771738208163441410000000425271231317766578_);enable-background:new    ;" d="   M372.2,0.4c-109.7,7.5-205.9,58.5-273.1,135l-1.5,1.7c13.1,13,55.9,38.6,73.1,49.2c34.5-37.1,77.5-65.3,125.3-82.1   c3.4-4.4,6.9-8.7,10.6-12.9c45.1-50.9,106.7-77.8,178.2-77.8c7.9,0,24.1,1.3,24.5,1.3C464.8,2.1,418.5-2.8,372.2,0.4L372.2,0.4z"></path>
	
		<linearGradient id="SVGID_00000078020049854663534160000013577619061068360600_" gradientUnits="userSpaceOnUse" x1="132.4725" y1="2253.9155" x2="241.3249" y2="2367.5354" gradientTransform="matrix(1 0 0 1 0 -1700.1277)">
		<stop offset="0" style="stop-color:#231F20"></stop>
		<stop offset="1" style="stop-color:#FFFFFF"></stop>
	</linearGradient>
	<path style="opacity:0.4;fill:url(#SVGID_00000078020049854663534160000013577619061068360600_);enable-background:new    ;" d="   M420.5,710.5c-85,5.8-164.4-23.2-224.5-74.7c-5.6-0.7-11.2-1.7-16.8-2.8c-66.7-13.6-120.8-53.5-156.5-115.4   c-3.9-6.8-7.5-13.9-10.7-21.1c46.2,184,218.5,314.3,414.4,301C427.3,777.3,421.3,730.5,420.5,710.5L420.5,710.5z"></path>
	
		<linearGradient id="SVGID_00000137128699584321698630000002238640050165838270_" gradientUnits="userSpaceOnUse" x1="716.6151" y1="2236.7986" x2="754.4883" y2="2121.6606" gradientTransform="matrix(1 0 0 1 0 -1700.1277)">
		<stop offset="0" style="stop-color:#231F20"></stop>
		<stop offset="1" style="stop-color:#FFFFFF"></stop>
	</linearGradient>
	<path style="opacity:0.4;fill:url(#SVGID_00000137128699584321698630000002238640050165838270_);enable-background:new    ;" d="   M797.9,371.8c-12.3-1.2-72.2,3.5-87,5.9c1.8,27.1,0.1,53.6-4.7,79.2c2.1,5.1,4,10.3,5.8,15.5c21.5,64.5,14,131.3-21.7,193.3   c-4,6.8-8.2,13.4-12.9,19.8c0,0,0.2-0.1,0.3-0.3C758.9,606.4,806.1,493.7,797.9,371.8C797.9,371.9,797.9,371.8,797.9,371.8z"></path>
	
		<linearGradient id="SVGID_00000109744727293038273410000008929702042996457386_" gradientUnits="userSpaceOnUse" x1="437.6872" y1="1823.4484" x2="612.1786" y2="1863.3859" gradientTransform="matrix(1 0 0 1 0 -1700.1277)">
		<stop offset="0" style="stop-color:#231F20"></stop>
		<stop offset="1" style="stop-color:#FFFFFF"></stop>
	</linearGradient>
	<path style="opacity:0.5;fill:url(#SVGID_00000109744727293038273410000008929702042996457386_);enable-background:new    ;" d="   M489,103.4c8.7,0.9,18.1,3.1,26.5,5.9c0.4,0.1,0.8,0.3,1.2,0.3c34.3,14,65.8,34,93.2,58.9c0,0,0.1,0.1,0.2,0.1   c13.1-15,38.4-31.4,38.4-31.4s-38.6-39.5-97.8-51.8c-41.4-8.6-134.7-16.9-193.6,83.3l0.5-0.5c4.4-6.6,9-13,14.2-18.9   C400.4,117,442.7,98.6,489,103.4z"></path>
	
		<linearGradient id="SVGID_00000038405876421559075240000004584243182448598656_" gradientUnits="userSpaceOnUse" x1="618.9788" y1="2270.1189" x2="497.0626" y2="2401.2903" gradientTransform="matrix(1 0 0 1 0 -1700.1277)">
		<stop offset="0" style="stop-color:#231F20"></stop>
		<stop offset="1" style="stop-color:#FFFFFF"></stop>
	</linearGradient>
	<path style="opacity:0.5;fill:url(#SVGID_00000038405876421559075240000004584243182448598656_);enable-background:new    ;" d="   M610.5,624.3c-5.4,7.3-11.5,14-18.3,20c-0.3,0.3-0.6,0.5-0.9,0.8c-29.3,22.7-62.3,40-97.6,51.2c-0.1,0-0.1,0-0.2,0.1   c6.4,18.9,8.1,49,8.1,49s53.5-13.7,93.8-58.7c28.1-31.5,82-108.2,24.7-209.3c0,0,0.1,0.3,0.2,0.7c3.6,7.1,6.8,14.3,9.2,21.7   C643,540.7,637.8,586.6,610.5,624.3C610.6,624.3,610.5,624.3,610.5,624.3z"></path>
	
		<linearGradient id="SVGID_00000178908908098890300440000004113622388143300021_" gradientUnits="userSpaceOnUse" x1="141.3753" y1="2203.7866" x2="88.7735" y2="2032.6776" gradientTransform="matrix(1 0 0 1 0 -1700.1277)">
		<stop offset="0" style="stop-color:#231F20"></stop>
		<stop offset="1" style="stop-color:#FFFFFF"></stop>
	</linearGradient>
	<path style="opacity:0.5;fill:url(#SVGID_00000178908908098890300440000004113622388143300021_);enable-background:new    ;" d="   M98.6,469.2c-3.7-8.3-6.4-17-8.2-25.9c-0.1-0.4-0.2-0.8-0.3-1.2c-5.1-36.8-3.4-74.2,4.4-110.1v-0.2c-19.6-3.8-46.4-17.5-46.4-17.5   s-14.9,53.3,4,110.6C65.4,465,104.8,550,221,550.9c0,0-0.3-0.1-0.7-0.2c-7.9-0.5-15.7-1.3-23.4-2.9   C154.7,539.1,117.6,511.6,98.6,469.2C98.5,469.2,98.6,469.2,98.6,469.2z"></path>
	
		<linearGradient id="SVGID_00000178883565598935619070000014964393220052007064_" gradientUnits="userSpaceOnUse" x1="475.8464" y1="1887.7791" x2="420.6745" y2="1943.0309" gradientTransform="matrix(1 0 0 1 0 -1700.1277)">
		<stop offset="0" style="stop-color:#231F20"></stop>
		<stop offset="1" style="stop-color:#FFFFFF"></stop>
	</linearGradient>
	<path style="opacity:0.6;fill:url(#SVGID_00000178883565598935619070000014964393220052007064_);enable-background:new    ;" d="   M472.2,259.4c3.2,0.4,6.4,0.5,9.4,0.5c0,0-2.1-41.5-7.2-62.8s-12.7-35.4-20.9-43.4c-5.9-5.7-24.6-12.9-39.1,31   c-4.7,36.5,21,69.9,57.6,74.6C472.1,259.3,472.1,259.3,472.2,259.4L472.2,259.4L472.2,259.4z"></path>
	
		<linearGradient id="SVGID_00000014614452554328056760000002193697364048394909_" gradientUnits="userSpaceOnUse" x1="178.1446" y1="2138.4636" x2="253.5449" y2="2158.7185" gradientTransform="matrix(1 0 0 1 0 -1700.1277)">
		<stop offset="0" style="stop-color:#231F20"></stop>
		<stop offset="1" style="stop-color:#FFFFFF"></stop>
	</linearGradient>
	<path style="opacity:0.5;fill:url(#SVGID_00000014614452554328056760000002193697364048394909_);enable-background:new    ;" d="   M242.1,405.7c-1.2-2.9-2.7-5.7-4.3-8.4c0,0-34.9,22.6-50.8,37.6s-24.3,28.7-27.1,39.8c-2,8,1.2,27.7,46.4,18.3   C240.3,478.8,256.3,439.7,242.1,405.7L242.1,405.7z"></path>
	
		<linearGradient id="SVGID_00000101064005992502796160000000476247461848833922_" gradientUnits="userSpaceOnUse" x1="544.0786" y1="2270.884" x2="523.8769" y2="2195.5103" gradientTransform="matrix(1 0 0 1 0 -1700.1277)">
		<stop offset="0" style="stop-color:#231F20"></stop>
		<stop offset="1" style="stop-color:#FFFFFF"></stop>
	</linearGradient>
	<path style="opacity:0.6;fill:url(#SVGID_00000101064005992502796160000000476247461848833922_);enable-background:new    ;" d="   M483.8,531.7c-1.9,2.5-3.6,5.3-5.1,8c0,0,37,18.9,58,25.2c21,6.2,37,6.8,48,3.6c7.9-2.3,23.4-14.9-7.3-49.4   C548,496.8,506.1,502.4,483.8,531.7C483.8,531.8,483.8,531.8,483.8,531.7C483.8,531.8,483.8,531.7,483.8,531.7z"></path>
	
		<linearGradient id="SVGID_00000083082784683270867660000002405155160280635549_" gradientUnits="userSpaceOnUse" x1="429.1567" y1="2203.7961" x2="462.3158" y2="2158.0659" gradientTransform="matrix(1 0 0 1 0 -1700.1277)">
		<stop offset="0" style="stop-color:#231F20"></stop>
		<stop offset="1" style="stop-color:#FFFFFF"></stop>
	</linearGradient>
	<path style="opacity:0.3;fill:url(#SVGID_00000083082784683270867660000002405155160280635549_);enable-background:new    ;" d="   M469.4,359.6c-8.4,27.9-20.2,53.3-34.6,75.6c-0.8,1.2-1.5,2.3-2.3,3.6c0,0,0,0.1-0.1,0.1c-10.1,14.5-21.5,28-34.2,40.4   c9.2,9.7,19,19.1,29.9,28.1c12.4,9.7,25.4,18.5,39.1,26.2c27.8-28.7,50.7-61.9,67.5-98.2c6-12.3,11.3-24.9,15.8-37.8   c-14.1-10.3-28.3-18.6-41.4-24.2C496.2,367.9,482.9,363.3,469.4,359.6L469.4,359.6L469.4,359.6z"></path>
	
		<linearGradient id="SVGID_00000124129599641074542960000003593405069870637756_" gradientUnits="userSpaceOnUse" x1="315.1707" y1="2184.0022" x2="248.9191" y2="2215.5898" gradientTransform="matrix(1 0 0 1 0 -1700.1277)">
		<stop offset="0" style="stop-color:#231F20"></stop>
		<stop offset="1" style="stop-color:#FFFFFF"></stop>
	</linearGradient>
	<path style="opacity:0.3;fill:url(#SVGID_00000124129599641074542960000003593405069870637756_);enable-background:new    ;" d="   M196.1,635.8c75.7,10.3,148.6-13.7,198.3-43.2c-6.1-4.3-12.1-8.6-18.1-13.1c-18.9-14.4-36.2-30.8-51.7-48.9   c-37.3,16.3-84.4,25.9-127.9,17c-42.1-8.6-79.2-36.1-98.3-78.5c-3.7-8.3-6.4-17-8.2-25.9C101.2,520.5,140.1,587.9,196.1,635.8   L196.1,635.8L196.1,635.8z"></path>
	
		<linearGradient id="SVGID_00000031187111095672155430000001967195683501260706_" gradientUnits="userSpaceOnUse" x1="291.1509" y1="2073.7253" x2="311.659" y2="2116.3262" gradientTransform="matrix(1 0 0 1 0 -1700.1277)">
		<stop offset="0" style="stop-color:#231F20"></stop>
		<stop offset="1" style="stop-color:#FFFFFF"></stop>
	</linearGradient>
	<path style="opacity:0.3;fill:url(#SVGID_00000031187111095672155430000001967195683501260706_);enable-background:new    ;" d="   M398.2,479.3c-19.1-20.2-35.3-43-48.1-67.7c-0.6-1.3-1.3-2.5-1.9-3.8v-0.1c-7.5-16-13.5-32.7-17.9-49.8c-13,3.1-26,6.9-39.2,11.8   c-14.6,5.8-28.7,12.7-42.3,20.6C261,432.5,279,468.1,300,497.9c7.6,11.3,15.8,22.1,24.8,32.6c16-7,30.3-15.2,41.7-23.8   C377.7,498.3,388.3,489.1,398.2,479.3C398.3,479.2,398.2,479.3,398.2,479.3z"></path>
	
		<linearGradient id="SVGID_00000133506708804104067810000013248451361436247970_" gradientUnits="userSpaceOnUse" x1="386.3857" y1="1942.2335" x2="372.2297" y2="1893.3472" gradientTransform="matrix(1 0 0 1 0 -1700.1277)">
		<stop offset="0" style="stop-color:#231F20"></stop>
		<stop offset="1" style="stop-color:#FFFFFF"></stop>
	</linearGradient>
	<path style="opacity:0.3;fill:url(#SVGID_00000133506708804104067810000013248451361436247970_);enable-background:new    ;" d="   M295.8,104.5C248.9,165,233.3,240.1,234,297.8c6.7-3.2,13.6-6.2,20.4-9.1c21.9-9.2,44.7-16,68.1-20.3c4.5-40.5,19.8-86,49.2-119.2   c28.5-32.2,70.9-50.6,117.1-45.9c8.7,0.9,18.1,3.1,26.5,5.9c0.4,0.1,0.8,0.3,1.2,0.3C472.7,91.6,425.3,84,378.1,87.3   c-28.7,2-56.2,7.8-82.2,17C295.8,104.3,295.8,104.4,295.8,104.5L295.8,104.5L295.8,104.5z"></path>
	
		<linearGradient id="SVGID_00000025425560371261989220000003313264515952745120_" gradientUnits="userSpaceOnUse" x1="539.505" y1="2166.1333" x2="580.5211" y2="2175.575" gradientTransform="matrix(1 0 0 1 0 -1700.1277)">
		<stop offset="0" style="stop-color:#231F20"></stop>
		<stop offset="1" style="stop-color:#FFFFFF"></stop>
	</linearGradient>
	<path style="opacity:0.3;fill:url(#SVGID_00000025425560371261989220000003313264515952745120_);enable-background:new    ;" d="   M706.1,456.4c-29-70.8-86.3-121.9-136.6-150.1c-0.6,7.2-1.4,14.6-2.4,22.3c-3.1,23.6-8.6,46.7-16.5,69.1   c32.8,24.2,64.7,60.1,78.8,102.3c13.6,40.7,8.4,86.7-18.8,124.4c-5.4,7.3-11.5,14-18.3,20l-0.3,0.3   c58.7-46.1,100.1-112.5,114.4-187.7c0-0.1-0.1-0.3-0.1-0.4L706.1,456.4L706.1,456.4z"></path>
	
		<linearGradient id="SVGID_00000009576115242238885240000018444475358471015863_" gradientUnits="userSpaceOnUse" x1="475.1736" y1="2027.4756" x2="423.1446" y2="2018.0339" gradientTransform="matrix(1 0 0 1 0 -1700.1277)">
		<stop offset="0" style="stop-color:#231F20"></stop>
		<stop offset="1" style="stop-color:#FFFFFF"></stop>
	</linearGradient>
	<path style="opacity:0.3;fill:url(#SVGID_00000009576115242238885240000018444475358471015863_);enable-background:new    ;" d="   M322.4,316.5c1.7,13.9,4.3,27.7,7.9,41.3c28.4-6.7,56.2-9.2,82.8-7.9l4.2,0.2h0.1c16.7,1.4,34.1,4.4,52,9.4   c3.8-12.8,7-26.1,9.4-39.9c2.5-17.2,3.3-33.2,3.2-47c-42.6-10.5-82.4-12.7-118.7-9.4c-13.7,0.9-27.2,2.6-40.7,5.1   C320.7,285.8,320.6,302.2,322.4,316.5L322.4,316.5z"></path>
	
		<linearGradient id="SVGID_00000100350646998241746160000007567678422552465583_" gradientUnits="userSpaceOnUse" x1="1039" y1="383.85" x2="2003.4" y2="383.85" gradientTransform="matrix(1 0 0 -1 0 800)">
		<stop offset="0" style="stop-color:#E6007A"></stop>
		<stop offset="0.21" style="stop-color:#703AC2"></stop>
		<stop offset="0.46" style="stop-color:#0070EB"></stop>
		<stop offset="0.77" style="stop-color:#0297FB"></stop>
		<stop offset="1" style="stop-color:#0AE2FF"></stop>
	</linearGradient>
	<path style="fill:url(#SVGID_00000100350646998241746160000007567678422552465583_);" d="M2003.1,296.2l-51.4,143.1h0.4l51.3-142.3   L2003.1,296.2L2003.1,296.2z M1090.4,296.2L1039,439.3h0.2l51.4-142.6C1090.6,296.6,1090.4,296.2,1090.4,296.2z M1103.3,331.9   l38.6,107.3h-77.3l-19.5,54.1h116.5l33,91.8h73.9l-134.7-337.9L1103.3,331.9z"></path>
	
		<linearGradient id="SVGID_00000039120632757746189760000013195797265065001358_" gradientUnits="userSpaceOnUse" x1="917" y1="389.2" x2="2499.8999" y2="389.2" gradientTransform="matrix(1 0 0 -1 0 800)">
		<stop offset="0" style="stop-color:#E6007A"></stop>
		<stop offset="0.21" style="stop-color:#703AC2"></stop>
		<stop offset="0.46" style="stop-color:#0070EB"></stop>
		<stop offset="0.77" style="stop-color:#0297FB"></stop>
		<stop offset="1" style="stop-color:#0AE2FF"></stop>
	</linearGradient>
	<path style="fill:url(#SVGID_00000039120632757746189760000013195797265065001358_);" d="M1039,439.3l51.4-143.1l0.2,0.5l21.7-60.2   h-56.7L917,585.2h69.6l52.6-146L1039,439.3L1039,439.3z M1492.4,405.6c-16.8-9.9-39.2-19.2-67-27.8c-15.9-5.2-28.4-10-37.4-14.4   s-15.3-9.5-18.8-15.1c-3.5-5.7-5.3-12.3-5.3-20c0-13.5,5.2-23.9,15.6-31.2c10.4-7.3,25-11,43.6-11c15.3,0,31.2,2.3,47.9,6.9   c16.7,4.6,31.4,10.9,44.3,18.8l9.6-56.4c-13.1-7.9-29.1-14.3-47.9-19.1c-18.4-4.7-37.3-7.1-56.2-7.1c-25.4,0-47.4,4.1-66,12.4   c-18.7,8.3-33.1,20-43.3,35.3c-10.3,15.3-15.4,33.4-15.4,54.1c0,17.8,3.4,33.1,10.3,46.1s18.1,24.3,33.7,33.7   c15.6,9.5,36.1,18.1,61.5,25.7c18.3,5.6,32.5,10.7,42.7,15.6c10.1,4.9,17.2,10.3,21.1,16.3c4,6,5.9,13.1,5.9,21.3   c0,14.4-5.9,25.6-17.6,33.7c-11.8,8.1-28.1,12.2-48.9,12.2c-18.1,0-36.9-2.8-56.7-8.5c-19.8-5.7-36.9-12.9-51.6-21.8l-6.4,58.2   c8.5,5.8,19.3,10.9,32.1,15.1c12.9,4.3,26.7,7.7,41.5,10.1c14.8,2.5,29.6,3.7,44.3,3.7c41.3,0,73.7-9.4,97.3-28.2   c23.5-18.8,35.3-44.9,35.3-78.2c0-17.7-3.8-33.1-11.5-46.1C1521.5,427,1509.3,415.5,1492.4,405.6L1492.4,405.6L1492.4,405.6z    M1858.5,236.5h-295v56.9h295V236.5z M1746.1,317.2h-70.2v268h70.2V317.2z M1951.7,439.3l51.4-143.1l0.3,0.8l21.8-60.5h-57   l-138.5,348.8h69.7l33-91.8h0.1l19.6-54.1L1951.7,439.3L1951.7,439.3z M2016,332.2l38.4,107.1h-77.1l-19.5,54.1h116.3l33,91.8h73.9   l-134.6-337.6L2016,332.2L2016,332.2z M2408.2,443.9c16.6-9.3,30.8-22.4,41.3-38.3c10.7-16.1,16.1-34.8,16.1-56.2   c0-23.3-5.2-43.3-15.6-60.1c-10.4-16.8-25.2-29.8-44.5-39c-19.3-9.2-42.2-13.7-68.8-13.7h-24.4v52.8h15.2   c46.5,0,69.7,19.9,69.7,59.6s-24,59.6-72.1,59.6h-12.9v52.8h35.8l73.4,123.9h78.5L2408.2,443.9L2408.2,443.9L2408.2,443.9z    M2288.5,236.5H2222v348.7h66.5V236.5z"></path>
</g>
</svg>
