<?xml version="1.0" standalone="no"?>
<!DOCTYPE svg PUBLIC "-//W3C//DTD SVG 20010904//EN"
 "http://www.w3.org/TR/2001/REC-SVG-20010904/DTD/svg10.dtd">
<svg version="1.0" xmlns="http://www.w3.org/2000/svg"
 width="539.000000pt" height="372.000000pt" viewBox="0 0 539.000000 372.000000"
 preserveAspectRatio="xMidYMid meet">

<g transform="translate(0.000000,372.000000) scale(0.100000,-0.100000)"
fill="#000000" stroke="none">
<path d="M2430 3660 c-356 -49 -698 -233 -926 -498 -171 -199 -281 -425 -336
-688 -30 -143 -32 -411 -4 -549 147 -739 782 -1245 1520 -1212 157 7 264 27
406 74 499 166 868 582 982 1106 32 148 32 446 0 594 -63 292 -198 540 -407
748 -209 210 -477 353 -767 410 -97 20 -372 28 -468 15z m431 -109 c556 -100
986 -516 1111 -1072 31 -139 33 -426 4 -559 -60 -276 -187 -511 -381 -705
-155 -156 -321 -259 -525 -328 -143 -49 -242 -67 -390 -74 -667 -29 -1253 415
-1407 1067 -33 142 -42 373 -20 515 71 443 340 821 727 1019 215 110 394 154
636 155 97 1 173 -5 245 -18z"/>
<path d="M2415 2961 c-37 -17 -85 -68 -85 -90 0 -20 -19 -21 -52 -3 -76 42
-193 60 -283 43 -188 -34 -348 -196 -385 -386 -8 -41 -10 -188 -8 -460 l3
-400 28 -54 c66 -124 175 -188 307 -179 81 6 160 43 211 99 20 22 85 129 145
239 l109 200 202 0 202 0 20 -29 c12 -16 21 -32 21 -35 0 -4 19 -39 42 -79 22
-40 51 -90 62 -112 76 -143 124 -203 195 -243 61 -34 72 -37 146 -37 66 0 90
5 136 26 71 33 125 87 158 158 l26 56 3 397 c3 442 -1 479 -61 592 -63 119
-198 219 -334 247 -77 16 -184 2 -268 -36 -68 -29 -65 -29 -65 -10 0 27 -68
91 -108 103 -22 7 -102 12 -183 12 -118 0 -151 -4 -184 -19z m354 -115 c60
-54 -3 -91 -154 -91 -111 0 -185 20 -185 50 1 52 31 63 185 61 116 -1 136 -3
154 -20z m-529 -85 c36 -18 72 -39 80 -46 8 -8 50 -27 92 -44 66 -27 89 -31
170 -31 131 0 258 36 364 103 102 63 238 74 342 27 29 -13 52 -27 52 -32 0 -4
4 -8 10 -8 19 0 71 -61 104 -122 53 -95 58 -147 54 -553 l-3 -360 -25 -45
c-14 -24 -45 -58 -68 -75 -38 -26 -52 -30 -110 -30 -57 0 -74 5 -113 29 -42
27 -56 47 -159 237 -62 114 -121 221 -131 238 l-19 31 -272 0 -273 0 -120
-222 c-66 -122 -135 -236 -154 -254 -43 -43 -89 -57 -161 -52 -72 5 -131 43
-163 102 -21 40 -22 53 -25 426 -3 408 -1 430 45 522 65 132 181 200 333 196
74 -3 93 -7 150 -37z"/>
<path d="M1997 2606 c-92 -34 -145 -106 -154 -208 -22 -234 288 -341 422 -146
81 117 44 259 -89 342 -38 24 -131 30 -179 12z m117 -110 c50 -21 76 -60 76
-116 0 -126 -164 -162 -224 -50 -35 67 2 153 74 170 19 4 36 8 38 9 1 1 17 -5
36 -13z"/>
<path d="M3090 2613 c-46 -15 -81 -36 -110 -65 -52 -53 -64 -85 -64 -163 0
-77 14 -113 63 -162 57 -57 80 -67 162 -67 67 -1 81 2 124 29 31 19 61 49 80
80 26 42 30 58 30 119 0 59 -5 79 -27 117 -50 84 -177 140 -258 112z m132
-140 c41 -39 53 -76 39 -123 -32 -108 -172 -118 -224 -17 -17 33 -18 44 -9 76
12 40 55 86 87 94 35 8 79 -4 107 -30z"/>
<path d="M140 238 c-47 -95 -86 -176 -88 -180 -2 -5 17 -8 43 -8 43 0 47 2 61
35 14 34 16 35 69 35 l55 0 0 -35 c0 -35 0 -35 45 -35 29 0 45 4 45 13 0 6 -7
84 -15 172 -8 88 -15 163 -15 168 0 4 -26 7 -58 7 l-57 0 -85 -172z m139 -5
c1 -43 1 -43 -34 -43 -19 0 -35 3 -35 8 0 4 12 35 27 70 26 60 28 62 34 35 4
-15 7 -47 8 -70z"/>
<path d="M511 393 c-75 -37 -76 -129 -1 -195 47 -43 45 -68 -5 -68 -19 0 -45
4 -59 10 -25 9 -26 8 -26 -29 0 -31 5 -40 25 -49 62 -29 153 -4 180 48 25 48
13 92 -35 133 -22 19 -41 44 -42 58 -3 23 0 24 48 23 46 -1 53 1 63 23 16 35
14 40 -20 52 -45 15 -88 13 -128 -6z"/>
<path d="M726 379 c-9 -48 -9 -49 29 -49 19 0 35 -5 35 -11 0 -5 -11 -65 -25
-131 -14 -66 -25 -125 -25 -129 0 -5 19 -9 43 -9 l44 0 16 78 c9 42 22 105 29
140 l12 62 37 0 c30 0 38 4 43 23 15 57 16 57 -113 57 l-118 0 -7 -31z"/>
<path d="M1015 233 c-47 -97 -85 -178 -85 -180 0 -1 19 -3 43 -3 40 0 45 3 60
36 17 34 18 35 70 32 51 -3 52 -4 55 -35 3 -32 5 -33 48 -33 41 0 44 2 40 22
-3 13 -10 94 -17 181 l-12 157 -58 0 -59 0 -85 -177z m131 -40 c-2 -2 -18 -3
-35 -1 -30 3 -30 3 -16 33 8 17 22 48 32 70 l18 40 3 -69 c2 -37 1 -70 -2 -73z"/>
<path d="M1366 393 c-8 -27 -66 -320 -66 -333 0 -7 16 -10 42 -8 l43 3 13 63
c9 38 18 62 25 59 7 -2 22 -30 33 -63 l21 -59 47 -3 c26 -2 46 1 46 7 0 5 -12
37 -26 70 l-26 61 31 35 c33 38 42 96 20 137 -16 29 -70 48 -138 48 -48 0 -61
-3 -65 -17z m122 -86 c4 -33 -13 -57 -39 -57 -20 0 -23 10 -13 59 5 25 11 31
28 29 15 -2 22 -11 24 -31z"/>
<path d="M1891 397 c-71 -22 -131 -119 -131 -209 0 -46 26 -96 62 -118 28 -18
44 -21 102 -16 38 3 75 11 82 18 10 11 44 138 44 167 0 7 -27 11 -69 11 -63 0
-69 -2 -75 -22 -10 -40 -7 -48 20 -48 20 0 25 -4 20 -16 -3 -9 -6 -20 -6 -25
0 -6 -17 -9 -37 -7 -52 4 -62 35 -38 112 24 75 47 91 120 83 53 -5 56 -4 70
23 20 39 20 38 -22 49 -47 13 -97 12 -142 -2z"/>
<path d="M2145 233 c-47 -97 -85 -178 -85 -180 0 -1 19 -3 43 -3 40 0 45 3 60
36 17 34 18 35 70 32 51 -3 52 -4 55 -35 3 -32 5 -33 48 -33 l45 0 -6 33 c-5
28 -25 281 -25 315 0 8 -19 12 -60 12 l-60 0 -85 -177z m135 27 l0 -70 -34 0
-35 0 20 48 c11 26 24 57 29 70 16 37 20 26 20 -48z"/>
<path d="M2496 393 c-8 -29 -66 -318 -66 -332 0 -8 13 -11 38 -9 l37 3 21 103
c12 57 24 106 28 109 3 4 6 -44 6 -105 l0 -112 40 0 41 0 51 110 c28 60 53
108 55 106 3 -2 -5 -47 -16 -100 -12 -53 -21 -100 -21 -106 0 -5 17 -10 39
-10 l38 0 32 158 c18 86 35 167 38 180 5 22 4 23 -58 20 l-64 -3 -50 -117
c-27 -64 -53 -120 -57 -124 -5 -4 -8 50 -8 119 l0 127 -59 0 c-48 0 -61 -3
-65 -17z"/>
<path d="M2946 398 c-7 -21 -59 -280 -64 -315 -4 -33 -4 -33 40 -33 l43 0 24
113 c13 61 28 134 32 160 4 26 11 57 14 67 6 18 1 20 -40 20 -28 0 -47 -5 -49
-12z"/>
<path d="M3090 243 c-18 -93 -35 -174 -37 -180 -4 -9 7 -13 35 -13 l40 0 16
71 c9 39 19 91 23 115 3 25 9 41 14 37 4 -4 21 -55 37 -113 l29 -105 53 0 53
0 22 100 c56 261 56 257 8 253 -42 -3 -37 7 -64 -143 -19 -112 -20 -111 -75
88 l-15 57 -53 0 -53 0 -33 -167z"/>
<path d="M3595 398 c-57 -20 -93 -56 -114 -113 -34 -91 -25 -161 27 -208 27
-24 116 -33 166 -15 39 13 40 14 58 93 9 44 18 83 18 88 0 4 -31 7 -69 7 -72
0 -81 -6 -81 -51 0 -13 7 -19 24 -19 19 0 22 -4 18 -25 -4 -21 -10 -25 -38
-25 -57 0 -70 66 -28 148 21 44 47 55 109 49 49 -5 53 -3 64 19 16 36 14 41
-20 53 -39 13 -94 13 -134 -1z"/>
<path d="M4065 398 c-50 -18 -82 -46 -103 -91 -43 -90 -38 -179 14 -228 23
-21 35 -24 105 -24 56 1 83 5 93 15 11 13 46 141 46 171 0 5 -31 9 -69 9 -63
0 -69 -2 -75 -22 -10 -39 -7 -48 19 -48 25 0 31 -14 16 -38 -5 -8 -22 -12 -42
-10 -49 4 -59 40 -34 114 25 73 48 89 121 81 55 -6 56 -5 69 26 13 31 13 32
-18 44 -40 14 -102 15 -142 1z"/>
<path d="M4330 407 c0 -2 -11 -61 -25 -131 -14 -70 -25 -134 -25 -142 0 -30
54 -75 97 -81 53 -7 121 24 146 67 16 26 67 239 67 277 0 14 -75 19 -83 5 -3
-4 -15 -57 -27 -117 -13 -61 -29 -120 -37 -132 -15 -25 -60 -32 -69 -10 -2 7
7 66 21 132 14 65 25 123 25 127 0 4 -20 8 -45 8 -25 0 -45 -1 -45 -3z"/>
<path d="M4680 407 c0 -4 -59 -299 -67 -334 -5 -21 -2 -23 40 -23 41 0 45 3
52 27 9 36 65 316 65 326 0 4 -20 7 -45 7 -25 0 -45 -1 -45 -3z"/>
<path d="M4856 402 c-2 -4 -14 -59 -25 -122 -12 -63 -26 -133 -31 -155 -18
-78 -22 -75 90 -75 73 0 100 3 100 13 0 6 3 22 6 34 6 21 3 23 -37 23 -24 0
-49 4 -56 8 -8 5 -4 43 16 145 l28 137 -43 0 c-24 0 -45 -3 -48 -8z"/>
<path d="M5116 394 c-7 -26 -66 -321 -66 -335 0 -18 158 -7 203 15 62 30 91
85 96 177 3 76 3 78 -31 115 -34 36 -37 37 -115 42 -73 4 -81 3 -87 -14z m135
-80 c18 -21 6 -120 -18 -152 -25 -34 -89 -46 -79 -14 4 10 13 54 21 96 8 43
17 82 20 86 7 11 42 1 56 -16z"/>
</g>
</svg>
