<svg width="1196" height="290" viewBox="0 0 1196 290" fill="none" xmlns="http://www.w3.org/2000/svg">
<circle cx="144.457" cy="145.553" r="144.077" fill="#FF7E7F"/>
<path fill-rule="evenodd" clip-rule="evenodd" d="M232.533 122.814C238.465 127.532 243.558 133.198 247.613 139.572C249.132 141.961 248.175 145.079 245.68 146.414L227.216 156.294C224.72 157.629 221.641 156.662 219.974 154.375C218.616 152.513 217.086 150.78 215.403 149.201C215.403 149.201 215.403 149.201 215.403 149.201C215.402 149.201 215.402 149.201 215.402 149.201C211.729 145.755 207.39 143.096 202.651 141.388C201.671 141.034 200.677 140.723 199.673 140.454C195.788 139.415 193.178 143.715 194.685 147.444C196.054 150.831 197.101 154.356 197.802 157.973C199.803 168.287 198.923 178.954 195.257 188.8C191.592 198.647 185.283 207.293 177.025 213.788C170.113 219.224 162.058 222.977 153.499 224.784C150.73 225.369 148.173 223.339 147.838 220.528L145.34 199.531C145.005 196.721 147.041 194.219 149.73 193.336C152.573 192.402 155.244 190.976 157.617 189.11C161.339 186.182 164.183 182.285 165.835 177.847C167.487 173.409 167.884 168.601 166.982 163.952C166.168 159.756 164.324 155.836 161.626 152.54C161.438 152.31 161.225 152.102 160.997 151.912L141.685 135.847C139.508 134.036 139.198 130.79 141.167 128.756C145.132 124.659 149.595 121.077 154.452 118.092C154.452 118.092 154.452 118.092 154.452 118.092C154.452 118.092 154.452 118.092 154.452 118.091C162.367 113.228 171.192 110.034 180.387 108.706C189.582 107.379 198.95 107.945 207.918 110.371C216.886 112.797 225.262 117.032 232.533 122.814Z" fill="white"/>
<path fill-rule="evenodd" clip-rule="evenodd" d="M57.3054 171.938C51.2684 167.357 46.0478 161.808 41.8495 155.527C40.2766 153.173 41.1625 150.034 43.6273 148.643L61.8627 138.347C64.3275 136.956 67.4273 137.853 69.1464 140.102C70.5462 141.933 72.1153 143.63 73.8336 145.17C73.8337 145.17 73.8337 145.17 73.8338 145.17C73.8338 145.17 73.8338 145.17 73.8339 145.17C77.5843 148.533 81.9827 151.093 86.7588 152.693C87.7472 153.024 88.7476 153.313 89.757 153.559C93.6649 154.51 96.1765 150.152 94.5854 146.458C93.1403 143.102 92.014 139.602 91.2304 136.002C88.9961 125.736 89.6346 115.052 93.076 105.125C96.5174 95.1976 102.628 86.4111 110.738 79.7305C117.525 74.1392 125.492 70.2041 134.008 68.2032C136.763 67.5558 139.366 69.5279 139.764 72.3303L142.738 93.2651C143.136 96.0675 141.157 98.6143 138.489 99.5584C135.668 100.556 133.03 102.043 130.7 103.962C127.045 106.973 124.291 110.934 122.739 115.408C121.188 119.883 120.9 124.698 121.908 129.325C122.817 133.502 124.749 137.38 127.521 140.614C127.715 140.839 127.931 141.043 128.164 141.228L147.836 156.851C150.052 158.611 150.436 161.85 148.514 163.928C144.642 168.113 140.261 171.796 135.474 174.89C135.474 174.89 135.474 174.89 135.474 174.89C135.474 174.89 135.474 174.89 135.474 174.89C127.671 179.932 118.92 183.325 109.758 184.861C100.596 186.397 91.2165 186.043 82.1962 183.82C73.176 181.598 64.7055 177.555 57.3054 171.938Z" fill="white"/>
<path d="M355.253 114.733C355.253 86.1362 379.369 65.8622 413.301 65.8622C447.233 65.8622 468.574 84.6423 468.574 114.52H434.215C434.215 103.422 425.892 96.5933 412.874 96.5933C398.789 96.5933 389.826 102.996 389.826 113.453C389.826 123.056 394.734 127.751 405.832 130.099L429.52 135.007C457.69 140.769 471.135 154.214 471.135 179.183C471.135 209.701 447.233 229.548 410.953 229.548C375.741 229.548 352.906 210.554 352.906 180.89H387.265C387.265 192.414 395.801 198.817 411.167 198.817C426.746 198.817 436.563 192.628 436.563 182.598C436.563 173.848 432.508 169.366 422.051 167.232L397.935 162.324C369.765 156.562 355.253 140.556 355.253 114.733ZM522.86 226.773H489.995V65.8622H523.074V131.166C529.689 121.989 541.854 116.654 555.725 116.654C581.121 116.654 595.846 132.873 595.846 160.83V226.773H562.981V168.726C562.981 155.281 555.512 146.531 544.201 146.531C531.183 146.531 522.86 155.068 522.86 168.299V226.773ZM635.636 103.422C625.179 103.422 616.856 95.0994 616.856 84.6423C616.856 74.1852 625.179 66.0757 635.636 66.0757C645.879 66.0757 654.202 74.1852 654.202 84.6423C654.202 95.0994 645.879 103.422 635.636 103.422ZM619.417 226.773V120.068H652.282V226.773H619.417ZM709.802 226.773H676.937V120.068H707.882L710.016 131.166C716.632 121.989 728.796 116.654 742.668 116.654C768.063 116.654 782.789 132.873 782.789 160.83V226.773H749.924V168.726C749.924 155.281 742.454 146.531 731.143 146.531C718.125 146.531 709.802 155.068 709.802 168.299V226.773ZM839.224 226.773H806.359V65.8622H839.224V158.482L873.796 120.068H914.985L874.863 162.324L913.704 226.773H875.717L851.815 186.866L839.224 200.097V226.773ZM956.543 229.548C933.921 229.548 919.836 216.316 919.836 195.402C919.836 175.768 933.708 163.604 959.317 161.683L989.195 159.336V157.629C989.195 147.171 982.792 141.623 971.055 141.623C957.183 141.623 949.714 146.958 949.714 156.562H922.397C922.397 132.446 942.244 116.654 972.762 116.654C1003.71 116.654 1021.21 133.94 1021.21 164.458V226.773H992.182L990.048 212.688C986.634 222.505 972.549 229.548 956.543 229.548ZM968.067 205.219C980.658 205.219 989.408 199.03 989.408 186.866V181.104L972.762 182.598C958.464 183.878 953.342 187.079 953.342 193.908C953.342 201.591 958.037 205.219 968.067 205.219ZM1061 103.422C1050.54 103.422 1042.22 95.0994 1042.22 84.6423C1042.22 74.1852 1050.54 66.0757 1061 66.0757C1071.24 66.0757 1079.56 74.1852 1079.56 84.6423C1079.56 95.0994 1071.24 103.422 1061 103.422ZM1044.78 226.773V120.068H1077.64V226.773H1044.78Z" fill="black"/>
</svg>
