<?xml version="1.0" encoding="UTF-8"?>
<!DOCTYPE svg PUBLIC "-//W3C//DTD SVG 1.1//EN" "http://www.w3.org/Graphics/SVG/1.1/DTD/svg11.dtd">
<svg xmlns="http://www.w3.org/2000/svg" version="1.1" width="428px" height="470px" style="shape-rendering:geometricPrecision; text-rendering:geometricPrecision; image-rendering:optimizeQuality; fill-rule:evenodd; clip-rule:evenodd" xmlns:xlink="http://www.w3.org/1999/xlink">
<g><path style="opacity:1" fill="#fefefe" d="M -0.5,-0.5 C 142.167,-0.5 284.833,-0.5 427.5,-0.5C 427.5,156.167 427.5,312.833 427.5,469.5C 284.833,469.5 142.167,469.5 -0.5,469.5C -0.5,312.833 -0.5,156.167 -0.5,-0.5 Z"/></g>
<g><path style="opacity:1" fill="#f4f4f4" d="M 336.5,93.5 C 336.5,93.8333 336.5,94.1667 336.5,94.5C 316.473,105.845 296.473,117.179 276.5,128.5C 255.861,116.512 235.194,104.512 214.5,92.5C 193.806,104.512 173.139,116.512 152.5,128.5C 132.555,117.191 112.555,105.857 92.5,94.5C 91.5001,141.829 91.1667,189.162 91.5,236.5C 90.5012,189.003 90.1679,141.336 90.5,93.5C 131.786,69.9096 173.12,46.243 214.5,22.5C 255.522,45.6735 296.189,69.3401 336.5,93.5 Z"/></g>
<g><path style="opacity:1" fill="#c6c5c5" d="M 152.5,128.5 C 152.5,128.833 152.5,129.167 152.5,129.5C 152.167,153.509 152.5,177.509 153.5,201.5C 173.031,213.098 192.697,224.431 212.5,235.5C 212.5,236.167 212.833,236.5 213.5,236.5C 214.157,259.931 214.824,283.264 215.5,306.5C 215.103,307.525 214.437,307.692 213.5,307C 172.969,283.236 132.303,259.736 91.5,236.5C 91.1667,189.162 91.5001,141.829 92.5,94.5C 112.555,105.857 132.555,117.191 152.5,128.5 Z"/></g>
<g><path style="opacity:1" fill="#e30618" d="M 276.5,128.5 C 276.5,128.833 276.5,129.167 276.5,129.5C 255.833,141.167 235.167,152.833 214.5,164.5C 193.833,152.833 173.167,141.167 152.5,129.5C 152.5,129.167 152.5,128.833 152.5,128.5C 173.139,116.512 193.806,104.512 214.5,92.5C 235.194,104.512 255.861,116.512 276.5,128.5 Z"/></g>
<g><path style="opacity:1" fill="#9c9c98" d="M 336.5,94.5 C 337.499,141.664 337.832,188.997 337.5,236.5C 296.833,259.833 256.167,283.167 215.5,306.5C 214.824,283.264 214.157,259.931 213.5,236.5C 234.393,225.383 255.06,213.716 275.5,201.5C 276.5,177.509 276.833,153.509 276.5,129.5C 276.5,129.167 276.5,128.833 276.5,128.5C 296.473,117.179 316.473,105.845 336.5,94.5 Z"/></g>
<g><path style="opacity:1" fill="#dcdcda" d="M 336.5,94.5 C 336.5,94.1667 336.5,93.8333 336.5,93.5C 337.833,116.991 338.5,140.824 338.5,165C 338.5,189.002 338.167,212.836 337.5,236.5C 337.832,188.997 337.499,141.664 336.5,94.5 Z"/></g>
<g><path style="opacity:1" fill="#c7121a" d="M 152.5,129.5 C 173.167,141.167 193.833,152.833 214.5,164.5C 215.157,188.524 214.49,212.19 212.5,235.5C 192.697,224.431 173.031,213.098 153.5,201.5C 152.5,177.509 152.167,153.509 152.5,129.5 Z"/></g>
<g><path style="opacity:1" fill="#9e0d1d" d="M 276.5,129.5 C 276.833,153.509 276.5,177.509 275.5,201.5C 255.06,213.716 234.393,225.383 213.5,236.5C 212.833,236.5 212.5,236.167 212.5,235.5C 214.49,212.19 215.157,188.524 214.5,164.5C 235.167,152.833 255.833,141.167 276.5,129.5 Z"/></g>
<g><path style="opacity:1" fill="#050507" d="M 357.5,448.5 C 341.167,449.833 324.833,449.833 308.5,448.5C 313.167,448.5 317.833,448.5 322.5,448.5C 317.996,435.157 312.996,421.991 307.5,409C 297.5,408.333 287.5,408.333 277.5,409C 275.674,412.312 274.34,415.812 273.5,419.5C 272.596,418.791 272.263,417.791 272.5,416.5C 282.03,387.745 291.863,359.078 302,330.5C 317.687,369.535 332.52,408.869 346.5,448.5C 350.167,448.5 353.833,448.5 357.5,448.5 Z"/></g>
<g><path style="opacity:1" fill="#2f2f31" d="M 139.5,336.5 C 131.833,335.167 124.167,335.167 116.5,336.5C 111.456,336.827 106.456,336.494 101.5,335.5C 119.167,334.167 136.833,334.167 154.5,335.5C 149.544,336.494 144.544,336.827 139.5,336.5 Z"/></g>
<g><path style="opacity:1" fill="#333335" d="M 215.5,335.5 C 212.287,335.19 209.287,335.523 206.5,336.5C 204.167,336.5 201.833,336.5 199.5,336.5C 191.833,335.167 184.167,335.167 176.5,336.5C 171.456,336.827 166.456,336.494 161.5,335.5C 179.662,334.173 197.662,334.173 215.5,335.5 Z"/></g>
<g><path style="opacity:1" fill="#050507" d="M 139.5,336.5 C 139.667,365.835 139.5,395.169 139,424.5C 138.515,432.638 135.015,439.138 128.5,444C 115.373,452.299 101.373,454.299 86.5,450C 72.9274,442.713 68.4274,431.88 73,417.5C 78.3477,410.438 85.1811,408.605 93.5,412C 99.2289,417.66 99.8956,423.827 95.5,430.5C 91.4316,431.953 87.9316,434.286 85,437.5C 84.6157,446.613 89.1157,450.947 98.5,450.5C 108.782,450.719 114.616,445.719 116,435.5C 116.5,402.502 116.667,369.502 116.5,336.5C 124.167,335.167 131.833,335.167 139.5,336.5 Z"/></g>
<g><path style="opacity:1" fill="#060608" d="M 199.5,336.5 C 199.5,353.5 199.5,370.5 199.5,387.5C 206.241,387.829 212.908,387.329 219.5,386C 223.58,383.688 226.08,380.188 227,375.5C 227.667,368.5 227.667,361.5 227,354.5C 225.301,342.633 218.467,336.633 206.5,336.5C 209.287,335.523 212.287,335.19 215.5,335.5C 228.316,335.325 238.482,340.325 246,350.5C 254.136,371.227 247.303,383.893 225.5,388.5C 249.394,392.2 259.561,405.867 256,429.5C 253.314,436.729 248.48,441.895 241.5,445C 235.037,447.449 228.37,448.949 221.5,449.5C 201.66,449.83 181.993,449.497 162.5,448.5C 167.167,448.5 171.833,448.5 176.5,448.5C 176.5,411.167 176.5,373.833 176.5,336.5C 184.167,335.167 191.833,335.167 199.5,336.5 Z"/></g>
<g><path style="opacity:1" fill="#fbfbfb" d="M 199.5,336.5 C 201.833,336.5 204.167,336.5 206.5,336.5C 218.467,336.633 225.301,342.633 227,354.5C 227.667,361.5 227.667,368.5 227,375.5C 226.08,380.188 223.58,383.688 219.5,386C 212.908,387.329 206.241,387.829 199.5,387.5C 199.5,370.5 199.5,353.5 199.5,336.5 Z"/></g>
<g><path style="opacity:1" fill="#f8f8f8" d="M 306.5,405.5 C 297.167,406.833 287.833,406.833 278.5,405.5C 282.434,392.698 286.767,380.031 291.5,367.5C 296.889,379.998 301.889,392.665 306.5,405.5 Z"/></g>
<g><path style="opacity:1" fill="#fcfcfc" d="M 199.5,388.5 C 222.983,386.481 234.316,397.314 233.5,421C 233.474,426.547 232.974,432.047 232,437.5C 228.847,443.836 223.68,447.336 216.5,448C 210.843,448.499 205.176,448.666 199.5,448.5C 199.5,428.5 199.5,408.5 199.5,388.5 Z"/></g>
<g><path style="opacity:1" fill="#6c6c6e" d="M 278.5,405.5 C 287.833,406.833 297.167,406.833 306.5,405.5C 307.043,405.56 307.376,405.893 307.5,406.5C 297.5,407.833 287.5,407.833 277.5,406.5C 277.624,405.893 277.957,405.56 278.5,405.5 Z"/></g>
<g><path style="opacity:1" fill="#232324" d="M 272.5,416.5 C 272.263,417.791 272.596,418.791 273.5,419.5C 270.372,428.881 267.039,438.214 263.5,447.5C 268.833,448.167 274.167,448.833 279.5,449.5C 269.833,450.833 260.167,450.833 250.5,449.5C 254.167,448.833 257.833,448.167 261.5,447.5C 265.004,436.982 268.67,426.648 272.5,416.5 Z"/></g>
<g><path style="opacity:1" fill="#444445" d="M 162.5,448.5 C 181.993,449.497 201.66,449.83 221.5,449.5C 201.663,450.828 181.663,450.828 161.5,449.5C 161.624,448.893 161.957,448.56 162.5,448.5 Z"/></g>
<g><path style="opacity:1" fill="#414141" d="M 308.5,448.5 C 324.833,449.833 341.167,449.833 357.5,448.5C 358.043,448.56 358.376,448.893 358.5,449.5C 341.5,450.833 324.5,450.833 307.5,449.5C 307.624,448.893 307.957,448.56 308.5,448.5 Z"/></g>
</svg>
