<?xml version="1.0" encoding="UTF-8"?> <svg xmlns="http://www.w3.org/2000/svg" id="Layer_1" viewBox="29.89 121.56 240.22 56.9"><defs><style>.cls-1{fill:#00a84f;}</style></defs><path class="cls-1" d="m67.07,157.52c1.04-1.12,1.97-2.36,2.78-3.71,1.95-3.27,2.93-6.86,2.93-10.77s-.97-7.57-2.91-10.85c-1.94-3.29-4.54-5.88-7.81-7.78-3.27-1.9-6.81-2.85-10.61-2.85s-7.4.95-10.69,2.85c-3.29,1.9-5.91,4.49-7.87,7.76-1.96,3.27-2.93,6.84-2.93,10.72s.98,7.67,2.93,10.96c.83,1.4,1.79,2.68,2.86,3.82-3.63,2.21-5.86,5.18-5.86,8.44,0,6.81,9.7,12.35,21.63,12.35s21.63-5.54,21.63-12.35c0-3.33-2.32-6.36-6.09-8.58Zm-31.06,13.87c-2.15-1.6-3.32-3.43-3.32-5.29,0-2.29,1.78-4.55,5-6.37.06-.03.12-.07.19-.1.89.72,1.83,1.37,2.84,1.96.1.06.21.11.31.17-3.46,1.7-5.66,4.23-5.66,7.04,0,.9.22,1.76.64,2.59Zm15.53,3.9c-4.91,0-7.59-2.13-7.59-3.23s2.68-3.23,7.59-3.23,7.59,2.13,7.59,3.23-2.68,3.23-7.59,3.23Zm10.3-2.5c.05-.24.08-.48.08-.73,0-3.32-4.66-6.01-10.38-6.01s-10.38,2.7-10.38,6.01c0,.25.03.49.08.73-1.9-1.13-3.08-2.53-3.08-3.99,0-2.2,2.67-4.26,6.44-5.45,2.11.71,4.3,1.06,6.59,1.06,2.45,0,4.79-.38,7.02-1.14,3.92,1.17,6.71,3.29,6.71,5.53,0,1.46-1.18,2.86-3.08,3.99Zm5.23-1.4c.42-.82.64-1.69.64-2.59,0-2.88-2.3-5.45-5.89-7.16.05-.03.1-.05.15-.08,1.07-.61,2.07-1.3,2.99-2.06.14.08.29.15.43.23,3.22,1.82,5,4.08,5,6.37,0,1.85-1.16,3.69-3.32,5.29Z"></path><path class="cls-1" d="m196.19,149.72c-1.3-1.04-3.08-2.09-5.29-3.1-1.93-.87-3.43-1.63-4.46-2.25-1-.61-1.74-1.26-2.19-1.94-.44-.67-.67-1.47-.67-2.4s.23-1.78.7-2.52c.46-.75,1.12-1.35,1.94-1.78.83-.44,1.77-.66,2.8-.66,1.36,0,2.54.33,3.51.98.97.65,1.87,1.67,2.67,3.02l.12.2,3.65-2.11-.1-.2c-.99-1.88-2.33-3.37-3.97-4.43-1.65-1.06-3.62-1.59-5.86-1.59-1.82,0-3.5.41-5,1.21-1.49.8-2.68,1.91-3.53,3.29-.85,1.38-1.29,2.93-1.29,4.61s.34,3.06,1.02,4.22c.68,1.16,1.67,2.19,2.95,3.07,1.26.87,2.97,1.79,5.09,2.73,1.9.87,3.39,1.7,4.44,2.48,1.03.76,1.78,1.59,2.22,2.47.44.88.66,1.92.66,3.11s-.26,2.19-.77,3.1c-.51.9-1.25,1.63-2.18,2.16-.94.53-2.04.8-3.29.8-1.83,0-3.44-.52-4.79-1.53-1.36-1.02-2.4-2.49-3.11-4.36l-.08-.22-4.06,1.69.07.21c.57,1.66,1.43,3.13,2.55,4.37,1.12,1.25,2.5,2.24,4.09,2.94,1.6.7,3.39,1.06,5.33,1.06s3.8-.43,5.42-1.28c1.62-.85,2.91-2.05,3.84-3.58.93-1.52,1.4-3.3,1.4-5.29,0-1.85-.31-3.47-.92-4.82-.61-1.35-1.59-2.57-2.9-3.63Z"></path><path class="cls-1" d="m269.18,153.35c-.61-1.35-1.59-2.57-2.9-3.63-1.3-1.04-3.08-2.09-5.29-3.1-1.93-.87-3.43-1.63-4.46-2.25-1-.61-1.74-1.26-2.19-1.94-.44-.67-.67-1.47-.67-2.4s.23-1.78.7-2.52c.46-.75,1.12-1.35,1.94-1.78.83-.44,1.77-.66,2.8-.66,1.36,0,2.54.33,3.51.98.97.65,1.87,1.67,2.67,3.02l.12.2,3.65-2.11-.1-.2c-.99-1.88-2.33-3.37-3.97-4.43-1.65-1.06-3.62-1.59-5.86-1.59-1.82,0-3.5.41-5,1.21-1.49.8-2.68,1.91-3.53,3.29-.85,1.38-1.29,2.93-1.29,4.61s.34,3.06,1.02,4.22c.68,1.16,1.67,2.19,2.95,3.07,1.26.87,2.97,1.79,5.09,2.73,1.9.87,3.39,1.7,4.44,2.48,1.03.76,1.78,1.59,2.22,2.47.44.88.66,1.92.66,3.11s-.26,2.19-.77,3.1c-.51.9-1.25,1.63-2.18,2.15-.94.53-2.04.8-3.29.8-1.83,0-3.44-.52-4.79-1.53-1.36-1.02-2.4-2.49-3.11-4.36l-.08-.22-4.06,1.69.07.21c.57,1.66,1.43,3.13,2.55,4.37,1.12,1.25,2.5,2.23,4.09,2.94,1.6.7,3.39,1.06,5.33,1.06s3.8-.43,5.42-1.28c1.62-.85,2.91-2.05,3.84-3.58.93-1.52,1.4-3.3,1.4-5.29,0-1.85-.31-3.47-.92-4.82Z"></path><polygon class="cls-1" points="236.92 132.05 235.06 135.92 220.13 167.09 224.54 167.2 241.18 132.05 236.92 132.05"></polygon><polygon class="cls-1" points="138.75 167.2 140.6 163.33 155.53 132.15 151.12 132.05 134.49 167.2 138.75 167.2"></polygon><polygon class="cls-1" points="153.73 142.06 163.79 163.33 165.62 167.2 169.9 167.2 155.88 137.57 153.73 142.06"></polygon><path class="cls-1" d="m111.51,130.97c-10.31,0-18.66,8.36-18.66,18.66s8.36,18.66,18.66,18.66,18.66-8.36,18.66-18.66-8.36-18.66-18.66-18.66Zm0,33.18c-8.01,0-14.51-6.5-14.51-14.51s6.5-14.51,14.51-14.51,14.51,6.5,14.51,14.51-6.5,14.51-14.51,14.51Z"></path><path class="cls-1" d="m196.19,149.72c-1.3-1.04-3.08-2.09-5.29-3.1-1.93-.87-3.43-1.63-4.46-2.25-1-.61-1.74-1.26-2.19-1.94-.44-.67-.67-1.47-.67-2.4s.23-1.78.7-2.52c.46-.75,1.12-1.35,1.94-1.78.83-.44,1.77-.66,2.8-.66,1.36,0,2.54.33,3.51.98.97.65,1.87,1.67,2.67,3.02l.12.2,3.65-2.11-.1-.2c-.99-1.88-2.33-3.37-3.97-4.43-1.65-1.06-3.62-1.59-5.86-1.59-1.82,0-3.5.41-5,1.21-1.49.8-2.68,1.91-3.53,3.29-.85,1.38-1.29,2.93-1.29,4.61s.34,3.06,1.02,4.22c.68,1.16,1.67,2.19,2.95,3.07,1.26.87,2.97,1.79,5.09,2.73,1.9.87,3.39,1.7,4.44,2.48,1.03.76,1.78,1.59,2.22,2.47.44.88.66,1.92.66,3.11s-.26,2.19-.77,3.1c-.51.9-1.25,1.63-2.18,2.16-.94.53-2.04.8-3.29.8-1.83,0-3.44-.52-4.79-1.53-1.36-1.02-2.4-2.49-3.11-4.36l-.08-.22-4.06,1.69.07.21c.57,1.66,1.43,3.13,2.55,4.37,1.12,1.25,2.5,2.24,4.09,2.94,1.6.7,3.39,1.06,5.33,1.06s3.8-.43,5.42-1.28c1.62-.85,2.91-2.05,3.84-3.58.93-1.52,1.4-3.3,1.4-5.29,0-1.85-.31-3.47-.92-4.82-.61-1.35-1.59-2.57-2.9-3.63Z"></path><path class="cls-1" d="m269.18,153.35c-.61-1.35-1.59-2.57-2.9-3.63-1.3-1.04-3.08-2.09-5.29-3.1-1.93-.87-3.43-1.63-4.46-2.25-1-.61-1.74-1.26-2.19-1.94-.44-.67-.67-1.47-.67-2.4s.23-1.78.7-2.52c.46-.75,1.12-1.35,1.94-1.78.83-.44,1.77-.66,2.8-.66,1.36,0,2.54.33,3.51.98.97.65,1.87,1.67,2.67,3.02l.12.2,3.65-2.11-.1-.2c-.99-1.88-2.33-3.37-3.97-4.43-1.65-1.06-3.62-1.59-5.86-1.59-1.82,0-3.5.41-5,1.21-1.49.8-2.68,1.91-3.53,3.29-.85,1.38-1.29,2.93-1.29,4.61s.34,3.06,1.02,4.22c.68,1.16,1.67,2.19,2.95,3.07,1.26.87,2.97,1.79,5.09,2.73,1.9.87,3.39,1.7,4.44,2.48,1.03.76,1.78,1.59,2.22,2.47.44.88.66,1.92.66,3.11s-.26,2.19-.77,3.1c-.51.9-1.25,1.63-2.18,2.15-.94.53-2.04.8-3.29.8-1.83,0-3.44-.52-4.79-1.53-1.36-1.02-2.4-2.49-3.11-4.36l-.08-.22-4.06,1.69.07.21c.57,1.66,1.43,3.13,2.55,4.37,1.12,1.25,2.5,2.23,4.09,2.94,1.6.7,3.39,1.06,5.33,1.06s3.8-.43,5.42-1.28c1.62-.85,2.91-2.05,3.84-3.58.93-1.52,1.4-3.3,1.4-5.29,0-1.85-.31-3.47-.92-4.82Z"></path><polygon class="cls-1" points="236.92 132.05 235.06 135.92 220.13 167.09 224.54 167.2 241.18 132.05 236.92 132.05"></polygon><polygon class="cls-1" points="138.75 167.2 140.6 163.33 155.53 132.15 151.12 132.05 134.49 167.2 138.75 167.2"></polygon><polygon class="cls-1" points="153.73 142.06 163.79 163.33 165.62 167.2 169.9 167.2 155.88 137.57 153.73 142.06"></polygon><path class="cls-1" d="m111.51,130.97c-10.31,0-18.66,8.36-18.66,18.66s8.36,18.66,18.66,18.66,18.66-8.36,18.66-18.66-8.36-18.66-18.66-18.66Zm0,33.18c-8.01,0-14.51-6.5-14.51-14.51s6.5-14.51,14.51-14.51,14.51,6.5,14.51,14.51-6.5,14.51-14.51,14.51Z"></path><polygon class="cls-1" points="216.39 135.92 214.56 132.05 210.28 132.05 222.05 156.9 224.2 152.41 216.39 135.92"></polygon></svg> 