<?xml version="1.0" encoding="UTF-8"?>
<svg xmlns:xodm="http://www.corel.com/coreldraw/odm/2003" xmlns="http://www.w3.org/2000/svg" xmlns:xlink="http://www.w3.org/1999/xlink" version="1.1" id="Layer_1" x="0px" y="0px" viewBox="0 0 2500 535" style="enable-background:new 0 0 2500 535;" xml:space="preserve">
<style type="text/css">
	.st0{fill:#E6007A;}
</style>
<g id="Layer_x0020_1">
	<g id="_2086020840128">
		<path d="M776.4,79.9c-29.3,0-57.5,3.7-69,6.8c-16.7,4.7-20.9,12-24,27.2l-66.3,306.2c-1.1,6.3-2.1,11.5-2.1,16.7    c0,15.2,9.9,25.1,26.1,25.1c17.8,0,25.1-11.5,28.7-29.3l18.8-87.2c13,1.6,30.3,3.1,54.9,3.1c108.2,0,175.5-58.5,175.5-146.8    C919.1,124.3,865.2,79.9,776.4,79.9z M740.9,298.3c-16.7,0-29.8-0.5-41.8-2.1l35-162.5c11-1.6,27.2-3.7,43.9-3.7    c57.5,0,86.7,27.2,86.7,72.1C864.7,259.7,822.9,298.3,740.9,298.3L740.9,298.3L740.9,298.3z"></path>
		<path d="M2478.6,361c-8.9,0-14.6,5.2-25.6,17.3c-19.3,19.9-31.4,30.8-46.5,30.8c-13.6,0-20.9-11-20.9-28.7c0-9.9,2.1-22,4.7-35    l19.3-90.9l58,0c18.3,0,29.3-10.5,29.3-29.3c0-10.5-6.8-18.3-22.4-18.3l-54.4,0l9.4-42.3c1.1-6.3,2.1-12,2.1-17.3    c0-14.6-9.9-25.1-26.1-25.1c-17.3,0-25.1,11.5-28.7,29.3l-12,55.4l-24.6,0c-18.8,0-29.8,10.5-29.8,29.3c0,10.5,7.3,18.3,23,18.3    l21.4,0l-19.3,89.9c-2.1,9.9-4.7,26.1-4.7,42.8c0,42.3,22,73.1,69,73.1c27.2,0,51.2-13.6,69.5-29.8c17.8-15.7,30.8-35,30.8-47.5    C2500,370.9,2490.6,361,2478.6,361L2478.6,361z"></path>
		<path d="M1276.9,110.8c0-15.2-10.5-25.1-26.7-25.1c-17.3,0-25.1,11.5-28.7,29.3l-65.3,303.5c-1.6,6.3-2.6,11.5-2.6,16.7    c0,15.2,10.5,25.1,26.1,25.1c17.8,0,25.6-11.5,29.3-29.3l65.3-303.5C1275.4,121.2,1276.9,116,1276.9,110.8L1276.9,110.8z"></path>
		<path d="M2209.5,201.6c-83.6,0-140.5,83.1-140.5,162c0,1.5,0,3,0.1,4.4c-13.1,19.9-29.9,40.5-41.4,40.5c-8.3,0-11.5-7.8-11.5-19.9    c0-14.6,4.2-39.2,8.9-60.6l43.4-200.6c1.1-6.3,2.1-11.5,2.1-16.7c0-15.2-9.9-25.1-26.1-25.1c-17.8,0-25.1,11.5-28.7,29.3    l-23.5,108.7c-12.5-13-30.9-22-58.5-22c-55.5,0-111.4,42.7-133.1,108.3c-24,62-45.4,98.6-62.3,98.6c-6.3,0-9.9-5.2-9.9-14.1    c0-26.1,14.6-89.9,20.9-120.7c2.1-11.5,3.1-16.2,3.1-23c0-23-38.1-50.2-87.8-50.2c-57.4,0-109.4,36.4-135.4,90.3    c-38.7,68.4-74.2,117.6-91.8,117.6c-7.8,0-10.5-9.9-12.5-19.3l-13-72l79.9-65.3c7.3-6.3,16.7-15.2,16.7-26.7    c0-14.1-9.4-23.5-23.5-23.5c-10.5,0-19.3,6.3-28.2,13.6l-120.1,99.3l40.2-187c1.1-6.3,2.6-11.5,2.6-16.7    c0-15.2-10.5-25.1-26.7-25.1c-17.3,0-25.1,11.5-28.7,29.3l-65.3,303.5c-1.6,6.3-2.6,11.5-2.6,16.7c0,15.2,10.5,25.1,26.1,25.1    c17.8,0,25.6-11.5,29.3-29.3l8.4-39.2l49.1-39.7l12,60.6c4.7,24,17.3,47.5,49.6,47.5c32.2,0,57.6-29.4,83-69.2    c7.7,41.7,37.3,69.2,78.5,69.2c41.3,0,69.5-24.6,87.8-57.5v1.1c0,34,17.3,56.4,47.5,56.4c27.4,0,50.2-16.5,70.5-51.6    c11.5,30.6,37.3,51.6,73.2,51.6c42.3,0,72.6-25.6,91.9-61.1v3.1c0,37.6,18.8,58,49.6,58c27.2,0,50.3-15.8,70.1-41.5    c15,25.7,41.9,41.5,78.3,41.5c83.6,0,140.5-83.1,140.5-162.5C2301.5,241.9,2267.5,201.6,2209.5,201.6L2209.5,201.6z M1688.6,307.7    c-15.2,65.3-47.5,102.4-84.1,102.4c-24.6,0-38.1-18.8-38.1-47c0-55.4,40.2-115,94-115c16.2,0,28.7,4.7,39.7,11.5L1688.6,307.7    L1688.6,307.7z M1979.6,280c-16.7,76.8-54.9,130.1-96.6,130.1c-23,0-36.6-17.8-36.6-47c0-55.9,38.7-113.9,90.4-113.9    c19.9,0,35,6.8,46,15.7L1979.6,280L1979.6,280z M2167.2,410.1c-30.3,0-42.8-22-42.8-49.6c0-50.7,35-108.7,78.9-108.7    c30.3,0,42.8,22,42.8,49.6C2246.1,352.7,2211.1,410.1,2167.2,410.1z"></path>
		<path d="M1049.2,201.6c-83.6,0-140.5,83.1-140.5,162c0,56.4,34,96.6,91.9,96.6c83.6,0,140.5-83.1,140.5-162.5    C1141.1,241.9,1107.1,201.6,1049.2,201.6L1049.2,201.6z M1006.8,410.1c-30.3,0-42.8-22-42.8-49.6c0-50.7,35-108.7,78.9-108.7    c30.3,0,42.8,22,42.8,49.6C1085.7,352.7,1050.7,410.1,1006.8,410.1z"></path>
		<ellipse class="st0" cx="251.4" cy="56.2" rx="96.4" ry="56.1"></ellipse>
		<ellipse class="st0" cx="251.4" cy="478.8" rx="96.4" ry="56.1"></ellipse>
		<ellipse transform="matrix(0.5 -0.866 0.866 0.5 -105.9689 140.2179)" class="st0" cx="68.4" cy="161.9" rx="96.4" ry="56.1"></ellipse>
		<ellipse transform="matrix(0.5 -0.866 0.866 0.5 -105.9699 562.7165)" class="st0" cx="434.3" cy="373.1" rx="96.4" ry="56.1"></ellipse>
		<ellipse transform="matrix(0.866 -0.5 0.5 0.866 -177.3909 84.2232)" class="st0" cx="68.5" cy="373.1" rx="56.1" ry="96.4"></ellipse>
		<ellipse transform="matrix(0.866 -0.5 0.5 0.866 -22.7514 238.8815)" class="st0" cx="434.4" cy="161.9" rx="56.1" ry="96.4"></ellipse>
	</g>
</g>
</svg>
