<svg width="354" height="81" viewBox="0 0 354 81" fill="none" xmlns="http://www.w3.org/2000/svg">
<path fill-rule="evenodd" clip-rule="evenodd" d="M102.54 70.3084C102.158 69.8621 101.648 69.639 101.01 69.639H75.5718V57.7805H93.742C94.3796 57.7805 94.8896 57.5893 95.2721 57.2067C95.6547 56.7604 95.8459 56.2504 95.8459 55.6766V50.0343C95.8459 49.4605 95.6547 48.9823 95.2721 48.5998C94.8896 48.1535 94.3796 47.9303 93.742 47.9303H75.5718V35.9762H101.01C101.648 35.9762 102.158 35.785 102.54 35.4024C102.923 34.9562 103.114 34.4461 103.114 33.8723V27.7518C103.114 27.178 102.923 26.6999 102.54 26.3173C102.158 25.871 101.648 25.6479 101.01 25.6479H66.7736C66.1998 25.6479 65.6897 25.871 65.2434 26.3173C64.7971 26.6999 64.574 27.2099 64.574 27.8474V77.7678C64.574 78.4053 64.7971 78.9473 65.2434 79.3936C65.6897 79.7761 66.1998 79.9673 66.7736 79.9673H101.01C101.648 79.9673 102.158 79.7761 102.54 79.3936C102.923 78.9473 103.114 78.4372 103.114 77.8634V71.7429C103.114 71.1691 102.923 70.691 102.54 70.3084ZM156.156 79.718C156.579 79.269 156.791 78.7238 156.791 78.0824V27.8607C156.791 27.2193 156.579 26.7062 156.156 26.3214C155.733 25.8724 155.249 25.6479 154.705 25.6479H148.449C147.905 25.6479 147.421 25.8724 146.998 26.3214C146.575 26.7062 146.363 27.2193 146.363 27.8607V60.1873L126.687 27.1873C126.505 26.8024 126.233 26.4496 125.87 26.1289C125.568 25.8082 125.175 25.6479 124.692 25.6479H117.891C117.347 25.6479 116.863 25.8724 116.44 26.3214C116.017 26.7062 115.805 27.2193 115.805 27.8607V78.0824C115.805 78.7238 116.017 79.269 116.44 79.718C116.863 80.1028 117.347 80.2952 117.891 80.2952H124.148C124.692 80.2952 125.175 80.1028 125.598 79.718C126.022 79.269 126.233 78.7238 126.233 78.0824V45.6596L145.547 78.0824C145.849 78.5955 146.303 79.1086 146.907 79.6218C147.512 80.0707 148.086 80.2952 148.63 80.2952H154.705C155.249 80.2952 155.733 80.1028 156.156 79.718ZM181.451 77.7678C181.451 78.4053 181.228 78.9473 180.781 79.3936C180.335 79.7761 179.825 79.9673 179.251 79.9673H172.653C172.079 79.9673 171.569 79.7761 171.122 79.3936C170.676 78.9473 170.453 78.4053 170.453 77.7678V27.8474C170.453 27.2099 170.676 26.6999 171.122 26.3173C171.569 25.871 172.079 25.6479 172.653 25.6479H179.251C179.825 25.6479 180.335 25.871 180.781 26.3173C181.228 26.6999 181.451 27.2099 181.451 27.8474V77.7678ZM202.553 73.7716C205.737 78.1207 210.976 80.2952 218.27 80.2952C225.564 80.2952 230.803 78.1207 233.987 73.7716C237.171 69.4225 238.763 63.3401 238.763 55.5243V27.8224C238.763 27.1921 238.56 26.6879 238.155 26.3097C237.75 25.8685 237.286 25.6479 236.765 25.6479H230.774C230.253 25.6479 229.79 25.8685 229.385 26.3097C228.979 26.6879 228.777 27.1921 228.777 27.8224V54.8625C228.777 57.3207 228.632 59.5267 228.343 61.4807C228.111 63.4346 227.619 65.1049 226.866 66.4916C226.114 67.8152 225.043 68.8552 223.654 69.6116C222.322 70.368 220.528 70.7461 218.27 70.7461C216.012 70.7461 214.189 70.368 212.799 69.6116C211.468 68.8552 210.426 67.8152 209.673 66.4916C208.921 65.1049 208.4 63.4346 208.11 61.4807C207.879 59.5267 207.763 57.3207 207.763 54.8625V27.8224C207.763 27.1921 207.56 26.6879 207.155 26.3097C206.75 25.8685 206.287 25.6479 205.766 25.6479H199.774C199.253 25.6479 198.79 25.8685 198.385 26.3097C197.98 26.6879 197.777 27.1921 197.777 27.8224V55.5243C197.777 63.3401 199.369 69.4225 202.553 73.7716ZM32.0363 25.8538L32.0226 25.9267C33.1614 26.3901 33.8708 27.5932 33.6637 28.8578L32.9037 33.4981C32.6833 34.8435 31.5019 35.792 30.176 35.7566L30.1709 35.784C29.6389 35.739 29.0867 35.7166 28.5142 35.7166C26.0417 35.7166 23.771 36.1707 21.7022 37.079C19.6838 37.9872 17.943 39.2235 16.4797 40.7877C15.0163 42.3015 13.881 44.118 13.0737 46.2373C12.2663 48.3062 11.8626 50.5516 11.8626 52.9736C11.8626 55.3957 12.2663 57.6664 13.0737 59.7857C13.9315 61.8545 15.1173 63.671 16.631 65.2353C18.1448 66.7491 19.9361 67.9601 22.005 68.8683C24.0738 69.7766 26.3445 70.2307 28.817 70.2307C30.583 70.2307 32.2482 70.0037 33.8124 69.5495C35.4271 69.045 36.8905 68.3133 38.2024 67.3546C39.5143 66.3958 40.6245 65.2353 41.5327 63.8729C42.4914 62.5105 43.1474 60.9462 43.5006 59.1801H42.4934V59.2242H35.3156C33.8274 59.2242 32.621 58.0178 32.621 56.5295V52.4084C32.621 50.9202 33.8274 49.7137 35.3156 49.7137H42.4934V49.719H51.9021C52.8104 49.719 53.5925 50.047 54.2485 50.703C54.9044 51.3589 55.2324 52.1411 55.2324 53.0493C55.2324 56.8842 54.5765 60.4669 53.2645 63.7972C51.9526 67.077 50.1108 69.9532 47.7392 72.4257C45.4181 74.8478 42.6176 76.7652 39.3377 78.1781C36.1083 79.591 32.551 80.2974 28.6656 80.2974C24.8307 80.2974 21.1976 79.6162 17.7664 78.2538C14.3856 76.8409 11.4085 74.9235 8.83506 72.5014C6.3121 70.0289 4.29372 67.1275 2.77994 63.7972C1.31662 60.4669 0.584961 56.859 0.584961 52.9736C0.584961 49.0883 1.31662 45.4804 2.77994 42.1501C4.24326 38.8198 6.23641 35.9436 8.75938 33.5216C11.3328 31.0491 14.3099 29.1316 17.6907 27.7692C21.0715 26.3563 24.6793 25.6499 28.5142 25.6499C29.6965 25.6499 30.8705 25.7179 32.0363 25.8538ZM275.075 61.7228C274.391 60.8015 273.158 59.8803 271.344 58.9959L259.396 53.2843C255.972 51.6261 254.458 49.8507 253.218 47.6802C251.977 45.5097 251.248 42.7828 251.248 39.3926C251.248 35.0076 252.822 31.6175 255.938 29.2223C259.053 26.8271 263.333 25.6479 268.742 25.6479C274.048 25.6479 280.485 27.1951 285.723 30.3273C287.023 31.1011 287.297 32.2066 286.578 33.6437L284.73 37.2549C284.011 38.6552 282.984 38.95 281.649 38.1393C277.403 35.5967 272.302 34.3075 268.639 34.2706C266.551 34.2706 264.873 34.7128 263.641 35.5972C262.408 36.4816 261.792 37.8081 261.792 39.5769C261.792 40.9403 262.203 42.1195 262.99 43.1144C263.778 44.1093 265.079 45.0674 266.859 45.9518L277.129 51.5892C280.553 53.2475 282.984 55.1268 284.422 57.264C285.859 59.4013 286.578 62.2018 286.578 65.6288C286.578 70.2349 284.969 73.8461 281.785 76.4256C278.602 79.005 274.048 80.2948 268.126 80.2948C261.724 80.2948 255.767 78.526 250.221 75.0253C248.954 74.2146 248.68 73.1092 249.399 71.7089L251.248 68.0608C251.967 66.6237 252.994 66.3289 254.329 67.1396C259.293 70.1612 263.846 71.672 268.023 71.672C270.522 71.672 272.508 71.1193 273.946 70.0507C275.383 68.9821 276.102 67.4344 276.102 65.4445C276.102 63.8969 275.76 62.644 275.075 61.7228Z" fill="#050518"/>
<path d="M328.899 8.17763L323.959 2.11114C323.025 0.963217 321.623 0.296952 320.142 0.296952H311.54C309.881 0.296952 308.966 2.22275 310.013 3.50909L321.357 17.4398L328.899 8.17763Z" fill="url(#paint0_linear_2498_112110)"/>
<path d="M333.977 32.9383L338.916 39.0031C339.851 40.151 341.253 40.8173 342.733 40.8173H351.335C352.994 40.8173 353.91 38.8915 352.862 37.6051L341.52 23.6761L333.977 32.9383Z" fill="url(#paint1_linear_2498_112110)"/>
<path d="M338.918 2.11106C339.852 0.96314 341.254 0.296875 342.735 0.296875H351.337C352.996 0.296875 353.911 2.22267 352.864 3.50902L323.961 39.003C323.026 40.1509 321.624 40.8172 320.144 40.8172H311.542C309.883 40.8172 308.967 38.8914 310.015 37.605L338.918 2.11106Z" fill="url(#paint2_linear_2498_112110)"/>
<defs>
<linearGradient id="paint0_linear_2498_112110" x1="309.567" y1="1.86337" x2="356.089" y2="45.1069" gradientUnits="userSpaceOnUse">
<stop stop-color="#FFB35A"/>
<stop offset="1" stop-color="#FF145B"/>
</linearGradient>
<linearGradient id="paint1_linear_2498_112110" x1="309.567" y1="1.86337" x2="356.089" y2="45.1069" gradientUnits="userSpaceOnUse">
<stop stop-color="#FFB35A"/>
<stop offset="1" stop-color="#FF145B"/>
</linearGradient>
<linearGradient id="paint2_linear_2498_112110" x1="309.567" y1="1.86337" x2="356.089" y2="45.1069" gradientUnits="userSpaceOnUse">
<stop stop-color="#FFB35A"/>
<stop offset="1" stop-color="#FF145B"/>
</linearGradient>
</defs>
</svg>
