<svg xmlns="http://www.w3.org/2000/svg" role="img" viewBox="141.72 150.72 1158.56 346.56"><title>Algorand Foundation logo</title><style>svg {enable-background:new 0 0 1500 650}</style><path d="M457.8 233.2v180.5H421V233.2h36.8zM608 292v122.1c0 37.9-29.5 61.2-65.6 61.2-34.8 0-60.8-21.6-63.3-52.1l36.7.2c1.5 13 12.9 18.6 27.9 18.6 14.2 0 27.4-7.6 27.4-27.4V399c-9.4 6.1-21.4 9.7-34.8 9.7-33.6 0-60.5-27.2-60.5-58.5 0-36.4 27-60.8 60.5-60.8 13.5 0 25.4 3.6 34.8 9.7v-6.6l36.9-.5zm-36.8 71.9v-29.7c-7.5-10.9-17.9-14.5-28.2-14.5-18.1 0-30.7 12.1-30.7 30.5 0 13.5 12.6 28.3 30.7 28.3 10.3-.1 20.7-3.8 28.2-14.6zm183.6-12.5c0 37.6-27.8 64.4-65.1 64.4-37.6 0-65.4-26.8-65.4-64.4 0-37.3 27.8-64.6 65.4-64.6 37.3 0 65.1 27.3 65.1 64.6zm-35.5 0c0-17.7-11.6-32-29.6-32-18.2 0-29.8 14.3-29.8 32 0 18.2 11.6 31.8 29.8 31.8 17.9-.1 29.6-13.6 29.6-31.8zm264-59.2v121.3l-36.1.2v-6.9c-9.4 6.1-21.4 9.9-34.8 9.9-33.6 0-60.5-28.5-60.5-63.6 0-35.3 27-63.8 60.5-63.8 13.5 0 25.4 3.8 34.8 9.9v-6.9l36.1-.1zm-36.1 79.5v-37.2c-7.6-10.8-18.2-13.8-28.8-13.8-18.5 0-31.3 14.8-31.3 32.5 0 17.5 12.8 32.3 31.3 32.3 10.6-.1 21.2-3 28.8-13.8zm184.5-23.9v65.9h-35.5v-61.6c0-19.8-9.9-30.3-27.5-30.3-9.2 0-19.3 5.3-28 15.5v76.4h-36.3V292.4h36.3v9.2c9.9-7.9 21.4-12.2 35.1-12.2 32.4 0 55.9 22.8 55.9 58.4z"/><path d="M404.2 413.6h-37.5l-24.4-90.7-52.5 90.7h-41.9l81-140.4-13-48.8-109.3 189.3h-41.9l138.5-240h36.7l16.1 59.6h37.9l-25.9 45z" id="lINT7W_1_"/><path d="M1278.3 233.2v180.5h-36.8v-6.9c-9.4 6.1-21.4 9.9-34.8 9.9-33.6 0-60.5-28.5-60.5-63.8 0-35.1 27-63.6 60.5-63.6 13.5 0 25.4 3.8 34.8 9.9v-66.1l36.8.1zm-36.8 138.6v-37.5c-7.7-10.9-18.4-13.9-29-13.9-18.6 0-31.5 14.9-31.5 32.5 0 17.9 12.9 32.8 31.5 32.8 10.6 0 21.3-3 29-13.9zM845.3 323c-8 1-26.8 1.9-37.8 17.1v73.7h-36.3V292.6h36.3v9.1c8.3-7.1 20.8-11.3 37.8-9.6"/></svg>