<svg xmlns="http://www.w3.org/2000/svg" role="img" viewBox="-59.95 -59.95 3117.40 499.90"><title>Arbitrum Nova logo</title><style>svg {enable-background:new 0 0 3000 381.82}</style><style>.st0{fill:#ef8220}</style><path d="M770.51 380.53c-16.58 0-31.31-3.24-44.17-9.72-12.87-6.48-22.72-15.67-29.54-27.59-6.83-11.92-10.23-25.56-10.23-40.94 0-22.62 7.13-40.16 21.37-52.59 14.25-12.44 34.5-20.82 60.76-25.13l61.67-9.07c5.7-.69 10.19-1.64 13.47-2.85 3.28-1.21 5.91-3.19 7.9-5.96 1.98-2.76 2.98-6.39 2.98-10.88 0-6.91-2.07-13.34-6.22-19.3-4.15-5.96-10.1-10.71-17.88-14.25-7.77-3.54-17.1-5.31-27.98-5.31-9.5 0-18.27 1.65-26.3 4.92-8.03 3.28-15.16 7.77-21.37 13.47-6.22 5.7-11.75 12.87-16.58 21.5l-45.08-26.17c6.22-13.47 14.51-24.96 24.87-34.46 10.36-9.5 22.67-16.75 36.92-21.76 14.25-5.01 30.53-7.51 48.84-7.51 21.76 0 40.81 3.89 57.13 11.66s28.93 18.65 37.83 32.64c8.89 13.99 13.34 30.06 13.34 48.19v176.44h-57.52v-45.08h-3.11c-7.77 15.89-18.27 28.16-31.48 36.79-13.22 8.63-29.76 12.96-49.62 12.96zm15.8-47.42c14.34 0 26.64-3.32 36.92-9.98 10.27-6.65 18.09-15.59 23.45-26.82 5.35-11.22 8.03-23.23 8.03-36.01v-10.62c-3.11 1.9-6.31 3.37-9.59 4.4-3.28 1.04-7.95 2.07-13.99 3.11l-54.41 8.55c-9.33 1.38-16.93 4.79-22.8 10.23-5.88 5.44-8.81 13-8.81 22.67 0 6.91 1.64 12.95 4.92 18.13 3.28 5.18 8.07 9.2 14.38 12.05 6.31 2.87 13.61 4.29 21.9 4.29zm153.9 42.75V112.62h59.59v56.23h3.37c5.01-19.17 14.64-33.3 28.89-42.36 14.25-9.07 30.53-13.6 48.84-13.6h13.47v57.26h-13.47c-16.24 0-30.49 3.07-42.75 9.2-12.27 6.13-21.72 14.77-28.37 25.91-6.65 11.14-9.98 24.14-9.98 38.99v131.62h-59.59zm325.03 5.7c-12.44 0-24.53-1.94-36.27-5.83-11.75-3.89-22.28-9.63-31.61-17.23-9.33-7.6-17.02-16.84-23.06-27.72h-3.11v45.08h-59.59V2.25h59.59v155.71h3.11c5.53-10.36 12.87-19.39 22.02-27.07s19.56-13.6 31.22-17.75 24.14-6.22 37.44-6.22c22.11 0 41.75 5.74 58.94 17.23 17.18 11.49 30.66 27.68 40.42 48.58 9.76 20.9 14.64 45 14.64 72.29 0 28.16-5.05 52.51-15.16 73.07-10.1 20.55-23.75 36.27-40.94 47.15-17.18 10.88-36.39 16.32-57.64 16.32zM1244.26 330c14.33 0 27.11-3.45 38.35-10.36 11.22-6.91 20.08-16.84 26.56-29.8 6.48-12.95 9.72-28.07 9.72-45.34 0-17.44-3.15-32.6-9.46-45.47-6.31-12.87-15.12-22.76-26.43-29.67-11.32-6.91-24.14-10.36-38.47-10.36-14.86 0-27.94 3.59-39.25 10.75-11.32 7.17-19.99 17.28-26.04 30.32-6.05 13.04-9.07 27.94-9.07 44.69 0 17.27 3.06 32.3 9.2 45.08 6.13 12.78 14.81 22.67 26.04 29.67 11.21 7 24.16 10.49 38.85 10.49zm163.06-257.28V11.84h61.67v60.89h-61.67zm1.04 303.14V112.62h59.59v263.24h-59.59zm194.81 0c-16.58 0-29.84-2.37-39.77-7.13-9.93-4.75-16.97-11.57-21.11-20.47-4.15-8.9-6.22-19.73-6.22-32.52V162.89h-47.93v-50h47.93V46.3h59.33v66.59h63.22v50h-63.22v152.86c0 2.94.65 5.27 1.94 7 1.29 1.73 3.93 2.59 7.9 2.59h52.85v50.52h-54.92zm78.18 0V112.62h59.59v56.23h3.37c5.01-19.17 14.64-33.3 28.89-42.36 14.25-9.07 30.53-13.6 48.84-13.6h13.47v57.26h-13.47c-16.24 0-30.49 3.07-42.75 9.2-12.27 6.13-21.72 14.77-28.37 25.91-6.65 11.14-9.97 24.14-9.97 38.99v131.62h-59.6zm404.98-263.24v263.24h-59.59v-46.64h-3.11c-6.39 16.58-16.54 29.5-30.44 38.74-13.91 9.23-30.62 13.86-50.13 13.86-20.73 0-38.05-4.49-51.95-13.47-13.91-8.98-24.19-21.15-30.83-36.53-6.65-15.37-9.97-33.07-9.97-53.11V112.62h59.33v156.23c0 19.35 4.79 34.33 14.38 44.95 9.59 10.63 22.84 15.94 39.77 15.94 13.12 0 24.35-2.85 33.68-8.55 9.33-5.7 16.54-13.51 21.63-23.45 5.09-9.93 7.64-21.03 7.64-33.29V112.62h59.59zm33.72 263.24V112.62h59.59v42.49h2.59c3.8-10.19 9.59-18.95 17.36-26.3 7.77-7.34 17.06-12.91 27.85-16.71 10.79-3.8 22.76-5.7 35.89-5.7 18.82 0 34.63 4.19 47.41 12.57 12.78 8.38 22.02 20.26 27.72 35.63h2.59c6.04-15.72 16.41-27.64 31.09-35.76 14.68-8.12 31.95-12.17 51.82-12.17 18.82 0 34.76 3.93 47.8 11.79 13.04 7.86 22.84 19.17 29.41 33.94 6.56 14.77 9.85 32.08 9.85 51.95v171.52h-59.33V214.19c0-17.44-4.53-31.05-13.6-40.81-9.07-9.76-21.72-14.64-37.95-14.64-11.58 0-21.38 2.59-29.41 7.77-8.03 5.18-14.25 12.35-18.65 21.51-4.4 9.16-6.61 19.95-6.61 32.39v155.45h-59.59V212.63c0-16.93-4.32-30.18-12.95-39.77-8.64-9.59-20.73-14.38-36.27-14.38-11.75 0-21.85 2.63-30.31 7.9-8.47 5.27-15.03 12.57-19.69 21.89-4.67 9.33-7 20.13-7 32.39v155.19h-59.61z"/><path d="M2579.84 112.85V2.55h15.5v22.26h.89c2.88-7.67 7.51-13.71 13.9-18.11 6.39-4.39 14.01-6.59 22.87-6.59 8.64 0 15.91 1.87 21.82 5.59 5.91 3.73 10.3 8.88 13.18 15.45s4.32 14.22 4.32 22.92v68.77h-15.51V46.18c0-10.34-2.47-18.31-7.42-23.92-4.95-5.61-11.81-8.42-20.6-8.42-6.94 0-12.9 1.57-17.89 4.71s-8.82 7.4-11.52 12.79c-2.69 5.39-4.04 11.33-4.04 17.83v63.68h-15.5zm165.6 2.44c-10.04 0-19.25-2.42-27.63-7.25-8.38-4.83-14.99-11.66-19.82-20.49-4.84-8.82-7.25-18.77-7.25-29.85 0-11.15 2.4-21.1 7.2-29.85 4.8-8.75 11.39-15.58 19.77-20.49 8.38-4.91 17.66-7.36 27.85-7.36 10.19 0 19.44 2.44 27.74 7.31s14.86 11.69 19.66 20.44c4.8 8.75 7.2 18.73 7.2 29.95s-2.4 21.21-7.2 29.95c-4.8 8.75-11.37 15.54-19.71 20.38-8.36 4.84-17.62 7.26-27.81 7.26zm0-13.18c7.16 0 13.7-1.85 19.6-5.54 5.9-3.69 10.63-8.9 14.17-15.62 3.54-6.72 5.31-14.47 5.31-23.25 0-8.71-1.75-16.43-5.26-23.15s-8.21-11.96-14.12-15.73c-5.91-3.77-12.48-5.65-19.71-5.65-7.16 0-13.72 1.88-19.66 5.65-5.95 3.77-10.65 9.01-14.12 15.73-3.47 6.72-5.21 14.43-5.21 23.15 0 8.79 1.75 16.52 5.26 23.2s8.23 11.89 14.18 15.61c5.95 3.74 12.47 5.6 19.56 5.6zm102.76 10.74l-44.63-110.3h15.95l28.46 73.32c1.62 4.28 3.06 8.51 4.32 12.68 1.25 4.17 2.29 7.85 3.1 11.02h.77c.81-3.17 1.85-6.83 3.1-10.96 1.25-4.13 2.69-8.38 4.32-12.74l27.69-73.32h16.06l-43.74 110.3h-15.4zm97.98 2.22c-6.94 0-13.09-1.33-18.44-3.99-5.36-2.66-9.43-6.42-12.24-11.29-2.81-4.87-4.21-10.45-4.21-16.72 0-9.3 2.93-16.54 8.8-21.71 5.87-5.17 14.38-8.56 25.53-10.19l26.91-3.88c3.03-.29 5.39-.77 7.09-1.44 1.7-.66 3.01-1.73 3.93-3.21.92-1.47 1.39-3.39 1.39-5.76 0-4.21-1.11-8.08-3.32-11.63-2.21-3.54-5.39-6.38-9.52-8.53-4.14-2.14-9.08-3.21-14.84-3.21-4.95 0-9.38.81-13.29 2.43-3.92 1.63-7.35 3.93-10.3 6.92-2.95 2.99-5.54 6.74-7.75 11.24l-12.07-6.53c2.58-5.98 5.98-11.02 10.19-15.12 4.21-4.1 9.14-7.16 14.79-9.19 5.65-2.03 11.94-3.04 18.88-3.04 8.49 0 15.93 1.59 22.31 4.76 6.39 3.18 11.31 7.62 14.79 13.35 3.47 5.72 5.2 12.2 5.2 19.43v75.09h-15.06V89.93h-1.11c-3.18 7.83-7.86 13.97-14.07 18.44-6.2 4.46-14.07 6.7-23.59 6.7zm3.43-12.96c7.6 0 14.06-1.83 19.38-5.48 5.31-3.65 9.3-8.53 11.96-14.62s3.99-12.6 3.99-19.54v-7.42c-1.48 1.11-3.09 1.96-4.82 2.55-1.74.59-4.15 1.15-7.26 1.66l-25.25 3.43c-6.27.89-11.35 2.92-15.23 6.1-3.88 3.17-5.82 7.75-5.82 13.73 0 3.91.94 7.34 2.83 10.3 1.88 2.95 4.59 5.24 8.14 6.86 3.55 1.62 7.58 2.43 12.08 2.43z" class="st0"/><path d="M190.44 2.6h-50.28c-3.47 0-6.57 2.17-7.76 5.43L.25 370.32c-.98 2.69 1.01 5.55 3.88 5.55h50.28c3.47 0 6.57-2.17 7.76-5.43L194.33 8.15c.98-2.7-1.02-5.55-3.89-5.55zm61.16 151.8c-1.32-3.62-6.44-3.62-7.76 0l-26.07 71.46c-.67 1.83-.67 3.83 0 5.66l50.67 138.91c1.19 3.26 4.29 5.43 7.76 5.43h50.28c2.87 0 4.86-2.85 3.88-5.55L251.6 154.4zm128.17 69.95c1.32 3.62 6.44 3.62 7.76 0l78.86-216.2c.98-2.69-1.01-5.55-3.88-5.55h-50.28c-3.47 0-6.57 2.17-7.76 5.43L353.7 147.22c-.67 1.83-.67 3.83 0 5.66l26.07 71.47zM280.64 7.99c-1.18-3.24-4.26-5.39-7.7-5.39h-50.45c-3.47 0-6.57 2.17-7.76 5.43L82.58 370.32c-.98 2.69 1.01 5.55 3.88 5.55h50.28c3.47 0 6.57-2.17 7.76-5.43L245.68 93.05c.66-1.82 3.24-1.82 3.9 0l101.18 277.39c1.19 3.26 4.29 5.43 7.76 5.43h50.28c2.87 0 4.86-2.85 3.88-5.55L280.64 7.99zM544.83 2.6h-50.28c-3.47 0-6.57 2.17-7.76 5.43l-91.93 252.03c-.67 1.83-.67 3.83 0 5.66l26.07 71.47c1.32 3.62 6.44 3.62 7.76 0l91-249.48 29.02-79.56c.99-2.7-1.01-5.55-3.88-5.55z" class="st0"/></svg>