<svg xmlns="http://www.w3.org/2000/svg" role="img" viewBox="-49.95 -52.45 2597.40 899.90"><title>Astar logo</title><style>svg {enable-background:new 0 0 2500 797.9}</style><style>.st2{opacity:.8;fill:#fff;enable-background:new}</style><linearGradient id="SVGID_1_" x1="126.745" x2="636.103" y1="2371.717" y2="1862.292" gradientTransform="translate(0 -1700.128)" gradientUnits="userSpaceOnUse"><stop offset="0" stop-color="#e6007a"/><stop offset=".21" stop-color="#703ac2"/><stop offset=".46" stop-color="#0070eb"/><stop offset=".77" stop-color="#0297fb"/><stop offset="1" stop-color="#0ae2ff"/></linearGradient><path fill="url(#SVGID_1_)" d="M797.9 371.8C782.9 151.7 592.3-14.6 372.2.4c-109.6 7.5-205.9 58.5-273.1 135l-.2-.1c-.5.6-.9 1.2-1.3 1.8-66.7 77-104.3 179.3-96.8 289 .7 10.5 1.9 20.7 3.4 30.9 0 .5.1.9.2 1.4 1 6.7 2.2 13.4 3.5 20 1.2 6.1 2.6 12.1 4.1 18.1 46.2 184 218.5 314.3 414.5 301 220.1-15 386.4-205.5 371.4-425.7 0-.1 0 0 0 0zm-87 6c1.9 27.1.1 53.6-4.7 79.2 0-.1-.1-.3-.1-.4-29-70.8-86.3-121.9-136.6-150.1C579.7 186.6 539 136 492.9 127.8c-36.2-6.8-71 17-77.8 53.2l-.6 3.9c-4.7 36.5 21.1 69.9 57.6 74.6h.1c3.2.4 6.4.5 9.4.5.2 4.3.3 8.6.3 12.9-42.6-10.5-82.4-12.7-118.7-9.4-13.7.9-27.2 2.6-40.7 5.1 4.5-40.5 19.8-86 49.2-119.2 28.5-32.2 70.9-50.6 117.1-45.9 8.8.9 18.1 3.1 26.5 5.9.4.1.8.3 1.2.3 107.2 43.6 186 145.2 194.4 268.1-.1 0 0 0 0 0zm-278.5 61s0 .1-.1.1c-10.1 14.5-21.5 28-34.2 40.4-19.1-20.2-35.3-43-48.1-67.8-.6-1.3-1.3-2.5-1.9-3.8v-.1c-7.5-16-13.5-32.7-17.9-49.8 28.4-6.7 56.2-9.2 82.8-7.9l4.2.2h.1c16.7 1.4 34.1 4.4 52 9.4-8.2 28.1-20.7 54.8-36.9 79.3.1-.1 0 0 0 0zM296 104.2l-.2.3C248.9 165 233.3 240.1 234 297.8c-109 51.1-132.4 111.6-116.5 155.7.4 1.2.9 2.4 1.4 3.6 14.2 34 53.3 50 87.3 35.8s50-53.3 35.8-87.3c-1.2-2.9-2.7-5.7-4.3-8.4 3.4-2.3 7.1-4.5 11.1-6.8 12.2 42.2 30.1 77.8 51.1 107.6 7.6 11.3 15.8 22.1 24.7 32.6-37.3 16.3-84.4 25.9-127.9 17-42.1-8.6-79.2-36.1-98.3-78.5-3.7-8.3-6.4-17-8.2-25.9-1.1-7.6-2-15.3-2.5-23-9.7-143.2 79-270.6 208.3-316zm124.5 606.3c-85 5.8-164.4-23.2-224.5-74.7 75.8 10.3 148.6-13.7 198.3-43.2 98.8 68.8 162.9 58.9 193.1 23.1 24-28 20.8-70.1-7.2-94.1-1-.9-2-1.7-3.1-2.5-29.3-22.3-71.2-16.7-93.5 12.6-1.9 2.5-3.6 5.3-5.1 8-3.6-1.9-7.5-3.9-11.3-6.2 27.8-28.7 50.6-61.9 67.5-98.2 6-12.3 11.3-24.9 15.9-37.8 32.8 24.2 64.7 60.1 78.8 102.3 13.6 40.7 8.4 86.7-18.8 124.4-5.4 7.3-11.5 14-18.3 20l-.3.3c-49.2 38.8-109 61.7-171.5 66 .1-.1 0 0 0 0z"/><radialGradient id="SVGID_00000001664060367670695910000006294024480406427054_" cx="42.522" cy="174.869" r="13.317" gradientTransform="translate(28.142 -1676.868) scale(11.408)" gradientUnits="userSpaceOnUse"><stop offset="0" stop-color="#fff"/><stop offset="1" stop-color="#fff" stop-opacity="0"/></radialGradient><path fill="url(#SVGID_00000001664060367670695910000006294024480406427054_)" d="M492.9 127.6c-7.5-1.4-15.2-1.5-22.7-.3 38.2 20.8 66.1 78.7 51.4 193-4.8 37.2-15.8 73.3-32.3 106.9-14.3 30.7-32.9 59.2-55.2 84.6 10.6 8 21.7 15.2 33.2 21.8 27.8-28.7 50.7-61.9 67.5-98.2 16.6-33.6 27.5-69.7 32.3-106.9 17.4-135.9-25.4-192.1-74.2-200.9z" opacity=".9"/><path d="M521.6 320.3c14.6-114.3-13.2-172.2-51.4-193-1.5.2-2.9.5-4.4.9 37.4 21.5 64.3 79.4 49.9 192.1-4.8 37.2-15.8 73.3-32.3 106.9-13.8 29.6-31.5 57.2-52.9 81.9 1.2 1 2.4 1.9 3.6 2.7 22.3-25.5 40.9-54 55.2-84.6 16.5-33.6 27.5-69.7 32.3-106.9z" class="st2"/><radialGradient id="SVGID_00000129901515283346007790000002715675913927556755_" cx="41.073" cy="339.73" r="13.317" gradientTransform="translate(16.052 -1655.417) scale(6.6384)" gradientUnits="userSpaceOnUse"><stop offset="0" stop-color="#fff"/><stop offset="1" stop-color="#fff" stop-opacity="0"/></radialGradient><path fill="url(#SVGID_00000129901515283346007790000002715675913927556755_)" d="M376.3 579.5c-3.6-2.7-7-5.6-10.5-8.5-56.4 23.5-134.6 38.3-212.2 20.2 12.6 16.2 26.9 31.1 42.5 44.5 75.8 10.3 148.6-13.7 198.3-43.2-6.2-4.2-12.2-8.6-18.1-13z" opacity=".5"/><linearGradient id="SVGID_00000136405268641997999640000004915726428677784506_" x1="156.063" x2="241.265" y1="2285.027" y2="2283.856" gradientTransform="translate(0 -1700.128)" gradientUnits="userSpaceOnUse"><stop offset="0" stop-color="#fff" stop-opacity="0"/><stop offset="1" stop-color="#fff"/></linearGradient><path fill="url(#SVGID_00000136405268641997999640000004915726428677784506_)" d="M365.8 571c-1.7-1.4-3.5-2.9-5.1-4.3-56.8 22.7-135.4 36.3-212.8 17 1.9 2.5 3.8 5.1 5.7 7.6 77.6 18 155.8 3.2 212.2-20.3z" opacity=".6"/><radialGradient id="SVGID_00000118387680666163968690000003140356109706171805_" cx="-162.976" cy="-69.209" r="13.317" gradientTransform="rotate(-120 -467.127 -839.767) scale(11.408)" gradientUnits="userSpaceOnUse"><stop offset="0" stop-color="#fff"/><stop offset="1" stop-color="#fff" stop-opacity="0"/></radialGradient><path fill="url(#SVGID_00000118387680666163968690000003140356109706171805_)" d="M117.6 453.5c.4 1.2.9 2.4 1.4 3.6 2.5 6 5.8 11.4 9.8 16.3-1.1-43.5 35.1-96.6 141.4-141.1 34.6-14.4 71.4-23 108.8-25.4 33.7-3 67.7-1.2 100.9 5.5 1.7-14.4 2.4-27.8 2.3-39.6-38.8-9.8-78.9-12.9-118.8-9.4-37.4 2.5-74.2 11-108.8 25.4-126.6 53-153.9 118.1-137 164.7z" opacity=".9"/><path d="M270.1 332.4c-106.2 44.4-142.5 97.6-141.4 141 1 1.2 2 2.3 3 3.4-.1-43.1 36.6-95.4 141.4-139.3 34.6-14.4 71.4-23 108.8-25.4 32.5-2.9 65.3-1.3 97.4 4.8.2-1.5.4-3 .5-4.5-33.2-6.6-67.2-8.4-100.9-5.5-37.4 2.5-74.2 11-108.8 25.5 0-.1 0 0 0 0z" class="st2"/><radialGradient id="SVGID_00000098941716014837159860000016028376949046645154_" cx="-312.075" cy="-79.715" r="13.317" gradientTransform="rotate(-120 -454.889 -846.997) scale(6.6384)" gradientUnits="userSpaceOnUse"><stop offset="0" stop-color="#fff"/><stop offset="1" stop-color="#fff" stop-opacity="0"/></radialGradient><path fill="url(#SVGID_00000098941716014837159860000016028376949046645154_)" d="M567.2 328.6c-.5 4.5-1.3 8.9-2.1 13.3 48.5 37.1 100.4 97.4 123.7 173.7 7.7-19.1 13.5-38.9 17.3-59.1-28.9-70.8-86.2-121.8-136.5-150.1-.6 7.2-1.4 14.5-2.4 22.2z" opacity=".4"/><linearGradient id="SVGID_00000041283959776354318990000017780110906405402299_" x1="681.981" x2="638.368" y1="2216.732" y2="2143.543" gradientTransform="translate(0 -1700.128)" gradientUnits="userSpaceOnUse"><stop offset="0" stop-color="#fff" stop-opacity="0"/><stop offset="1" stop-color="#fff"/></linearGradient><path fill="url(#SVGID_00000041283959776354318990000017780110906405402299_)" d="M565.1 341.9l-1.2 6.6C612 386.4 663 447.6 685 524.3c1.3-2.9 2.5-5.9 3.7-8.8-23.2-76.2-75-136.5-123.6-173.6z" opacity=".5"/><radialGradient id="SVGID_00000016068284472764112450000001790354908580564645_" cx="150.95" cy="-124.346" r="13.317" gradientTransform="rotate(120 500.864 -823.939) scale(11.408)" gradientUnits="userSpaceOnUse"><stop offset="0" stop-color="#fff"/><stop offset="1" stop-color="#fff" stop-opacity="0"/></radialGradient><path fill="url(#SVGID_00000016068284472764112450000001790354908580564645_)" d="M587.5 615.6c4.9-5.8 8.9-12.4 11.6-19.5-37.1 22.7-101.2 17.8-192.9-52-29.8-22.8-55.6-50.3-76.4-81.5-19.5-27.7-34.9-58-45.7-90.1-13.3 5.7-25.2 11.8-35.5 17.8 11 38.5 28.3 74.8 51.3 107.5 20.5 30.6 46.1 58.3 76.4 81.5 109.1 83.2 179.2 74.2 211.2 36.3z" opacity=".9"/><path d="M406.3 544.1c91.6 69.8 155.7 74.7 192.9 51.9.5-1.4 1-2.9 1.4-4.2-37.3 21.7-100.9 16-191.3-52.8-29.8-22.8-55.6-50.3-76.4-81.5-18.8-26.7-33.7-55.9-44.5-86.7l-4.2 1.8c10.9 32.1 26.3 62.4 45.7 90.1 20.5 30.6 46.1 58.3 76.4 81.4z" class="st2"/><radialGradient id="SVGID_00000129184398695700039790000011476897921848833725_" cx="227.76" cy="-175.827" r="13.317" gradientTransform="rotate(120 500.833 -837.728) scale(6.6384)" gradientUnits="userSpaceOnUse"><stop offset="0" stop-color="#fff"/><stop offset="1" stop-color="#fff" stop-opacity="0"/></radialGradient><path fill="url(#SVGID_00000129184398695700039790000011476897921848833725_)" d="M254.4 288.7c4.2-1.7 8.3-3.3 12.6-4.9 7.8-60.6 34.1-135.7 88.6-193.9-20.4 2.9-40.4 7.7-59.8 14.5-46.9 60.5-62.5 135.6-61.8 193.3 6.5-3 13.3-6 20.4-9z" opacity=".3"/><linearGradient id="SVGID_00000108278942134268895430000005479056413196495502_" x1="359.752" x2="318.216" y1="1795.299" y2="1869.701" gradientTransform="translate(0 -1700.128)" gradientUnits="userSpaceOnUse"><stop offset="0" stop-color="#fff" stop-opacity="0"/><stop offset="1" stop-color="#fff"/></linearGradient><path fill="url(#SVGID_00000108278942134268895430000005479056413196495502_)" d="M267 283.8c2.1-.7 4.2-1.6 6.3-2.3 8.7-60.6 36.2-135.4 91.7-192.8-3.1.3-6.3.8-9.4 1.2-54.5 58.2-80.8 133.3-88.6 193.9z" opacity=".4"/><linearGradient id="SVGID_00000065771738208163441410000000425271231317766578_" x1="378.413" x2="248.227" y1="1757.526" y2="1795.399" gradientTransform="translate(0 -1700.128)" gradientUnits="userSpaceOnUse"><stop offset="0" stop-color="#231f20"/><stop offset="1" stop-color="#fff"/></linearGradient><path fill="url(#SVGID_00000065771738208163441410000000425271231317766578_)" d="M372.2.4c-109.7 7.5-205.9 58.5-273.1 135l-1.5 1.7c13.1 13 55.9 38.6 73.1 49.2 34.5-37.1 77.5-65.3 125.3-82.1 3.4-4.4 6.9-8.7 10.6-12.9 45.1-50.9 106.7-77.8 178.2-77.8 7.9 0 24.1 1.3 24.5 1.3C464.8 2.1 418.5-2.8 372.2.4z" opacity=".4"/><linearGradient id="SVGID_00000078020049854663534160000013577619061068360600_" x1="132.472" x2="241.325" y1="2253.916" y2="2367.535" gradientTransform="translate(0 -1700.128)" gradientUnits="userSpaceOnUse"><stop offset="0" stop-color="#231f20"/><stop offset="1" stop-color="#fff"/></linearGradient><path fill="url(#SVGID_00000078020049854663534160000013577619061068360600_)" d="M420.5 710.5c-85 5.8-164.4-23.2-224.5-74.7-5.6-.7-11.2-1.7-16.8-2.8-66.7-13.6-120.8-53.5-156.5-115.4-3.9-6.8-7.5-13.9-10.7-21.1 46.2 184 218.5 314.3 414.4 301 .9-20.2-5.1-67-5.9-87z" opacity=".4"/><linearGradient id="SVGID_00000137128699584321698630000002238640050165838270_" x1="716.615" x2="754.488" y1="2236.799" y2="2121.661" gradientTransform="translate(0 -1700.128)" gradientUnits="userSpaceOnUse"><stop offset="0" stop-color="#231f20"/><stop offset="1" stop-color="#fff"/></linearGradient><path fill="url(#SVGID_00000137128699584321698630000002238640050165838270_)" d="M797.9 371.8c-12.3-1.2-72.2 3.5-87 5.9 1.8 27.1.1 53.6-4.7 79.2 2.1 5.1 4 10.3 5.8 15.5 21.5 64.5 14 131.3-21.7 193.3-4 6.8-8.2 13.4-12.9 19.8 0 0 .2-.1.3-.3 81.2-78.8 128.4-191.5 120.2-313.4 0 .1 0 0 0 0z" opacity=".4"/><linearGradient id="SVGID_00000109744727293038273410000008929702042996457386_" x1="437.687" x2="612.179" y1="1823.448" y2="1863.386" gradientTransform="translate(0 -1700.128)" gradientUnits="userSpaceOnUse"><stop offset="0" stop-color="#231f20"/><stop offset="1" stop-color="#fff"/></linearGradient><path fill="url(#SVGID_00000109744727293038273410000008929702042996457386_)" d="M489 103.4c8.7.9 18.1 3.1 26.5 5.9.4.1.8.3 1.2.3 34.3 14 65.8 34 93.2 58.9 0 0 .1.1.2.1 13.1-15 38.4-31.4 38.4-31.4s-38.6-39.5-97.8-51.8c-41.4-8.6-134.7-16.9-193.6 83.3l.5-.5c4.4-6.6 9-13 14.2-18.9 28.6-32.3 70.9-50.7 117.2-45.9z" opacity=".5"/><linearGradient id="SVGID_00000038405876421559075240000004584243182448598656_" x1="618.979" x2="497.063" y1="2270.119" y2="2401.29" gradientTransform="translate(0 -1700.128)" gradientUnits="userSpaceOnUse"><stop offset="0" stop-color="#231f20"/><stop offset="1" stop-color="#fff"/></linearGradient><path fill="url(#SVGID_00000038405876421559075240000004584243182448598656_)" d="M610.5 624.3c-5.4 7.3-11.5 14-18.3 20-.3.3-.6.5-.9.8-29.3 22.7-62.3 40-97.6 51.2-.1 0-.1 0-.2.1 6.4 18.9 8.1 49 8.1 49s53.5-13.7 93.8-58.7c28.1-31.5 82-108.2 24.7-209.3 0 0 .1.3.2.7 3.6 7.1 6.8 14.3 9.2 21.7 13.5 40.9 8.3 86.8-19 124.5.1 0 0 0 0 0z" opacity=".5"/><linearGradient id="SVGID_00000178908908098890300440000004113622388143300021_" x1="141.375" x2="88.773" y1="2203.787" y2="2032.678" gradientTransform="translate(0 -1700.128)" gradientUnits="userSpaceOnUse"><stop offset="0" stop-color="#231f20"/><stop offset="1" stop-color="#fff"/></linearGradient><path fill="url(#SVGID_00000178908908098890300440000004113622388143300021_)" d="M98.6 469.2c-3.7-8.3-6.4-17-8.2-25.9l-.3-1.2c-5.1-36.8-3.4-74.2 4.4-110.1v-.2c-19.6-3.8-46.4-17.5-46.4-17.5s-14.9 53.3 4 110.6C65.4 465 104.8 550 221 550.9c0 0-.3-.1-.7-.2-7.9-.5-15.7-1.3-23.4-2.9-42.2-8.7-79.3-36.2-98.3-78.6-.1 0 0 0 0 0z" opacity=".5"/><linearGradient id="SVGID_00000178883565598935619070000014964393220052007064_" x1="475.846" x2="420.675" y1="1887.779" y2="1943.031" gradientTransform="translate(0 -1700.128)" gradientUnits="userSpaceOnUse"><stop offset="0" stop-color="#231f20"/><stop offset="1" stop-color="#fff"/></linearGradient><path fill="url(#SVGID_00000178883565598935619070000014964393220052007064_)" d="M472.2 259.4c3.2.4 6.4.5 9.4.5 0 0-2.1-41.5-7.2-62.8s-12.7-35.4-20.9-43.4c-5.9-5.7-24.6-12.9-39.1 31-4.7 36.5 21 69.9 57.6 74.6.1 0 .1 0 .2.1z" opacity=".6"/><linearGradient id="SVGID_00000014614452554328056760000002193697364048394909_" x1="178.145" x2="253.545" y1="2138.464" y2="2158.718" gradientTransform="translate(0 -1700.128)" gradientUnits="userSpaceOnUse"><stop offset="0" stop-color="#231f20"/><stop offset="1" stop-color="#fff"/></linearGradient><path fill="url(#SVGID_00000014614452554328056760000002193697364048394909_)" d="M242.1 405.7c-1.2-2.9-2.7-5.7-4.3-8.4 0 0-34.9 22.6-50.8 37.6s-24.3 28.7-27.1 39.8c-2 8 1.2 27.7 46.4 18.3 34-14.2 50-53.3 35.8-87.3z" opacity=".5"/><linearGradient id="SVGID_00000101064005992502796160000000476247461848833922_" x1="544.079" x2="523.877" y1="2270.884" y2="2195.51" gradientTransform="translate(0 -1700.128)" gradientUnits="userSpaceOnUse"><stop offset="0" stop-color="#231f20"/><stop offset="1" stop-color="#fff"/></linearGradient><path fill="url(#SVGID_00000101064005992502796160000000476247461848833922_)" d="M483.8 531.7c-1.9 2.5-3.6 5.3-5.1 8 0 0 37 18.9 58 25.2 21 6.2 37 6.8 48 3.6 7.9-2.3 23.4-14.9-7.3-49.4-29.4-22.3-71.3-16.7-93.6 12.6 0 .1 0 .1 0 0 0 .1 0 0 0 0z" opacity=".6"/><linearGradient id="SVGID_00000083082784683270867660000002405155160280635549_" x1="429.157" x2="462.316" y1="2203.796" y2="2158.066" gradientTransform="translate(0 -1700.128)" gradientUnits="userSpaceOnUse"><stop offset="0" stop-color="#231f20"/><stop offset="1" stop-color="#fff"/></linearGradient><path fill="url(#SVGID_00000083082784683270867660000002405155160280635549_)" d="M469.4 359.6c-8.4 27.9-20.2 53.3-34.6 75.6-.8 1.2-1.5 2.3-2.3 3.6 0 0 0 .1-.1.1-10.1 14.5-21.5 28-34.2 40.4 9.2 9.7 19 19.1 29.9 28.1 12.4 9.7 25.4 18.5 39.1 26.2 27.8-28.7 50.7-61.9 67.5-98.2 6-12.3 11.3-24.9 15.8-37.8-14.1-10.3-28.3-18.6-41.4-24.2-12.9-5.5-26.2-10.1-39.7-13.8z" opacity=".3"/><linearGradient id="SVGID_00000124129599641074542960000003593405069870637756_" x1="315.171" x2="248.919" y1="2184.002" y2="2215.59" gradientTransform="translate(0 -1700.128)" gradientUnits="userSpaceOnUse"><stop offset="0" stop-color="#231f20"/><stop offset="1" stop-color="#fff"/></linearGradient><path fill="url(#SVGID_00000124129599641074542960000003593405069870637756_)" d="M196.1 635.8c75.7 10.3 148.6-13.7 198.3-43.2-6.1-4.3-12.1-8.6-18.1-13.1-18.9-14.4-36.2-30.8-51.7-48.9-37.3 16.3-84.4 25.9-127.9 17-42.1-8.6-79.2-36.1-98.3-78.5-3.7-8.3-6.4-17-8.2-25.9 11 77.3 49.9 144.7 105.9 192.6z" opacity=".3"/><linearGradient id="SVGID_00000031187111095672155430000001967195683501260706_" x1="291.151" x2="311.659" y1="2073.725" y2="2116.326" gradientTransform="translate(0 -1700.128)" gradientUnits="userSpaceOnUse"><stop offset="0" stop-color="#231f20"/><stop offset="1" stop-color="#fff"/></linearGradient><path fill="url(#SVGID_00000031187111095672155430000001967195683501260706_)" d="M398.2 479.3c-19.1-20.2-35.3-43-48.1-67.7-.6-1.3-1.3-2.5-1.9-3.8v-.1c-7.5-16-13.5-32.7-17.9-49.8-13 3.1-26 6.9-39.2 11.8-14.6 5.8-28.7 12.7-42.3 20.6C261 432.5 279 468.1 300 497.9c7.6 11.3 15.8 22.1 24.8 32.6 16-7 30.3-15.2 41.7-23.8 11.2-8.4 21.8-17.6 31.7-27.4.1-.1 0 0 0 0z" opacity=".3"/><linearGradient id="SVGID_00000133506708804104067810000013248451361436247970_" x1="386.386" x2="372.23" y1="1942.234" y2="1893.347" gradientTransform="translate(0 -1700.128)" gradientUnits="userSpaceOnUse"><stop offset="0" stop-color="#231f20"/><stop offset="1" stop-color="#fff"/></linearGradient><path fill="url(#SVGID_00000133506708804104067810000013248451361436247970_)" d="M295.8 104.5C248.9 165 233.3 240.1 234 297.8c6.7-3.2 13.6-6.2 20.4-9.1 21.9-9.2 44.7-16 68.1-20.3 4.5-40.5 19.8-86 49.2-119.2 28.5-32.2 70.9-50.6 117.1-45.9 8.7.9 18.1 3.1 26.5 5.9.4.1.8.3 1.2.3-43.8-17.9-91.2-25.5-138.4-22.2-28.7 2-56.2 7.8-82.2 17-.1 0-.1.1-.1.2z" opacity=".3"/><linearGradient id="SVGID_00000025425560371261989220000003313264515952745120_" x1="539.505" x2="580.521" y1="2166.133" y2="2175.575" gradientTransform="translate(0 -1700.128)" gradientUnits="userSpaceOnUse"><stop offset="0" stop-color="#231f20"/><stop offset="1" stop-color="#fff"/></linearGradient><path fill="url(#SVGID_00000025425560371261989220000003313264515952745120_)" d="M706.1 456.4c-29-70.8-86.3-121.9-136.6-150.1-.6 7.2-1.4 14.6-2.4 22.3-3.1 23.6-8.6 46.7-16.5 69.1 32.8 24.2 64.7 60.1 78.8 102.3 13.6 40.7 8.4 86.7-18.8 124.4-5.4 7.3-11.5 14-18.3 20l-.3.3c58.7-46.1 100.1-112.5 114.4-187.7 0-.1-.1-.3-.1-.4l-.2-.2z" opacity=".3"/><linearGradient id="SVGID_00000009576115242238885240000018444475358471015863_" x1="475.174" x2="423.145" y1="2027.476" y2="2018.034" gradientTransform="translate(0 -1700.128)" gradientUnits="userSpaceOnUse"><stop offset="0" stop-color="#231f20"/><stop offset="1" stop-color="#fff"/></linearGradient><path fill="url(#SVGID_00000009576115242238885240000018444475358471015863_)" d="M322.4 316.5c1.7 13.9 4.3 27.7 7.9 41.3 28.4-6.7 56.2-9.2 82.8-7.9l4.2.2h.1c16.7 1.4 34.1 4.4 52 9.4 3.8-12.8 7-26.1 9.4-39.9 2.5-17.2 3.3-33.2 3.2-47-42.6-10.5-82.4-12.7-118.7-9.4-13.7.9-27.2 2.6-40.7 5.1-1.9 17.5-2 33.9-.2 48.2z" opacity=".3"/><linearGradient id="SVGID_00000100350646998241746160000007567678422552465583_" x1="1039" x2="2003.4" y1="383.85" y2="383.85" gradientTransform="matrix(1 0 0 -1 0 800)" gradientUnits="userSpaceOnUse"><stop offset="0" stop-color="#e6007a"/><stop offset=".21" stop-color="#703ac2"/><stop offset=".46" stop-color="#0070eb"/><stop offset=".77" stop-color="#0297fb"/><stop offset="1" stop-color="#0ae2ff"/></linearGradient><path fill="url(#SVGID_00000100350646998241746160000007567678422552465583_)" d="M2003.1 296.2l-51.4 143.1h.4l51.3-142.3-.3-.8zm-912.7 0L1039 439.3h.2l51.4-142.6c0-.1-.2-.5-.2-.5zm12.9 35.7l38.6 107.3h-77.3l-19.5 54.1h116.5l33 91.8h73.9l-134.7-337.9-30.5 84.7z"/><linearGradient id="SVGID_00000039120632757746189760000013195797265065001358_" x1="917" x2="2499.9" y1="389.2" y2="389.2" gradientTransform="matrix(1 0 0 -1 0 800)" gradientUnits="userSpaceOnUse"><stop offset="0" stop-color="#e6007a"/><stop offset=".21" stop-color="#703ac2"/><stop offset=".46" stop-color="#0070eb"/><stop offset=".77" stop-color="#0297fb"/><stop offset="1" stop-color="#0ae2ff"/></linearGradient><path fill="url(#SVGID_00000039120632757746189760000013195797265065001358_)" d="M1039 439.3l51.4-143.1.2.5 21.7-60.2h-56.7L917 585.2h69.6l52.6-146-.2.1zm453.4-33.7c-16.8-9.9-39.2-19.2-67-27.8-15.9-5.2-28.4-10-37.4-14.4s-15.3-9.5-18.8-15.1c-3.5-5.7-5.3-12.3-5.3-20 0-13.5 5.2-23.9 15.6-31.2 10.4-7.3 25-11 43.6-11 15.3 0 31.2 2.3 47.9 6.9 16.7 4.6 31.4 10.9 44.3 18.8l9.6-56.4c-13.1-7.9-29.1-14.3-47.9-19.1-18.4-4.7-37.3-7.1-56.2-7.1-25.4 0-47.4 4.1-66 12.4-18.7 8.3-33.1 20-43.3 35.3-10.3 15.3-15.4 33.4-15.4 54.1 0 17.8 3.4 33.1 10.3 46.1s18.1 24.3 33.7 33.7c15.6 9.5 36.1 18.1 61.5 25.7 18.3 5.6 32.5 10.7 42.7 15.6 10.1 4.9 17.2 10.3 21.1 16.3 4 6 5.9 13.1 5.9 21.3 0 14.4-5.9 25.6-17.6 33.7-11.8 8.1-28.1 12.2-48.9 12.2-18.1 0-36.9-2.8-56.7-8.5-19.8-5.7-36.9-12.9-51.6-21.8l-6.4 58.2c8.5 5.8 19.3 10.9 32.1 15.1 12.9 4.3 26.7 7.7 41.5 10.1 14.8 2.5 29.6 3.7 44.3 3.7 41.3 0 73.7-9.4 97.3-28.2 23.5-18.8 35.3-44.9 35.3-78.2 0-17.7-3.8-33.1-11.5-46.1-7.6-12.9-19.8-24.4-36.7-34.3zm366.1-169.1h-295v56.9h295v-56.9zm-112.4 80.7h-70.2v268h70.2v-268zm205.6 122.1l51.4-143.1.3.8 21.8-60.5h-57l-138.5 348.8h69.7l33-91.8h.1l19.6-54.1-.4-.1zm64.3-107.1l38.4 107.1h-77.1l-19.5 54.1h116.3l33 91.8h73.9l-134.6-337.6-30.4 84.6zm392.2 111.7c16.6-9.3 30.8-22.4 41.3-38.3 10.7-16.1 16.1-34.8 16.1-56.2 0-23.3-5.2-43.3-15.6-60.1-10.4-16.8-25.2-29.8-44.5-39s-42.2-13.7-68.8-13.7h-24.4v52.8h15.2c46.5 0 69.7 19.9 69.7 59.6s-24 59.6-72.1 59.6h-12.9v52.8h35.8l73.4 123.9h78.5l-91.7-141.4zm-119.7-207.4H2222v348.7h66.5V236.5z"/></svg>