<svg xmlns="http://www.w3.org/2000/svg" role="img" viewBox="-5.59 -5.59 550.68 382.68"><title>Astar Gaming Guild logo</title><path d="M243 6c-35.6 4.9-69.8 23.3-92.6 49.8-17.1 19.9-28.1 42.5-33.6 68.8-3 14.3-3.2 41.1-.4 54.9 14.7 73.9 78.2 124.5 152 121.2 15.7-.7 26.4-2.7 40.6-7.4 49.9-16.6 86.8-58.2 98.2-110.6 3.2-14.8 3.2-44.6 0-59.4-6.3-29.2-19.8-54-40.7-74.8-20.9-21-47.7-35.3-76.7-41-9.7-2-37.2-2.8-46.8-1.5zm43.1 10.9c55.6 10 98.6 51.6 111.1 107.2 3.1 13.9 3.3 42.6.4 55.9-6 27.6-18.7 51.1-38.1 70.5-15.5 15.6-32.1 25.9-52.5 32.8-14.3 4.9-24.2 6.7-39 7.4-66.7 2.9-125.3-41.5-140.7-106.7-3.3-14.2-4.2-37.3-2-51.5 7.1-44.3 34-82.1 72.7-101.9 21.5-11 39.4-15.4 63.6-15.5 9.7-.1 17.3.5 24.5 1.8z"/><path d="M241.5 75.9c-3.7 1.7-8.5 6.8-8.5 9 0 2-1.9 2.1-5.2.3-7.6-4.2-19.3-6-28.3-4.3-18.8 3.4-34.8 19.6-38.5 38.6-.8 4.1-1 18.8-.8 46l.3 40 2.8 5.4c6.6 12.4 17.5 18.8 30.7 17.9 8.1-.6 16-4.3 21.1-9.9 2-2.2 8.5-12.9 14.5-23.9l10.9-20h40.4l2 2.9c1.2 1.6 2.1 3.2 2.1 3.5 0 .4 1.9 3.9 4.2 7.9 2.2 4 5.1 9 6.2 11.2 7.6 14.3 12.4 20.3 19.5 24.3 6.1 3.4 7.2 3.7 14.6 3.7 6.6 0 9-.5 13.6-2.6 7.1-3.3 12.5-8.7 15.8-15.8l2.6-5.6.3-39.7c.3-44.2-.1-47.9-6.1-59.2-6.3-11.9-19.8-21.9-33.4-24.7-7.7-1.6-18.4-.2-26.8 3.6-6.8 2.9-6.5 2.9-6.5 1 0-2.7-6.8-9.1-10.8-10.3-2.2-.7-10.2-1.2-18.3-1.2-11.8 0-15.1.4-18.4 1.9zm35.4 11.5c6 5.4-.3 9.1-15.4 9.1-11.1 0-18.5-2-18.5-5 .1-5.2 3.1-6.3 18.5-6.1 11.6.1 13.6.3 15.4 2zM224 95.9c3.6 1.8 7.2 3.9 8 4.6.8.8 5 2.7 9.2 4.4 6.6 2.7 8.9 3.1 17 3.1 13.1 0 25.8-3.6 36.4-10.3 10.2-6.3 23.8-7.4 34.2-2.7 2.9 1.3 5.2 2.7 5.2 3.2 0 .4.4.8 1 .8 1.9 0 7.1 6.1 10.4 12.2 5.3 9.5 5.8 14.7 5.4 55.3l-.3 36-2.5 4.5c-1.4 2.4-4.5 5.8-6.8 7.5-3.8 2.6-5.2 3-11 3-5.7 0-7.4-.5-11.3-2.9-4.2-2.7-5.6-4.7-15.9-23.7-6.2-11.4-12.1-22.1-13.1-23.8L288 164h-54.5l-12 22.2c-6.6 12.2-13.5 23.6-15.4 25.4-4.3 4.3-8.9 5.7-16.1 5.2-7.2-.5-13.1-4.3-16.3-10.2-2.1-4-2.2-5.3-2.5-42.6-.3-40.8-.1-43 4.5-52.2 6.5-13.2 18.1-20 33.3-19.6 7.4.3 9.3.7 15 3.7z"/><path d="M199.7 111.4c-9.2 3.4-14.5 10.6-15.4 20.8-2.2 23.4 28.8 34.1 42.2 14.6 8.1-11.7 4.4-25.9-8.9-34.2-3.8-2.4-13.1-3-17.9-1.2zm11.7 11c5 2.1 7.6 6 7.6 11.6 0 12.6-16.4 16.2-22.4 5-3.5-6.7.2-15.3 7.4-17 1.9-.4 3.6-.8 3.8-.9.1-.1 1.7.5 3.6 1.3zm97.6-11.7c-4.6 1.5-8.1 3.6-11 6.5-5.2 5.3-6.4 8.5-6.4 16.3 0 7.7 1.4 11.3 6.3 16.2 5.7 5.7 8 6.7 16.2 6.7 6.7.1 8.1-.2 12.4-2.9 3.1-1.9 6.1-4.9 8-8 2.6-4.2 3-5.8 3-11.9 0-5.9-.5-7.9-2.7-11.7-5-8.4-17.7-14-25.8-11.2zm13.2 14c4.1 3.9 5.3 7.6 3.9 12.3-3.2 10.8-17.2 11.8-22.4 1.7-1.7-3.3-1.8-4.4-.9-7.6 1.2-4 5.5-8.6 8.7-9.4 3.5-.8 7.9.4 10.7 3zM14 348.2c-4.7 9.5-8.6 17.6-8.8 18-.2.5 1.7.8 4.3.8 4.3 0 4.7-.2 6.1-3.5 1.4-3.4 1.6-3.5 6.9-3.5H28v3.5c0 3.5 0 3.5 4.5 3.5 2.9 0 4.5-.4 4.5-1.3 0-.6-.7-8.4-1.5-17.2-.8-8.8-1.5-16.3-1.5-16.8 0-.4-2.6-.7-5.8-.7h-5.7L14 348.2zm13.9.5c.1 4.3.1 4.3-3.4 4.3-1.9 0-3.5-.3-3.5-.8 0-.4 1.2-3.5 2.7-7 2.6-6 2.8-6.2 3.4-3.5.4 1.5.7 4.7.8 7zm23.2-16c-7.5 3.7-7.6 12.9-.1 19.5 4.7 4.3 4.5 6.8-.5 6.8-1.9 0-4.5-.4-5.9-1-2.5-.9-2.6-.8-2.6 2.9 0 3.1.5 4 2.5 4.9 6.2 2.9 15.3.4 18-4.8 2.5-4.8 1.3-9.2-3.5-13.3-2.2-1.9-4.1-4.4-4.2-5.8-.3-2.3 0-2.4 4.8-2.3 4.6.1 5.3-.1 6.3-2.3 1.6-3.5 1.4-4-2-5.2-4.5-1.5-8.8-1.3-12.8.6zm21.5 1.4c-.9 4.8-.9 4.9 2.9 4.9 1.9 0 3.5.5 3.5 1.1 0 .5-1.1 6.5-2.5 13.1S74 365.7 74 366.1c0 .5 1.9.9 4.3.9h4.4l1.6-7.8c.9-4.2 2.2-10.5 2.9-14l1.2-6.2h3.7c3 0 3.8-.4 4.3-2.3 1.5-5.7 1.6-5.7-11.3-5.7H73.3l-.7 3.1zm28.9 14.6c-4.7 9.7-8.5 17.8-8.5 18 0 .1 1.9.3 4.3.3 4 0 4.5-.3 6-3.6 1.7-3.4 1.8-3.5 7-3.2 5.1.3 5.2.4 5.5 3.5.3 3.2.5 3.3 4.8 3.3 4.1 0 4.4-.2 4-2.2-.3-1.3-1-9.4-1.7-18.1l-1.2-15.7H110l-8.5 17.7zm13.1 4c-.2.2-1.8.3-3.5.1-3-.3-3-.3-1.6-3.3.8-1.7 2.2-4.8 3.2-7l1.8-4 .3 6.9c.2 3.7.1 7-.2 7.3zm22-20c-.8 2.7-6.6 32-6.6 33.3 0 .7 1.6 1 4.2.8l4.3-.3 1.3-6.3c.9-3.8 1.8-6.2 2.5-5.9.7.2 2.2 3 3.3 6.3l2.1 5.9 4.7.3c2.6.2 4.6-.1 4.6-.7 0-.5-1.2-3.7-2.6-7l-2.6-6.1 3.1-3.5c3.3-3.8 4.2-9.6 2-13.7-1.6-2.9-7-4.8-13.8-4.8-4.8 0-6.1.3-6.5 1.7zm12.2 8.6c.4 3.3-1.3 5.7-3.9 5.7-2 0-2.3-1-1.3-5.9.5-2.5 1.1-3.1 2.8-2.9 1.5.2 2.2 1.1 2.4 3.1zm40.3-9c-7.1 2.2-13.1 11.9-13.1 20.9 0 4.6 2.6 9.6 6.2 11.8 2.8 1.8 4.4 2.1 10.2 1.6 3.8-.3 7.5-1.1 8.2-1.8 1-1.1 4.4-13.8 4.4-16.7 0-.7-2.7-1.1-6.9-1.1-6.3 0-6.9.2-7.5 2.2-1 4-.7 4.8 2 4.8 2 0 2.5.4 2 1.6-.3.9-.6 2-.6 2.5 0 .6-1.7.9-3.7.7-5.2-.4-6.2-3.5-3.8-11.2 2.4-7.5 4.7-9.1 12-8.3 5.3.5 5.6.4 7-2.3 2-3.9 2-3.8-2.2-4.9-4.7-1.3-9.7-1.2-14.2.2zm25.4 16.4c-4.7 9.7-8.5 17.8-8.5 18 0 .1 1.9.3 4.3.3 4 0 4.5-.3 6-3.6 1.7-3.4 1.8-3.5 7-3.2 5.1.3 5.2.4 5.5 3.5.3 3.2.5 3.3 4.8 3.3h4.5l-.6-3.3c-.5-2.8-2.5-28.1-2.5-31.5 0-.8-1.9-1.2-6-1.2h-6l-8.5 17.7zM228 346v7h-6.9l2-4.8c1.1-2.6 2.4-5.7 2.9-7 1.6-3.7 2-2.6 2 4.8zm21.6-13.3c-.8 2.9-6.6 31.8-6.6 33.2 0 .8 1.3 1.1 3.8.9l3.7-.3 2.1-10.3c1.2-5.7 2.4-10.6 2.8-10.9.3-.4.6 4.4.6 10.5V367h8.1l5.1-11c2.8-6 5.3-10.8 5.5-10.6.3.2-.5 4.7-1.6 10-1.2 5.3-2.1 10-2.1 10.6 0 .5 1.7 1 3.9 1h3.8l3.2-15.8c1.8-8.6 3.5-16.7 3.8-18 .5-2.2.4-2.3-5.8-2l-6.4.3-5 11.7c-2.7 6.4-5.3 12-5.7 12.4-.5.4-.8-5-.8-11.9V331h-5.9c-4.8 0-6.1.3-6.5 1.7zm45-.5c-.7 2.1-5.9 28-6.4 31.5-.4 3.3-.4 3.3 4 3.3h4.3l2.4-11.3c1.3-6.1 2.8-13.4 3.2-16 .4-2.6 1.1-5.7 1.4-6.7.6-1.8.1-2-4-2-2.8 0-4.7.5-4.9 1.2zm14.4 15.5c-1.8 9.3-3.5 17.4-3.7 18-.4.9.7 1.3 3.5 1.3h4l1.6-7.1c.9-3.9 1.9-9.1 2.3-11.5.3-2.5.9-4.1 1.4-3.7.4.4 2.1 5.5 3.7 11.3l2.9 10.5h10.6l2.2-10c5.6-26.1 5.6-25.7.8-25.3-4.2.3-3.7-.7-6.4 14.3-1.9 11.2-2 11.1-7.5-8.8l-1.5-5.7h-10.6l-3.3 16.7zm50.5-15.5c-5.7 2-9.3 5.6-11.4 11.3-3.4 9.1-2.5 16.1 2.7 20.8 2.7 2.4 11.6 3.3 16.6 1.5 3.9-1.3 4-1.4 5.8-9.3.9-4.4 1.8-8.3 1.8-8.8 0-.4-3.1-.7-6.9-.7-7.2 0-8.1.6-8.1 5.1 0 1.3.7 1.9 2.4 1.9 1.9 0 2.2.4 1.8 2.5-.4 2.1-1 2.5-3.8 2.5-5.7 0-7-6.6-2.8-14.8 2.1-4.4 4.7-5.5 10.9-4.9 4.9.5 5.3.3 6.4-1.9 1.6-3.6 1.4-4.1-2-5.3-3.9-1.3-9.4-1.3-13.4.1zm47 0c-5 1.8-8.2 4.6-10.3 9.1-4.3 9-3.8 17.9 1.4 22.8 2.3 2.1 3.5 2.4 10.5 2.4 5.6-.1 8.3-.5 9.3-1.5 1.1-1.3 4.6-14.1 4.6-17.1 0-.5-3.1-.9-6.9-.9-6.3 0-6.9.2-7.5 2.2-1 3.9-.7 4.8 1.9 4.8 2.5 0 3.1 1.4 1.6 3.8-.5.8-2.2 1.2-4.2 1-4.9-.4-5.9-4-3.4-11.4 2.5-7.3 4.8-8.9 12.1-8.1 5.5.6 5.6.5 6.9-2.6 1.3-3.1 1.3-3.2-1.8-4.4-4-1.4-10.2-1.5-14.2-.1zm26.5-.9c0 .2-1.1 6.1-2.5 13.1s-2.5 13.4-2.5 14.2c0 3 5.4 7.5 9.7 8.1 5.3.7 12.1-2.4 14.6-6.7 1.6-2.6 6.7-23.9 6.7-27.7 0-1.4-7.5-1.9-8.3-.5-.3.4-1.5 5.7-2.7 11.7-1.3 6.1-2.9 12-3.7 13.2-1.5 2.5-6 3.2-6.9 1-.2-.7.7-6.6 2.1-13.2 1.4-6.5 2.5-12.3 2.5-12.7 0-.4-2-.8-4.5-.8s-4.5.1-4.5.3zm35 0c0 .4-5.9 29.9-6.7 33.4-.5 2.1-.2 2.3 4 2.3 4.1 0 4.5-.3 5.2-2.7.9-3.6 6.5-31.6 6.5-32.6 0-.4-2-.7-4.5-.7s-4.5.1-4.5.3zm17.6.5c-.2.4-1.4 5.9-2.5 12.2-1.2 6.3-2.6 13.3-3.1 15.5-1.8 7.8-2.2 7.5 9 7.5 7.3 0 10-.3 10-1.3 0-.6.3-2.2.6-3.4.6-2.1.3-2.3-3.7-2.3-2.4 0-4.9-.4-5.6-.8-.8-.5-.4-4.3 1.6-14.5l2.8-13.7h-4.3c-2.4 0-4.5.3-4.8.8zm26 .8c-.7 2.6-6.6 32.1-6.6 33.5 0 1.8 15.8.7 20.3-1.5 6.2-3 9.1-8.5 9.6-17.7.3-7.6.3-7.8-3.1-11.5-3.4-3.6-3.7-3.7-11.5-4.2-7.3-.4-8.1-.3-8.7 1.4zm13.5 8c1.8 2.1.6 12-1.8 15.2-2.5 3.4-8.9 4.6-7.9 1.4.4-1 1.3-5.4 2.1-9.6.8-4.3 1.7-8.2 2-8.6.7-1.1 4.2-.1 5.6 1.6z"/></svg>