<svg xmlns="http://www.w3.org/2000/svg" role="img" viewBox="-24.98 -24.98 1298.96 300.96"><title>Cardano logo</title><g data-name="Layer 2"><path d="M74.49 124.64A18.34 18.34 0 0 0 91.73 144h1a18.3 18.3 0 1 0-18.29-19.35zM6.25 120a5.91 5.91 0 1 0 5.57 6.24A5.9 5.9 0 0 0 6.25 120zM73.33 18.43a5.92 5.92 0 1 0-8-2.62 5.93 5.93 0 0 0 8 2.62zM91.9 50.81a9.14 9.14 0 1 0-12.28-4.05 9.14 9.14 0 0 0 12.28 4.05zM29.41 73.08a7.53 7.53 0 1 0-2.16-10.42 7.53 7.53 0 0 0 2.16 10.42zm11.13 43.59a9.14 9.14 0 1 0 8.61 9.65 9.15 9.15 0 0 0-8.61-9.65zm-10.13 61.45a7.53 7.53 0 1 0 10.12 3.33 7.53 7.53 0 0 0-10.12-3.33zm35.53-80.34a10.76 10.76 0 1 0-3.1-14.9 10.75 10.75 0 0 0 3.1 14.9zm112.72-47.69A9.15 9.15 0 1 0 176 37.42a9.14 9.14 0 0 0 2.66 12.67zm18.76-32.28a5.92 5.92 0 1 0-1.71-8.19 5.92 5.92 0 0 0 1.71 8.19zm-17.32 89.41a18.3 18.3 0 1 0-2.1 36.55h1.06a18.3 18.3 0 0 0 13.64-30.49 18.08 18.08 0 0 0-12.6-6.06zM97.91 96.51a18.23 18.23 0 0 0 16.36 10.07A18.31 18.31 0 0 0 130.61 80a18.24 18.24 0 0 0-16.36-10 18.31 18.31 0 0 0-16.34 26.51zm143.5-23.45a7.53 7.53 0 1 0-10.12-3.34 7.54 7.54 0 0 0 10.12 3.34zM195 78.89a10.76 10.76 0 1 0 14.45 4.77A10.75 10.75 0 0 0 195 78.89zm-59.78-63.84a7.53 7.53 0 1 0-7.09-7.94 7.53 7.53 0 0 0 7.09 7.94zm-.08 47.39A10.76 10.76 0 1 0 125 51.08a10.77 10.77 0 0 0 10.14 11.36zm-58.3 109.84a10.76 10.76 0 1 0-14.45-4.76 10.76 10.76 0 0 0 14.45 4.76zm65.25-94.14a18.3 18.3 0 1 0 15.33-8.27 18.32 18.32 0 0 0-15.33 8.27zm31.82 76.53a18.3 18.3 0 1 0-16.34 26.54 18.5 18.5 0 0 0 8.24-2 18.31 18.31 0 0 0 8.1-24.54zm31.98-1.28a10.76 10.76 0 1 0 3.09 14.9 10.78 10.78 0 0 0-3.09-14.9zm35.04-27.49a9.14 9.14 0 1 0-9.65 8.61 9.15 9.15 0 0 0 9.65-8.61zm25.32-6.51a5.92 5.92 0 1 0 5.57 6.25 5.93 5.93 0 0 0-5.57-6.25zm-23.84 58.7a7.53 7.53 0 1 0 2.17 10.43 7.53 7.53 0 0 0-2.17-10.43zm-168 55.27a5.92 5.92 0 1 0 1.7 8.2 5.92 5.92 0 0 0-1.7-8.2zm124.08-.62a5.92 5.92 0 1 0 7.95 2.62 5.91 5.91 0 0 0-7.95-2.62zM129.73 173a18.3 18.3 0 1 0-15.32 8.27 18.21 18.21 0 0 0 15.32-8.27zm-36.57 28.09a9.14 9.14 0 1 0 2.64 12.66 9.15 9.15 0 0 0-2.64-12.66zm42.67 35.03a7.53 7.53 0 1 0 7.09 7.95 7.53 7.53 0 0 0-7.09-7.95zm.08-47.38A10.76 10.76 0 1 0 146 200.09a10.75 10.75 0 0 0-10.09-11.35zm44.01 11.62a9.15 9.15 0 1 0 12.29 4 9.13 9.13 0 0 0-12.29-4zM381.86 82.35c17.72 0 30.13 9.74 30.13 27.82h23.21c0-31.72-23.39-47-53.69-47-37.22 0-58.84 20.21-58.84 62.92 0 43.77 21.62 62.91 58.84 62.91 30.66 0 53.69-14.88 53.69-46.61h-22.33c0 17.72-12.23 27.47-31 27.47-24.64 0-36-13.65-36-42v-3.54c.02-27.8 11.53-41.97 35.99-41.97zm114.71-17.02l-47.32 121.58h23.4l9.74-26.41H538l10 26.41h24.46L525.11 65.33zm-7.09 76L501.89 108c2.48-6.55 6.91-20.73 7.8-23.21h.88c.89 2.48 5.32 16.83 7.8 23.21l12.4 33.32zM699 102.19c0-22.5-12.94-36.86-39.7-36.86h-64.16v121.58h22.69v-47h37.74l23 47h24.81l-26-50.51c14.35-5.67 21.62-17.72 21.62-34.21zm-41.48 18.61h-39.69V84.65h39.69c12.23 0 18.61 6.56 18.61 17.54 0 11.53-6.91 18.61-18.61 18.61zm121.06-55.47H730v121.58h48.56c36.68 0 59-19.14 59-60.79s-22.3-60.79-58.98-60.79zm35.8 62.56c-.18 26.59-12.76 39.7-35.8 39.7h-25.87V84.65h25.87c23 0 35.8 13.12 35.8 39.7zM897 65.33l-47.34 121.58h23.39l9.75-26.41h55.65l9.92 26.41h24.46L925.51 65.33zm-7.09 76L902.3 108c2.48-6.55 6.91-20.73 7.8-23.21h.9c.88 2.48 5.32 16.83 7.8 23.21l12.4 33.32zm186.63-3.69c0 2.3.35 8.5.35 9.57l-.88.35c-.53-.7-4.08-6.91-6-9.74l-52.81-72.49h-21.65v121.58h21.8v-72.84c0-3-.36-8.86-.36-9.75l.89-.53c.53.71 3.19 5.85 6 9.93l53.17 73.19h21.26V65.33h-21.79v72.31zm112.14-74.43c-38.1 0-61.14 20.2-61.14 62.91s23 62.91 61.14 62.91 61.32-20.2 61.32-62.91-23.22-62.91-61.32-62.91zm38.1 64.86c0 27.82-13.29 41.82-38.1 41.82-24.63 0-37.92-14-37.92-41.82v-3.72c0-27.83 13.47-42 37.92-42 24.64 0 38.1 14.17 38.1 42z" fill="#0033ad" data-name="Layer 1"/></g></svg>