<svg xmlns="http://www.w3.org/2000/svg" role="img" viewBox="-6.55 -6.80 366.86 94.11"><title>Genius X logo</title><path fill="#050518" fill-rule="evenodd" d="M102.54 70.3084c-.382-.4463-.892-.6694-1.53-.6694H75.5718V57.7805H93.742c.6376 0 1.1476-.1912 1.5301-.5738.3826-.4463.5738-.9563.5738-1.5301v-5.6423c0-.5738-.1912-1.052-.5738-1.4345-.3825-.4463-.8925-.6695-1.5301-.6695H75.5718V35.9762H101.01c.638 0 1.148-.1912 1.53-.5738.383-.4462.574-.9563.574-1.5301v-6.1205c0-.5738-.191-1.0519-.574-1.4345-.382-.4463-.892-.6694-1.53-.6694H66.7736c-.5738 0-1.0839.2231-1.5302.6694-.4463.3826-.6694.8926-.6694 1.5301v49.9204c0 .6375.2231 1.1795.6694 1.6258.4463.3825.9564.5737 1.5302.5737H101.01c.638 0 1.148-.1912 1.53-.5737.383-.4463.574-.9564.574-1.5302v-6.1205c0-.5738-.191-1.0519-.574-1.4345zm53.616 9.4096c.423-.449.635-.9942.635-1.6356V27.8607c0-.6414-.212-1.1545-.635-1.5393-.423-.449-.907-.6735-1.451-.6735h-6.256c-.544 0-1.028.2245-1.451.6735-.423.3848-.635.8979-.635 1.5393v32.3266l-19.676-33c-.182-.3849-.454-.7377-.817-1.0584-.302-.3207-.695-.481-1.178-.481h-6.801c-.544 0-1.028.2245-1.451.6735-.423.3848-.635.8979-.635 1.5393v50.2217c0 .6414.212 1.1866.635 1.6356.423.3848.907.5772 1.451.5772h6.257c.544 0 1.027-.1924 1.45-.5772.424-.449.635-.9942.635-1.6356V45.6596l19.314 32.4228c.302.5131.756 1.0262 1.36 1.5394.605.4489 1.179.6734 1.723.6734h6.075c.544 0 1.028-.1924 1.451-.5772zm25.295-1.9502c0 .6375-.223 1.1795-.67 1.6258-.446.3825-.956.5737-1.53.5737h-6.598c-.574 0-1.084-.1912-1.531-.5737-.446-.4463-.669-.9883-.669-1.6258V27.8474c0-.6375.223-1.1475.669-1.5301.447-.4463.957-.6694 1.531-.6694h6.598c.574 0 1.084.2231 1.53.6694.447.3826.67.8926.67 1.5301v49.9204zm21.102-3.9962c3.184 4.3491 8.423 6.5236 15.717 6.5236 7.294 0 12.533-2.1745 15.717-6.5236 3.184-4.3491 4.776-10.4315 4.776-18.2473V27.8224c0-.6303-.203-1.1345-.608-1.5127-.405-.4412-.869-.6618-1.39-.6618h-5.991c-.521 0-.984.2206-1.389.6618-.406.3782-.608.8824-.608 1.5127v27.0401c0 2.4582-.145 4.6642-.434 6.6182-.232 1.9539-.724 3.6242-1.477 5.0109-.752 1.3236-1.823 2.3636-3.212 3.12-1.332.7564-3.126 1.1345-5.384 1.1345-2.258 0-4.081-.3781-5.471-1.1345-1.331-.7564-2.373-1.7964-3.126-3.12-.752-1.3867-1.273-3.057-1.563-5.0109-.231-1.954-.347-4.16-.347-6.6182V27.8224c0-.6303-.203-1.1345-.608-1.5127-.405-.4412-.868-.6618-1.389-.6618h-5.992c-.521 0-.984.2206-1.389.6618-.405.3782-.608.8824-.608 1.5127v27.7019c0 7.8158 1.592 13.8982 4.776 18.2473zM32.0363 25.8538l-.0137.0729c1.1388.4634 1.8482 1.6665 1.6411 2.9311l-.76 4.6403c-.2204 1.3454-1.4018 2.2939-2.7277 2.2585l-.0051.0274c-.532-.045-1.0842-.0674-1.6567-.0674-2.4725 0-4.7432.4541-6.812 1.3624-2.0184.9082-3.7592 2.1445-5.2225 3.7087-1.4634 1.5138-2.5987 3.3303-3.406 5.4496-.8074 2.0689-1.2111 4.3143-1.2111 6.7363 0 2.4221.4037 4.6928 1.2111 6.8121.8578 2.0688 2.0436 3.8853 3.5573 5.4496 1.5138 1.5138 3.3051 2.7248 5.374 3.633 2.0688.9083 4.3395 1.3624 6.812 1.3624 1.766 0 3.4312-.227 4.9954-.6812 1.6147-.5045 3.0781-1.2362 4.39-2.1949 1.3119-.9588 2.4221-2.1193 3.3303-3.4817.9587-1.3624 1.6147-2.9267 1.9679-4.6928h-1.0072v.0441h-7.1778c-1.4882 0-2.6946-1.2064-2.6946-2.6947v-4.1211c0-1.4882 1.2064-2.6947 2.6946-2.6947h7.1778v.0053h9.4087c.9083 0 1.6904.328 2.3464.984.6559.6559.9839 1.4381.9839 2.3463 0 3.8349-.6559 7.4176-1.9679 10.7479-1.3119 3.2798-3.1537 6.156-5.5253 8.6285-2.3211 2.4221-5.1216 4.3395-8.4015 5.7524-3.2294 1.4129-6.7867 2.1193-10.6721 2.1193-3.8349 0-7.468-.6812-10.8992-2.0436-3.3808-1.4129-6.3579-3.3303-8.93134-5.7524-2.52296-2.4725-4.54134-5.3739-6.05512-8.7042C1.31662 60.4669.58496 56.859.58496 52.9736c0-3.8853.73166-7.4932 2.19498-10.8235 1.46332-3.3303 3.45647-6.2065 5.97944-8.6285 2.57342-2.4725 5.55052-4.39 8.93132-5.7524 3.3808-1.4129 6.9886-2.1193 10.8235-2.1193 1.1823 0 2.3563.068 3.5221.2039zm243.0387 35.869c-.684-.9213-1.917-1.8425-3.731-2.7269l-11.948-5.7116c-3.424-1.6582-4.938-3.4336-6.178-5.6041-1.241-2.1705-1.97-4.8974-1.97-8.2876 0-4.385 1.574-7.7751 4.69-10.1703 3.115-2.3952 7.395-3.5744 12.804-3.5744 5.306 0 11.743 1.5472 16.981 4.6794 1.3.7738 1.574 1.8793.855 3.3164l-1.848 3.6112c-.719 1.4003-1.746 1.6951-3.081.8844-4.246-2.5426-9.347-3.8318-13.01-3.8687-2.088 0-3.766.4422-4.998 1.3266-1.233.8844-1.849 2.2109-1.849 3.9797 0 1.3634.411 2.5426 1.198 3.5375.788.9949 2.089 1.953 3.869 2.8374l10.27 5.6374c3.424 1.6583 5.855 3.5376 7.293 5.6748 1.437 2.1373 2.156 4.9378 2.156 8.3648 0 4.6061-1.609 8.2173-4.793 10.7968-3.183 2.5794-7.737 3.8692-13.659 3.8692-6.402 0-12.359-1.7688-17.905-5.2695-1.267-.8107-1.541-1.9161-.822-3.3164l1.849-3.6481c.719-1.4371 1.746-1.7319 3.081-.9212 4.964 3.0216 9.517 4.5324 13.694 4.5324 2.499 0 4.485-.5527 5.923-1.6213 1.437-1.0686 2.156-2.6163 2.156-4.6062 0-1.5476-.342-2.8005-1.027-3.7217z" clip-rule="evenodd"/><path fill="url(#paint0_linear_2498_112110)" d="M328.899 8.17763l-4.94-6.06649c-.934-1.14792-2.336-1.81419-3.817-1.81419h-8.602c-1.659 0-2.574 1.9258-1.527 3.21214l11.344 13.93071 7.542-9.26217z"/><path fill="url(#paint1_linear_2498_112110)" d="M333.977 32.9383l4.939 6.0648c.935 1.1479 2.337 1.8142 3.817 1.8142h8.602c1.659 0 2.575-1.9258 1.527-3.2122l-11.342-13.929-7.543 9.2622z"/><path fill="url(#paint2_linear_2498_112110)" d="M338.918 2.11106c.934-1.14792 2.336-1.81419 3.817-1.81419h8.602c1.659 0 2.574 1.9258 1.527 3.21215L323.961 39.003c-.935 1.1479-2.337 1.8142-3.817 1.8142h-8.602c-1.659 0-2.575-1.9258-1.527-3.2122l28.903-35.49394z"/><defs><linearGradient id="paint0_linear_2498_112110" x1="309.567" x2="356.089" y1="1.863" y2="45.107" gradientUnits="userSpaceOnUse"><stop stop-color="#FFB35A"/><stop offset="1" stop-color="#FF145B"/></linearGradient><linearGradient id="paint1_linear_2498_112110" x1="309.567" x2="356.089" y1="1.863" y2="45.107" gradientUnits="userSpaceOnUse"><stop stop-color="#FFB35A"/><stop offset="1" stop-color="#FF145B"/></linearGradient><linearGradient id="paint2_linear_2498_112110" x1="309.567" x2="356.089" y1="1.863" y2="45.107" gradientUnits="userSpaceOnUse"><stop stop-color="#FFB35A"/><stop offset="1" stop-color="#FF145B"/></linearGradient></defs></svg>