<svg xmlns="http://www.w3.org/2000/svg" role="img" viewBox="-9.15 -9.15 449.80 337.05"><title>Jungle Wars logo</title><style>svg {shape-rendering:geometricPrecision;text-rendering:geometricPrecision;image-rendering:optimizeQuality;fill-rule:evenodd;clip-rule:evenodd}</style><path fill="#f6f1de" d="M91.5-.5h11c2.564 4.40626 2.564 8.90626 0 13.5 1.667.8333 3.333 1.6667 5 2.5 1.424-2.2178 3.424-3.7178 6-4.5 10.201-.7973 20.368-.6306 30.5.5 3.159-2.7456 6.826-4.41227 11-5A356.78307 356.78307 0 0 0 182.5 9c2.019.44966 3.852 1.283 5.5 2.5 2.771 4.3041 4.771 8.9707 6 14 .017-7.7233 3.851-11.7233 11.5-12a378.51619 378.51619 0 0 1 27 4.5c2.449.9547 4.449 2.4547 6 4.5.978-.4767 1.811-1.1433 2.5-2C243.689 5.05362 252.855-1.11305 268.5 2c2.828 2.16192 3.828 4.82858 3 8 8.456.1227 16.456 1.9561 24 5.5 3.327-2.2217 6.994-3.3884 11-3.5 8.588-.48 17.088-1.3133 25.5-2.5 6.301 1.4724 9.468 5.4724 9.5 12-.102 12.5448-.102 25.5448 0 39 3.698-.0524 7.365-.3857 11-1a4690.4122 4690.4122 0 0 1 4.5-46c1.26-2.9281 3.427-4.76141 6.5-5.5 19.763.05085 39.43 1.38419 59 4 3.357 2.6926 4.691 6.1926 4 10.5a914.22836 914.22836 0 0 1-2 20c-1.846 3.3385-4.679 5.3385-8.5 6-.936 3.6135-1.436 7.2802-1.5 11 .156 2.5661-.178 5.0661-1 7.5 3.846 3.0249 5.846 7.0249 6 12a3377.8062 3377.8062 0 0 0-3 25.5c-1.84 1.668-3.84 3.168-6 4.5-17.679.527-35.345.193-53-1-3.103-1.281-5.769-3.114-8-5.5-13.241 2.848-26.574 5.181-40 7-4.397.553-7.563-1.114-9.5-5-2.906 2.537-6.073 4.704-9.5 6.5 9.555 1.888 18.888 4.388 28 7.5 5.618 3.618 10.285 8.285 14 14 5.729-7.028 12.729-12.361 21-16 13.452-4.82 27.119-5.32 41-1.5 1.805.972 3.472 2.139 5 3.5 4.403-5.195 10.07-7.528 17-7 11.432 3.847 16.599 11.847 15.5 24-.717.544-1.217 1.211-1.5 2-4.851 1.089-9.517 2.756-14 5-1.969 5.481-2.969 11.148-3 17-1.399 2.442-3.066 4.776-5 7 1.021 1.688 2.355 3.021 4 4 5.796 10.444 7.129 21.444 4 33-3.485 10.461-9.151 19.627-17 27.5-6.969 4.601-14.636 7.101-23 7.5h-22c-8.737-1.523-16.904-4.523-24.5-9-11.42 2.951-22.92 5.118-34.5 6.5-1.786-.785-3.286-1.951-4.5-3.5-2.333-5.667-4.667-11.333-7-17-.694 4.054-.527 8.054.5 12-.667 1.667-1.333 3.333-2 5-2.027 1.68-4.361 2.847-7 3.5-11.333.667-22.667.667-34 0-1.333-.667-2.667-1.333-4-2-1.916-2.661-3.916-5.161-6-7.5-8.951 1.484-17.784 3.484-26.5 6-3.072-.536-5.739-1.87-8-4-2.385-3.653-3.885-7.653-4.5-12-1.644-.214-3.144.12-4.5 1-.498 3.317-.665 6.65-.5 10v2c-2.257 2.423-4.924 4.257-8 5.5-14 .667-28 .667-42 0-.854-1.022-1.854-1.855-3-2.5-13.119 1.561-26.286 2.894-39.5 4-7.2551-.588-11.2551-4.588-12-12-.7297 4.396-3.2297 7.23-7.5 8.5-15.612 2.128-31.2787 3.128-47 3-1.8589-1.558-3.3589-3.391-4.5-5.5-6.7558-31.924-13.9225-63.591-21.5-95-3.5518-6.751-2.21847-12.251 4-16.5 1.63414-.494 3.30081-.66 5-.5a626.30372 626.30372 0 0 1 31-4c3.1918-.051 6.1918.616 9 2 2.8544 4.037 4.5211 3.37 5-2 .9916.172 1.6583-.162 2-1 6.3659-.626 12.6993-1.293 19-2 6.2531.793 12.5865 1.293 19 1.5 2.3147 1.109 3.815 2.943 4.5 5.5.69-2.696 2.19-4.863 4.5-6.5-16.5143-.992-28.3476-8.826-35.5-23.5-10.3527 16.926-25.5193 24.426-45.5 22.5-8.7781-1.53-16.77813-4.697-24-9.5 0-.667-.33333-1-1-1v-15c.89253-5.1787 1.72586-10.512 2.5-16 1.58951-6.7138 5.75617-9.2138 12.5-7.5 3.7354 2.7837 7.9021 4.6171 12.5 5.5.8732-.2355 1.7065-.5688 2.5-1 .9967-6.6335 1.33-13.3002 1-20 .3439-4.6219-.3227-8.9552-2-13-1.5998-6.4521-2.0998-13.1188-1.5-20 .7845-1.786 1.9512-3.286 3.5-4.5C40.6171 7.20897 50.7838 5.70897 61 4.5c2.7318.11479 5.2318.94813 7.5 2.5 1.3216 2.31934 2.8216 4.486 4.5 6.5 2.7695-.8479 5.6029-1.1813 8.5-1-1.002-2.6096-.8353-5.27626.5-8 2.9951-2.1525 6.1618-3.81917 9.5-5zm149 119c-1.636 1.249-2.803 2.916-3.5 5-.389 19.01-1.056 38.01-2 57-1.939-4.985-3.772-9.985-5.5-15 4.726-3.683 6.059-8.349 4-14 1.847-3.094 2.347-6.428 1.5-10-3.585-5.502-6.919-11.169-10-17-1.264-2.107-3.097-3.107-5.5-3 .622-1.127 1.455-2.127 2.5-3 .976-5.382 2.143-10.715 3.5-16 1.918 3.504 4.084 6.837 6.5 10 2.988 1.899 5.821 3.899 8.5 6zm-64-5h-3c.418-9.191 1.418-9.191 3 0zm-43-3h-3c1.783-3.56 2.783-3.56 3 0zm220 6c-8.271 3.639-15.271 8.972-21 16-3.715-5.715-8.382-10.382-14-14 10.398-1.2 20.731-2.867 31-5 1.917.254 3.251 1.254 4 3zm-297-2c-.4789 5.37-2.1456 6.037-5 2 2.0138.108 3.6805-.558 5-2z" opacity=".988"/><path fill="#2b3a34" d="M96.5 5.5c.5431.05999.8764.39333 1 1a37782.9798 37782.9798 0 0 1-6 15c-1.1893-3.7785-2.1893-7.6118-3-11.5 2.4396-1.97318 5.1063-3.47318 8-4.5z"/><path fill="#2b3a33" d="M258.5 8.5c2.104-.2989 4.104.03443 6 1-1.379 5.8609-3.212 11.5276-5.5 17-2.408-2.4561-5.241-4.2894-8.5-5.5-1.53-6.7613 1.137-10.9279 8-12.5z"/><path fill="#273730" d="M151.5 14.5c10.366.4133 20.7 1.2466 31 2.5 5.497 12.1751 9.997 24.6751 13.5 37.5 2.545-10.7748 4.712-21.6082 6.5-32.5 9.624.2322 19.124 1.3989 28.5 3.5-4.825 26.2807-9.659 52.6141-14.5 79-10.691.043-21.357-.457-32-1.5-.96-1.419-1.793-2.919-2.5-4.5-2.194-11.7763-4.861-23.443-8-35-2.864 12.2162-5.031 24.5496-6.5 37-9.388-.477-18.721-1.4774-28-3-.166-4.0138.001-8.0138.5-12 4.485-23.5752 8.318-47.2419 11.5-71z"/><path fill="#61746b" d="M256.5 11.5h5c-.724 3.3426-1.557 6.676-2.5 10-1.527-1.721-2.527-3.721-3-6-1.483 1.6192-2.65 1.7859-3.5.5.844-2.0067 2.177-3.5067 4-4.5z"/><path fill="#263630" d="M333.5 19.5v49c1.915.2845 3.581-.0489 5-1 6.19-.3229 12.19.0104 18 1-.166 7.6739 0 15.3406.5 23 1.316-3.1883 1.816-6.5217 1.5-10 1.769-21.9921 3.435-43.9921 5-66 18.006.6336 36.006 1.467 54 2.5 1.074.7387 1.741 1.7387 2 3-.617 6.7594-1.617 13.4261-3 20-8.327.4997-16.66.6664-25 .5v5c5.345.1865 10.678.5199 16 1-.103 6.3608-.603 12.6941-1.5 19-5.741.9749-11.575 1.3082-17.5 1-.333 2-.667 4-1 6 7.986.599 15.986.9324 24 1-.27 8.0104-.77 16.0104-1.5 24-.309 1.2659-.809 2.433-1.5 3.5-16.679.517-33.346.184-50-1-1.574-1.8259-2.407-3.9925-2.5-6.5-16.405 3.1508-32.905 5.817-49.5 8-1.833-27.3327-3.333-54.6661-4.5-82 9.745-1.5344 19.578-2.5344 29.5-3 1.022.3555 1.689 1.0222 2 2z"/><path fill="#273731" d="M114.5 18.5c9.583-.3184 19.083.0149 28.5 1 3.283 24.8447-1.05 48.178-13 70-12.173 16.416-27.006 19.249-44.5 8.5-8.0058-7.3233-12.1725-16.49-12.5-27.5-2.0267-16.3674-1.6933-32.7007 1-49 4.7367-.9692 9.57-1.3025 14.5-1-.1655 4.0138.0012 8.0138.5 12 2.1667-3.6667 4.3333-7.3333 6.5-11 2.3333-1.3333 4.667-1.3333 7 0 .431.7935.765 1.6268 1 2.5-3.6836 16.0322-4.517 32.1988-2.5 48.5 1.705 8.2907 4.705 8.9574 9 2 .822-2.2885 1.489-4.6218 2-7 1.998-16.2728 2.831-32.6061 2.5-49z"/><path fill="#3b4d45" d="M161.5 17.5c-1.808-.0086-3.475.4914-5 1.5.667.6667 1.333 1.3333 2 2-1.72 6.0779-3.053 12.2445-4 18.5-1.427 1.6484-2.26 3.6484-2.5 6-1.022-.854-1.855-1.854-2.5-3 1.983-8.5623 3.316-17.229 4-26 2.885-.3064 5.552.0269 8 1z"/><path fill="#394e47" d="M180.5 18.5c6.095 14.6111 11.428 29.6111 16 45-2.973-1.3103-5.307-3.3103-7-6-3.198-10.4888-5.698-21.1554-7.5-32-.419-1.1721-1.085-2.1721-2-3-.167.3333-.333.6667-.5 1 2.594 5.8313 2.261 6.1647-1 1-1.667-.6667-3.333-1.3333-5-2 1.965-.7922 3.965-1.4588 6-2 .798-.4569 1.131-1.1236 1-2z"/><path fill="#475a51" d="M328.5 20.5c.709-.904 1.709-1.2373 3-1 .325 7.1866-.009 14.1866-1 21-1.1 1.7774-1.934 3.7774-2.5 6-.667-7.6667-.667-15.3333 0-23 2.49-1.4467 2.657-2.4467.5-3z"/><path fill="#6f857a" d="M141.5 41.5c-1.644-.2135-3.144.1198-4.5 1-.367 3.9346-.533 7.6013-.5 11-2.868-2.0318-5.868-3.8651-9-5.5.667-.3333 1.333-.6667 2-1-.395-2.7805-1.728-4.9472-4-6.5-.333.6667-.667 1.3333-1 2-.781-1.2287-1.281-2.562-1.5-4-.671-.7524-1.504-1.0858-2.5-1v-13c1.699.1602 3.366-.0065 5-.5-2.333-.3333-4.667-.6667-7-1-.457-.414-.791-.914-1-1.5 7.972-.9977 15.972-1.331 24-1v21z"/><path fill="#70867b" d="M328.5 20.5c2.157.5533 1.99 1.5533-.5 3-.667 7.6667-.667 15.3333 0 23 .566-2.2226 1.4-4.2226 2.5-6-.508 3.6974-1.174 7.3641-2 11-1.473.572-2.807 1.4054-4 2.5.949.6172 1.782.4506 2.5-.5.498 2.9816.665 5.9816.5 9-1.835.6223-3.002 1.9556-3.5 4-.419-2.1797-.252-4.3463.5-6.5-.167-.8333-.333-1.6667-.5-2.5-.49 1.2932-.657 2.6266-.5 4-3.807.7259-6.474-.6074-8-4-.862-9.8706-2.695-19.5373-5.5-29-.173 5.5158-.673 10.8491-1.5 16-.61-6.3154-.943-12.6487-1-19 1.052.1495 2.052-.0172 3-.5-2.845-.0082-4.845-1.1749-6-3.5 8.005-.2312 16.005-.5645 24-1z"/><path fill="#6a8176" d="M383.5 60.5c-3.053.1815-6.053.3481-9 .5-2.553-3.0469-3.886-6.5469-4-10.5-.166-6.0092.001-12.0092.5-18 .498 6.1626 3.165 11.1626 8 15-.633-1.8379-.466-3.6712.5-5.5-1.35-2.4639-2.516-4.9639-3.5-7.5-1.044 1.1226-1.71 2.4559-2 4-.755-3.1883-1.589-6.3549-2.5-9.5-.63-1.3102-1.63-2.1435-3-2.5 2.762-2.527 3.429-5.527 2-9 8.355.3543 16.688 1.0209 25 2 1.348 5.1126 2.182 4.7793 2.5-1 6.076.9764 12.242 1.3097 18.5 1 .137 5.4367-.53 10.77-2 16-.586.2093-1.086.5426-1.5 1-.245-4.3532-.245-8.6866 0-13-1.237 3.5601-1.737 7.2267-1.5 11-5.978-.9085-11.978-1.0752-18-.5 2.333.3333 4.667.6667 7 1-4 .3333-8 .6667-12 1-2.523 4.0876-3.856 8.5876-4 13.5 6.758-1.0216 13.758-1.0216 21 0-.052 3.6981-.386 7.3648-1 11-6.342.1662-12.675-.0005-19-.5-2.644-4.8385-3.311-4.6718-2 .5z"/><path fill="#45574f" d="M228.5 28.5c-1.602 9.0442-3.435 18.0442-5.5 27-.813-1.9357-1.313-3.9357-1.5-6 .397-6.382 1.23-12.7154 2.5-19 .333.3333.667.6667 1 1 .422-1.9257 1.589-2.9257 3.5-3z"/><path fill="#605e57" d="M28.5 33.5c1.6773 4.0448 2.3439 8.3781 2 13-1.3955-4.0909-2.0621-8.4242-2-13z" opacity=".569"/><path fill="#a6b8ab" d="M220.5 49.5c-.438 1.0063-1.104 1.0063-2 0 .025-14.5788.691-14.5788 2 0z"/><path fill="#060505" d="M424.5 42.5c-.295 4.398-.962 8.7314-2 13-2.183 2.2843-4.85 3.6176-8 4 .064-3.7198.564-7.3865 1.5-11 3.821-.6615 6.654-2.6615 8.5-6z" opacity=".425"/><path fill="#2b3b34" d="M268.5 18.5c5.676-.1661 11.343.0006 17 .5 2.019.4497 3.852 1.283 5.5 2.5.667 7.3333.667 14.6667 0 22-7.754.8166-15.588 1.3166-23.5 1.5-9.072 5.6558-12.572 13.8225-10.5 24.5 4.802 9.0414 11.802 11.3747 21 7 .483-.948.649-1.948.5-3-4.944.3221-9.777.3221-14.5 0-.667-6-.667-12 0-18 11.694-2.5319 23.527-4.0319 35.5-4.5 2.231 13.41 3.731 26.91 4.5 40.5-16.438 16.973-35.604 20.807-57.5 11.5-8.756-3.7553-14.256-10.2553-16.5-19.5-6.405-18.4435-3.738-35.4435 8-51 3.198-3.3628 7.032-5.6961 11.5-7 5.064 1.2786 7.564 4.612 7.5 10 4.339-5.3497 8.172-11.0163 11.5-17z"/><path fill="#697f74" d="M254.5 48.5c-1.511 2.5051-2.845 5.1717-4 8-.996-.0858-1.829.2476-2.5 1-1.665 6.2987-1.998 12.6321-1 19-1.356.8802-2.856 1.2135-4.5 1-1.407-1.8083-2.574-3.8083-3.5-6-.169-7.0236-.669-14.0236-1.5-21-2.67 5.607-4.004 11.2737-4 17-.657-8.2216 1.01-16.055 5-23.5-.111-1.7215-.611-1.8882-1.5-.5-.667-1.6667-.667-3.3333 0-5 2.128-3.1301 4.628-5.9634 7.5-8.5 1.135-.7494 2.135-.5827 3 .5 2.14 2.376 3.806 5.0426 5 8 1 .6667 2 1.3333 3 2-1.978 2.5433-2.311 5.2099-1 8z"/><path fill="#6d8378" d="M270.5 20.5c5.745-.2889 11.412.2111 17 1.5 1.302 4.7817 1.302 9.615 0 14.5-1.783-3.9034-2.95-3.5701-3.5 1-10.166-1.5369-18.833 1.4631-26 9-.333 1.6667-.667 3.3333-1 5-.163-2.176-.996-4.0093-2.5-5.5 4.309-9.1422 9.642-17.6422 16-25.5z"/><path fill="#6a8278" d="M161.5 17.5c6.351.0572 12.685.3905 19 1 .131.8764-.202 1.5431-1 2-2.035.5412-4.035 1.2078-6 2 1.667.6667 3.333 1.3333 5 2 3.261 5.1647 3.594 4.8313 1-1 .167-.3333.333-.6667.5-1 .915.8279 1.581 1.8279 2 3 1.802 10.8446 4.302 21.5112 7.5 32 .164 2.6873-.003 5.354-.5 8-1.726 1.0762-3.559 1.2429-5.5.5-2.072-3.2023-3.572-6.7023-4.5-10.5-3.298-3.6646-7.465-4.9979-12.5-4 .012 4.1186-.988 7.9519-3 11.5 3.634 4.1955 2.968 4.5289-2 1-.752-.6708-1.086-1.5041-1-2.5 2.039-1.411 3.039-3.411 3-6-1.43-.0792-2.764.2542-4 1-.512-2.3507-1.512-4.3507-3-6-.781 1.2287-1.281 2.562-1.5 4-1.778-4.9194-1.945-9.9194-.5-15 .947-6.2555 2.28-12.4221 4-18.5-.667-.6667-1.333-1.3333-2-2 1.525-1.0086 3.192-1.5086 5-1.5z"/><path fill="#42554d" d="M336.5 72.5c1.64.8201 3.307 1.6534 5 2.5-4.013.0533-8.013-.4467-12-1.5-1.594-3.4913-2.261-7.158-2-11 .165-3.0184-.002-6.0184-.5-9-.718.9506-1.551 1.1172-2.5.5 1.193-1.0946 2.527-1.928 4-2.5 1.293-1.342 2.126-3.0087 2.5-5 .5 7.9931.666 15.9931.5 24 2.054-.1347 3.721.532 5 2z"/><path fill="#465d54" d="M204.5 23.5c2.327 6.1776 2.494 12.511.5 19-1.238 6.6321-3.238 12.9654-6 19-.383-.556-.883-.8893-1.5-1 2.584-12.383 4.917-24.7163 7-37z"/><path fill="#b6b8a8" d="M333.5 19.5c.996 15.8246 1.33 31.8246 1 48h4c-1.419.9511-3.085 1.2845-5 1v-49z"/><path fill="#648076" d="M77.5 22.5h9c-.1224 6.6956-.2891 13.3623-.5 20 2.8119-6.2904 6.1452-12.2904 10-18 1.3561-.8802 2.8561-1.2135 4.5-1-.129 1.7161-.462 3.3828-1 5-1.2763 2.0625-2.1097 4.3958-2.5 7 .1359 12.0807-.6974 23.9141-2.5 35.5.7911 4.6649 2.1244 9.1649 4 13.5-1.835-.6223-3.0017-1.9556-3.5-4-.2599-3.7498-.9266-7.4164-2-11-.3333 5.3333-.6667 10.6667-1 16-1.0495 1.0171-2.2161 1.1838-3.5.5-2.6769-5.724-4.6769-11.5573-6-17.5-.029-5.7102.471-11.3769 1.5-17 2.9267-1.5704 3.9267-3.9038 3-7-.227 2.5595-1.5603 4.2262-4 5-.3333 2.3333-.6667 4.6667-1 7-2.9125-9.8673-3.7458-19.8673-2.5-30-.6799-1.3599-1.3466-2.6932-2-4z"/><path fill="#60796f" d="M120.5 37.5c.996-.0858 1.829.2476 2.5 1 .219 1.438.719 2.7713 1.5 4 .333-.6667.667-1.3333 1-2 2.272 1.5528 3.605 3.7195 4 6.5-.667.3333-1.333.6667-2 1 3.132 1.6349 6.132 3.4682 9 5.5-.033-3.3987.133-7.0654.5-11 1.356-.8802 2.856-1.2135 4.5-1-.099 5.8002-.933 11.4669-2.5 17-.333-1-.667-2-1-3-.281 4.7154-.781 9.3821-1.5 14-.817-2.4686-1.317-5.1353-1.5-8-.347 9.2467-3.847 16.9133-10.5 23-3.226-1.185-6.392-1.8516-9.5-2-3.911 1.2743-7.578 2.941-11 5-2.399-.1132-4.2321-1.1132-5.5-3 2.316.8596 4.649 1.3596 7 1.5 10.388-6.6106 15.055-16.1106 14-28.5.991-6.479 1.324-13.1457 1-20z"/><path fill="#3a534c" d="M77.5 22.5c.6534 1.3068 1.3201 2.6401 2 4-1.2458 10.1327-.4125 20.1327 2.5 30 .3333-2.3333.6667-4.6667 1-7 2.4397-.7738 3.773-2.4405 4-5 .9267 3.0962-.0733 5.4296-3 7-1.029 5.6231-1.529 11.2898-1.5 17-.165 3.3499.0017 6.6832.5 10 1.6323 3.5325 2.7989 7.1992 3.5 11-1.7225-1.7528-3.2225-3.7528-4.5-6-.9653 1.7603-2.132 2.0937-3.5 1-5.6903-19.756-6.5236-39.756-2.5-60 .2784-.9158.7784-1.5825 1.5-2z"/><path fill="#5a736a" d="M37.5 16.5c-.1107.6174-.444 1.1174-1 1.5 1.7746 1.4389 3.7746 2.4389 6 3-1.1582 1.0086-1.8248 2.3419-2 4 2.3679 8.6001 3.8679 17.4334 4.5 26.5 1.0736 1.1184 2.2402 2.1184 3.5 3-1.9357 2.708-2.4357 5.708-1.5 9 1.8589-3.4673 4.1922-4.4673 7-3l2-2c.4517-3.3772 1.1184-6.7105 2-10 .6667-1.3333 1.6667-2.3333 3-3 .1862-2.5356.6862-4.869 1.5-7 .398 9.0498.398 18.0498 0 27-1.4008.4709-2.7342 1.1376-4 2-1.8681 5.4925-4.0347 10.8258-6.5 16-4.2798 3.3897-9.1131 5.5564-14.5 6.5-.6905 1.0674-1.1905 2.2341-1.5 3.5-.3333-2-.6667-4-1-6-.3333 1-.6667 2-1 3-4.4826.4206-8.9826-.0794-13.5-1.5-2.0848-2.4194-3.0848-5.2528-3-8.5 4.3187.7488 8.652.9155 13 .5-5.5866-.4266-10.9199-1.5932-16-3.5-1.4757-1.7296-1.1424-3.0629 1-4 5.2707 2.9429 10.7707 3.6095 16.5 2 2.1734 2.777 2.6734 2.6103 1.5-.5 2.8807-1.2506 4.714-3.4173 5.5-6.5 1.3033-16.8439.1367-33.5106-3.5-50 .2472-1.2133.9138-1.88 2-2z"/><path fill="#2d433c" d="M304.5 21.5c1.155 2.3251 3.155 3.4918 6 3.5-.948.4828-1.948.6495-3 .5.057 6.3513.39 12.6846 1 19 1.78 12.5865 2.78 25.2531 3 38-1.299 4.2025-1.299 8.5358 0 13-1.306 1.4122-2.14 3.0789-2.5 5-2.263-26.5212-3.763-52.8545-4.5-79z"/><path fill="#3f5850" d="M99.5 28.5c-1.6796 12.6185-2.1796 25.2852-1.5 38 .5275 4.4434 1.5275 8.7768 3 13 2.284 2.4845 4.784 2.6511 7.5.5 2.731-2.6259 4.564-5.7926 5.5-9.5 1.105-11.3182 2.105-22.6515 3-34 .667.6667 1.333 1.3333 2 2 .386 6.5744.553 12.9077.5 19 1.055 12.3894-3.612 21.8894-14 28.5-2.351-.1404-4.684-.6404-7-1.5-1.8756-4.3351-3.2089-8.8351-4-13.5 1.8026-11.5859 2.6359-23.4193 2.5-35.5.3903-2.6042 1.2237-4.9375 2.5-7z"/><path fill="#3a564f" d="M404.5 92.5c.285 1.788-.048 3.4547-1 5-.808-.3076-1.475-.8076-2-1.5-12.347-.3226-24.681-.8226-37-1.5v-5-6c.782-3.2144 1.615-6.5477 2.5-10 2.155-1.1834 4.155-.8501 6 1 .789 3.3338 1.956 6.5005 3.5 9.5 1.496.5074 2.663.0074 3.5-1.5-.127 1.8877-.96 3.5543-2.5 5 .348 2.1967 1.348 4.03 3 5.5 7.997.1676 15.997.0009 24-.5z"/><path fill="#637b70" d="M204.5 23.5c2.982.4629 5.982.7962 9 1-.285 1.788.048 3.4547 1 5-.022-1.4952.311-3.1619 1-5 3.459.8043 6.959 1.471 10.5 2 1.376.1842 2.209.8509 2.5 2-1.911.0743-3.078 1.0743-3.5 3-.333-.3333-.667-.6667-1-1-1.27 6.2846-2.103 12.618-2.5 19h-1c-1.309-14.5788-1.975-14.5788-2 0 .65 1.9352.983 3.9352 1 6-2.287 5.8115-3.953 11.8115-5 18-1.322-.17-2.489.1634-3.5 1-.903 7.3243-4.569 8.9909-11 5-.5.3333-1 .6667-1.5 1 1.624 1.3689 2.124 3.0355 1.5 5-2.087-3.1728-3.921-6.5061-5.5-10 .956-1.5754 1.623-3.242 2-5 .978-.311 1.645-.9777 2-2-.893-2.5841-1.226-5.2508-1-8 .617.1107 1.117.444 1.5 1 2.762-6.0346 4.762-12.3679 6-19 1.994-6.489 1.827-12.8224-.5-19z"/><path fill="#5a746b" d="M315.5 57.5c1.526 3.3926 4.193 4.7259 8 4-.157-1.3734.01-2.7068.5-4 .167.8333.333 1.6667.5 2.5-.752 2.1537-.919 4.3203-.5 6.5.498-2.0444 1.665-3.3777 3.5-4-.261 3.842.406 7.5087 2 11 3.987 1.0533 7.987 1.5533 12 1.5-1.693-.8466-3.36-1.6799-5-2.5v-3h19v16c-1.624.1399-2.79-.5267-3.5-2-.191 2.2078-.691 4.2078-1.5 6v-4c-4.257.9029-6.757-.7637-7.5-5-.483.948-.649 1.948-.5 3-7.038.3402-14.038 1.0068-21 2 1.08-5.634 1.58-11.3007 1.5-17-.738 3.4913-1.571 6.8246-2.5 10-.665 1.8691-1.331 3.8691-2 6-1.661-8.9167-2.661-17.9167-3-27z"/><path fill="#354b44" d="M154.5 58.5c-1.431.3807-2.264 1.3807-2.5 3-.952 5.7596-2.285 11.4263-4 17-2.34 8.5684.826 12.0684 9.5 10.5 3.098-5.3616 5.765-10.8616 8-16.5-1.222 3.5003-1.222 7.0003 0 10.5-.753 4.1802-1.587 8.3469-2.5 12.5l-1.5-1.5a461.6226 461.6226 0 0 1-15-2c-.764-2.0693-1.264-4.236-1.5-6.5.046 3.1331-.954 5.7998-3 8 2.038-16.0334 4.538-32.0334 7.5-48 1.446.6709 2.112 1.8376 2 3.5-.886 2.8075-1.053 5.6408-.5 8.5 1.141-3.5058 2.307-3.1725 3.5 1z"/><path fill="#536c63" d="M189.5 57.5c1.693 2.6897 4.027 4.6897 7 6v7c-.377 1.758-1.044 3.4246-2 5 1.579 3.4939 3.413 6.8272 5.5 10 .624-1.9645.124-3.6311-1.5-5 .5-.3333 1-.6667 1.5-1 6.431 3.9909 10.097 2.3243 11-5 1.011-.8366 2.178-1.17 3.5-1-1.285 6.4233-2.952 12.7566-5 19-6.697 1.276-13.364 1.1093-20-.5-1.594-4.3005-3.261-8.4672-5-12.5-.28-3.3388-1.78-6.0055-4.5-8-.667-4.6667-1.333-9.3333-2-14-1.011-.8366-2.178-1.17-3.5-1 .157-1.3734-.01-2.7068-.5-4-1.093 2.4721-2.76 4.4721-5 6-.965 5.4716-2.132 10.1382-3.5 14-2.235 5.6384-4.902 11.1384-8 16.5-8.674 1.5684-11.84-1.9316-9.5-10.5 1.715-5.5737 3.048-11.2404 4-17 .236-1.6193 1.069-2.6193 2.5-3 1.044 4.1813 3.044 5.1813 6 3-.086.9959.248 1.8292 1 2.5 4.968 3.5289 5.634 3.1955 2-1 2.012-3.5481 3.012-7.3814 3-11.5 5.035-.9979 9.202.3354 12.5 4 .928 3.7977 2.428 7.2977 4.5 10.5 1.941.7429 3.774.5762 5.5-.5.497-2.646.664-5.3127.5-8z"/><path fill="#32463f" d="M368.5 26.5c1.37.3565 2.37 1.1898 3 2.5.911 3.1451 1.745 6.3117 2.5 9.5.29-1.5441.956-2.8774 2-4 .984 2.5361 2.15 5.0361 3.5 7.5-.966 1.8288-1.133 3.6621-.5 5.5-4.835-3.8374-7.502-8.8374-8-15-.499 5.9908-.666 11.9908-.5 18-.666 4.5166-1.333 9.1833-2 14-1.22-1.2111-2.387-1.2111-3.5 0-.5 6.3246-.666 12.6579-.5 19v6c-1.207 2.7716-2.707 5.4383-4.5 8 .845-18.3412 2.178-36.6745 4-55 .249 1.124.749 2.124 1.5 3 1.076-6.3673 2.076-12.7006 3-19z"/><path fill="#394d45" d="M184.5 79.5c1.739 4.0328 3.406 8.1995 5 12.5 6.636 1.6093 13.303 1.776 20 .5 2.048-6.2434 3.715-12.5767 5-19 1.047-6.1885 2.713-12.1885 5-18 .617-.1107 1.117-.444 1.5-1a91.57932 91.57932 0 0 1 1.5 6.5c-2.834 13.5026-5.667 27.0026-8.5 40.5-1.022-.854-1.855-1.854-2.5-3 1.46-2.5289 1.96-5.1956 1.5-8-.642 2.2619-1.475 4.4285-2.5 6.5-7.05.7968-14.05.6301-21-.5-2.443-5.4383-4.11-11.105-5-17z"/><path fill="#9bb3a7" d="M321.5 85.5c-.968-2.1074-1.302-4.4407-1-7 .929-3.1754 1.762-6.5087 2.5-10 .08 5.6993-.42 11.366-1.5 17z"/><path fill="#59786f" d="M370.5 50.5c.114 3.9531 1.447 7.4531 4 10.5 2.947-.1519 5.947-.3185 9-.5.597.2352.93.7352 1 1.5-2.925 5.1519-3.591 10.6519-2 16.5 1.699.1602 3.366-.0065 5-.5-2.605-.0264-3.771-1.193-3.5-3.5 8.097 1.3283 16.264 2.495 24.5 3.5-1.647 4.7321-2.981 9.5655-4 14.5-8.003.5009-16.003.6676-24 .5-1.652-1.47-2.652-3.3033-3-5.5 1.54-1.4457 2.373-3.1123 2.5-5-.837 1.5074-2.004 2.0074-3.5 1.5-1.544-2.9995-2.711-6.1662-3.5-9.5-1.845-1.8501-3.845-2.1834-6-1-.885 3.4523-1.718 6.7856-2.5 10-.166-6.3421 0-12.6754.5-19 1.113-1.2111 2.28-1.2111 3.5 0 .667-4.8167 1.334-9.4834 2-14z"/><path fill="#4a7069" d="M82.5 68.5c1.3231 5.9427 3.3231 11.776 6 17.5 1.2839.6838 2.4505.5171 3.5-.5.3333-5.3333.6667-10.6667 1-16 1.0734 3.5836 1.7401 7.2502 2 11 .4983 2.0444 1.665 3.3777 3.5 4 1.2679 1.8868 3.101 2.8868 5.5 3 3.422-2.059 7.089-3.7257 11-5 3.108.1484 6.274.815 9.5 2-4.33 8.6642-11.33 12.9975-21 13-7.0329.0004-12.6996-2.6663-17-8-.7011-3.8008-1.8677-7.4675-3.5-11-.4983-3.3168-.665-6.6501-.5-10z"/><path fill="#4f5b51" d="M356.5 68.5c.667 4.3333 1.333 8.6667 2 13 .316 3.4783-.184 6.8117-1.5 10-.5-7.6594-.666-15.3261-.5-23z"/><path fill="#2f3f38" d="M68.5 51.5c-1.7977 5.9212-2.6311 12.2545-2.5 19-.7096 1.4733-1.8762 2.1399-3.5 2 .9171-2.5048.9171-4.8382 0-7 .398-8.9502.398-17.9502 0-27v-25c-8.2105 1.6568-16.5439 2.6568-25 3-1.0862.12-1.7528.7867-2 2 3.6367 16.4894 4.8033 33.1561 3.5 50-.786 3.0827-2.6193 5.2494-5.5 6.5 1.1734 3.1103.6734 3.277-1.5.5-5.7293 1.6095-11.2293.9429-16.5-2-2.1424.9371-2.4757 2.2704-1 4-1.2545 4.3399-1.5878 8.6732-1 13-.5537 2.3888-2.0537 4.0555-4.5 5 .18693-7.1349.68693-14.3016 1.5-21.5-.0143-1.3847-.3476-2.5514-1-3.5-.02992-.9972.47008-1.6639 1.5-2 7.0652 5.8918 14.8985 7.2252 23.5 4 3.1054-5.183 4.4388-10.8497 4-17-.9294-12.435-2.596-24.7683-5-37 .0698-1.2716.4032-2.4383 1-3.5 8.8716-.9485 17.705-2.1152 26.5-3.5 1.2613.2591 2.2613.9258 3 2 2.7511 12.509 4.2511 25.1756 4.5 38z"/><path fill="#698076" d="M62.5 38.5c-.8138 2.131-1.3138 4.4644-1.5 7-1.3333.6667-2.3333 1.6667-3 3-.8816 3.2895-1.5483 6.6228-2 10l-2 2c-2.8078-1.4673-5.1411-.4673-7 3-.9357-3.292-.4357-6.292 1.5-9-1.2598-.8816-2.4264-1.8816-3.5-3-.6321-9.0666-2.1321-17.8999-4.5-26.5.1752-1.6581.8418-2.9914 2-4-2.2254-.5611-4.2254-1.5611-6-3 .556-.3826.8893-.8826 1-1.5 8.4561-.3432 16.7895-1.3432 25-3v25z"/><path fill="#3e554d" d="M62.5 65.5c-4.8084 27.9109-20.8084 37.411-48 28.5-.8366-1.0113-1.17-2.1779-1-3.5-.5878-4.3268-.2545-8.6601 1-13 5.0801 1.9068 10.4134 3.0734 16 3.5-4.348.4155-8.6813.2488-13-.5-.0848 3.2472.9152 6.0806 3 8.5 4.5174 1.4206 9.0174 1.9206 13.5 1.5.3333-1 .6667-2 1-3 .3333 2 .6667 4 1 6 .3095-1.2659.8095-2.4326 1.5-3.5 5.3869-.9436 10.2202-3.1103 14.5-6.5 2.4653-5.1742 4.6319-10.5075 6.5-16 1.2658-.8624 2.5992-1.5291 4-2z"/><path fill="#3b5852" d="M136.5 69.5c-2.211 9.5902-6.877 17.7568-14 24.5-5.959 4.1831-12.293 5.3498-19 3.5 9.67-.0025 16.67-4.3358 21-13 6.653-6.0867 10.153-13.7533 10.5-23 .183 2.8647.683 5.5314 1.5 8z"/><path fill="#3d574f" d="M315.5 57.5c.339 9.0833 1.339 18.0833 3 27 .669-2.1309 1.335-4.1309 2-6-.302 2.5593.032 4.8926 1 7 6.962-.9932 13.962-1.6598 21-2-.149-1.052.017-2.052.5-3 .743 4.2363 3.243 5.9029 7.5 5v4c-12.986 1.8335-25.653 3.8335-38 6 .206-4.3982-.127-8.7315-1-13-.22-12.7469-1.22-25.4135-3-38 .827-5.1509 1.327-10.4842 1.5-16 2.805 9.4627 4.638 19.1294 5.5 29z"/><path fill="#39514a" d="M254.5 48.5c.543.06.876.3933 1 1-4.672 12.1127-2.339 22.446 7 31 .904.709 1.237 1.709 1 3 1.478-.262 2.811.0713 4 1-.825.8857-1.825 1.219-3 1-.165 3.0184.002 6.0184.5 9 .494-1.6341.66-3.3008.5-5 7.85.0634 15.517-1.1033 23-3.5 3.133-.8596 5.8-2.3596 8-4.5-.505-3.3411-.672-6.6745-.5-10 .333 1 .667 2 1 3 .667-4.3333.667-8.6667 0-13-.493-3.1747-1.66-5.8414-3.5-8 1.068-.9345 2.401-1.2678 4-1 1.829 11.9589 2.996 23.9589 3.5 36-1.333-1.3333-2.667-2.6667-4-4 .889 2.8763.056 5.3763-2.5 7.5-4.786 3.7263-10.119 6.3929-16 8-17.678 4.955-31.845-.5447-42.5-16.5-1.167-5.0045-2.334-10.0045-3.5-15 .124-.6067.457-.94 1-1-.004-5.7263 1.33-11.393 4-17 .831 6.9764 1.331 13.9764 1.5 21 .926 2.1917 2.093 4.1917 3.5 6 5.712 6.0238 12.712 9.6905 21 11 .157-1.3734-.01-2.7068-.5-4-12.324-5.4126-16.491-14.7459-12.5-28 1.155-2.8283 2.489-5.4949 4-8z"/><path fill="#4c7169" d="M296.5 81.5c-2.2 2.1404-4.867 3.6404-8 4.5-7.483 2.3967-15.15 3.5634-23 3.5.16 1.6992-.006 3.3659-.5 5-.498-2.9816-.665-5.9816-.5-9 1.175.219 2.175-.1143 3-1-1.189-.9287-2.522-1.262-4-1 .237-1.291-.096-2.291-1-3-.131-.7389.036-1.4056.5-2 5.429 3.8176 11.262 4.651 17.5 2.5 2.677-3.386 3.511-7.2194 2.5-11.5-1.264-2.107-3.097-3.107-5.5-3-2.573.3515-4.906-.1485-7-1.5 4.978.051 9.978.2177 15 .5.298 4.1225 1.131 8.1225 2.5 12 2.89 1.2795 5.723 2.6128 8.5 4z"/><path fill="#506960" d="M250.5 56.5c-3.991 13.2541.176 22.5874 12.5 28 .49 1.2932.657 2.6266.5 4-8.288-1.3095-15.288-4.9762-21-11 1.644.2135 3.144-.1198 4.5-1-.998-6.3679-.665-12.7013 1-19 .671-.7524 1.504-1.0858 2.5-1z"/><path fill="#607e75" d="M293.5 53.5c1.84 2.1586 3.007 4.8253 3.5 8 .667 4.3333.667 8.6667 0 13-.333-1-.667-2-1-3-.172 3.3255-.005 6.6589.5 10-2.777-1.3872-5.61-2.7205-8.5-4-1.369-3.8775-2.202-7.8775-2.5-12-5.022-.2823-10.022-.449-15-.5 2.094 1.3515 4.427 1.8515 7 1.5-2.128 1.1291-4.461 1.2958-7 .5-.847-3.376-2.181-6.5427-4-9.5 5.034-1.543 10.201-2.543 15.5-3 3.003.243 4.17 1.9096 3.5 5 1.052.1495 2.052-.0172 3-.5-2.158-1.3117-2.491-2.9783-1-5 1.973-.4955 3.973-.6621 6-.5z"/><path fill="#263630" d="M68.5 51.5c2.6404 17.0236-1.6929 31.857-13 44.5-15.5928 10.399-31.5928 11.066-48 2-.61593-1.4002-.94926-2.9002-1-4.5.51067-7.8759 1.51067-15.5425 3-23 .6524.9486.9857 2.1153 1 3.5-.81307 7.1984-1.31307 14.3651-1.5 21.5 2.4463-.9445 3.9463-2.6112 4.5-5-.17 1.3221.1634 2.4887 1 3.5 27.1916 8.911 43.1916-.5891 48-28.5.9171 2.1618.9171 4.4952 0 7 1.6238.1399 2.7904-.5267 3.5-2-.1311-6.7455.7023-13.0788 2.5-19z"/><path fill="#070706" d="M77.5 111.5c-3.0073-4.011-5.5073-8.345-7.5-13-3.3576 5.39-7.1909 10.39-11.5 15-.9916-.172-1.6583.162-2 1-1.3195 1.442-2.9862 2.108-5 2-2.8082-1.384-5.8082-2.051-9-2a626.30372 626.30372 0 0 0-31 4c-3.48531-1.348-6.65198-3.348-9.5-6-1.33685-3.526-1.83685-7.192-1.5-11 7.22187 4.803 15.2219 7.97 24 9.5 19.9807 1.926 35.1473-5.574 45.5-22.5 7.1524 14.674 18.9857 22.508 35.5 23.5-2.31 1.637-3.81 3.804-4.5 6.5-.685-2.557-2.1853-4.391-4.5-5.5-6.4135-.207-12.7469-.707-19-1.5zm0 0c-6.3007.707-12.6341 1.374-19 2 4.3091-4.61 8.1424-9.61 11.5-15 1.9927 4.655 4.4927 8.989 7.5 13z" opacity=".472"/><path fill="#070606" d="M240.5 118.5c-2.679-2.101-5.512-4.101-8.5-6-2.416-3.163-4.582-6.496-6.5-10a227.6389 227.6389 0 0 0-3.5 16c-1.045.873-1.878 1.873-2.5 3-2.234-.12-4.401.213-6.5 1-2.225-3.926-5.059-7.426-8.5-10.5 4.667-.333 9.333-.667 14-1 .828-.915 1.828-1.581 3-2 1.958-5.354 3.458-10.8542 4.5-16.5 1.886 3.9402 4.386 7.4402 7.5 10.5 6.776 4.721 14.109 8.388 22 11-5.401.43-10.401 1.93-15 4.5z" opacity=".461"/><path fill="#060606" d="M176.5 113.5c-1.582-9.191-2.582-9.191-3 0-5.943 1.049-11.943 2.382-18 4-2.254-2.419-4.921-4.252-8-5.5-4.75-.223-9.416-.723-14-1.5-.217-3.56-1.217-3.56-3 0-.891.61-1.891.943-3 1-4-.667-8-1.333-12-2 6.356-2.178 11.689-5.845 16-11 2.522 3.427 5.855 5.594 10 6.5 9.268 1.801 18.602 2.468 28 2 3.481-2.162 5.315-5.329 5.5-9.5 1.933 11.568 8.766 16.068 20.5 13.5-6.324.975-12.657 1.808-19 2.5zm0 0h-3c.418-9.191 1.418-9.191 3 0zm-43-3h-3c1.783-3.56 2.783-3.56 3 0z" opacity=".478"/><path fill="#070606" d="M416.5 104.5v7c-6.93-.528-12.597 1.805-17 7-1.528-1.361-3.195-2.528-5-3.5-13.881-3.82-27.548-3.32-41 1.5-.749-1.746-2.083-2.746-4-3-10.269 2.133-20.602 3.8-31 5-9.112-3.112-18.445-5.612-28-7.5 3.427-1.796 6.594-3.963 9.5-6.5 1.937 3.886 5.103 5.553 9.5 5 13.426-1.819 26.759-4.152 40-7 2.231 2.386 4.897 4.219 8 5.5 17.655 1.193 35.321 1.527 53 1 2.16-1.332 4.16-2.832 6-4.5z" opacity=".485"/><path fill="#9b988c" d="M115.5 109.5c4 .667 8 1.333 12 2-5.044.327-10.044-.006-15-1 .825-.886 1.825-1.219 3-1z" opacity=".755"/><path fill="#283832" d="M108.5 118.5c12.671-.167 25.338 0 38 .5.597 1.062.93 2.228 1 3.5-4.295 33.95-8.128 67.95-11.5 102-.75.626-1.584 1.126-2.5 1.5-11.175.734-22.342 1.568-33.5 2.5-3.276-.058-6.276-.724-9-2-3.3346-14.678-6.6679-29.345-10-44-1.5114 14.461-3.678 28.795-6.5 43-12.9654 1.434-25.9654 2.767-39 4-1.8197-.149-3.3197-.816-4.5-2-7.3755-33.213-14.8755-66.38-22.5-99.5.1448-.772.47814-1.439 1-2 12.2926-1.995 24.6259-3.329 37-4 3.538 17.057 6.7046 34.224 9.5 51.5 2.0038-18.03 4.1704-36.03 6.5-54 10.5821-.32 21.0821.013 31.5 1 3.572 16.763 7.572 33.429 12 50 .944-17.331 1.778-34.665 2.5-52z"/><path fill="#273731" d="M198.5 117.5c1.871.359 3.371 1.359 4.5 3 2.363 5.421 4.529 10.921 6.5 16.5-1.937 11.086-2.437 22.253-1.5 33.5 2.341-2.699 4.675-5.366 7-8 1.92.438 3.754 1.105 5.5 2 6.864 16.593 13.531 33.259 20 50-.108.942-.441 1.775-1 2.5-11.212 3.036-22.545 5.536-34 7.5-1-.333-2-.667-3-1-1.863-4.255-3.53-8.588-5-13-5.312-.937-10.646-.937-16 0-.196 5.599-.862 11.099-2 16.5-13.329.5-26.663.667-40 .5 5.837-35.163 12.837-69.996 21-104.5 12.856-1.521 25.523-3.354 38-5.5z"/><path fill="#293933" d="M274.5 117.5c13.828-.049 27.161 2.451 40 7.5 17.487 14.115 21.32 31.282 11.5 51.5-3.847 4.511-7.68 9.011-11.5 13.5 4.112 8.392 8.612 16.558 13.5 24.5 2.425-8.8 4.592-17.633 6.5-26.5 5.64 1.973 11.306 4.307 17 7 6.796 3.393 13.796 4.059 21 2 1.435-2.267 1.102-4.267-1-6-6.215-1.869-12.548-3.203-19-4-12.164-5.465-18.497-14.965-19-28.5-.06-17.404 7.94-29.238 24-35.5 11.502-4.207 23.169-4.541 35-1 2.15 2.555 2.483 5.388 1 8.5-3.127 1.064-6.127 2.397-9 4 6.999 5.551 14.999 7.551 24 6-1.068 6.579-2.401 13.079-4 19.5-8.303-2.365-16.803-4.198-25.5-5.5-3.258-.007-6.425.493-9.5 1.5-.857.689-1.523 1.522-2 2.5 2.054 1.694 4.388 2.861 7 3.5 12.021.43 22.521 4.597 31.5 12.5 5.644 10.756 5.978 21.756 1 33-3.345 8.668-8.845 15.501-16.5 20.5-20.981 7.796-40.814 5.629-59.5-6.5-10.841 2.47-21.674 5.137-32.5 8-1.299-.59-2.132-1.59-2.5-3-3.471-9.412-7.137-18.746-11-28-2.381-.935-4.881-1.268-7.5-1-.292 10.335-.625 20.668-1 31h-35c1.147-34.669 2.314-69.335 3.5-104 1.491-1.504 3.324-2.337 5.5-2.5 8.194-1.196 16.194-2.696 24-4.5z"/><path fill="#4f6259" d="M116.5 120.5c-.76 3.581-1.26 7.248-1.5 11-.785-2.936-1.951-4.936-3.5-6-1.266-3.925.401-5.592 5-5z"/><path fill="#2a3932" d="M410.5 118.5c8.717.393 13.384 4.726 14 13-10.321 3.851-20.987 5.018-32 3.5 4.139-2.639 8.139-5.472 12-8.5.667-1.667 1.333-3.333 2-5 1.401-1.021 2.735-2.021 4-3z"/><path fill="#6d8278" d="M410.5 121.5c6.593-.987 10.093 1.679 10.5 8-3.449-1.91-6.949-3.743-10.5-5.5-1.098-.77-1.098-1.603 0-2.5z"/><path fill="#364841" d="M65.5 122.5c.1854 1.696 1.0187 3.029 2.5 4 .3355 4.189.8355 8.356 1.5 12.5-.028 1.07-.3614 1.903-1 2.5-.3922 13.965-1.8922 27.965-4.5 42-1.0485 3.765-2.3819 7.432-4 11-.4169 1.256-1.2502 1.923-2.5 2 1.3616-24.962 4.0283-49.629 8-74z"/><path fill="#71877c" d="M116.5 120.5c9.503.405 18.836 1.072 28 2-5.611 4.19-7.944 9.856-7 17-.819-2.805-1.319-5.805-1.5-9l-10 10c-.186 2.536-.686 4.869-1.5 7-.498-2.987-.998-5.987-1.5-9-.495 1.973-.662 3.973-.5 6-3 3.333-6 6.667-9 10 .807-5.964 1.14-11.964 1-18 10.667-.333 10.667-.667 0-1-1-3.333-2-6.667-3-10 1.549 1.064 2.715 3.064 3.5 6 .24-3.752.74-7.419 1.5-11z"/><path fill="#496961" d="M144.5 122.5c.165 3.682-.001 7.348-.5 11-2.541 8.874-4.375 17.874-5.5 27-1.121 2.454-1.954 5.121-2.5 8-.186-2.536-.686-4.869-1.5-7 .465-6.519 1.798-12.853 4-19-.185-1.084-.518-2.084-1-3-.944-7.144 1.389-12.81 7-17z"/><path fill="#688076" d="M201.5 140.5c.111.617.444 1.117 1 1.5-2.388 12.044-4.221 24.211-5.5 36.5-2.247-6.356-4.247-12.689-6-19-1.388.286-2.888-.048-4.5-1-.563-1.82-1.729-3.153-3.5-4-2.576.957-4.576 2.624-6 5-.115 8.581-.948 17.081-2.5 25.5 2.517 7.412.851 8.246-5 2.5-1.688 1.021-3.021 2.355-4 4-3.603 2.263-6.936 4.93-10 8 6.322-21.92 9.655-44.253 10-67 1.638-1.157 3.304-2.324 5-3.5-3.403.805-6.069-.362-8-3.5a556.3591 556.3591 0 0 0 34.5-5c1.167.333 2.333.667 3.5 1 2.358 4.593 4.191 9.26 5.5 14l-3 3c.275-5.112-1.392-9.445-5-13 .642 2.307 1.642 4.641 3 7 .667 2.333.667 4.667 0 7-2.917-1.528-5.917-2.861-9-4-2.395 2.114-3.562 4.447-3.5 7 1.056-2.146 2.556-3.812 4.5-5 2.895.909 5.728 1.909 8.5 3z"/><path fill="#6f847a" d="M306.5 135.5c-5.076 1.313-10.076 2.98-15 5-3.133-.511-6.3-.844-9.5-1-2.61.033-4.777.7-6.5 2-1.474-.936-2.474-2.27-3-4 1.238-.31 1.238-.81 0-1.5-2.605-1.021-5.272-1.855-8-2.5-.952-1.545-1.285-3.212-1-5 .543-.06.876-.393 1-1-.774-1.211-1.607-1.211-2.5 0-.863-2.249-.363-4.082 1.5-5.5 13.129-2.327 26.129-1.827 39 1.5 3.047 3.427 4.38 7.427 4 12z"/><path fill="#5e7369" d="M408.5 124.5c1.859 1.094 3.859 1.927 6 2.5-3.532 2.88-7.532 4.213-12 4 2.955-1.448 4.955-3.615 6-6.5z"/><path fill="#405b53" d="M44.5 124.5c3.7936 18.476 7.2936 37.143 10.5 56 .4993 4.989.6659 9.989.5 15-.8195-2.805-1.3195-5.805-1.5-9-1.7398-1.216-2.7398-2.882-3-5-.4457-5.794-1.4457-11.46-3-17-.7697 1.098-1.603 1.098-2.5 0-2.1812-10.575-3.8479-21.242-5-32 .7932-2.92 2.1265-5.586 4-8z"/><path fill="#3a4c45" d="M76.5 122.5c5.0673-1.324 10.234-1.324 15.5 0 2.0634 11.918 4.8967 23.585 8.5 35-1.72 2.158-2.5533 4.825-2.5 8-2.3881-11.556-5.3881-22.889-9-34-2.2283-2.468-5.0617-3.635-8.5-3.5 2-.333 4-.667 6-1 1.114-1.57 2.4474-2.903 4-4-4.6548-.499-9.3215-.666-14-.5z"/><path fill="#4b5f57" d="M255.5 129.5c.329 15.176-.004 30.176-1 45-2.333-.333-3.667-1.667-4-4 .784-10.837 1.45-21.837 2-33-.107-3.067-.607-6.067-1.5-9-.903-1.201-2.069-2.035-3.5-2.5 3.878-1.47 7.878-2.303 12-2.5v4c-1.788-.285-3.455.048-5 1 .124.607.457.94 1 1z"/><path fill="#a5b7aa" d="M392.5 127.5c-1.1 1.058-2.434 1.892-4 2.5-4.001.834-8.001 1.667-12 2.5-1.855.16-3.188-.507-4-2-.065-.438.101-.772.5-1 .689.857 1.522 1.523 2.5 2 5.572-1.747 11.239-3.08 17-4z"/><path fill="#65867c" d="M44.5 124.5c-1.8735 2.414-3.2068 5.08-4 8 1.1521 10.758 2.8188 21.425 5 32-2.8843 6.1-6.0509 12.1-9.5 18-2.4142-18.902-5.9142-37.569-10.5-56 6.266-1.228 12.5993-1.895 19-2z"/><path fill="#6e8479" d="M322.5 160.5c-.768-.763-1.268-1.763-1.5-3-1.831 2.814-3.665 5.648-5.5 8.5-1.446 1.298-2.779 1.465-4 .5 6.872-7.346 7.705-15.346 2.5-24-1.965-2.05-4.132-3.717-6.5-5 .479-4.411-.188-8.578-2-12.5 7.361 1.336 13.195 5.169 17.5 11.5 4.169 7.16 5.835 14.827 5 23-1 1.333-2 2.667-3 4-.333-5-.667-10-1-15-1.139-3.612-2.806-6.946-5-10 .984 3.665 2.317 7.332 4 11 .81 3.858.643 7.524-.5 11z"/><path fill="#b7c9bc" d="M263.5 128.5c-.285 1.788.048 3.455 1 5 2.728.645 5.395 1.479 8 2.5 1.238.69 1.238 1.19 0 1.5-2.921-.981-5.921-1.815-9-2.5-2.541-2.393-2.541-4.56 0-6.5z"/><path fill="#5e8278" d="M306.5 135.5c-.172.992.162 1.658 1 2 2.368 1.283 4.535 2.95 6.5 5 5.205 8.654 4.372 16.654-2.5 24-2.667 1-5.333 2-8 3-.992.172-1.658-.162-2-1 1.466-.847 2.3-2.18 2.5-4 1.757-7.506.257-14.172-4.5-20-2.491-1.912-5.158-3.246-8-4 4.924-2.02 9.924-3.687 15-5z"/><path fill="#030303" d="M430.5 137.5c1.069 2.908 1.236 5.908.5 9-4.905 2.806-10.072 5.14-15.5 7-.669 2.131-1.335 4.131-2 6 .031-5.852 1.031-11.519 3-17 4.483-2.244 9.149-3.911 14-5z" opacity=".448"/><path fill="#394b43" d="M272.5 141.5c2.956 2.592 4.289 5.926 4 10-.814 7.646-1.147 15.313-1 23 7.414.387 14.081-1.613 20-6 1.062 1.522 1.729 3.188 2 5-8.992 7.001-18.326 7.668-28 2-.166-9.339 0-18.673.5-28 1.122-1.907 1.955-3.907 2.5-6z"/><path fill="#f7f3df" d="M278.5 146.5c6.303-.047 11.803 1.953 16.5 6 .667 4 .667 8 0 12-.465 1.431-1.299 2.597-2.5 3.5-4.436 2.109-9.103 3.276-14 3.5v-25z"/><path fill="#435f58" d="M356.5 126.5c-4.833 6.667-8.333 14.001-10.5 22-.976 6.821.191 13.154 3.5 19-3.08 4.15-5.747 3.816-8-1 1.234-1.701 1.901-3.701 2-6-.713-5.218-.713-10.218 0-15-1.376.247-2.21 1.581-2.5 4-1.108 3.586-1.608 7.253-1.5 11h-3c-1.497-16.363 5.169-27.696 20-34z"/><path fill="#060505" d="M233.5 151.5c2.059 5.651.726 10.317-4 14-1.234-2.16-2.567-4.327-4-6.5 2.583-2.755 5.249-5.255 8-7.5z" opacity=".421"/><path fill="#354942" d="M124.5 147.5c2.621 4.36 4.121 9.027 4.5 14-2.189-5.702-4.356-11.369-6.5-17-.162-2.027.005-4.027.5-6 .502 3.013 1.002 6.013 1.5 9z"/><path fill="#283630" d="M217.5 128.5c4.24 4.939 7.907 10.439 11 16.5-5.134 6.135-10.634 11.969-16.5 17.5.135-7.308.469-14.641 1-22 1.798-3.922 3.298-7.922 4.5-12z"/><path fill="#44554d" d="M215.5 141.5c1.462.958 2.795 2.124 4 3.5 1.973.495 3.973.662 6 .5-2.979 3.646-6.312 6.979-10 10-1.275-4.716-1.275-9.383 0-14z"/><path fill="#7a8e82" d="M225.5 145.5c-2.027.162-4.027-.005-6-.5-1.205-1.376-2.538-2.542-4-3.5.877-2.801 2.044-5.468 3.5-8 2.446 3.894 4.612 7.894 6.5 12z"/><path fill="#698075" d="M272.5 141.5c-.545 2.093-1.378 4.093-2.5 6-.5 9.327-.666 18.661-.5 28 .236 3.109-.097 6.109-1 9-.628 3.455-2.628 4.622-6 3.5-1.516-1.897-2.183-4.064-2-6.5h-5v3h-1c.236-3.109-.097-6.109-1-9 .667 0 1-.333 1-1 .996-14.824 1.329-29.824 1-45 1.358-1.126 2.692-1.126 4 0 .48 2.449 1.48 4.615 3 6.5l9 3c.752.671 1.086 1.504 1 2.5z"/><path fill="#5f8177" d="M137.5 139.5c.482.916.815 1.916 1 3-2.202 6.147-3.535 12.481-4 19-.017 2.065-.35 4.065-1 6-.897 1.098-1.73 1.098-2.5 0-5.106 9.458-11.439 18.125-19 26 .166-8.662.666-17.329 1.5-26-.115-3.771-.115-8.105 0-13 3-3.333 6-6.667 9-10 2.144 5.631 4.311 11.298 6.5 17-.379-4.973-1.879-9.64-4.5-14 .814-2.131 1.314-4.464 1.5-7l10-10c.181 3.195.681 6.195 1.5 9z"/><path fill="#465a52" d="M203.5 181.5c-.767.672-1.434 1.505-2 2.5-2.31.497-4.643.663-7 .5-2.87-8.608-5.536-17.275-8-26 1.612.952 3.112 1.286 4.5 1 1.753 6.311 3.753 12.644 6 19 1.279-12.289 3.112-24.456 5.5-36.5-.556-.383-.889-.883-1-1.5 1.67-.251 3.17-.918 4.5-2 .167.333.333.667.5 1-1.507 14.087-2.507 28.087-3 42z"/><path fill="#36534c" d="M291.5 140.5c2.842.754 5.509 2.088 8 4 4.757 5.828 6.257 12.494 4.5 20-.2 1.82-1.034 3.153-2.5 4-1.846-6.184-3.68-12.517-5.5-19-5.883-3.685-12.383-5.518-19.5-5.5-.752-.671-1.086-1.504-1-2.5 1.723-1.3 3.89-1.967 6.5-2 3.2.156 6.367.489 9.5 1z"/><path fill="#79776e" d="M287.5 155.5c-1.333 2.333-1.333 4.667 0 7-.06.543-.393.876-1 1-1.333-3-1.333-6 0-9 .607.124.94.457 1 1z" opacity=".625"/><path fill="#141413" d="M287.5 155.5c1.333 2.333 1.333 4.667 0 7-1.333-2.333-1.333-4.667 0-7z" opacity=".504"/><path fill="#6a8075" d="M65.5 122.5h11c4.6785-.166 9.3452.001 14 .5-1.5526 1.097-2.886 2.43-4 4-2 .333-4 .667-6 1 3.4383-.135 6.2717 1.032 8.5 3.5 3.6119 11.111 6.6119 22.444 9 34-.0533-3.175.78-5.842 2.5-8v5c-.6663 3.853-1.333 7.853-2 12 .0118-7.226-2.4882-8.559-7.5-4-1.4877-1.66-3.321-2.66-5.5-3-4.64-2.274-9.4733-4.274-14.5-6-.912-2.159-1.7454-4.325-2.5-6.5.1187-4.288.1187-8.788 0-13.5.6386-.597.972-1.43 1-2.5-.6645-4.144-1.1645-8.311-1.5-12.5-1.4813-.971-2.3146-2.304-2.5-4z"/><path fill="#40524a" d="M399.5 149.5c-.235.597-.735.93-1.5 1-9.402-2.916-18.902-3.416-28.5-1.5-7.302 3.362-7.969 7.862-2 13.5-2.403.107-4.236-.893-5.5-3 .046 1.813-.12 3.479-.5 5-2.56-8.095.106-14.262 8-18.5 10.306-1.232 20.306-.066 30 3.5z"/><path fill="#9db1a4" d="M163.5 139.5c.094 8.465-.739 16.799-2.5 25-.543-3.368-.376-6.701.5-10-.404-5.283.262-10.283 2-15z"/><path fill="#0e0d0c" d="M413.5 159.5c-.442 3.654-.776 7.321-1 11-1.645-.979-2.979-2.312-4-4 1.934-2.224 3.601-4.558 5-7z" opacity=".323"/><path fill="#93a89c" d="M343.5 145.5c-.713 4.782-.713 9.782 0 15-.099 2.299-.766 4.299-2 6 .201-3.228-.133-6.395-1-9.5 1.082-3.83 2.082-7.663 3-11.5z"/><path fill="#647d73" d="M392.5 127.5c-5.761.92-11.428 2.253-17 4-.978-.477-1.811-1.143-2.5-2-.399.228-.565.562-.5 1-1.052-.149-2.052.017-3 .5 8.116 3.391 16.116 7.391 24 12 3.986.499 7.986.666 12 .5-.493 2.306-.826 4.639-1 7h-3c.155-3.353-.512-3.686-2-1-9.694-3.566-19.694-4.732-30-3.5-7.894 4.238-10.56 10.405-8 18.5.38-1.521.546-3.187.5-5 1.264 2.107 3.097 3.107 5.5 3 5.086 2.249 10.419 3.249 16 3-.12 1.699-.454 3.365-1 5 1.617 4.103 2.451 8.436 2.5 13 2.046-4.346 1.88-8.512-.5-12.5.388-1.951 1.388-3.451 3-4.5 6.592 2.541 12.425 6.208 17.5 11 3.034 7.982 3.201 15.982.5 24-1.414 1.124-2.914 2.124-4.5 3 .995-3.348 1.828-6.848 2.5-10.5-.167-1.167-.333-2.333-.5-3.5-.191 2.208-.691 4.208-1.5 6 .149-1.052-.017-2.052-.5-3-1.171 5.357-3.004 10.357-5.5 15-1.866.514-3.7 1.18-5.5 2-.5-.333-1-.667-1.5-1-.768-3.945-1.268-7.945-1.5-12-1.011-.837-2.178-1.17-3.5-1 .284-1.915-.049-3.581-1-5 .073-1.527-.594-2.527-2-3 1.767-1.15 2.933-.483 3.5 2 .667-1 .667-2 0-3-2.5-3.167-5-6.333-7.5-9.5-9.18-3.067-18.18-6.567-27-10.5-3.309-5.846-4.476-12.179-3.5-19 2.167-7.999 5.667-15.333 10.5-22 10.896-5.788 22.229-6.621 34-2.5 1.473.71 2.14 1.876 2 3.5z"/><path fill="#3d524a" d="M343.5 145.5c-.918 3.837-1.918 7.67-3 11.5.867 3.105 1.201 6.272 1 9.5 2.253 4.816 4.92 5.15 8 1 8.82 3.933 17.82 7.433 27 10.5 2.5 3.167 5 6.333 7.5 9.5.667 1 .667 2 0 3-.567-2.483-1.733-3.15-3.5-2-2.201-1.584-4.534-3.084-7-4.5-6.247-1.603-12.413-3.436-18.5-5.5-1.925-2.287-4.425-3.62-7.5-4-1.196.346-1.196.846 0 1.5-2.079.808-4.079.641-6-.5-3.465-4.395-5.132-9.395-5-15h3c-.108-3.747.392-7.414 1.5-11 .29-2.419 1.124-3.753 2.5-4z"/><path fill="#a9bbae" d="M250.5 170.5c.333 2.333 1.667 3.667 4 4 0 .667-.333 1-1 1-1.175.219-2.175-.114-3-1-2.312-4.092-3.479-8.426-3.5-13 1.018 3.088 2.185 6.088 3.5 9z"/><path fill="#5b7268" d="M322.5 160.5c-1.061 7.908-4.561 14.574-10.5 20-.374 2.398-.374 4.731 0 7-1-1.333-2-2.667-3-4-.972 1.805-2.139 3.472-3.5 5 .956 1.575 1.623 3.242 2 5-.304.65-.637 1.317-1 2 2.54 2.539 3.374 5.539 2.5 9-.739 1.074-1.739 1.741-3 2-4.016-2.85-7.516-6.184-10.5-10-4.203-7.846-10.203-9.846-18-6h-1c-1.743-3.058-4.41-5.058-8-6 .903-2.891 1.236-5.891 1-9 9.674 5.668 19.008 5.001 28-2 1.963.021 3.963.521 6 1.5-.638-1.707-.638-3.54 0-5.5 2.667-1 5.333-2 8-3 1.221.965 2.554.798 4-.5 1.835-2.852 3.669-5.686 5.5-8.5.232 1.237.732 2.237 1.5 3z"/><path fill="#364d45" d="M114.5 136.5c.14 6.036-.193 12.036-1 18-.115 4.895-.115 9.229 0 13-.768-.763-1.268-1.763-1.5-3-.752 8.743-1.752 17.41-3 26-1.938 1.36-3.604 1.027-5-1-1.461-3.179-2.295-6.512-2.5-10-3.5897-.044-6.0897-1.711-7.5-5-.2172 3.439-1.7172 6.105-4.5 8-.6719-1.449-1.3386-2.782-2-4-.8602-2.114-2.5268-3.28-5-3.5-.4147-2.026-1.4147-3.526-3-4.5 1.3952-1.879 3.3952-2.879 6-3 2.179.34 4.0123 1.34 5.5 3 5.0118-4.559 7.5118-3.226 7.5 4 .667-4.147 1.3337-8.147 2-12 2.826 8.232 5.326 17.232 7.5 27 1.712-4.063 1.879-8.23.5-12.5.784-15.165 1.617-30.331 2.5-45.5 1.189 1.733 2.356 3.4 3.5 5z"/><path fill="#5b736a" d="M217.5 195.5c-1.892 5.852-3.725 11.852-5.5 18-.718.951-1.551 1.117-2.5.5 1.877-2.126 2.877-4.626 3-7.5-2.104.299-4.104-.034-6-1-1.454-6.406-4.12-12.239-8-17.5 1.756-.202 3.422-.702 5-1.5-2.243-.974-4.576-1.308-7-1-.992.172-1.658-.162-2-1 2.357.163 4.69-.003 7-.5.566-.995 1.233-1.828 2-2.5-.149 1.052.017 2.052.5 3 2.797-7.285 6.964-13.619 12.5-19 .667.333 1.333.667 2 1 1.833 4.333 3.667 8.667 5.5 13 .048 3.378-.452 6.711-1.5 10-3.814.151-5.481 2.151-5 6z"/><path fill="#4a4843" d="M331.5 179.5c2.634 1.158 2.467 2.158-.5 3-.47-1.077-.303-2.077.5-3z" opacity=".584"/><path fill="#384b44" d="M138.5 160.5c.573 6.883-.093 13.549-2 20 .487.946.82 1.946 1 3-1.797 8.177-3.797 16.177-6 24-.428-9.985.572-19.818 3-29.5-.729-1.987-.396-3.987 1-6-1.207-1.3-1.874-2.8-2-4.5.65-1.935.983-3.935 1-6 .814 2.131 1.314 4.464 1.5 7 .546-2.879 1.379-5.546 2.5-8z"/><path fill="#3e574f" d="M21.5 149.5c5.6317 15.474 11.1317 31.141 16.5 47 .9122 4.964 1.4122 9.964 1.5 15 2.3568-.163 4.6902.003 7 .5-1.1379 1.734-1.6379 3.568-1.5 5.5 1.6487-1.975 3.4821-3.642 5.5-5 2.2761-.256 3.4428-1.59 3.5-4 .6739 1.078 1.6739 1.745 3 2 3.7921-.81 7.6255-1.144 11.5-1 .2507 3.409-.0827 6.742-1 10-7.8954.257-15.7287.257-23.5 0-2.6667 2.667-5.3333 2.667-8 0-5.5688-23.049-10.4022-46.382-14.5-70z"/><path fill="#3e5952" d="M165.5 132.5c-.345 22.747-3.678 45.08-10 67h-4c.236 3.329-.597 6.329-2.5 9 2.491-20.799 6.158-41.466 11-62 .183 2.865.683 5.531 1.5 8-.876 3.299-1.043 6.632-.5 10 1.761-8.201 2.594-16.535 2.5-25-1.31-3.451-.977-6.784 1-10 .886.825 1.219 1.825 1 3z"/><path fill="#51756d" d="M268.5 184.5c3.59.942 6.257 2.942 8 6-3.297.132-4.963 1.798-5 5-3.81 4.913-5.976 10.58-6.5 17-.333-.667-.667-1.333-1-2v6c-3.394.956-6.894 1.289-10.5 1-.148-4.701.185-9.368 1-14 .14-1.53.807-2.53 2-3 3.68 1.515 6.18 4.181 7.5 8 1.719-5.122-.114-8.122-5.5-9-.919-5.027-1.919-10.027-3-15v-3h5c-.183 2.436.484 4.603 2 6.5 3.372 1.122 5.372-.045 6-3.5z"/><path fill="#3d524a" d="M295.5 196.5c1.902 4.202 3.902 8.369 6 12.5 3.548 1.089 7.215 1.589 11 1.5 3.186-.002 6.186-.335 9-1 2.142 2.265 3.809 4.932 5 8-7.409.286-14.743 1.12-22 2.5-3.227-3.402-5.894-7.235-8-11.5-2.167-5-4.333-10-6.5-15-3.715-2.576-7.882-3.576-12.5-3 7.797-3.846 13.797-1.846 18 6z"/><path fill="#1a1a18" d="M325.5 187.5c1.264 2.272 1.098 4.605-.5 7-1.97-2.463-1.804-4.797.5-7z" opacity=".502"/><path fill="#556e66" d="M113.5 167.5c-.834 8.671-1.334 17.338-1.5 26 7.561-7.875 13.894-16.542 19-26 .77 1.098 1.603 1.098 2.5 0 .126 1.7.793 3.2 2 4.5-1.396 2.013-1.729 4.013-1 6-2.428 9.682-3.428 19.515-3 29.5.241 2.398-.426 4.398-2 6-8.94-1.972-18.273-2.639-28-2-1.9484-11.02-4.1151-22.02-6.5-33-.7599 4.319-1.4265 8.652-2 13-1.1455 1.184-2.3121 1.184-3.5 0-.8266-4.307-1.4933-8.64-2-13 .6614 1.218 1.3281 2.551 2 4 2.7828-1.895 4.2828-4.561 4.5-8 1.4103 3.289 3.9103 4.956 7.5 5 .205 3.488 1.039 6.821 2.5 10 1.396 2.027 3.062 2.36 5 1 1.248-8.59 2.248-17.257 3-26 .232 1.237.732 2.237 1.5 3z"/><path fill="#2e403a" d="M186.5 158.5c2.464 8.725 5.13 17.392 8 26 .342.838 1.008 1.172 2 1 .645 3.047-.355 5.213-3 6.5-6.696 1.421-13.363 1.921-20 1.5-.979-1.645-2.312-2.979-4-4-1.122 1.13-2.456 1.797-4 2 .979-1.645 2.312-2.979 4-4 5.851 5.746 7.517 4.912 5-2.5 1.552-8.419 2.385-16.919 2.5-25.5 1.424-2.376 3.424-4.043 6-5 1.771.847 2.937 2.18 3.5 4z"/><path fill="#eae7d4" d="M184.5 166.5c.997-.03 1.664.47 2 1.5 1.576 5.559 3.243 11.059 5 16.5-2.982.463-5.982.796-9 1 1.077-6.282 1.743-12.616 2-19z"/><path fill="#597167" d="M25.5 126.5c4.5858 18.431 8.0858 37.098 10.5 56 3.4491-5.9 6.6157-11.9 9.5-18 .897 1.098 1.7303 1.098 2.5 0 1.5543 5.54 2.5543 11.206 3 17 .2602 2.118 1.2602 3.784 3 5 .1805 3.195.6805 6.195 1.5 9-.2135 1.644.1198 3.144 1 4.5-2.3976 1.356-4.8976 2.523-7.5 3.5-.7808 3.334-1.1141 6.667-1 10 .6708-.752 1.5041-1.086 2.5-1-2.0179 1.358-3.8513 3.025-5.5 5-.1379-1.932.3621-3.766 1.5-5.5-2.3098-.497-4.6432-.663-7-.5-.0878-5.036-.5878-10.036-1.5-15-5.3683-15.859-10.8683-31.526-16.5-47-.6116-3.277-1.6116-6.444-3-9.5.8862-2.112.8862-4.278 0-6.5 1.175.219 2.175-.114 3-1-3.2021-.735-6.2021-1.902-9-3.5 4.1635-1.666 8.4968-2.499 13-2.5z"/><path fill="#506a61" d="M68.5 141.5c.1187 4.712.1187 9.212 0 13.5.7546 2.175 1.588 4.341 2.5 6.5 5.0267 1.726 9.86 3.726 14.5 6-2.6048.121-4.6048 1.121-6 3-1.8273 1.632-3.6606 3.299-5.5 5-.2745 11.719-2.1078 23.053-5.5 34-3.8745-.144-7.7079.19-11.5 1-1.3261-.255-2.3261-.922-3-2-.0572 2.41-1.2239 3.744-3.5 4 .1107-.617.444-1.117 1-1.5-3.2521-4.309-2.2521-7.142 3-8.5.586.209 1.086.543 1.5 1 1.2022-2.177 1.7022-4.511 1.5-7 1.2498-.077 2.0831-.744 2.5-2 1.6181-3.568 2.9515-7.235 4-11 2.6078-14.035 4.1078-28.035 4.5-42z"/><path fill="#37544d" d="M254.5 190.5c.823 3.184 1.49 6.517 2 10-1.193.47-1.86 1.47-2 3-.815 4.632-1.148 9.299-1 14 3.606.289 7.106-.044 10.5-1v-6c.333.667.667 1.333 1 2 .524-6.42 2.69-12.087 6.5-17 .132 8.691-.201 17.358-1 26-6.333-1.333-12.667-1.333-19 0-.167-13.671 0-27.337.5-41 .167 4.208 1 7.541 2.5 10z"/><path fill="#aabfb2" d="M254.5 184.5h1c1.081 4.973 2.081 9.973 3 15 5.386.878 7.219 3.878 5.5 9-1.32-3.819-3.82-6.485-7.5-8-.51-3.483-1.177-6.816-2-10v-6z"/><path fill="#50665e" d="M341.5 193.5c4.309 1.995 8.642 3.995 13 6 .88 1.929 1.88 3.763 3 5.5-1.786 1.683-2.119 3.516-1 5.5.734 1.208 1.067 2.541 1 4-6.545-.522-12.379-2.855-17.5-7-.351-4.698-.851-9.364-1.5-14h3z"/><path fill="#37514a" d="M162.5 125.5c1.931 3.138 4.597 4.305 8 3.5-1.696 1.176-3.362 2.343-5 3.5.219-1.175-.114-2.175-1-3-1.977 3.216-2.31 6.549-1 10-1.738 4.717-2.404 9.717-2 15-.817-2.469-1.317-5.135-1.5-8-4.842 20.534-8.509 41.201-11 62 1.903-2.671 2.736-5.671 2.5-9h4c3.064-3.07 6.397-5.737 10-8-2.646 3.312-5.646 6.312-9 9-1.803 4.877-3.136 9.877-4 15 4.856.031 9.689-.302 14.5-1 2.05.191 3.883.858 5.5 2 1.306-2.216 1.806-4.549 1.5-7-.667 1.333-1.333 2.667-2 4-.167-.667-.333-1.333-.5-2 1.458-5.913 2.125-11.913 2-18 6.637.421 13.304-.079 20-1.5 2.645-1.287 3.645-3.453 3-6.5 2.424-.308 4.757.026 7 1-1.578.798-3.244 1.298-5 1.5 3.88 5.261 6.546 11.094 8 17.5 1.896.966 3.896 1.299 6 1-.123 2.874-1.123 5.374-3 7.5.949.617 1.782.451 2.5-.5 1.775-6.148 3.608-12.148 5.5-18h1c-.823 2.961-1.49 5.961-2 9 3.86-.308 7.526-.975 11-2 .597-.235.93-.735 1-1.5-1.258-4.202-2.591-8.368-4-12.5.056-1.237.556-2.237 1.5-3 4.569 9.446 8.236 19.113 11 29-4.589-2.497-9.256-2.497-14 0-.95-.522-1.784-1.189-2.5-2-3.126 1.431-6.293 2.764-9.5 4-3.342-2.008-5.176-5.008-5.5-9h-3c.203-1.89-.463-3.39-2-4.5-3.722-.238-7.389-.738-11-1.5-.917.627-1.917.961-3 1-2.905-1.201-5.905-1.034-9 .5.556.383.889.883 1 1.5v17c-9.793.443-19.459-.224-29-2 .242-11.779-.758-11.779-3 0-.825.886-1.825 1.219-3 1 5.721-31.936 12.054-63.603 19-95z"/><path fill="#586f65" d="M227.5 202.5c-3.474 1.025-7.14 1.692-11 2 .51-3.039 1.177-6.039 2-9 .055-3.353 1.722-4.853 5-4.5 1.631 3.728 2.965 7.561 4 11.5z"/><path fill="#060605" d="M2.5 135.5c7.5775 31.409 14.7442 63.076 21.5 95 1.1411 2.109 2.6411 3.942 4.5 5.5 15.7213.128 31.388-.872 47-3 4.2703-1.27 6.7703-4.104 7.5-8.5.7449 7.412 4.7449 11.412 12 12 13.214-1.106 26.381-2.439 39.5-4 1.146.645 2.146 1.478 3 2.5 14 .667 28 .667 42 0 3.076-1.243 5.743-3.077 8-5.5-.844 3.599-1.177 7.266-1 11-5.676-.166-11.343.001-17 .5-3.148.738-5.815 2.238-8 4.5h-17c-3.07.132-6.07-.201-9-1-1.068-.934-2.401-1.268-4-1-15.616-1.662-31.282-2.662-47-3-.304-3.022-.804-6.022-1.5-9-.3955 3.157-1.2289 6.157-2.5 9-9.8939 1.443-19.8939 2.277-30 2.5-.9162.374-1.7496.874-2.5 1.5-1.9347-1.602-4.1013-2.769-6.5-3.5-5.6569-.499-11.3236-.666-17-.5-8.3612-34.807-15.69451-69.807-22-105zm82 105h-4c1.2711-2.843 2.1045-5.843 2.5-9 .696 2.978 1.196 5.978 1.5 9z" opacity=".481"/><path fill="#4c625a" d="M321.5 209.5c-2.814.665-5.814.998-9 1-3.785.089-7.452-.411-11-1.5-2.098-4.131-4.098-8.298-6-12.5 2.984 3.816 6.484 7.15 10.5 10 1.261-.259 2.261-.926 3-2 .874-3.461.04-6.461-2.5-9 .363-.683.696-1.35 1-2 .617-1.821.784-3.821.5-6 .667-1.333 1.333-1.333 2 0 4.114 7.229 7.947 14.563 11.5 22z"/><path fill="#51756d" d="M173.5 193.5c.125 6.087-.542 12.087-2 18 .167.667.333 1.333.5 2 .667-1.333 1.333-2.667 2-4 .306 2.451-.194 4.784-1.5 7-1.617-1.142-3.45-1.809-5.5-2-4.811.698-9.644 1.031-14.5 1 .864-5.123 2.197-10.123 4-15 3.354-2.688 6.354-5.688 9-9 1.544-.203 2.878-.87 4-2 1.688 1.021 3.021 2.355 4 4z"/><path fill="#a2b5a8" d="M186.5 202.5c-2.951-.213-5.618.454-8 2-.111-.617-.444-1.117-1-1.5 3.095-1.534 6.095-1.701 9-.5z"/><path fill="#050505" d="M416.5 203.5c-.697 14.388-6.03 26.722-16 37h-16c-2.667-.667-5.333-1.333-8-2 8.364-.399 16.031-2.899 23-7.5 7.849-7.873 13.515-17.039 17-27.5z" opacity=".453"/><path fill="#3b524a" d="M129.5 213.5c-.552 1.831-.552 3.497 0 5-10.592 2.144-21.258 2.477-32 1-2.2782-5.445-3.7782-11.112-4.5-17-2.6027-2.449-3.1027-5.282-1.5-8.5-1.256-.417-1.9226-1.25-2-2.5 1.1879 1.184 2.3545 1.184 3.5 0 .5735-4.348 1.2401-8.681 2-13 2.3849 10.98 4.5516 21.98 6.5 33 9.727-.639 19.06.028 28 2z"/><path fill="#566c63" d="M382.5 191.5c.951 1.419 1.284 3.085 1 5 1.322-.17 2.489.163 3.5 1 .232 4.055.732 8.055 1.5 12 .5.333 1 .667 1.5 1 1.8-.82 3.634-1.486 5.5-2-.826 2.985-2.159 5.651-4 8-5.706 2.717-11.706 3.551-18 2.5-3.36-3.097-7.36-4.264-12-3.5-.763-1.868-1.763-3.535-3-5h-1c.559-2.179 1.226-4.346 2-6.5-.403-1.473-1.07-2.806-2-4 7.596.634 15.263.967 23 1 1.84-2.826 2.506-5.993 2-9.5z"/><path fill="#354941" d="M341.5 193.5h-3c.649 4.636 1.149 9.302 1.5 14 5.121 4.145 10.955 6.478 17.5 7 .067-1.459-.266-2.792-1-4h2c1.329 4.322 2.663 8.655 4 13-2.312 1.867-4.979 2.367-8 1.5-5.546-2.017-10.88-4.517-16-7.5-.828-4.296-1.328-8.629-1.5-13-1.337 3.526-1.837 7.192-1.5 11-1.322-.17-2.489.163-3.5 1 .582-8.065 1.915-16.065 4-24 1.996-.841 3.829-.508 5.5 1z"/><path fill="#a5b8ab" d="M401.5 196.5c-1.319 8.965-4.985 16.632-11 23 .057-1.109.39-2.109 1-3 1.841-2.349 3.174-5.015 4-8 2.496-4.643 4.329-9.643 5.5-15 .483.948.649 1.948.5 3z"/><path fill="#394e46" d="M361.5 215.5c4.64-.764 8.64.403 12 3.5 6.294 1.051 12.294.217 18-2.5-.61.891-.943 1.891-1 3-2.745 2.538-6.078 4.038-10 4.5-4.989.499-9.989.666-15 .5.262 1.478-.071 2.811-1 4-.607-.124-.94-.457-1-1 .647-.774.98-1.774 1-3-.721-3.105-1.721-6.105-3-9z"/><path fill="#050505" d="M282.5 232.5v9c-3.373.856-6.373 2.523-9 5h-2c-1.127-.622-2.127-1.455-3-2.5-10.661-.5-21.328-.667-32-.5-1.148-2.242-2.148-4.576-3-7-3.817.889-7.484 1.889-11 3-5.351-.52-10.351.48-15 3-.667 0-1 .333-1 1h-1c-4.044-.531-7.21-2.531-9.5-6-.873-3.118-2.039-6.118-3.5-9-1.545-.952-3.212-1.285-5-1-.165-3.35.002-6.683.5-10 1.356-.88 2.856-1.214 4.5-1 .615 4.347 2.115 8.347 4.5 12 2.261 2.13 4.928 3.464 8 4 8.716-2.516 17.549-4.516 26.5-6 2.084 2.339 4.084 4.839 6 7.5 1.333.667 2.667 1.333 4 2 11.333.667 22.667.667 34 0 2.639-.653 4.973-1.82 7-3.5z" opacity=".48"/><path fill="#0a0a09" d="M354.5 238.5c6 .667 12 1.333 18 2-4.622 1.637-6.956 4.971-7 10h-1c.089-3.933-1.578-6.766-5-8.5-5.323-.499-10.656-.666-16-.5.117-1.984-.55-3.65-2-5-5.261-2.418-10.594-2.584-16-.5-1.803.637-3.136 1.803-4 3.5-6.945.756-13.778 2.089-20.5 4-3.441-.882-6.941-1.216-10.5-1-1.629-5.235-3.629-10.235-6-15-1.027-3.946-1.194-7.946-.5-12 2.333 5.667 4.667 11.333 7 17 1.214 1.549 2.714 2.715 4.5 3.5 11.58-1.382 23.08-3.549 34.5-6.5 7.596 4.477 15.763 7.477 24.5 9z" opacity=".48"/><path fill="#9eb1a4" d="M358.5 210.5c1.237 1.465 2.237 3.132 3 5 1.279 2.895 2.279 5.895 3 9-.02 1.226-.353 2.226-1 3-.333-1.333-.667-2.667-1-4-1.337-4.345-2.671-8.678-4-13z"/><path fill="#f6f1de" d="M364.5 250.5c.333 12 .667 12 1 0 .044-5.029 2.378-8.363 7-10h28c4.701-.207 8.535 1.46 11.5 5 .697 6.037.53 12.037-.5 18-2.606 2.434-4.606 5.268-6 8.5-.18 2.802.82 4.969 3 6.5-.057 6.351-.39 12.685-1 19-1.431 1.937-3.098 3.77-5 5.5-10.667.667-21.333.667-32 0-2.258-1.103-4.591-1.936-7-2.5-6.67 1.001-13.337 2.001-20 3-2.772.148-5.272-.519-7.5-2-3.647 1.771-7.48 2.938-11.5 3.5-3.664 5.001-8.331 6.334-14 4-2.89-2.676-6.056-4.843-9.5-6.5-1.952 2.394-4.452 3.894-7.5 4.5-5.333.667-10.667.667-16 0-3.144-1.611-5.977-3.445-8.5-5.5-2.032.358-3.866 1.192-5.5 2.5-7.537.784-15.037.617-22.5-.5-11.925 7.137-23.425 6.47-34.5-2-1.146.645-2.146 1.478-3 2.5-4.989.61-9.989 1.11-15 1.5-9.585-.289-19.252-1.456-29-3.5-1.484-.662-2.817-1.496-4-2.5-1.497-1.79-2.164-3.956-2-6.5 2.507-15.877 5.174-31.71 8-47.5 2.185-2.262 4.852-3.762 8-4.5 5.657-.499 11.324-.666 17-.5 6.346 1.06 12.179 3.393 17.5 7 .791-1.245 1.291-2.578 1.5-4h1c.667 0 1-.333 1-1 4.649-2.52 9.649-3.52 15-3 1.257 1.922 2.423 3.922 3.5 6 3.4-1.04 6.9-1.706 10.5-2 10.672-.167 21.339 0 32 .5.873 1.045 1.873 1.878 3 2.5.667 1.333 1.333 1.333 2 0 2.627-2.477 5.627-4.144 9-5 2.554.888 5.221 1.221 8 1 3.559-.216 7.059.118 10.5 1 6.722-1.911 13.555-3.244 20.5-4 .864-1.697 2.197-2.863 4-3.5 5.406-2.084 10.739-1.918 16 .5 1.45 1.35 2.117 3.016 2 5 5.344-.166 10.677.001 16 .5 3.422 1.734 5.089 4.567 5 8.5z" opacity=".99"/><path fill="#bdb9ab" d="M354.5 238.5h22c2.667.667 5.333 1.333 8 2h-12c-6-.667-12-1.333-18-2z" opacity=".878"/><path fill="#f6f1dd" d="M24.5 240.5c5.6764-.166 11.3431.001 17 .5 2.3987.731 4.5653 1.898 6.5 3.5.7504-.626 1.5838-1.126 2.5-1.5 10.1061-.223 20.1061-1.057 30-2.5h4c15.718.338 31.384 1.338 47 3 1.068.934 2.401 1.268 4 1 2.93.799 5.93 1.132 9 1 4.352 1.538 6.685 4.704 7 9.5-.714 3.506-1.381 7.006-2 10.5-.427 4.666-2.76 8.166-7 10.5 2.625 2.196 3.625 5.03 3 8.5-.667 1.667-1.333 3.333-2 5-1.038 3.277-2.371 6.443-4 9.5-2.621.939-5.288 1.772-8 2.5-.864 1.697-2.197 2.863-4 3.5-6.374.608-12.707.275-19-1-1.484-.662-2.817-1.496-4-2.5-1.439-2.088-2.106-4.421-2-7 .665-3.637 1.332-7.303 2-11-2.728-.441-5.3942.225-8 2 .9066 2.921 1.2399 5.921 1 9 .202 2.45-.1314 4.783-1 7-10.132 4.224-20.4653 4.891-31 2-8.2993 1.64-16.4659 1.307-24.5-1-7.0689 2.145-14.2356 2.311-21.5.5-1.8231-.997-3.4897-2.164-5-3.5-1.0616-2.189-1.7283-4.522-2-7 1.3109-15.687 2.8109-31.354 4.5-47 1.7128-2.778 4.2128-4.445 7.5-5z" opacity=".991"/><path fill="#505042" d="M216.5 252.5c-.79 1.109-1.29 2.442-1.5 4-.383-.556-.883-.889-1.5-1-.165-2.327-.831-4.493-2-6.5 5.29-4.069 6.956-2.903 5 3.5z"/><path fill="#9b8d7c" d="M336.5 242.5c-2.357-.163-4.69.003-7 .5 1.634.494 3.301.66 5 .5-.029 3.156-1.696 4.822-5 5-.67-1.791-1.337-3.458-2-5 .111-.617.444-1.117 1-1.5 2.867-.801 5.534-.634 8 .5z"/><path fill="#655f4f" d="M67.5 264.5c.1621-2.027-.0045-4.027-.5-6-2.2312 11.523-3.3979 23.19-3.5 35-5.7055.329-11.3722-.005-17-1-2.5192-7.757-5.1859-15.424-8-23 1.5174.011 2.6841.677 3.5 2 .9406 2.654 1.7739 5.321 2.5 8 .8279 9.857 6.1612 13.524 16 11-.0987-2.737.2347-5.404 1-8 1.3598-9.302 2.5265-18.635 3.5-28 .3333 1 .6667 2 1 3 .4935-1.634.6602-3.301.5-5-4.4977-.693-8.4977-.693-12 0 .5766 1.606.9099 3.272 1 5-1.7613 6.477-2.9279 13.143-3.5 20-.7914-1.245-1.2914-2.578-1.5-4-2.3739-5.558-5.0405-10.891-8-16v-2c-1.1298-1.815-1.7964-3.815-2-6h-15c.0258 5.295-.6409 10.461-2 15.5.5779 1.417 1.5779 2.25 3 2.5-.0875 3.098.4125 3.432 1.5 1 1.1095 1.743 2.6095 3.076 4.5 4-1.5202 1.35-2.1869 2.683-2 4-1.3139-.813-2.4805-1.813-3.5-3-.4935 1.634-.6602 3.301-.5 5-1.5588 4.098-2.0588 8.431-1.5 13 2.0408-.923 4.2075-1.256 6.5-1v-3c.8485-2.388 1.8485-4.721 3-7 .7295 4.63 1.0628 9.297 1 14-4.794-.597-9.1273.07-13 2-1.3182-2.758-1.9848-5.924-2-9.5.6695-12.87 1.6695-25.703 3-38.5 6.3682-.33 12.7015.004 19 1 2.5 5.667 5 11.333 7.5 17 .5516-5.589 1.3849-11.089 2.5-16.5 5.3679-.478 10.7012-.145 16 1 .5585.725.8918 1.558 1 2.5-.5272 3.831-1.1939 7.498-2 11z"/><path fill="#eec5a8" d="M42.5 255.5v2c1.3519 6.097 4.0186 11.431 8 16 .2086 1.422.7086 2.755 1.5 4 .5721-6.857 1.7387-13.523 3.5-20-.0901-1.728-.4234-3.394-1-5 3.5023-.693 7.5023-.693 12 0 .1602 1.699-.0065 3.366-.5 5-.3333-1-.6667-2-1-3-.9735 9.365-2.1402 18.698-3.5 28-2.4909 1.668-4.6575 1.334-6.5-1l-1.5 1.5c1.0171 1.049 1.1838 2.216.5 3.5-1.5621-2.457-2.5621-5.124-3-8-1.6169 1.036-1.7836 2.203-.5 3.5-.5.167-1 .333-1.5.5-1.5072-1.055-3.0072-2.055-4.5-3-.7261-2.679-1.5594-5.346-2.5-8-.8159-1.323-1.9826-1.989-3.5-2 .131-.739-.0357-1.406-.5-2-3.3037 3.886-4.4704 8.219-3.5 13-1.1515 2.279-2.1515 4.612-3 7-1.5098 1.228-3.0098 1.228-4.5 0-.498-2.982-.6646-5.982-.5-9-.1602-1.699.0065-3.366.5-5 1.0195 1.187 2.1861 2.187 3.5 3-.1869-1.317.4798-2.65 2-4-1.8905-.924-3.3905-2.257-4.5-4-1.0875 2.432-1.5875 2.098-1.5-1 .8675-5.571.8675-11.071 0-16.5 4.3333-.667 8.6667-.667 13 0-1 .333-2 .667-3 1 1.9048 1.421 3.9048 2.588 6 3.5z"/><path fill="#f2c7ab" d="M250.5 252.5c4.333 1.333 8.667 1.333 13 0 .535 5.758 1.702 11.425 3.5 17 .697 2.084 1.864 3.751 3.5 5-.751 1.073-1.751 1.24-3 .5-1.566-2.326-3.232-4.492-5-6.5-.433-2.785-1.766-5.119-4-7 .991-1.623.324-2.623-2-3-.333.5-.667 1-1 1.5 1.796 2.633 3.796 5.133 6 7.5-1.433 2.833-2.1 5.833-2 9v1c-.979 3.125-1.313 6.458-1 10-1.188 1.184-2.355 1.184-3.5 0-.147-2.61-.981-4.944-2.5-7 1.266-2.472 1.266-4.806 0-7 .571-7.281-.095-14.281-2-21z"/><path fill="#595647" d="M299.5 251.5c-.719 2.264-1.052 4.597-1 7-1.196 13.324-2.363 26.657-3.5 40l-1.5 1.5c-2.5.167-5 .333-7.5.5-2.929-.025-5.429-.691-7.5-2 4.952-.619 9.952-1.286 15-2-4.053-.102-8.387-.102-13 0-.253-6.373.081-12.706 1-19-.429-2.529-1.096-4.862-2-7 .283-.789.783-1.456 1.5-2 .2 1.82 1.034 3.153 2.5 4v21c3.36.116 6.693.449 10 1 .4-6.329.733-12.662 1-19h-4c2.54-.861 4.54-2.528 6-5-.4-6.268-.4-12.601 0-19-5.195-.321-10.195.013-15 1-4.07 6.03-6.237 12.697-6.5 20-.414-.457-.914-.791-1.5-1-1.235.84-2.235 1.84-3 3-1.735-7.633-4.068-14.966-7-22-4.333 1.333-8.667 1.333-13 0h-1c-.667-.333-1.333-.667-2-1 5.819-1.153 11.819-1.319 18-.5 2.108 5.494 4.108 10.994 6 16.5 2.901-5.86 5.901-11.693 9-17.5 6-.667 12-.667 18 0 .556.383.889.883 1 1.5z"/><path fill="#aba998" d="M299.5 251.5h1v9l-2-2c-.052-2.403.281-4.736 1-7z"/><path fill="#827665" d="M42.5 255.5c-2.0952-.912-4.0952-2.079-6-3.5 1-.333 2-.667 3-1-4.3333-.667-8.6667-.667-13 0 .8675 5.429.8675 10.929 0 16.5-1.4221-.25-2.4221-1.083-3-2.5 1.3591-5.039 2.0258-10.205 2-15.5h15c.2036 2.185.8702 4.185 2 6z"/><path fill="#121211" d="M411.5 263.5c-.171 5.221-1.171 10.221-3 15-2.18-1.531-3.18-3.698-3-6.5 1.394-3.232 3.394-6.066 6-8.5z" opacity=".406"/><path fill="#efc4a7" d="M281.5 252.5c4.805-.987 9.805-1.321 15-1-.4 6.399-.4 12.732 0 19-1.46 2.472-3.46 4.139-6 5-.067 4.193-.234 8.526-.5 13-1.512 2.457-2.846 2.457-4 0 .122-5.76-.711-11.093-2.5-16-1.466-.847-2.3-2.18-2.5-4-.717.544-1.217 1.211-1.5 2-.057 1.109-.39 2.109-1 3-1.193-.47-1.86-1.47-2-3 .167-1 .333-2 .5-3 2.684-4.363 4.518-9.03 5.5-14 3.672-.545 3.338-.878-1-1z"/><path fill="#94806d" d="M42.5 257.5c2.9595 5.109 5.6261 10.442 8 16-3.9814-4.569-6.6481-9.903-8-16z"/><path fill="#a38a75" d="M263.5 252.5c2.932 7.034 5.265 14.367 7 22-1.636-1.249-2.803-2.916-3.5-5-1.798-5.575-2.965-11.242-3.5-17z"/><path fill="#161615" d="M149.5 265.5c.438-.065.772.101 1 .5-1.279 4.715-2.112 9.548-2.5 14.5-.608 1.566-1.442 2.9-2.5 4 .625-3.47-.375-6.304-3-8.5 4.24-2.334 6.573-5.834 7-10.5z" opacity=".363"/><path fill="#525042" d="M336.5 242.5c-.592 2.627-.925 5.294-1 8-3.923.641-7.757.641-11.5 0-1.663 1.658-2.496 3.658-2.5 6 4.94.865 8.607-.801 11-5 2.358 1.524 4.191 3.524 5.5 6 .218-2.926.718-5.76 1.5-8.5 5.991-.499 11.991-.666 18-.5v28h13c.898-10.002 1.898-20.002 3-30 6.304.76 12.637 1.093 19 1 .237 1.291-.096 2.291-1 3-4.183-1.311-8.516-1.311-13 0-.693 1.018-1.359 2.018-2 3-1.38 12.29-1.88 24.624-1.5 37 .414-.457.914-.791 1.5-1 .333.667.667 1.333 1 2 1.024-1.353 2.357-2.02 4-2 4.714-.147 9.381.186 14 1-.149 1.052.017 2.052.5 3 .943-3.324 1.776-6.657 2.5-10-4.505-1.83-9.171-2.164-14-1v-4c.333-2 .667-4 1-6h11v-6h-11c-.28-2.772.387-5.272 2-7.5 3.34-.453 6.674-.953 10-1.5 1.53-.14 2.53-.807 3-2-.237-1.291.096-2.291 1-3-.162 2.027.005 4.027.5 6 .953-2.932 1.453-5.932 1.5-9-3.35.165-6.683-.002-10-.5 2.31-.497 4.643-.663 7-.5h5c.195 4.415-.305 8.749-1.5 13-4.452.641-8.952 1.308-13.5 2 2.866.708 5.7 1.375 8.5 2 .051 3.657-.282 7.323-1 11-3.129.63-6.296 1.296-9.5 2 4.116 1.781 8.449 2.447 13 2-.598 5.313-.931 10.646-1 16-10.006.166-20.006 0-30-.5-.837-1.011-1.17-2.178-1-3.5-8.322 1.331-16.655 2.664-25 4-1.272-.07-2.438-.403-3.5-1-.333-2.333-.667-4.667-1-7-3.59 4.884-8.423 7.884-14.5 9-4.561.92-7.395-.746-8.5-5-.433 2.919.067 5.586 1.5 8-1.511 1.941-3.511 2.441-6 1.5-1.227-1.587-.894-2.921 1-4-3.814-.234-7.481-1.068-11-2.5-1.165-11.639-1.832-23.306-2-35v-9c7.841-3.373 16.174-4.873 25-4.5.585-1.302 1.251-2.469 2-3.5.663 1.542 1.33 3.209 2 5 3.304-.178 4.971-1.844 5-5-1.699.16-3.366-.006-5-.5 2.31-.497 4.643-.663 7-.5z"/><path fill="#ebc2a7" d="M334.5 256.5c-.433 2.666-.933 5.332-1.5 8-.914-3.685-1.581-3.352-2 1-2.929 1.846-4.095 4.179-3.5 7-.111 2.148.556 2.481 2 1 3.887.587 6.554 2.587 8 6-.463 2.755-2.13 4.422-5 5-1.175.219-2.175-.114-3-1-.453-4.107-1.953-7.774-4.5-11-4.126 1.396-4.459.73-1-2 .27-2.724.77-5.391 1.5-8-1.266-.862-2.599-1.529-4-2h-1c-.763-.768-1.763-1.268-3-1.5.916-.278 1.582-.778 2-1.5 3.721.309 7.221 1.309 10.5 3 .113-2.474 1.113-4.474 3-6 .717.544 1.217 1.211 1.5 2z"/><path fill="#9d8672" d="M353.5 255.5c.955 1.783 1.622 3.783 2 6-.29 5.591-.29 11.258 0 17h3c.111.617.444 1.117 1 1.5-1.941.743-3.774.576-5.5-.5-.5-7.993-.666-15.993-.5-24z"/><path fill="#f0ebd7" d="M337.5 264.5c1.294 1.548 1.961 3.548 2 6-.167 2-.333 4-.5 6-1.925-1.38-3.759-2.88-5.5-4.5 2.897-1.715 4.231-4.215 4-7.5z"/><path fill="#917b68" d="M334.5 256.5c3.401 7.658 1.068 12.991-7 16-.595-2.821.571-5.154 3.5-7 .419-4.352 1.086-4.685 2-1 .567-2.668 1.067-5.334 1.5-8z"/><path fill="#565243" d="M320.5 260.5h1c3.748 6.264 2.081 10.264-5 12-.996.086-1.829-.248-2.5-1-.937-3.667-.437-7.001 1.5-10 1.915.284 3.581-.049 5-1z"/><path fill="#e8e3d0" d="M317.5 263.5c4.616 1.482 4.949 3.482 1 6-.966-1.896-1.299-3.896-1-6z"/><path fill="#a09582" d="M320.5 250.5c-.493 2.306-.826 4.639-1 7-.418.722-1.084 1.222-2 1.5 1.237.232 2.237.732 3 1.5-1.419.951-3.085 1.284-5 1-.256-2.412.744-4.079 3-5-2.436-2.745-1.769-4.745 2-6z"/><path fill="#f0c6aa" d="M342.5 250.5c4.055-.324 8.055.009 12 1-.746 1.236-1.079 2.57-1 4-.166 8.007 0 16.007.5 24 1.726 1.076 3.559 1.243 5.5.5-.556-.383-.889-.883-1-1.5h10v5c-1.642 1.581-3.642 2.247-6 2-.333-5.333-.667-5.333-1 0-2.357.163-4.69-.003-7-.5-1.587-3.682-2.753-7.515-3.5-11.5-.333.667-.667 1.333-1 2-.66-1.824-1.827-3.157-3.5-4-.182-5.757-1.015-11.424-2.5-17-.333 2-.667 4-1 6-.218-2.926-.718-5.76-1.5-8.5.556-.383.889-.883 1-1.5z"/><path fill="#f5c9ac" d="M320.5 250.5c-3.769 1.255-4.436 3.255-2 6-2.256.921-3.256 2.588-3 5-1.937 2.999-2.437 6.333-1.5 10 .671.752 1.504 1.086 2.5 1-1.109.79-2.442 1.29-4 1.5-.599 1.622-1.266 3.122-2 4.5-2.031-2.406-3.698-5.073-5-8 1.194-6.312 1.194-12.645 0-19 3.563-1.14 7.23-1.806 11-2 2.193-.112 3.527.221 4 1z"/><path fill="#f9d2b5" d="M391.5 250.5v5c-1.373-.157-2.707.01-4 .5-1.537 1.707-3.204 3.207-5 4.5-2.693-1.782-4.693-4.115-6-7 .641-.982 1.307-1.982 2-3 4.484-1.311 8.817-1.311 13 0z"/><path fill="#4b4b3e" d="M67.5 264.5c-.6667 10.667-1.3333 21.333-2 32-6.675.166-13.3417 0-20-.5-2.3621-6.086-4.5288-12.252-6.5-18.5-.8973 6.306-1.3973 12.639-1.5 19h-15c3.8727-1.93 8.206-2.597 13-2 .0628-4.703-.2705-9.37-1-14-.9704-4.781.1963-9.114 3.5-13 .4643.594.631 1.261.5 2 2.8141 7.576 5.4808 15.243 8 23 5.6278.995 11.2945 1.329 17 1 .1021-11.81 1.2688-23.477 3.5-35 .4955 1.973.6621 3.973.5 6z"/><path fill="#8b7b68" d="M262.5 268.5c.017 2.065.35 4.065 1 6-.617-.111-1.117-.444-1.5-1-.236 1.619-1.069 2.619-2.5 3-.1-3.167.567-6.167 2-9-2.204-2.367-4.204-4.867-6-7.5.333-.5.667-1 1-1.5 2.324.377 2.991 1.377 2 3 2.234 1.881 3.567 4.215 4 7z"/><path fill="#d5b097" d="M392.5 247.5c2.885-.306 5.552.027 8 1-2.357-.163-4.69.003-7 .5 3.317.498 6.65.665 10 .5-.047 3.068-.547 6.068-1.5 9-.495-1.973-.662-3.973-.5-6 .111-.617.444-1.117 1-1.5-3-.667-6-.667-9 0-.88 1.356-1.214 2.856-1 4.5h8c-.47 1.193-1.47 1.86-3 2-3.326.547-6.66 1.047-10 1.5-1.613 2.228-2.28 4.728-2 7.5h11v6h-11c-.333 2-.667 4-1 6-1.921-.863-3.921-1.529-6-2-1.153-5.819-1.319-11.819-.5-18 1.009 1.525 1.509 3.192 1.5 5h3v-3c1.796-1.293 3.463-2.793 5-4.5 1.293-.49 2.627-.657 4-.5v-5c.904-.709 1.237-1.709 1-3z"/><path fill="#fadec0" d="M401.5 252.5c-.904.709-1.237 1.709-1 3h-8c-.214-1.644.12-3.144 1-4.5 3-.667 6-.667 9 0-.556.383-.889.883-1 1.5z"/><path fill="#bcb09a" d="M346.5 271.5c1.673.843 2.84 2.176 3.5 4 .333-.667.667-1.333 1-2 .747 3.985 1.913 7.818 3.5 11.5 2.31.497 4.643.663 7 .5.333-5.333.667-5.333 1 0 2.358.247 4.358-.419 6-2 .128 4.364-1.205 5.364-4 3-4.824.56-9.49 1.227-14 2-.669-3.5-.836-7.167-.5-11-.216 1.884-.883 3.551-2 5-.548-3.67-1.048-7.337-1.5-11z"/><path fill="#bda18b" d="M281.5 252.5c4.338.122 4.672.455 1 1-.982 4.97-2.816 9.637-5.5 14-.167 1-.333 2-.5 3 .14 1.53.807 2.53 2 3-1.867 4.933-3.533 9.933-5 15h-5c-1.279-4.84-2.946-9.507-5-14-.65-1.935-.983-3.935-1-6 1.768 2.008 3.434 4.174 5 6.5 1.249.74 2.249.573 3-.5.765-1.16 1.765-2.16 3-3 .586.209 1.086.543 1.5 1 .263-7.303 2.43-13.97 6.5-20z"/><path fill="#89826f" d="M342.5 250.5c-.111.617-.444 1.117-1 1.5.782 2.74 1.282 5.574 1.5 8.5.333-2 .667-4 1-6 1.485 5.576 2.318 11.243 2.5 17 .452 3.663.952 7.33 1.5 11 1.117-1.449 1.784-3.116 2-5-.336 3.833-.169 7.5.5 11-1.378.734-2.878 1.401-4.5 2-.619-2.532-1.619-4.865-3-7-.536-9.526-1.369-19.026-2.5-28.5.069-1.986.735-3.486 2-4.5z"/><path fill="#918773" d="M249.5 252.5h1c1.905 6.719 2.571 13.719 2 21-1.102 5.948-1.769 11.948-2 18 2.235-.295 4.235.039 6 1-2.357.163-4.69-.003-7-.5-.581-.893-.915-1.893-1-3-.194-12.152.139-24.318 1-36.5z"/><path fill="#4b4a3c" d="M317.5 284.5c-1.052.149-2.052-.017-3-.5.752-.671 1.086-1.504 1-2.5v-6c6.605-1.158 9.272 1.342 8 7.5-1.845 1.128-3.845 1.628-6 1.5z"/><path fill="#dcd7c4" d="M317.5 277.5c5.987 1.276 6.32 3.276 1 6-.966-1.896-1.299-3.896-1-6z"/><path fill="#b89a84" d="M321.5 260.5c1.401.471 2.734 1.138 4 2-.73 2.609-1.23 5.276-1.5 8-3.459 2.73-3.126 3.396 1 2 2.547 3.226 4.047 6.893 4.5 11 .825.886 1.825 1.219 3 1-3.605.502-6.938 1.835-10 4-1.635-.546-3.301-.88-5-1v-3c2.155.128 4.155-.372 6-1.5 1.272-6.158-1.395-8.658-8-7.5v6c-.802-1.452-1.302-3.118-1.5-5-.202 1.756-.702 3.422-1.5 5-1.419-.505-2.085-1.505-2-3 .734-1.378 1.401-2.878 2-4.5 1.558-.21 2.891-.71 4-1.5 7.081-1.736 8.748-5.736 5-12z"/><path fill="#8b7c69" d="M305.5 251.5c1.194 6.355 1.194 12.688 0 19 1.302 2.927 2.969 5.594 5 8-.085 1.495.581 2.495 2 3 .798-1.578 1.298-3.244 1.5-5 .198 1.882.698 3.548 1.5 5 .086.996-.248 1.829-1 2.5.948.483 1.948.649 3 .5v3c1.699.12 3.365.454 5 1 3.062-2.165 6.395-3.498 10-4 2.87-.578 4.537-2.245 5-5 1.242 3.24 1.076 6.574-.5 10-2.867.435-5.367 1.601-7.5 3.5-2.321.837-4.655 1.17-7 1-2.168-2.906-4.834-5.073-8-6.5-.667.167-1.333.333-2 .5 1.193 4.574-.141 5.407-4 2.5-.667.333-1.333.667-2 1-.743-1.408-1.577-2.741-2.5-4-1.037-11.656-1.37-23.322-1-35 .671-.752 1.504-1.086 2.5-1z"/><path fill="#c5c3b0" d="M245.5 263.5h1c-.333 11.333-.667 22.667-1 34-.667-4-1.333-8-2-12 1.438-7.252 2.104-14.586 2-22z"/><path fill="#b59a84" d="M61.5 282.5c-.7653 2.596-1.0987 5.263-1 8-9.8388 2.524-15.1721-1.143-16-11 1.4928.945 2.9928 1.945 4.5 3 .5-.167 1-.333 1.5-.5-1.2836-1.297-1.1169-2.464.5-3.5.4379 2.876 1.4379 5.543 3 8 .6838-1.284.5171-2.451-.5-3.5l1.5-1.5c1.8425 2.334 4.0091 2.668 6.5 1z"/><path fill="#8f8874" d="M376.5 253.5c1.307 2.885 3.307 5.218 6 7v3h-3c.009-1.808-.491-3.475-1.5-5-.819 6.181-.653 12.181.5 18 .793 4.38 1.793 8.714 3 13-1.643-.02-2.976.647-4 2-.333-.667-.667-1.333-1-2-.586.209-1.086.543-1.5 1-.38-12.376.12-24.71 1.5-37z"/><path fill="#f3cfb4" d="M384.5 282.5c4.829-1.164 9.495-.83 14 1-4.582 3.392-9.582 3.892-15 1.5-1.921-1.241-2.254-2.741-1-4.5.682.743 1.349 1.409 2 2z"/><path fill="#545144" d="M79.5 247.5c7.5871-.314 15.0871.019 22.5 1 .828 4.371.661 8.705-.5 13-4.3198.612-8.6532 1.278-13 2 3.8771.697 7.7104 1.364 11.5 2 .667 3.667.667 7.333 0 11-3.3936.956-6.8936 1.289-10.5 1 .3333 6.667.6667 13.333 1 20-6.329.4-12.6624.733-19 1-.6563-16.659-.9896-33.325-1-50 3.2131.31 6.2131-.023 9-1z"/><path fill="#ecc5aa" d="M99.5 249.5c.0793 2.771-.4207 5.437-1.5 8-1.7328-2.102-3.7328-2.435-6-1-.8178-5.294-1.3178-5.294-1.5 0-3.0959-.593-5.4292.407-7 3 .1236.607.4569.94 1 1v7c4.6522-.498 9.3189-.831 14-1v6c-.7216-.418-1.2216-1.084-1.5-2-.3333.667-.6667 1.333-1 2-1.7378-.627-3.5711-.96-5.5-1-2.1413.113-3.9747.78-5.5 2-.3333-1-.6667-2-1-3-.3333 6.667-.6667 13.333-1 20-3.3271-3.6-4.9938-7.933-5-13-.7636-5.54-.5969-11.04.5-16.5-1.4749-3.35-2.1416-6.85-2-10.5 7.6696-.278 15.3363-.611 23-1z"/><path fill="#968571" d="M76.5 250.5c-.1416 3.65.5251 7.15 2 10.5-1.0969 5.46-1.2636 10.96-.5 16.5.0062 5.067 1.6729 9.4 5 13 .3333-6.667.6667-13.333 1-20 .3333 1 .6667 2 1 3 1.5253-1.22 3.3587-1.887 5.5-2 1.9289.04 3.7622.373 5.5 1 .3333-.667.6667-1.333 1-2 .2784.916.7784 1.582 1.5 2 .131.739-.0357 1.406-.5 2-3.7436-1.126-7.577-1.293-11.5-.5.3333.333.6667.667 1 1-1.7643 5.546-2.5976 11.38-2.5 17.5-2.9486-1.434-5.7819-1.268-8.5.5.6667.333 1.3333.667 2 1-1.135.749-2.135.583-3-.5-1.4819-11.261-2.4819-22.428-3-33.5-.1187-3.225.8813-5.891 3-8-3.7259-1.043-3.3926-1.543 1-1.5z"/><path fill="#a4917c" d="M99.5 249.5c.977 2.787 1.31 5.787 1 9-4.6785-.166-9.3452.001-14 .5-.5442.717-1.2109 1.217-2 1.5-.5431-.06-.8764-.393-1-1 1.5708-2.593 3.9041-3.593 7-3 .1822-5.294.6822-5.294 1.5 0 2.2672-1.435 4.2672-1.102 6 1 1.0793-2.563 1.5793-5.229 1.5-8z"/><path fill="#090808" d="M102.5 294.5h-5c.2399-3.079-.0934-6.079-1-9 2.6058-1.775 5.272-2.441 8-2-.668 3.697-1.335 7.363-2 11z" opacity=".479"/><path fill="#b9b29a" d="M378.5 276.5c2.079.471 4.079 1.137 6 2v4c-.651-.591-1.318-1.257-2-2-1.254 1.759-.921 3.259 1 4.5 5.418 2.392 10.418 1.892 15-1.5-.724 3.343-1.557 6.676-2.5 10-.483-.948-.649-1.948-.5-3-4.619-.814-9.286-1.147-14-1-1.207-4.286-2.207-8.62-3-13z"/><path fill="#514f42" d="M126.5 278.5c4.237.723 8.237 2.057 12 4-1.467 3.569-2.634 7.236-3.5 11-2.857-5.055-5.691-10.055-8.5-15z"/><path fill="#9c9b86" d="M26.5 278.5c-.1646 3.018.002 6.018.5 9 1.4902 1.228 2.9902 1.228 4.5 0v3c-2.2925-.256-4.4592.077-6.5 1-.5588-4.569-.0588-8.902 1.5-13z"/><path fill="#b49d87" d="M283.5 272.5c1.789 4.907 2.622 10.24 2.5 16 1.154 2.457 2.488 2.457 4 0 .266-4.474.433-8.807.5-13h4c-.267 6.338-.6 12.671-1 19-3.307-.551-6.64-.884-10-1v-21z"/><path fill="#020202" d="M143.5 289.5c.97 6.508-.196 12.841-3.5 19-2.192 2.237-4.692 2.904-7.5 2-1.871 3.373-4.705 5.373-8.5 6-5.973-.417-11.807-1.417-17.5-3-3.221-3.557-3.888-7.557-2-12 1.183 1.004 2.516 1.838 4 2.5 6.293 1.275 12.626 1.608 19 1 1.803-.637 3.136-1.803 4-3.5 2.712-.728 5.379-1.561 8-2.5 1.629-3.057 2.962-6.223 4-9.5z" opacity=".454"/><path fill="#4b4a3d" d="M247.5 251.5c.667.333 1.333.667 2 1-.861 12.182-1.194 24.348-1 36.5.085 1.107.419 2.107 1 3 2.31.497 4.643.663 7 .5h1c.672.767 1.505 1.434 2.5 2 .469-5.682.302-11.348-.5-17v-1c1.431-.381 2.264-1.381 2.5-3 .383.556.883.889 1.5 1 2.054 4.493 3.721 9.16 5 14h5c1.467-5.067 3.133-10.067 5-15 .61-.891.943-1.891 1-3 .904 2.138 1.571 4.471 2 7-.919 6.294-1.253 12.627-1 19 4.613-.102 8.947-.102 13 0-5.048.714-10.048 1.381-15 2 .166-5.676-.001-11.343-.5-17a259.6312 259.6312 0 0 0-4.5 12c-2.586.98-5.253 1.313-8 1 .092-3.559-.741-6.892-2.5-10-.2 4.253-.7 8.42-1.5 12.5-5.323.499-10.656.666-16 .5.333-11.333.667-22.667 1-34 .662-3.966.995-7.966 1-12z"/><path fill="#807c6a" d="M259.5 277.5c.802 5.652.969 11.318.5 17-.995-.566-1.828-1.233-2.5-2 .951-1.419 1.284-3.085 1-5-.313-3.542.021-6.875 1-10z"/><path fill="#afae97" d="M252.5 273.5c1.266 2.194 1.266 4.528 0 7 1.519 2.056 2.353 4.39 2.5 7 1.145 1.184 2.312 1.184 3.5 0 .284 1.915-.049 3.581-1 5h-1c-1.765-.961-3.765-1.295-6-1 .231-6.052.898-12.052 2-18z"/><path fill="#525143" d="M213.5 255.5c-.343 1.983.324 3.317 2 4 .25-2.174 1.25-3.841 3-5h3c-.166 7.674 0 15.341.5 23 .487 3.298 1.653 6.298 3.5 9 .978-.477 1.811-1.143 2.5-2 .128-10.996-.039-21.996-.5-33 5.358-.238 10.691-.404 16-.5 1.719 3.957 2.386 8.124 2 12.5.104 7.414-.562 14.748-2 22-5.08 16.041-15.08 20.208-30 12.5-1.287-1.41-2.454-2.91-3.5-4.5-2.324-6.644-4.324-13.311-6-20-2.514 3.178-5.014 6.344-7.5 9.5 2.255 4.597 3.589 9.43 4 14.5-5.305.694-10.638 1.028-16 1-.551-5.203-1.884-10.203-4-15-.586.209-1.086.543-1.5 1-.828 3.966-1.328 7.966-1.5 12-5.648.219-11.148-.447-16.5-2 1.803-15.026 4.136-30.026 7-45 10.848-3.284 21.348-2.118 31.5 3.5 1.859 1.558 3.359 3.391 4.5 5.5.374-.916.874-1.75 1.5-2.5 2.646-.497 5.313-.664 8-.5z"/><path fill="#c4b9a2" d="M219.5 273.5c.204 3.018.537 6.018 1 9-1.044 4.002.456 7.002 4.5 9 5.309-2.819 8.142-7.153 8.5-13 .923 3.564 1.256 7.231 1 11-7.815 8.372-14.815 7.539-21-2.5-.733-1.766-1.067-3.599-1-5.5 1.356 2.625 3.189 4.959 5.5 7 .336-3.501.169-7.001-.5-10.5.069-1.986.735-3.486 2-4.5z"/><path fill="#85816e" d="M207.5 257.5c.754 5.01 1.754 10.01 3 15 .978-.477 1.811-1.143 2.5-2-.337 3.579-.504 7.246-.5 11-.067 1.901.267 3.734 1 5.5 6.185 10.039 13.185 10.872 21 2.5 1.052.149 2.052-.017 3-.5 1.233-2.314 2.567-4.481 4-6.5-1.819 12.685-8.819 17.518-21 14.5-2.667-1.333-4.667-3.333-6-6-.949-.617-1.782-.451-2.5.5-5.211-10.982-6.711-22.315-4.5-34z"/><path fill="#79715f" d="M167.5 271.5h2v3c-.221 2.597-.721 2.597-1.5 0-.499 4.989-.666 9.989-.5 15 1.644.214 3.144-.12 4.5-1 2.006-3.036 2.84-6.369 2.5-10 2.963-1.241 5.963-1.241 9 0 2.124 2.779 3.791 5.779 5 9-.086.996.248 1.829 1 2.5 2.441 1.392 4.774 1.559 7 .5.934 1.068 1.268 2.401 1 4-3.682.165-7.348-.001-11-.5-1.231-4.091-2.231-8.257-3-12.5-2.606-.636-5.106-.636-7.5 0-.406 3.772-1.239 7.439-2.5 11-2.87-.622-5.704-1.289-8.5-2l-1 1c.208-6.917 1.374-13.583 3.5-20z"/><path fill="#998a76" d="M231.5 262.5c3.546.895 5.879 3.062 7 6.5-1.867.711-3.367.211-4.5-1.5-.499 3.652-.665 7.318-.5 11-.358 5.847-3.191 10.181-8.5 13-4.044-1.998-5.544-4.998-4.5-9 1.271 1.609 2.271 3.442 3 5.5 2.201.825 4.034.325 5.5-1.5 1.133-7.975 1.967-15.975 2.5-24z"/><path fill="#afab96" d="M169.5 274.5c1.98.974 3.647 2.307 5 4 .34 3.631-.494 6.964-2.5 10-1.356.88-2.856 1.214-4.5 1-.166-5.011.001-10.011.5-15 .779 2.597 1.279 2.597 1.5 0z"/><path fill="#eac5aa" d="M219.5 273.5c-1.265 1.014-1.931 2.514-2 4.5.669 3.499.836 6.999.5 10.5-2.311-2.041-4.144-4.375-5.5-7-.004-3.754.163-7.421.5-11-.689.857-1.522 1.523-2.5 2-1.246-4.99-2.246-9.99-3-15 1.478-.262 2.811.071 4 1 .744 2.943 1.244 5.943 1.5 9 1.136-2.596 1.969-5.263 2.5-8 1.294-.79 2.461-1.79 3.5-3 .499 5.657.666 11.324.5 17z"/><path fill="#eac0a4" d="M241.5 282.5c-1.433 2.019-2.767 4.186-4 6.5-.948.483-1.948.649-3 .5.256-3.769-.077-7.436-1-11-.165-3.682.001-7.348.5-11 1.133 1.711 2.633 2.211 4.5 1.5-1.121-3.438-3.454-5.605-7-6.5.163-2.357-.003-4.69-.5-7l-1 1c-.483-.948-.649-1.948-.5-3h13c.965 7.564 1.299 15.064 1 22.5-.49 2.346-1.157 4.513-2 6.5z"/><path fill="#b89a84" d="M201.5 259.5c1.837 3.019 2.337 6.352 1.5 10-.667 1.333-1.333 1.333-2 0-1.23 3.232-3.23 5.899-6 8l-1.5 4.5c1.303 2.744 2.303 5.577 3 8.5-2.226 1.059-4.559.892-7-.5-.752-.671-1.086-1.504-1-2.5 1.208.734 2.541 1.067 4 1-.354-4.887-1.354-9.554-3-14 .667-.333 1.333-.667 2-1 .722-1.051 1.722-1.718 3-2 2.763-.244 4.929-1.577 6.5-4-.223-2.757-.056-5.424.5-8z"/><path fill="#a58674" d="M189.5 274.5c-2.146.378-4.313.712-6.5 1-2.221.107-4.054-.56-5.5-2 2.918.271 6.084-.062 9.5-1 1.301.139 2.134.805 2.5 2z"/><path fill="#535042" d="M191.5 272.5v1c-.667.333-1.333.667-2 1-.366-1.195-1.199-1.861-2.5-2-3.416.938-6.582 1.271-9.5 1-.838-.342-1.172-1.008-1-2 2.003-3.688 3.337-7.688 4-12 9.014-.19 12.681 4.143 11 13z"/><path fill="#f2c7aa" d="M186.5 250.5c3.422.577 6.422 1.911 9 4-.025 2.679-1.358 4.012-4 4-3.267-2.232-6.934-3.065-11-2.5-2.035 4.971-3.368 10.138-4 15.5-.172.992.162 1.658 1 2 1.446 1.44 3.279 2.107 5.5 2 2.187-.288 4.354-.622 6.5-1 1.646 4.446 2.646 9.113 3 14-1.459.067-2.792-.266-4-1-1.209-3.221-2.876-6.221-5-9-3.037-1.241-6.037-1.241-9 0-1.353-1.693-3.02-3.026-5-4v-3c1.636-6.103 2.636-12.436 3-19h3c-.219 1.175.114 2.175 1 3 .088-1.422.088-2.922 0-4.5 3.317-.498 6.65-.665 10-.5z"/><path fill="#cac1a8" d="M196.5 254.5c-1.327 3.32-1.327 6.653 0 10-.386 2.432-1.053 4.766-2 7-1.278.282-2.278.949-3 2v-1c3.166-5.499 2.166-9.999-3-13.5.948-.483 1.948-.649 3-.5 2.642.012 3.975-1.321 4-4 .333-1.333.667-1.333 1 0z"/><path fill="#f4d0b2" d="M196.5 254.5c2.644.644 4.311 2.311 5 5-.556 2.576-.723 5.243-.5 8-1.571 2.423-3.737 3.756-6.5 4 .947-2.234 1.614-4.568 2-7-1.327-3.347-1.327-6.68 0-10z"/><path fill="#b49c88" d="M186.5 250.5c-3.35-.165-6.683.002-10 .5.088 1.578.088 3.078 0 4.5-.886-.825-1.219-1.825-1-3h-3c-.364 6.564-1.364 12.897-3 19h-2c.143-1.762-.191-3.429-1-5l1-1c.781 1.229 1.281 2.562 1.5 4 .738-6.368 1.571-12.701 2.5-19 5.153-1.119 10.153-1.119 15 0z"/><path fill="#907f6b" d="M191.5 258.5c-1.052-.149-2.052.017-3 .5 5.166 3.501 6.166 8.001 3 13.5 1.681-8.857-1.986-13.19-11-13-.663 4.312-1.997 8.312-4 12 .632-5.362 1.965-10.529 4-15.5 4.066-.565 7.733.268 11 2.5z"/><path fill="#f3eedb" d="M182.5 262.5c3.117-.573 5.117.594 6 3.5-.412 4.212-2.746 6.046-7 5.5.008-3.045.341-6.045 1-9z"/><path fill="#989484" d="M216.5 252.5c0 1.333.667 2 2 2-1.75 1.159-2.75 2.826-3 5-1.676-.683-2.343-2.017-2-4 .617.111 1.117.444 1.5 1 .21-1.558.71-2.891 1.5-4z"/><path fill="#9b9989" d="M325.5 297.5c-2.659.417-4.992 1.417-7 3-1.433-2.414-1.933-5.081-1.5-8 1.105 4.254 3.939 5.92 8.5 5z"/><path fill="#555345" d="M106.5 248.5c12.244 1.384 24.41 3.051 36.5 5 .04 4.657-.294 9.324-1 14-3.459.633-6.959 1.3-10.5 2-.645 2.728-1.479 5.395-2.5 8-1.441-.76-2.941-1.426-4.5-2-.333.5-.667 1-1 1.5 1.631 3.726 2.964 7.56 4 11.5-.531 3.235-1.198 6.402-2 9.5-5.306.669-10.473.169-15.5-1.5.99-9.935 1.823-19.935 2.5-30h-8c-.121-6.131.546-12.131 2-18z"/><path fill="#8c7e6a" d="M108.5 250.5c.799 2.93 1.132 5.93 1 9 7.914-1.086 10.914 2.247 9 10-1.38.462-2.047 1.462-2 3 .729 4.97 1.229 9.97 1.5 15 .928 2.535 2.762 3.535 5.5 3v-3c-4-.333-4-.667 0-1 1.129 2.128 1.296 4.461.5 7-1.707-.959-3.541-1.625-5.5-2-1.605.93-3.105.93-4.5 0-.333.667-.667 1.333-1 2 .498-8.652 1.331-17.319 2.5-26 .311-4.152-1.689-6.152-6-6-.942.108-1.775.441-2.5 1-.458-4.227.042-8.227 1.5-12z"/><path fill="#d2b299" d="M118.5 269.5c1.609 5.163 3.609 10.163 6 15-.363.683-.696 1.35-1 2-4 .333-4 .667 0 1v3c-2.738.535-4.572-.465-5.5-3-.271-5.03-.771-10.03-1.5-15-.047-1.538.62-2.538 2-3z"/><path fill="#cba48b" d="M141.5 256.5c-.719 2.264-1.052 4.597-1 7-3.682-.165-7.348.001-11 .5-.951 3.057-1.284 6.223-1 9.5-3.149.085-5.816-.915-8-3v-3h5c.791-5.104 3.791-7.104 9-6v-3c2.333-.667 4.667-1.333 7-2z"/><path fill="#f6d2b4" d="M108.5 250.5c9.941 1.659 19.941 2.993 30 4 1.53.14 2.53.807 3 2-2.333.667-4.667 1.333-7 2v3c-5.209-1.104-8.209.896-9 6h-5v3c-.667-.333-1.333-.667-2-1 1.914-7.753-1.086-11.086-9-10 .132-3.07-.201-6.07-1-9z"/><path fill="#010101" d="M14.5 299.5c1.5103 1.336 3.1769 2.503 5 3.5 7.2644 1.811 14.4311 1.645 21.5-.5 8.0341 2.307 16.2007 2.64 24.5 1 10.5347 2.891 20.868 2.224 31-2 .165 3.35-.0017 6.683-.5 10-.8333.833-1.6667 1.667-2.5 2.5-6.6057 1.163-13.2723 1.997-20 2.5-2.6914-.179-5.0247-1.179-7-3-6.4864.686-12.9864 1.353-19.5 2-2.3161-.434-4.3161-1.434-6-3l-1.5 1.5c-7.3992.848-14.7325.515-22-1-.8333-.833-1.6667-1.667-2.5-2.5-.4986-3.652-.6653-7.318-.5-11z" opacity=".467"/><path fill="#020202" d="M407.5 297.5c-.507 4.723-1.34 9.389-2.5 14-1.171 1.393-2.671 2.227-4.5 2.5-10.681.411-21.347.078-32-1-1.431-.465-2.597-1.299-3.5-2.5-7.234 1.651-14.567 2.984-22 4-2.619-.227-5.119-.893-7.5-2-3.932 1.533-7.932 2.866-12 4-.693 1.018-1.359 2.018-2 3h-12c-3.467-6.435-7.8-7.268-13-2.5-7 .667-14 .667-21 0-3.532-5.279-7.866-5.945-13-2-3 .167-6 .333-9 .5-4.358.198-8.525-.468-12.5-2-2.843 2.663-6.009 4.663-9.5 6h-11c-5.331-1.294-9.998-3.961-14-8-.864 1.697-2.197 2.863-4 3.5-5.191.297-10.357.797-15.5 1.5-2.7-.23-5.033-1.23-7-3-7.195 1.114-14.361.614-21.5-1.5-1.833-.5-3-1.667-3.5-3.5-.634-3.055-.468-6.055.5-9 1.183 1.004 2.516 1.838 4 2.5 9.748 2.044 19.415 3.211 29 3.5 5.011-.39 10.011-.89 15-1.5.854-1.022 1.854-1.855 3-2.5 11.075 8.47 22.575 9.137 34.5 2 7.463 1.117 14.963 1.284 22.5.5 1.634-1.308 3.468-2.142 5.5-2.5 2.523 2.055 5.356 3.889 8.5 5.5 5.333.667 10.667.667 16 0 3.048-.606 5.548-2.106 7.5-4.5 3.444 1.657 6.61 3.824 9.5 6.5 5.669 2.334 10.336 1.001 14-4 4.02-.562 7.853-1.729 11.5-3.5 2.228 1.481 4.728 2.148 7.5 2 6.663-.999 13.33-1.999 20-3 2.409.564 4.742 1.397 7 2.5 10.667.667 21.333.667 32 0 1.902-1.73 3.569-3.563 5-5.5z" opacity=".469"/></svg>