<svg xmlns="http://www.w3.org/2000/svg" role="img" viewBox="1.48 2.23 176.78 221.78"><title>Lightning Communications logo</title><defs><clipPath id="a" clipPathUnits="userSpaceOnUse"><path d="M0 858.898h612.288V0H0z"/></clipPath></defs><g clip-path="url(#a)" transform="matrix(.41858 0 0 -.41858 -37.815 276.029)"><path fill="#231815" fill-opacity="1" fill-rule="nonzero" stroke="none" d="M278.733 432.917h31.047c1.359 0 2.622-.706 3.333-1.863.713-1.157.775-2.601.161-3.815l-75.281-149.104 117.395 179.68h-30.385c-1.341 0-2.589.685-3.308 1.817-.713 1.134-.805 2.554-.234 3.766l59.663 126.586zm-75.938-219.726c-.666 0-1.338.169-1.953.526-1.801 1.034-2.476 3.297-1.539 5.152l104.117 206.22h-31.911c-1.437 0-2.757.785-3.44 2.049-.686 1.263-.625 2.8.161 4.003l137.428 210.814c1.121 1.717 3.395 2.275 5.183 1.279 1.8-1.002 2.513-3.223 1.637-5.086l-81.303-172.505h31.444c1.438 0 2.757-.787 3.441-2.051.687-1.264.621-2.8-.163-4.003L206.074 214.965c-.749-1.147-2-1.774-3.279-1.774"/><path fill="#231815" fill-opacity="1" fill-rule="nonzero" stroke="none" d="M313.857 437.92c-5.044 0-9.133 4.089-9.133 9.132 0 5.044 4.089 9.133 9.133 9.133 5.044 0 9.133-4.089 9.133-9.133 0-5.043-4.089-9.132-9.133-9.132m95.078 201.898L271.509 429.004h38.271l-106.984-211.9L362.619 461.73h-37.618z"/><path fill="#fff" fill-opacity="1" fill-rule="nonzero" stroke="none" d="M273.917 430.308h35.863c.453 0 .874-.234 1.111-.622.237-.385.257-.866.053-1.272l-96.415-190.968 145.68 222.979h-35.206c-.448 0-.861.229-1.101.607-.24.377-.27.851-.082 1.253l75.845 160.92zm-71.12-214.507c-.222 0-.446.057-.652.174-.599.347-.826 1.101-.513 1.717L307.66 427.699h-36.151c-.479 0-.92.259-1.147.682-.229.421-.209.933.054 1.336l137.429 210.814c.372.57 1.131.749 1.727.425.596-.334.836-1.075.545-1.694l-83.055-176.228h35.557c.48 0 .917-.262 1.147-.683.229-.423.209-.935-.056-1.335L203.89 216.393c-.249-.383-.667-.592-1.093-.592"/></g><path fill="#231f20" fill-opacity="1" fill-rule="nonzero" stroke="none" d="M18.218 216.652c-.208.352-.4.67066-.75066 1.08666-1.424 1.69467-3.328 2.23867-5.15066 2.23867-4.50932 0-6.34798-3.27866-6.34798-5.97999 0-3.42266 2.78132-5.94932 6.34798-5.94932 1.232 0 2.38266.304 3.32666.816 1.29466.71866 1.872 1.61466 2.28666 2.28666l-.944.528c-.19066-.32133-.31866-.544-.63866-.928-.96-1.18266-2.48-1.69466-3.96666-1.69466-3.03732 0-5.21199 2.09466-5.21199 5.01999 0 2.62266 1.93467 4.91065 5.212 4.91065 3.15065 0 4.39865-2.03066 4.86265-2.8z"/><path fill="#231f20" fill-opacity="1" fill-rule="nonzero" stroke="none" d="M20.201 214.076c0 3.10266 2.39866 4.95732 5.49999 4.95732 2.99066 0 5.42132-1.80666 5.42132-5.08532 0-1.42266-.592-3.03733-1.98267-3.96532-.52666-.352-1.904-1.04-3.77465-.96-3.61333.16-5.16399 2.70266-5.16399 5.05332m12.15197-.064c0 3.26266-2.60533 5.98132-6.74665 5.98132-3.95066 0-6.58932-2.54266-6.58932-5.96532 0-3.32532 2.59066-5.97998 6.70132-5.97998 4.47599.032 6.63465 3.06932 6.63465 5.96398"/><path fill="#231f20" fill-opacity="1" fill-rule="nonzero" stroke="none" d="M35.743 208.4l4.30266 9.14664c.256.56.32.736.496 1.2L45.28963 208.4h1.408v11.29064h-1.008V209.648c-.128.32-.15866.39866-.336.768l-4.26932 9.27464h-1.11866l-4.30266-9.21065c-.17467-.368-.208-.43333-.336-.832v10.04265h-1.00666V208.4z"/><path fill="#231f20" fill-opacity="1" fill-rule="nonzero" stroke="none" d="M50.761 208.4l4.30266 9.14664c.256.56.32.736.496 1.2L60.30763 208.4h1.408v11.29064h-1.008V209.648c-.128.32-.15866.39866-.336.768l-4.26932 9.27464h-1.11866l-4.30266-9.21065c-.17467-.368-.208-.43333-.336-.832v10.04265h-1.00666V208.4z"/><path fill="#231f20" fill-opacity="1" fill-rule="nonzero" stroke="none" d="M64.282 208.384h1.04v6.73332c-.06534 2.87732 1.72666 3.83732 4.68532 3.83732 3.45466 0 4.68532-1.232 4.68532-4.03066V208.384h1.02266v6.69998c0 3.42266-1.88666 4.89332-5.70798 4.89332-3.85466 0-5.72532-1.50266-5.72532-4.76532z"/><path fill="#231f20" fill-opacity="1" fill-rule="nonzero" stroke="none" d="M89.996 208.4v11.29064h-1.008L79.31336 209.84v9.85064h-1.008V208.4h1.008l9.67464 9.89998V208.4z"/><path fill="#231f20" fill-opacity="1" fill-rule="nonzero" stroke="none" d="M92.626 208.4h1.072v11.291h-1.072V208.4z"/><path fill="#231f20" fill-opacity="1" fill-rule="nonzero" stroke="none" d="M107.868 216.652c-.208.352-.4.67066-.75066 1.08666-1.424 1.69467-3.328 2.23867-5.15066 2.23867-4.50932 0-6.34798-3.27866-6.34798-5.97999 0-3.42266 2.78132-5.94932 6.34798-5.94932 1.232 0 2.38266.304 3.32666.816 1.29466.71866 1.872 1.61466 2.28666 2.28666l-.944.528c-.19066-.32133-.31866-.544-.63866-.928-.96-1.18266-2.48-1.69466-3.96666-1.69466-3.03732 0-5.21199 2.09466-5.21199 5.01999 0 2.62266 1.93467 4.91065 5.212 4.91065 3.15065 0 4.39865-2.03066 4.86265-2.8z"/><path fill="#231f20" fill-opacity="1" fill-rule="nonzero" stroke="none" d="M114.094 209.407l-3.16533 6.46132h6.39599zm.608-1.008l5.69332 11.29064h-1.16667l-1.456-2.92533h-7.27597l-1.43867 2.92533h-1.12l5.54932-11.29064z"/><path fill="#231f20" fill-opacity="1" fill-rule="nonzero" stroke="none" d="M118.53 208.4h10.9853v.944h-4.84532v10.34664h-1.07066V209.344H118.53z"/><path fill="#231f20" fill-opacity="1" fill-rule="nonzero" stroke="none" d="M130.824 208.4h1.072v11.291h-1.072V208.4z"/><path fill="#231f20" fill-opacity="1" fill-rule="nonzero" stroke="none" d="M135.016 214.076c0 3.10266 2.39866 4.95732 5.49999 4.95732 2.99066 0 5.42132-1.80666 5.42132-5.08532 0-1.42266-.592-3.03733-1.98267-3.96532-.52666-.352-1.904-1.04-3.77465-.96-3.61333.16-5.16399 2.70266-5.16399 5.05332m12.15197-.064c0 3.26266-2.60533 5.98132-6.74665 5.98132-3.95066 0-6.58932-2.54266-6.58932-5.96532 0-3.32532 2.59066-5.97998 6.70132-5.97998 4.47599.032 6.63465 3.06932 6.63465 5.96398"/><path fill="#231f20" fill-opacity="1" fill-rule="nonzero" stroke="none" d="M160.826 208.4v11.29064h-1.008l-9.67464-9.85064v9.85064h-1.008V208.4h1.008l9.67464 9.89998V208.4z"/><path fill="#231f20" fill-opacity="1" fill-rule="nonzero" stroke="none" d="M163.701 216.41c.384.912.99066 1.968 3.05466 2.4.60666.128 1.24666.176 1.86933.176 2.64 0 4.43065-1.04134 4.43065-2.592 0-1.456-1.424-1.75866-3.85332-2.07866-.704-.08-1.408-.176-2.09466-.27067-.96-.14533-1.696-.25733-2.304-.54533-.87866-.41467-1.408-1.15066-1.408-2.12533 0-1.696 1.648-3.27866 5.19866-3.27866 2.15866 0 3.98132.62267 5.30799 2.22267l-1.02267.56c-.352-.464-1.36-1.808-4.36665-1.808-2.39733 0-3.964.928-3.964 2.256 0 .95866.91067 1.31066 1.61467 1.45466.544.11066 3.24533.464 3.86932.55866 1.008.16 1.904.32 2.528.59333.97466.43067 1.66266 1.24667 1.66266 2.39733 0 .608-.20933 1.184-.496 1.632-.544.83066-1.872 2.01466-5.00532 2.01466-2.01466 0-3.07066-.288-3.96666-.752-1.42266-.73467-1.80532-1.53466-2.23866-2.36666z"/><path fill="#231f20" fill-opacity="1" fill-rule="nonzero" stroke="none" d="M5.982 192.153v11.2893h9.08264v-1.37332H7.58066V192.153z"/><path fill="#231f20" fill-opacity="1" fill-rule="nonzero" stroke="none" d="M16.447 192.153h1.647v11.29h-1.647v-11.29z"/><path fill="#231f20" fill-opacity="1" fill-rule="nonzero" stroke="none" d="M31.645 201.908c-.208.192-.384.36667-.624.56-.81466.624-2.38266 1.24666-4.30132 1.24666-3.90132 0-6.45998-2.70266-6.45998-5.93332 0-1.58133.65466-2.74932.97466-3.22932 1.056-1.53466 3.13466-2.67066 5.75732-2.67066 2.60666 0 4.25332 1.07066 4.89332 1.61466.62266.528.86266.976 1.104 1.376l-1.584.48c-.208-.30534-.368-.544-.72-.848-.95866-.832-2.27066-1.232-3.56666-1.232-2.77999 0-5.14798 1.568-5.14798 4.41466 0 1.16666.43066 2.11066.76666 2.62266 1.232 1.90266 3.6 2.06266 4.33466 2.06266 1.07066 0 2.65466-.336 3.72532-1.488.70533-.768.8-1.39066.896-2.04666h-4.97332v-1.344h6.31598v5.96532H31.645z"/><path fill="#231f20" fill-opacity="1" fill-rule="nonzero" stroke="none" d="M35.668 192.137h1.61466v4.62132h8.65065V192.137h1.616v11.30664h-1.616v-5.34132h-8.65065v5.34132H35.668z"/><path fill="#231f20" fill-opacity="1" fill-rule="nonzero" stroke="none" d="M49.158 192.152h10.8253v1.344h-4.62132v9.94664h-1.59866V193.496H49.158z"/><path fill="#231f20" fill-opacity="1" fill-rule="nonzero" stroke="none" d="M63.223 192.152l7.61198 8.07598c.54267.576.65467.704 1.19866 1.376-.08-.8-.08-.944-.096-1.664V192.152h1.53467v11.29064h-1.56533l-7.99598-8.45998c-.416-.464-.54533-.624-.88133-1.03866.06533.784.08133 1.008.08133 1.95066v7.54798h-1.53466V192.152z"/><path fill="#231f20" fill-opacity="1" fill-rule="nonzero" stroke="none" d="M76.293 192.153h1.646v11.29h-1.646v-11.29z"/><path fill="#231f20" fill-opacity="1" fill-rule="nonzero" stroke="none" d="M82.363 192.152l7.61198 8.07598c.54267.576.65467.704 1.19866 1.376-.08-.8-.08-.944-.096-1.664V192.152h1.53467v11.29064h-1.56533l-7.99598-8.45998c-.416-.464-.54533-.624-.88133-1.03866.06533.784.08133 1.008.08133 1.95066v7.54798h-1.53466V192.152z"/><path fill="#231f20" fill-opacity="1" fill-rule="nonzero" stroke="none" d="M106.198 201.908c-.208.192-.384.36667-.624.56-.81466.624-2.38266 1.24666-4.30132 1.24666-3.90132 0-6.45998-2.70266-6.45998-5.93332 0-1.58133.65466-2.74932.97466-3.22932 1.05466-1.53466 3.13466-2.67066 5.75732-2.67066 2.60666 0 4.25332 1.07066 4.89332 1.61466.62266.528.86266.976 1.104 1.376l-1.584.48c-.208-.30534-.368-.544-.72-.848-.95866-.832-2.27066-1.232-3.56666-1.232-2.78132 0-5.14798 1.568-5.14798 4.41466 0 1.16666.43066 2.11066.76666 2.62266 1.232 1.90266 3.6 2.06266 4.33466 2.06266 1.07066 0 2.65466-.336 3.72532-1.488.704-.768.8-1.39066.896-2.04666h-4.97332v-1.344H107.59v5.96532h-1.392z"/></svg>