<svg xmlns="http://www.w3.org/2000/svg" role="img" viewBox="-5.83 -4.58 312.66 355.16"><title>Liquify logo</title><defs><linearGradient id="a" x1="0" x2="1" y1="0" y2="0"><stop offset="0" stop-color="#277e6d" stop-opacity=".988"/><stop offset=".172" stop-color="#247578" stop-opacity=".984"/><stop offset=".375" stop-color="#1c55a6" stop-opacity=".988"/><stop offset=".848" stop-color="#1626ed" stop-opacity=".988"/><stop offset="1" stop-color="#132bff" stop-opacity=".973"/></linearGradient></defs><g fill="url(#a)" transform="matrix(.1 0 0 -.1 0 400)"><path d="M390 3962c-169-56-285-173-351-353-32-87-35-118-18-170 39-116 164-170 275-120 50 23 86 68 109 139 30 92 94 143 161 126 17-4 92-69 191-165 141-137 173-163 246-199 110-54 194-68 322-52 209 26 336 116 380 267 25 85 94 130 160 105 16-6 94-75 174-154 204-200 295-253 456-263 276-18 506 133 506 331 0 134-115 226-243 196-48-12-108-58-133-103-7-14-26-20-70-24-55-4-64-2-105 26-25 16-97 83-160 148-185 189-293 246-465 246-203-1-374-109-462-293-40-82-50-90-117-90-58 0-107 34-238 168-189 194-282 244-458 249-81 2-118-1-160-15z"/><path d="M410 3092c-94-27-166-68-235-137-98-98-178-279-161-367 18-96 120-176 211-166 73 9 129 49 160 115 56 123 69 145 96 159 71 36 109 15 282-159 136-138 206-188 311-225 65-23 81-24 201-19 139 5 205 22 281 70 59 37 119 107 139 163 9 27 22 62 28 78 13 34 61 66 102 66 43 0 71-22 219-168 206-203 303-254 486-254 274 0 472 138 472 330 0 65-16 103-59 143-93 87-215 77-298-25-37-45-38-46-97-46-33 0-69 5-81 11-12 7-85 73-162 149-216 212-297 254-480 254-91 0-121-5-170-24-132-51-234-144-298-273-35-72-37-74-79-80-80-11-94-2-248 148-212 208-309 264-470 271-62 3-103-1-150-14z"/><path d="M401 2214c-83-22-150-63-222-134-73-73-117-144-148-239-27-82-26-126 1-181 45-87 129-125 233-106 55 11 118 78 140 150 11 34 32 73 50 92 28 29 39 34 78 34 55 0 95-29 237-175 115-118 182-169 275-209 66-29 77-31 200-31 105 0 143 4 200 22 132 42 229 131 261 241 23 77 59 112 116 112s79-17 239-178c183-185 294-242 470-242 211 0 372 78 439 213 80 164 1 317-165 317-71 0-126-27-161-79-14-22-35-42-47-45-34-9-93-7-122 4-14 5-96 78-183 162-210 205-292 248-467 248-137 0-257-47-350-138-51-50-113-139-135-194-8-18-19-36-24-40-21-15-116-8-144 9-15 9-94 83-177 163-156 151-215 192-324 224-67 20-197 20-270 0z"/></g><path stroke="#000" stroke-width="0" d="M45.145 279.7v42.297h26.151V330H36.245v-50.3h8.9zm43.703 11.73V330h-8.624v-38.57h8.624zm-4.312-5.038c-1.469 0-2.886-.589-3.905-1.525-.964-.993-1.58-2.363-1.58-3.753 0-1.388.949-3.114 1.57-3.777 1.019-.962 2.442-1.57 3.915-1.57 1.464 0 2.877.571 3.896 1.482.967.972 1.589 2.335 1.589 3.727 0 1.43-.609 2.831-1.569 3.847-1.02.962-2.443 1.569-3.916 1.569zm54.159 56.994h-8.624v-17.367c-1.234 1.135-1.848 1.71-4.135 2.784-2.292 1.048-4.905 1.611-7.63 1.611-3.662 0-7.088-.844-10.009-2.473-2.925-1.63-5.305-4.035-6.975-6.973-1.637-2.955-2.508-6.455-2.508-10.253 0-3.799.873-7.288 2.51-10.221 1.67-2.915 4.049-5.307 6.973-6.936 2.921-1.629 6.347-2.473 10.009-2.473 2.816 0 5.509.574 7.869 1.644 2.363 1.103 2.946 1.683 4.172 2.854v-4.153h8.348v51.956zm-19.837-20.768c2.175 0 4.019-.458 5.782-1.489 1.775-.995 3.056-2.317 4.034-4.162 1.011-1.832 1.466-3.837 1.466-6.252 0-2.412-.463-4.399-1.495-6.205-1.002-1.826-2.288-3.144-4.045-4.142-1.737-1.03-3.568-1.487-5.742-1.487-2.224 0-4.082.449-5.82 1.457-1.752.972-3.033 2.286-4.035 4.134-1.032 1.83-1.496 3.83-1.496 6.243 0 2.413.464 4.414 1.496 6.244 1.003 1.849 2.288 3.176 4.043 4.173 1.737 1.029 3.59 1.486 5.812 1.486zM181.581 330h-8.279v-3.871c-1.12 1.056-1.56 1.534-3.85 2.637-2.293 1.071-4.888 1.648-7.57 1.648-5.041 0-9.228-1.513-12.215-4.314-2.931-2.886-4.488-7.214-4.517-12.625V291.43h8.624v21.286c-.023 3.391.692 5.728 2.283 7.355 1.511 1.69 3.585 2.409 6.584 2.409 3.317 0 5.681-.904 7.557-2.865 1.878-1.963 2.785-4.575 2.759-8.279V291.43h8.624V330zm15.838-38.57V330h-8.624v-38.57h8.624zm-4.312-5.038c-1.469 0-2.886-.589-3.905-1.525-.964-.993-1.58-2.363-1.58-3.753 0-1.388.61-2.765 1.57-3.777 1.019-.962 2.442-1.57 3.915-1.57 1.464 0 2.877.571 3.896 1.482.967.972 1.589 2.335 1.589 3.727 0 1.43-.609 2.831-1.569 3.847-1.02.962-2.443 1.569-3.916 1.569zm32.045-2.553c-1.808 0-2.884.383-3.716 1.283-.842.911-1.24 2.142-1.218 4.134v2.174h10.626v7.451h-10.488V330h-8.624v-31.119h-6.21v-7.451h6.21v-2.243c.031-3.807 1.203-7.068 3.467-9.332 2.267-2.268 5.622-3.467 9.608-3.467 1.538 0 3.057.203 4.415.59 1.368.392 2.633 1.008 3.637 1.749l.614.453-2.778 6.994-1.041-.813c-1.376-1.075-2.776-1.522-4.502-1.522zm32.936 49.215c-1.614 3.813-3.607 6.642-5.817 8.279-2.242 1.592-5.054 2.467-8.142 2.467-1.876 0-3.774-.321-5.534-.917-1.775-.62-3.358-1.578-4.557-2.757l-.543-.533 3.852-6.763.916.896c1.731 1.694 3.572 2.416 5.866 2.416 1.459 0 2.496-.296 3.418-1.063.975-.736 1.813-2.026 2.642-4.012l.985-2.144-16.585-37.493h9.091l12.105 27.744 11.974-27.744h8.678l-18.349 41.624z"/></svg>