<svg xmlns="http://www.w3.org/2000/svg" role="img" viewBox="-54.55 -54.55 2836.60 1771.60"><title>MetaOasis logo</title><path fill="url(#paint0_linear_40147_20578)" d="M168.871 1446.35l-110.9436-92.06H0l.0002 308.9h93.7942v-151.3l75.0766 51.87 75.608-51.87v151.3h93.794v-308.9h-58.025l-111.377 92.06z"/><path fill="url(#paint1_linear_40147_20578)" d="M834.306 1436.43v226.76h94.325v-226.76H1050.6v-82.14H712.332v82.14h121.974z"/><path fill="url(#paint2_linear_40147_20578)" d="M2431.68 1663.19v-310.11l-94.09-.45v310.56h94.09z"/><path fill="url(#paint3_linear_40147_20578)" d="M667.24 1435.22v-82.14H436.878l-51.621 47.99v260.91H667.24v-88.17H479.051v-138.59H667.24z"/><path fill="url(#paint4_linear_40147_20578)" d="M1257.07 1662.93h79.7l-123.49-309.7h-86.01l-128.769 309.7h93.799l75.07-190.92 89.7 190.92z"/><path fill="url(#paint5_linear_40147_20578)" fill-rule="evenodd" d="M2507.56 1353.08H2729v79.85h-168.16v26.57l168.16 30.99v137.27l-35.4 35.43h-221.27v-70.85l168.16-8.86v-26.57l-168.16-22.14v-146.12l35.23-35.57z" clip-rule="evenodd"/><path fill="url(#paint6_linear_40147_20578)" fill-rule="evenodd" d="M2075.8 1352.78h221.27v79.7h-168.16v27.02l168.16 30.99v137.27l-35.4 35.43H2040.4v-70.85l168.16-8.86v-26.57l-168.16-22.14V1388.2l35.4-35.42z" clip-rule="evenodd"/><path fill="url(#paint7_linear_40147_20578)" fill-rule="evenodd" d="M1612.18 1353.23h-250.87l-.07 24.26v242.09l48.35 44.42h216.07l34.86-35.42v-226.44l-48.34-48.91zm-45.08 84.06h-112.28v138.6h112.28v-138.6z" clip-rule="evenodd"/><path fill="url(#paint8_linear_40147_20578)" d="M561.405 1448.99l22.209 36.01 35.954 22.25-35.954 22.24-22.209 36.02-22.209-36.02-35.954-22.24 35.954-22.25 22.209-36.01z"/><path fill="url(#paint9_linear_40147_20578)" d="M1218 1632.08l-14.82-25.63h-128.69v56.48H1218v-30.85z"/><path fill="url(#paint10_linear_40147_20578)" d="M1935.79 1662.93h79.71l-123.5-309.7h-86.01l-128.77 309.7h93.8l75.07-190.92 89.7 190.92z"/><path fill="url(#paint11_linear_40147_20578)" d="M1896.72 1632.08l-14.82-25.63h-128.69v56.48h143.51v-30.85z"/><path fill="url(#paint12_linear_40147_20578)" d="M789.828 137.398L1104.62 0v188.493L1023 234.292v411.344c-85.25 32.51-149.812 69.6-233.172 129.127V137.398z"/><path fill="url(#paint13_linear_40147_20578)" d="M1938.24 140.287L1623.45 2.88803V191.381l81.61 45.799v408.456c83.44 31.595 160.82 76.468 233.18 129.127V140.287z"/><path fill="url(#paint14_linear_40147_20578)" d="M1364.03 300.677l-115.83-92.56v383.487c40.12-4.847 77.3-7.327 118.74-7.327 39.44 0 75.61 2.931 113.86 7.327V208.117l-116.77 92.56z"/><path fill="url(#paint15_linear_40147_20578)" d="M1480.8 837.953c-38.19-4.727-74.37-5.953-113.86-5.953-41.49 0-78.68.741-118.74 5.953v113.03l115.83 135.947 116.77-135.947v-113.03z"/><path fill="url(#paint16_linear_40147_20578)" d="M1364.03 767.969c363.39 0 684.46 155.944 877.78 430.811-164.45-314.797-495.8-548.206-877.78-548.206-381.959 0-713.301 233.395-877.756 548.176C679.599 923.9 1000.66 767.969 1364.03 767.969z"/><defs><linearGradient id="paint0_linear_40147_20578" x1="0" x2="1479.26" y1="0" y2="2426.02" gradientUnits="userSpaceOnUse"><stop stop-color="#DA0BD5"/><stop offset="1" stop-color="#6C49CD"/></linearGradient><linearGradient id="paint1_linear_40147_20578" x1="0" x2="1479.26" y1="0" y2="2426.02" gradientUnits="userSpaceOnUse"><stop stop-color="#DA0BD5"/><stop offset="1" stop-color="#6C49CD"/></linearGradient><linearGradient id="paint2_linear_40147_20578" x1="0" x2="1479.26" y1="0" y2="2426.02" gradientUnits="userSpaceOnUse"><stop stop-color="#DA0BD5"/><stop offset="1" stop-color="#6C49CD"/></linearGradient><linearGradient id="paint3_linear_40147_20578" x1="0" x2="1479.26" y1="0" y2="2426.02" gradientUnits="userSpaceOnUse"><stop stop-color="#DA0BD5"/><stop offset="1" stop-color="#6C49CD"/></linearGradient><linearGradient id="paint4_linear_40147_20578" x1="0" x2="1479.26" y1="0" y2="2426.02" gradientUnits="userSpaceOnUse"><stop stop-color="#DA0BD5"/><stop offset="1" stop-color="#6C49CD"/></linearGradient><linearGradient id="paint5_linear_40147_20578" x1="0" x2="1479.26" y1="0" y2="2426.02" gradientUnits="userSpaceOnUse"><stop stop-color="#DA0BD5"/><stop offset="1" stop-color="#6C49CD"/></linearGradient><linearGradient id="paint6_linear_40147_20578" x1="0" x2="1479.26" y1="0" y2="2426.02" gradientUnits="userSpaceOnUse"><stop stop-color="#DA0BD5"/><stop offset="1" stop-color="#6C49CD"/></linearGradient><linearGradient id="paint7_linear_40147_20578" x1="0" x2="1479.26" y1="0" y2="2426.02" gradientUnits="userSpaceOnUse"><stop stop-color="#DA0BD5"/><stop offset="1" stop-color="#6C49CD"/></linearGradient><linearGradient id="paint8_linear_40147_20578" x1="0" x2="1479.26" y1="0" y2="2426.02" gradientUnits="userSpaceOnUse"><stop stop-color="#DA0BD5"/><stop offset="1" stop-color="#6C49CD"/></linearGradient><linearGradient id="paint9_linear_40147_20578" x1="0" x2="1479.26" y1="0" y2="2426.02" gradientUnits="userSpaceOnUse"><stop stop-color="#DA0BD5"/><stop offset="1" stop-color="#6C49CD"/></linearGradient><linearGradient id="paint10_linear_40147_20578" x1="0" x2="1479.26" y1="0" y2="2426.02" gradientUnits="userSpaceOnUse"><stop stop-color="#DA0BD5"/><stop offset="1" stop-color="#6C49CD"/></linearGradient><linearGradient id="paint11_linear_40147_20578" x1="0" x2="1479.26" y1="0" y2="2426.02" gradientUnits="userSpaceOnUse"><stop stop-color="#DA0BD5"/><stop offset="1" stop-color="#6C49CD"/></linearGradient><linearGradient id="paint12_linear_40147_20578" x1="0" x2="1479.26" y1="0" y2="2426.02" gradientUnits="userSpaceOnUse"><stop stop-color="#DA0BD5"/><stop offset="1" stop-color="#6C49CD"/></linearGradient><linearGradient id="paint13_linear_40147_20578" x1="0" x2="1479.26" y1="0" y2="2426.02" gradientUnits="userSpaceOnUse"><stop stop-color="#DA0BD5"/><stop offset="1" stop-color="#6C49CD"/></linearGradient><linearGradient id="paint14_linear_40147_20578" x1="0" x2="1479.26" y1="0" y2="2426.02" gradientUnits="userSpaceOnUse"><stop stop-color="#DA0BD5"/><stop offset="1" stop-color="#6C49CD"/></linearGradient><linearGradient id="paint15_linear_40147_20578" x1="0" x2="1479.26" y1="0" y2="2426.02" gradientUnits="userSpaceOnUse"><stop stop-color="#DA0BD5"/><stop offset="1" stop-color="#6C49CD"/></linearGradient><linearGradient id="paint16_linear_40147_20578" x1="0" x2="1479.26" y1="0" y2="2426.02" gradientUnits="userSpaceOnUse"><stop stop-color="#DA0BD5"/><stop offset="1" stop-color="#6C49CD"/></linearGradient></defs></svg>