<svg xmlns="http://www.w3.org/2000/svg" role="img" viewBox="-6.15 -6.15 319.54 55.79"><title>Milkomeda logo</title><g data-name="Layer 2"><path fill="#030909" d="M198.88 32a7.75 7.75 0 0 1-3 6.35 9.94 9.94 0 0 1-3.2 1.61 13.5 13.5 0 0 1-7.56 0 9.19 9.19 0 0 1-3.16-1.61 7.68 7.68 0 0 1-2.16-2.67A8.07 8.07 0 0 1 179 32v-6.78a8 8 0 0 1 .82-3.69 8.17 8.17 0 0 1 2.18-2.71 9.69 9.69 0 0 1 3.17-1.65 12.14 12.14 0 0 1 3.79-.57 12.7 12.7 0 0 1 3.92.57 9.46 9.46 0 0 1 3.12 1.67 7.78 7.78 0 0 1 2.11 2.72 8.64 8.64 0 0 1 .76 3.68zm-5-5.91a5 5 0 0 0-.45-2.26 4.34 4.34 0 0 0-1.16-1.46 4.43 4.43 0 0 0-1.6-.82 6 6 0 0 0-3.5 0 4.55 4.55 0 0 0-1.61.82 4.24 4.24 0 0 0-1.16 1.49 5.16 5.16 0 0 0-.45 2.26v5a4.34 4.34 0 0 0 1.47 3.73 5.68 5.68 0 0 0 3.49 1.09 6.13 6.13 0 0 0 1.75-.26 4.66 4.66 0 0 0 1.61-.83 4.24 4.24 0 0 0 1.16-1.49 5 5 0 0 0 .45-2.26zm51.73 4.11v1.18a4.77 4.77 0 0 0 .42 2.11 4 4 0 0 0 1.12 1.42 4.37 4.37 0 0 0 1.61.81 6.89 6.89 0 0 0 1.92.26 11.05 11.05 0 0 0 2.62-.38 7.05 7.05 0 0 0 3.06-1.75c.51.6 1 1.18 1.5 1.73s1 1.13 1.44 1.74a10 10 0 0 1-4.19 2.58 15.46 15.46 0 0 1-4.43.64 13.68 13.68 0 0 1-3.87-.52 9.77 9.77 0 0 1-3.22-1.58 7.47 7.47 0 0 1-2.2-2.69 8.27 8.27 0 0 1-.81-3.79v-6.17a9.72 9.72 0 0 1 .73-3.84 8.23 8.23 0 0 1 2.06-2.89 9.46 9.46 0 0 1 3.07-1.82 10.91 10.91 0 0 1 3.84-.64 11.92 11.92 0 0 1 3.93.61A8.85 8.85 0 0 1 257.3 19a7.84 7.84 0 0 1 2 2.82 9.46 9.46 0 0 1 .7 3.78v4.6zm9.39-4.32a4.37 4.37 0 0 0-1.36-3.57 5.05 5.05 0 0 0-3.27-1.12 5 5 0 0 0-3.31 1.15 4.29 4.29 0 0 0-1.4 3.48v.76H255zm8.78-.88a8.25 8.25 0 0 1 2.22-6.11 8.14 8.14 0 0 1 5.9-2.25 20.59 20.59 0 0 1 2.93.27 16.22 16.22 0 0 1 3.72 1.09V6.56h5V40.2H279l-.45-2.31a19.81 19.81 0 0 1-4 2 9.48 9.48 0 0 1-2.89.54 7.83 7.83 0 0 1-5.7-2c-1.41-1.36-2.1-3.49-2.09-6.37zm5 6.63a4.13 4.13 0 0 0 1 3.22 3.79 3.79 0 0 0 2.56.86 5.42 5.42 0 0 0 1.39-.19 11.7 11.7 0 0 0 1.62-.51 17.76 17.76 0 0 0 1.67-.75 15.56 15.56 0 0 0 1.52-.9V22.72a25.2 25.2 0 0 0-3.08-1 12 12 0 0 0-2.74-.35 4.21 4.21 0 0 0-2.8 1 4.17 4.17 0 0 0-1.15 3.33z"/><circle cx="136.61" cy="10.07" r="2.76" fill="#030909"/><path fill="#030909" d="M73.25 14.5l5.54 9.59-29.17 16.85S31.75 51.73 18.91 29.47L28 24.23s5.9 13.05 16.13 7.12z"/><path fill="#030909" d="M5.54 29.41L0 19.82l29.79-17.2S47.66-8.18 60.5 14.08l-9.09 5.24s-5.9-13-16.13-7.12S5.54 29.41 5.54 29.41z"/><path fill="#030909" d="M40 29.17a7.28 7.28 0 1 0-7.28-7.28A7.28 7.28 0 0 0 40 29.17zm25-17.94a3.8 3.8 0 1 0-3.8-3.8 3.8 3.8 0 0 0 3.8 3.8zm134 20.68a8 8 0 0 1-.83 3.68 7.67 7.67 0 0 1-2.17 2.67 9.84 9.84 0 0 1-3.2 1.61 12.77 12.77 0 0 1-3.74.54 13.29 13.29 0 0 1-3.81-.54 9.41 9.41 0 0 1-3.17-1.61 7.74 7.74 0 0 1-2.15-2.67 8.1 8.1 0 0 1-.81-3.68v-6.79a8 8 0 0 1 .83-3.69 8.15 8.15 0 0 1 2.2-2.71 9.63 9.63 0 0 1 3.17-1.66 12.85 12.85 0 0 1 3.79-.57 13.08 13.08 0 0 1 3.93.58 9.38 9.38 0 0 1 3.17 1.67 7.87 7.87 0 0 1 2.1 2.72 8.33 8.33 0 0 1 .76 3.68zM194 26a5.08 5.08 0 0 0-.46-2.27 4.16 4.16 0 0 0-1.15-1.45 4.66 4.66 0 0 0-1.61-.83 5.93 5.93 0 0 0-3.49 0 4.57 4.57 0 0 0-1.61.83 4.24 4.24 0 0 0-1.16 1.49 5 5 0 0 0-.45 2.26v5a4.36 4.36 0 0 0 1.46 3.73 5.71 5.71 0 0 0 3.5 1.09 6.5 6.5 0 0 0 1.75-.26 4.75 4.75 0 0 0 1.61-.83 4.21 4.21 0 0 0 1.15-1.49A5 5 0 0 0 194 31zm51.75 4.1v1.18a4.92 4.92 0 0 0 .42 2.11 4.21 4.21 0 0 0 1.12 1.42 4.7 4.7 0 0 0 1.61.81 7.34 7.34 0 0 0 1.92.26 11.14 11.14 0 0 0 2.63-.38 7.17 7.17 0 0 0 3.06-1.75c.5.6 1 1.18 1.49 1.72s1 1.13 1.45 1.75a10.11 10.11 0 0 1-4.2 2.58 15.82 15.82 0 0 1-4.43.64 14 14 0 0 1-3.86-.52 9.51 9.51 0 0 1-3.22-1.59 7.46 7.46 0 0 1-2.21-2.68 8.4 8.4 0 0 1-.81-3.79v-6.17a9.52 9.52 0 0 1 .74-3.84 8.2 8.2 0 0 1 2-2.89 9.51 9.51 0 0 1 3.08-1.82 11.15 11.15 0 0 1 3.84-.65 12.13 12.13 0 0 1 3.92.62 8.9 8.9 0 0 1 3.1 1.78 7.84 7.84 0 0 1 2 2.82 9.63 9.63 0 0 1 .71 3.79v4.6zm9.38-4.32a4.37 4.37 0 0 0-1.36-3.58 5.08 5.08 0 0 0-3.27-1.11 5 5 0 0 0-3.3 1.15 4.26 4.26 0 0 0-1.4 3.48v.76h9.33zm8.8-.86a8.25 8.25 0 0 1 2.25-6.13 8 8 0 0 1 5.89-2.25 22.15 22.15 0 0 1 2.94.26 16.31 16.31 0 0 1 3.68 1.06V6.46h5v33.63h-4.54l-.45-2.3a19.81 19.81 0 0 1-4.05 2 9.85 9.85 0 0 1-2.89.54 7.87 7.87 0 0 1-5.71-2q-2.1-2.05-2.09-6.37zm5 6.63a4.12 4.12 0 0 0 1 3.21 3.77 3.77 0 0 0 2.57.87 5.81 5.81 0 0 0 1.38-.19 10.9 10.9 0 0 0 1.62-.51 16.75 16.75 0 0 0 1.67-.76 14.6 14.6 0 0 0 1.53-.9V22.62a23.59 23.59 0 0 0-3.08-1 11.58 11.58 0 0 0-2.75-.35 3.74 3.74 0 0 0-3.94 4.32zM96.81 39.83V7.2h6.77l8.64 20.94 8.63-20.94h6.89v32.63H122V18.05l-7.64 17.34h-4.12l-7.66-16.78v21.22zm42.58 0h-5.26V17.1h5.26zm13.25-4.45c-1.71 0-2.57-.88-2.57-2.65l.05-25.37h-5.3v26.77a6.4 6.4 0 0 0 1.54 4.59 5.51 5.51 0 0 0 4.19 1.62 17.1 17.1 0 0 0 2.46-.21 9.15 9.15 0 0 0 1.41-.31v-4.44zM163.87 29h-.81v10.85h-5.3V7.36H163v17.82h1a2.16 2.16 0 0 0 1.76-.9l5.17-7.17h6l-5.95 8.07a6.11 6.11 0 0 1-.87 1.09 6.56 6.56 0 0 1-.91.81v.1a4.72 4.72 0 0 1 .89.88 7.72 7.72 0 0 1 .89 1.3l6.65 10.48h-6L165.74 30a2.17 2.17 0 0 0-1.87-1zm70.71-10.92a6.74 6.74 0 0 1 1.48 4.68v17.07h-5.17V24.48a4.5 4.5 0 0 0-.61-2.51 2.44 2.44 0 0 0-2-.74 5.35 5.35 0 0 0-2.39.56A25.44 25.44 0 0 0 222.5 24v15.83h-5.08V24.48a3.73 3.73 0 0 0-.59-2.53 2.61 2.61 0 0 0-2.06-.72 5.16 5.16 0 0 0-2.33.56 31.27 31.27 0 0 0-3.37 2.13v15.91h-5.25V17.1h4.3l.35 3.34a18 18 0 0 1 4.12-3 9.35 9.35 0 0 1 4.18-1q4.29 0 5.43 3.81c2.63-2.54 5.33-3.81 8.08-3.81a5.51 5.51 0 0 1 4.3 1.64zm70.88.14c1.29 1.17 1.94 3.23 1.94 6.16v15.45h-4.17l-.57-3.43a12.73 12.73 0 0 1-3.45 2.78 9.43 9.43 0 0 1-4.67 1.16 6.87 6.87 0 0 1-4.87-1.74 6.28 6.28 0 0 1-1.87-4.85v-2.31a5.4 5.4 0 0 1 1.65-4.23 6.71 6.71 0 0 1 4.65-1.48h8v-1.39a5.37 5.37 0 0 0-.37-2 1.88 1.88 0 0 0-1.15-.95 7.74 7.74 0 0 0-2.39-.28q-3.35 0-8.91.47l-.52-4c1.53-.31 3.34-.58 5.43-.79a51.14 51.14 0 0 1 5.21-.33q4.12-.01 6.06 1.76zm-11.73 16.9a2.88 2.88 0 0 0 2.11.68 8.2 8.2 0 0 0 3-.68 12 12 0 0 0 3.24-2v-3.54h-6.78a2.18 2.18 0 0 0-1.76.7 3 3 0 0 0-.5 1.85V33a2.87 2.87 0 0 0 .69 2.12z"/><circle cx="136.76" cy="9.96" r="2.76" fill="#030909"/><path fill="#030909" d="M73.25 14.5l5.54 9.59-29.17 16.85S31.75 51.73 18.91 29.47L28 24.23s5.9 13.05 16.13 7.12z"/><path fill="#030909" d="M5.54 29.41L0 19.82l29.79-17.2S47.66-8.18 60.5 14.08l-9.08 5.24s-5.91-13-16.14-7.12S5.54 29.41 5.54 29.41z"/><path fill="#ff931e" d="M40 29.17a7.28 7.28 0 1 0-7.28-7.28A7.28 7.28 0 0 0 40 29.17z"/><path fill="#030909" d="M14.25 40.54a3.81 3.81 0 1 0-3.8-3.81 3.81 3.81 0 0 0 3.8 3.81zM65 11.23a3.8 3.8 0 1 0-3.8-3.8 3.8 3.8 0 0 0 3.8 3.8z"/></g></svg>