<svg xmlns="http://www.w3.org/2000/svg" role="img" viewBox="-17.99 -17.99 935.48 299.48"><title>Pocket Network logo</title><style>svg {enable-background:new 0 0 900 264.02}</style><style>.st1{fill:#182129}</style><path fill="#1d8aed" d="M170.4 5.71v49.26c0 15.96-12.95 28.9-28.91 28.89h-.42c-8.01-.05-15.21 0-15.21 0-1.37 0-2.87-.15-4.19-.02-9.01.93-16.81 5.02-23.39 12.27-.18.2-.36.41-.54.62-5.28 6.86-8.21 15.71-8.21 25.27v.47c0 6.15 1.25 11.99 3.54 17.22 2.29 5.24 1.12 11.32-3.26 14.99-4.3 3.6-9.41 7.84-12.85 10.59-9.97-11.32-15.82-26.14-15.82-42.34v-.47c0-35.19 28.16-64.53 66.41-64.53h13.82V.37c-3.1-.22-6.21-.37-9.36-.37C59.1 0 0 59.1 0 132.01c0 59.55 39.44 109.87 93.61 126.32v-48.88c0-16.13 13.08-29.21 29.21-29.2h.13c8.01.06 15.21 0 15.21 0 1.37 0 2.87.15 4.19.01 9.01-.93 16.81-5.01 23.39-12.27.19-.2.36-.41.54-.62 5.28-6.86 8.2-15.71 8.2-25.27v-.47c0-4.79-2.01-11.18-4.03-16.37-2.24-5.75-.52-12.36 4.22-16.32 4.09-3.42 8.22-6.78 12.39-10.11 9.97 11.32 15.82 26.14 15.82 42.34v.47c0 35.2-28.16 64.53-66.41 64.53h-13.82v57.48c3.1.22 6.21.37 9.36.37 72.91 0 132.01-59.1 132.01-132.01 0-59.53-39.44-109.85-93.62-126.3z"/><path d="M822.81 117.01v104.17c16.8 0 30.41-13.62 30.41-30.41V86.6c-16.79 0-30.41 13.61-30.41 30.41zm-54.72-43.59h101.24c16.94 0 30.67-13.73 30.67-30.67H798.76c-16.94 0-30.67 13.73-30.67 30.67z" class="st1"/><path d="M408.87 43.16c-3.43 2.74-8.39 6.85-12.76 10.51-5.13 4.29-6.61 11.37-4.05 17.55 2.22 5.36 3.42 11.31 3.42 17.54v.5c0 10.18-3.11 19.6-8.74 26.91-.08.1-.17.2-.25.3-7.08 7.95-15.49 12.42-25.24 13.42-1.41.15-3-.02-4.46-.02 0 0-7.66.06-16.2 0h-.13c-17.18 0-31.11 13.92-31.11 31.1v60.26c17.08 0 30.92-13.84 30.92-30.92v-32.83h14.72c40.74 0 70.73-31.24 70.73-68.73v-.5c0-17.25-6.23-33.03-16.85-45.09z" class="st1"/><path d="M659.03 43.14v152.63c0 14.02-11.42 25.37-25.44 25.37h-4.67V68.57c0-14.02 11.36-25.44 25.38-25.44h4.73v.01z" class="st1"/><path d="M613.35 132.49c.13 12.07-2.14 23.56-6.75 34.39-4.61 10.9-10.9 20.38-18.95 28.49-4.54 4.54-9.47 8.57-14.86 12.07-4.15 2.73-8.63 5.19-13.3 7.27-2.92 1.3-5.97 2.47-9.02 3.37-3.31 1.04-6.68 1.88-10.06 2.53-.13 0-.19-.06-.19-.13l-.13-17.52v-.58c.06-6.04 3.37-11.29 8.24-14.21.58-.32 1.23-.65 1.95-.97 6.42-3.11 12.07-7.14 17-12.07 5.45-5.45 9.73-11.88 12.85-19.21s4.67-15.12 4.61-23.23v.01c.06-8.11-1.49-15.9-4.61-23.23-3.11-7.33-7.4-13.76-12.85-19.21-4.93-4.93-10.58-8.96-17-12.07-.71-.32-1.36-.65-1.95-.97-4.87-2.92-8.18-8.18-8.24-14.21v-.58l.13-17.52c0-.06.06-.13.19-.13 3.37.65 6.75 1.49 10.06 2.53 3.05.91 6.1 2.08 9.02 3.37 4.67 2.08 9.15 4.54 13.3 7.27 5.39 3.5 10.32 7.53 14.86 12.07 8.05 8.11 14.34 17.59 18.95 28.49 4.61 10.84 6.88 22.32 6.75 34.39v-.41zm-177.37 0c-.13 12.07 2.14 23.56 6.75 34.39 4.61 10.9 10.9 20.38 18.95 28.49 4.54 4.54 9.47 8.57 14.86 12.07 4.15 2.73 8.63 5.19 13.3 7.27 2.92 1.3 5.97 2.47 9.02 3.37 3.31 1.04 6.68 1.88 10.06 2.53.13 0 .19-.06.19-.13l.13-17.52v-.58c-.06-6.04-3.37-11.29-8.24-14.21-.58-.32-1.23-.65-1.95-.97-6.42-3.11-12.07-7.14-17-12.07-5.45-5.45-9.73-11.88-12.85-19.21s-4.67-15.12-4.61-23.23v.01c-.06-8.11 1.49-15.9 4.61-23.23 3.11-7.33 7.4-13.76 12.85-19.21 4.93-4.93 10.58-8.96 17-12.07.71-.32 1.36-.65 1.95-.97 4.87-2.92 8.18-8.18 8.24-14.21v-.58l-.13-17.52c0-.06-.07-.13-.19-.13-3.37.65-6.75 1.49-10.06 2.53-3.05.91-6.1 2.08-9.02 3.37-4.67 2.08-9.15 4.54-13.3 7.27-5.39 3.5-10.32 7.53-14.86 12.07-8.05 8.11-14.34 17.59-18.95 28.49-4.61 10.84-6.88 22.32-6.75 34.39v-.41z" class="st1"/><path d="M679.57 139.19c-2.53-4.41-2.73-9.73-.65-14.34l39.49-67.31c4.01-8.77 12.76-14.4 22.4-14.4h17.33l-1.88 4.22-46.84 84.88 61.51 88.91h-21.56c-8.86 0-17.03-4.76-21.41-12.46l-48.39-69.5z" class="st1"/></svg>