<svg xmlns="http://www.w3.org/2000/svg" role="img" viewBox="27.75 26.00 234.00 40.00"><title>Seedstars logo</title><defs><clipPath id="a" clipPathUnits="userSpaceOnUse"><path d="M0 71h215V0H0z"/></clipPath></defs><g clip-path="url(#a)" transform="matrix(1.33333 0 0 -1.33333 0 94.667)"><path fill="#0865ac" fill-opacity="1" fill-rule="nonzero" stroke="none" d="M95.53 40.176c-1.484 0-2.729-.483-3.735-1.451-1.006-.966-1.577-2.228-1.714-3.782h10.928c-.137 1.554-.708 2.816-1.714 3.782-1.006.968-2.261 1.451-3.765 1.451m7.441-6.818h-12.89c.117-1.636.732-2.956 1.845-3.963 1.114-1.007 2.52-1.511 4.219-1.511.957 0 1.836.175 2.637.523.801.35 1.494.863 2.08 1.54l1.172-1.375c-.684-.837-1.538-1.475-2.564-1.914-1.025-.438-2.153-.658-3.383-.658-1.582 0-2.984.344-4.204 1.032-1.221.688-2.173 1.64-2.857 2.856-.683 1.217-1.025 2.592-1.025 4.127 0 1.536.327 2.911.981 4.127.654 1.217 1.553 2.163 2.695 2.842C92.82 41.661 94.104 42 95.53 42c1.426 0 2.705-.339 3.838-1.016 1.133-.679 2.021-1.62 2.666-2.827.644-1.206.967-2.586.967-4.142zM77.53 40.176c-1.484 0-2.729-.483-3.735-1.451-1.006-.966-1.577-2.228-1.714-3.782h10.928c-.137 1.554-.708 2.816-1.714 3.782-1.006.968-2.261 1.451-3.765 1.451m7.441-6.818h-12.89c.117-1.636.732-2.956 1.845-3.963 1.114-1.007 2.52-1.511 4.219-1.511.957 0 1.836.175 2.637.523.801.35 1.494.863 2.08 1.54l1.172-1.375c-.684-.837-1.538-1.475-2.564-1.914-1.025-.438-2.153-.658-3.383-.658-1.582 0-2.984.344-4.204 1.032-1.221.688-2.173 1.64-2.857 2.856-.683 1.217-1.025 2.592-1.025 4.127 0 1.536.327 2.911.981 4.127.654 1.217 1.553 2.163 2.695 2.842C74.82 41.661 76.104 42 77.53 42c1.426 0 2.705-.339 3.838-1.016 1.133-.679 2.021-1.62 2.666-2.827.644-1.206.967-2.586.967-4.142zM186.508 26c-1.278 0-2.499.182-3.666.545-1.167.363-2.08.819-2.739 1.369l.958 1.65c.658-.511 1.487-.928 2.484-1.252.998-.324 2.035-.486 3.112-.486 1.436 0 2.499.221 3.186.662.689.443 1.033 1.066 1.033 1.871 0 .569-.19 1.016-.569 1.34-.379.324-.857.57-1.436.737-.578.166-1.346.328-2.304.485-1.276.235-2.304.477-3.082.722s-1.441.663-1.99 1.252c-.549.589-.822 1.403-.822 2.444 0 1.296.547 2.356 1.645 3.181 1.097.824 2.623 1.237 4.578 1.237 1.018 0 2.035-.133 3.053-.398 1.017-.265 1.854-.614 2.513-1.045l-.927-1.679c-1.297.883-2.843 1.325-4.639 1.325-1.356 0-2.379-.236-3.067-.707-.688-.471-1.032-1.09-1.032-1.855 0-.589.194-1.06.584-1.414.388-.353.872-.613 1.451-.78.578-.167 1.376-.339 2.393-.515 1.257-.237 2.265-.472 3.023-.707.758-.236 1.406-.639 1.945-1.208.538-.57.808-1.355.808-2.356 0-1.355-.574-2.43-1.721-3.225-1.147-.795-2.738-1.193-4.772-1.193m-14.184 12.605c.498 1.041 1.241 1.826 2.228 2.356.989.53 2.21.796 3.666.796v-2.033l-.508.03c-1.656 0-2.952-.501-3.89-1.502-.937-1.001-1.407-2.405-1.407-4.212v-7.892h-2.124v15.491h2.035zm-13.793-10.749c1.098 0 2.09.25 2.978.751.887.501 1.585 1.212 2.094 2.134.509.923.763 1.974.763 3.152 0 1.178-.254 2.229-.763 3.151-.509.923-1.207 1.635-2.094 2.135-.888.501-1.88.751-2.978.751-1.117 0-2.119-.25-3.007-.751-.888-.5-1.586-1.212-2.095-2.135-.508-.922-.762-1.973-.762-3.151 0-1.178.254-2.229.762-3.152.509-.922 1.207-1.633 2.095-2.134.888-.501 1.89-.751 3.007-.751m7.93 13.783V26.148h-2.035v3.062c-.638-1.04-1.481-1.836-2.529-2.386-1.047-.549-2.228-.824-3.546-.824-1.475 0-2.812.334-4.009 1.001-1.197.668-2.134 1.601-2.813 2.798-.678 1.198-1.018 2.563-1.018 4.094 0 1.532.34 2.896 1.018 4.094.679 1.197 1.616 2.125 2.813 2.783 1.197.658 2.534.987 4.009.987 1.278 0 2.43-.261 3.457-.781 1.028-.52 1.87-1.281 2.529-2.282v2.945zM148.238 27.09c-.399-.353-.889-.623-1.467-.81-.578-.186-1.186-.28-1.825-.28-1.477 0-2.613.393-3.411 1.178-.798.786-1.197 1.894-1.197 3.328v14.52h2.125v-3.387h4.757v-1.767h-4.757v-9.248c0-.923.229-1.625.687-2.105.459-.482 1.128-.722 2.005-.722.958 0 1.736.265 2.334.795zM131.074 26c-1.276 0-2.499.182-3.666.545-1.167.363-2.079.819-2.737 1.369l.957 1.65c.658-.511 1.486-.928 2.483-1.252.998-.324 2.035-.486 3.112-.486 1.437 0 2.499.221 3.188.662.687.443 1.032 1.066 1.032 1.871 0 .569-.189 1.016-.569 1.34-.379.324-.858.57-1.436.737-.579.166-1.346.328-2.304.485-1.277.235-2.304.477-3.083.722-.778.245-1.441.663-1.99 1.252-.548.589-.822 1.403-.822 2.444 0 1.296.549 2.356 1.645 3.181 1.098.824 2.624 1.237 4.579 1.237 1.017 0 2.035-.133 3.052-.398 1.018-.265 1.856-.614 2.514-1.045l-.928-1.679c-1.297.883-2.842 1.325-4.638 1.325-1.357 0-2.379-.236-3.067-.707-.688-.471-1.033-1.09-1.033-1.855 0-.589.195-1.06.584-1.414.389-.353.873-.613 1.451-.78.578-.167 1.377-.339 2.394-.515 1.257-.237 2.264-.472 3.022-.707.758-.236 1.406-.639 1.945-1.208.539-.57.808-1.355.808-2.356 0-1.355-.573-2.43-1.721-3.225-1.146-.795-2.737-1.193-4.772-1.193m-17.675 1.856c1.097 0 2.09.25 2.978.751.887.501 1.586 1.212 2.094 2.134.509.923.763 1.974.763 3.152 0 1.178-.254 2.229-.763 3.151-.508.923-1.207 1.635-2.094 2.135-.888.501-1.881.751-2.978.751-1.117 0-2.12-.25-3.008-.751-.887-.5-1.586-1.212-2.094-2.135-.509-.922-.763-1.973-.763-3.151 0-1.178.254-2.229.763-3.152.508-.922 1.207-1.633 2.094-2.134.888-.501 1.891-.751 3.008-.751M121.329 48V26.148h-2.035v3.062c-.638-1.04-1.481-1.836-2.529-2.386-1.047-.549-2.229-.824-3.546-.824-1.476 0-2.812.334-4.009 1.001-1.198.668-2.135 1.601-2.813 2.798-.679 1.198-1.017 2.563-1.017 4.094 0 1.532.338 2.896 1.017 4.094.678 1.197 1.615 2.125 2.813 2.783 1.197.658 2.533.987 4.009.987 1.277 0 2.429-.261 3.457-.781 1.027-.52 1.87-1.281 2.528-2.282V48zM61.405 26c-1.277 0-2.499.182-3.667.545-1.166.363-2.079.819-2.737 1.369l.957 1.65c.658-.511 1.487-.928 2.484-1.252.997-.324 2.035-.486 3.112-.486 1.436 0 2.498.221 3.187.662.688.443 1.032 1.066 1.032 1.871 0 .569-.189 1.016-.568 1.34-.38.324-.858.57-1.437.737-.578.166-1.346.328-2.304.485-1.277.235-2.304.477-3.082.722s-1.441.663-1.99 1.252c-.549.589-.823 1.403-.823 2.444 0 1.296.549 2.356 1.646 3.181 1.097.824 2.623 1.237 4.578 1.237 1.018 0 2.035-.133 3.052-.398 1.018-.265 1.856-.614 2.514-1.045l-.928-1.679c-1.296.883-2.842 1.325-4.638 1.325-1.356 0-2.379-.236-3.067-.707-.688-.471-1.032-1.09-1.032-1.855 0-.589.194-1.06.584-1.414.388-.353.872-.613 1.451-.78.578-.167 1.376-.339 2.393-.515 1.257-.237 2.265-.472 3.023-.707.758-.236 1.406-.639 1.945-1.208.539-.57.808-1.355.808-2.356 0-1.355-.574-2.43-1.721-3.225C65.03 26.398 63.439 26 61.405 26"/><path fill="#054b81" fill-opacity="1" fill-rule="nonzero" stroke="none" d="M33.46 46.3c-.273 0-.492-.225-.483-.501.058-1.661.283-4.392.676-8.193-1.58.912-4.074 1.985-7.483 3.217-.255.093-.54-.047-.623-.309l-1.274-3.987c-.085-.268.066-.554.334-.624 2.517-.67 5.165-1.279 7.945-1.824-1.101-1.027-2.898-3.092-5.391-6.195-.176-.218-.135-.544.09-.707l3.262-2.384c.214-.156.513-.111.668.105 1.22 1.703 2.618 4.076 4.195 7.121 1.687-2.948 3.167-5.321 4.438-7.117.153-.219.452-.266.668-.111l3.32 2.385c.228.163.269.493.092.713-2.389 2.946-4.253 5.01-5.592 6.19 2.652.309 5.355.909 8.111 1.803.254.082.396.362.313.62l-1.284 4.019c-.083.259-.362.401-.617.314-2.863-.982-5.417-2.046-7.66-3.194.426 3.22.685 5.938.775 8.156.011.276-.209.503-.483.503z"/></g></svg>