<svg xmlns="http://www.w3.org/2000/svg" role="img" viewBox="-21.58 -20.58 1122.16 331.16"><title>Shinkai logo</title><circle cx="144.457" cy="145.553" r="144.077" fill="#FF7E7F"/><path fill="#fff" fill-rule="evenodd" d="M232.533 122.814a68.15377 68.15377 0 0 1 15.08 16.758c1.519 2.389.562 5.507-1.933 6.842l-18.464 9.88c-2.496 1.335-5.575.368-7.242-1.919-1.358-1.862-2.888-3.595-4.571-5.174h-.001a36.94351 36.94351 0 0 0-12.751-7.813c-.98-.354-1.974-.665-2.978-.934-3.885-1.039-6.495 3.261-4.988 6.99 1.369 3.387 2.416 6.912 3.117 10.529 2.001 10.314 1.121 20.981-2.545 30.827-3.665 9.847-9.974 18.493-18.232 24.988-6.912 5.436-14.967 9.189-23.526 10.996-2.769.585-5.326-1.445-5.661-4.256l-2.498-20.997c-.335-2.81 1.701-5.312 4.39-6.195 2.843-.934 5.514-2.36 7.887-4.226 3.722-2.928 6.566-6.825 8.218-11.263 1.652-4.438 2.049-9.246 1.147-13.895-.814-4.196-2.658-8.116-5.356-11.412-.188-.23-.401-.438-.629-.628l-19.312-16.065c-2.177-1.811-2.487-5.057-.518-7.091 3.965-4.097 8.428-7.679 13.285-10.664v-.001c7.915-4.863 16.74-8.057 25.935-9.385 9.195-1.327 18.563-.761 27.531 1.665s17.344 6.661 24.615 12.443z" clip-rule="evenodd"/><path fill="#fff" fill-rule="evenodd" d="M57.3054 171.938a68.12054 68.12054 0 0 1-15.4559-16.411c-1.5729-2.354-.687-5.493 1.7778-6.884l18.2354-10.296c2.4648-1.391 5.5646-.494 7.2837 1.755a36.90142 36.90142 0 0 0 4.6872 5.068H73.8339a36.93234 36.93234 0 0 0 12.9249 7.523c.9884.331 1.9888.62 2.9982.866 3.9079.951 6.4195-3.407 4.8284-7.101-1.4451-3.356-2.5714-6.856-3.355-10.456-2.2343-10.266-1.5958-20.95 1.8456-30.877 3.4414-9.9274 9.552-18.7139 17.662-25.3945 6.787-5.5913 14.754-9.5264 23.27-11.5273 2.755-.6474 5.358 1.3247 5.756 4.1271l2.974 20.9348c.398 2.8024-1.581 5.3492-4.249 6.2933-2.821.9976-5.459 2.4846-7.789 4.4036-3.655 3.011-6.409 6.972-7.961 11.446-1.551 4.475-1.839 9.29-.831 13.917.909 4.177 2.841 8.055 5.613 11.289.194.225.41.429.643.614l19.672 15.623c2.216 1.76 2.6 4.999.678 7.077-3.872 4.185-8.253 7.868-13.04 10.962a68.1428 68.1428 0 0 1-25.716 9.971c-9.162 1.536-18.5415 1.182-27.5618-1.041-9.0202-2.222-17.4907-6.265-24.8908-11.882z" clip-rule="evenodd"/><path d="M355.253 114.733c0-28.5968 24.116-48.8708 58.048-48.8708s55.273 18.7801 55.273 48.6578h-34.359c0-11.098-8.323-17.9267-21.341-17.9267-14.085 0-23.048 6.4027-23.048 16.8597 0 9.603 4.908 14.298 16.006 16.646l23.688 4.908c28.17 5.762 41.615 19.207 41.615 44.176 0 30.518-23.902 50.365-60.182 50.365-35.212 0-58.047-18.994-58.047-48.658h34.359c0 11.524 8.536 17.927 23.902 17.927 15.579 0 25.396-6.189 25.396-16.219 0-8.75-4.055-13.232-14.512-15.366l-24.116-4.908c-28.17-5.762-42.682-21.768-42.682-47.591zm167.607 112.04h-32.865V65.8622h33.079v65.3038c6.615-9.177 18.78-14.512 32.651-14.512 25.396 0 40.121 16.219 40.121 44.176v65.943h-32.865v-58.047c0-13.445-7.469-22.195-18.78-22.195-13.018 0-21.341 8.537-21.341 21.768v58.474zm112.776-123.351c-10.457 0-18.78-8.3226-18.78-18.7797 0-10.4571 8.323-18.5666 18.78-18.5666 10.243 0 18.566 8.1095 18.566 18.5666s-8.323 18.7797-18.566 18.7797zm-16.219 123.351V120.068h32.865v106.705h-32.865zm90.385 0h-32.865V120.068h30.945l2.134 11.098c6.616-9.177 18.78-14.512 32.652-14.512 25.395 0 40.121 16.219 40.121 44.176v65.943h-32.865v-58.047c0-13.445-7.47-22.195-18.781-22.195-13.018 0-21.341 8.537-21.341 21.768v58.474zm129.422 0h-32.865V65.8622h32.865v92.6198l34.572-38.414h41.189l-40.122 42.256 38.841 64.449h-37.987l-23.902-39.907-12.591 13.231v26.676zm117.319 2.775c-22.622 0-36.707-13.232-36.707-34.146 0-19.634 13.872-31.798 39.481-33.719l29.878-2.347v-1.707c0-10.458-6.403-16.006-18.14-16.006-13.872 0-21.341 5.335-21.341 14.939h-27.317c0-24.116 19.847-39.908 50.365-39.908 30.948 0 48.448 17.286 48.448 47.804v62.315h-29.028l-2.134-14.085c-3.414 9.817-17.499 16.86-33.505 16.86zm11.524-24.329c12.591 0 21.341-6.189 21.341-18.353v-5.762l-16.646 1.494c-14.298 1.28-19.42 4.481-19.42 11.31 0 7.683 4.695 11.311 14.725 11.311zM1061 103.422c-10.46 0-18.78-8.3226-18.78-18.7797 0-10.4571 8.32-18.5666 18.78-18.5666 10.24 0 18.56 8.1095 18.56 18.5666s-8.32 18.7797-18.56 18.7797zm-16.22 123.351V120.068h32.86v106.705h-32.86z"/></svg>