<svg xmlns="http://www.w3.org/2000/svg" role="img" viewBox="8.66 -19.34 1005.68 928.68"><title>Statur logo</title><path fill="url(#paint0_linear_4238_691)" d="M476.382 423.832l-18.015-18.008c-77.712 44.402-172.509 31.026-236.428-32.868l-23.096-23.086c-20.609-.25-42.345-1.627-59.841-8.959l57.498 57.474c78.105 78.075 198.198 89.269 288.433 33.565-2.951-2.628-5.76-5.329-8.551-8.118z"/><path fill="url(#paint1_linear_4238_691)" d="M323.712 271.223c-6.262-6.259-14.24-10.676-21.325-15.611-39.589 21.459-85.727 29.112-129.18 21.602-32.971-5.705-65.047-19.421-92.2212-41.899 27.1742-22.478 58.7672-36.355 91.7382-42.059 43.453-7.529 88.875-.43 128.465 21.029 11.038 5.955 22.809 11.785 32.684 20.029 4.83 3.916 10.752 6.956 15.278 11.48l12.272 12.268 25.439 25.428 76.782 76.752 24.885 24.874.554.555 12.72 12.714c4.114 4.113 7.12 9.353 11.449 13.179 9.463 8.03 17.424 14.628 27.711 21.03 90.217 55.704 208.414 43.866 286.519-34.209l57.498-57.474c-17.514 7.332-39.232 8.691-59.841 8.959l-23.096 23.086c-63.919 63.894-161.113 74.874-236.428 32.868-10.537-5.847-19.232-11.284-30.18-20.708l24.884-24.874 76.783-76.752c-.305.304-3.811-7.993-8.087-12.267l-15.259-15.254-78.858 78.844L512 357.702l-22.899-22.889-76.335-76.304-27.979-27.969 22.898-22.889 78.876-78.844-25.439-25.428-79.341 79.308-25.439 25.429c-5.796-4.381-17.961-13.895-28.14-20.189-36.083-22.228-76.299-33.136-117.427-33.959-18.981-.358-39.017.572-57.587 4.792-41.629 9.353-82.0593 29.256-114.4395 61.605L28.5693 230.54l15.2599 15.254c32.3622 32.349 71.2188 53.844 112.8478 63.197 18.569 4.22 37.013 6.741 55.994 6.384 41.11-.805 81.881-12.25 119.324-35.855l-8.283-8.297z"/><path fill="url(#paint2_linear_4238_691)" d="M216.857 93.2034C276 34.0841 363.606 20.3682 436.041 51.9129c38.373 19.2772 56.96 32.4745 93.347 68.8291l10.609 10.605 76.335 76.304 25.439 25.429 12.719 12.714c4.276 4.274 7.371 9.621 11.915 13.537 9.356 7.94 18.605 15.79 28.784 22.103 36.083 22.228 76.621 34.102 117.732 34.906 18.98.358 36.637-2.646 55.207-6.866 41.629-9.353 79.68-31.331 112.042-63.68l15.26-15.254-10.179-10.175c-32.362-32.349-73.133-51.93-114.744-61.301-18.569-4.22-38.284-5.472-57.264-5.114-41.111.805-81.022 11.409-117.106 33.637-10.179 6.312-22.666 16.13-28.462 20.511l-25.439-25.429-76.8-76.751-24.884-24.8746c5.849-4.3276 19.642-14.8603 30.179-20.7079 75.315-42.0237 172.51-31.026 236.411 32.8679l23.096 23.0866c15.528 5.347 37.246 6.706 59.84 8.959l-57.497-57.4923C754.475-10.3181 633.112-20.2249 542.895 35.461c-10.286 6.4019-20.788 14.2702-30.251 22.2994-9.464-8.0292-20.931-16.2193-31.2-22.6213-90.235-55.6859-211.92-45.4572-290.026 32.6176l-57.497 57.4743c22.595-2.235 44.331-3.612 59.841-8.959l23.095-23.0686zM851.419 193.399c32.97 5.704 64.724 19.742 91.899 42.22-27.175 22.478-58.929 36.516-91.899 42.22-43.454 7.529-88.947.501-128.537-20.958-11.038-5.955-21.575-13.018-31.45-21.262 9.875-8.244 20.412-15.307 31.45-21.262 39.59-21.459 85.065-28.487 128.537-20.958z"/><path d="M108.82 610.398V774.42l21.85 1.171v31.243H39.438v-29.68l12.6498-1.172c7.411-.781 11.1166-4.947 11.1166-12.497V654.918c0-4.426-.7667-7.42-2.3-8.982-1.2778-1.562-3.7055-2.343-7.2833-2.343l-13.4165-.782v-32.413H108.82zm-48.2989-33.586c-5.3666-5.467-8.0499-12.367-8.0499-20.698s2.6833-15.231 8.0499-20.698c5.3666-5.728 12.3942-8.592 21.083-8.592 8.6888 0 15.7165 2.864 21.0829 8.592 5.622 5.467 8.433 12.367 8.433 20.698s-2.811 15.231-8.433 20.698c-5.3664 5.207-12.3941 7.811-21.0829 7.811-8.6888 0-15.7164-2.604-21.083-7.811zm264.4579 41.396v145.277c0 4.166.639 7.03 1.916 8.592 1.534 1.562 4.089 2.473 7.667 2.733l12.267.781v31.243h-60.95v-22.651l-1.15-.39c-12.777 18.745-30.283 28.118-52.516 28.118-26.066 0-45.36-8.462-57.882-25.385-12.522-16.923-18.783-40.094-18.783-69.514 0-35.408 8.433-63.005 25.299-82.792 16.867-19.787 42.166-29.68 75.899-29.68 21.722 0 44.466 4.556 68.233 13.668zM280.513 744.74V643.593c-7.156-3.385-16.995-5.077-29.517-5.077-17.122 0-29.516 7.029-37.182 21.088-7.667 14.059-11.5 32.675-11.5 55.846 0 42.177 13.288 63.266 39.866 63.266 11.244 0 20.444-3.385 27.6-10.154 7.155-7.03 10.733-14.97 10.733-23.822zm260.427 61.703c-2.3 28.899-10.478 50.118-24.533 63.657-14.056 13.538-36.033 20.307-65.933 20.307-29.9 0-53.283-4.296-70.149-12.887v-54.284l36.416-3.124v18.745c0 7.03 3.195 11.716 9.583 14.059 6.389 2.604 15.206 3.906 26.45 3.906 16.355 0 27.855-5.077 34.5-15.231 6.644-9.893 9.966-23.952 9.966-42.177v-21.479c-12.266 14.579-29.261 21.869-50.983 21.869-13.288 0-25.044-2.603-35.266-7.81-9.966-5.207-17.761-12.237-23.383-21.089-10.989-17.704-16.483-38.532-16.483-62.485 0-34.106 9.072-59.881 27.216-77.324 18.145-17.704 42.294-26.556 72.449-26.556 25.045 0 48.683 4.816 70.916 14.449v144.887c0 22.13-.255 36.319-.766 42.567zm-43.7-79.277v-83.964c-8.944-3.124-19.166-4.686-30.666-4.686-15.589 0-27.6 5.858-36.033 17.573-8.178 11.716-12.267 27.598-12.267 47.645 0 41.136 13.289 61.704 39.867 61.704 10.988 0 20.188-3.385 27.599-10.154 7.667-7.03 11.5-16.402 11.5-28.118zm166.05 51.159c27.855 0 41.783-22.911 41.783-68.733 0-23.171-3.194-40.745-9.583-52.721-6.133-11.977-16.611-17.965-31.433-17.965-14.567 0-25.3 5.728-32.2 17.183-6.9 11.456-10.35 27.077-10.35 46.864 0 36.71 6.645 59.751 19.933 69.124 5.878 4.165 13.161 6.248 21.85 6.248zm-88.165-69.905c0-19.266 2.811-35.928 8.433-49.987 5.622-14.32 13.161-25.255 22.616-32.805 18.144-14.059 38.205-21.088 60.183-21.088 15.333 0 28.238 2.603 38.716 7.81 10.733 4.947 19.039 10.805 24.916 17.574 6.134 6.509 11.245 16.142 15.334 28.899 4.344 12.497 6.516 27.337 6.516 44.521 0 35.928-8.561 63.135-25.683 81.62-17.122 18.485-39.099 27.728-65.932 27.728-26.578 0-47.405-8.722-62.483-26.166-15.078-17.704-22.616-43.739-22.616-78.106zm200.22-66.78v-31.242h64.782v25.384c6.645-9.633 15.461-17.183 26.45-22.651 10.989-5.728 22.872-8.591 35.65-8.591 19.422 0 34.371 5.727 44.849 17.183 10.733 11.195 16.1 28.118 16.1 50.769V774.42l21.85 1.171v31.243h-91.233v-29.68l12.65-1.172c3.834-.521 6.645-1.562 8.434-3.124 1.788-1.823 2.683-5.077 2.683-9.763v-80.45c0-14.319-2.172-24.863-6.517-31.632-4.344-7.03-12.65-10.545-24.916-10.545-12.011 0-21.594 3.906-28.75 11.716-7.155 7.811-10.733 17.053-10.733 27.728v94.508l21.85 1.171v31.243h-91.232v-29.68l12.649-1.172c3.834-.521 6.645-1.562 8.434-3.124 1.788-1.823 2.683-5.077 2.683-9.763V654.918c0-7.811-3.195-11.846-9.583-12.107l-16.1-1.171z"/><defs><linearGradient id="paint0_linear_4238_691" x1="136.25" x2="502.993" y1="136.058" y2="659.072" gradientUnits="userSpaceOnUse"><stop stop-color="#22A7F0"/><stop offset="1" stop-color="#9B59B6"/></linearGradient><linearGradient id="paint1_linear_4238_691" x1="280.68" x2="647.424" y1="34.782" y2="557.796" gradientUnits="userSpaceOnUse"><stop stop-color="#22A7F0"/><stop offset="1" stop-color="#9B59B6"/></linearGradient><linearGradient id="paint2_linear_4238_691" x1="403.7" x2="770.444" y1="-51.481" y2="471.533" gradientUnits="userSpaceOnUse"><stop stop-color="#22A7F0"/><stop offset="1" stop-color="#9B59B6"/></linearGradient></defs></svg>