<svg xmlns="http://www.w3.org/2000/svg" role="img" viewBox="-3.22 -3.22 167.18 29.93"><title>VacuumLabs logo</title><g transform="translate(-157 -32) translate(157 32)" fill="none" fill-rule="evenodd" stroke="none" stroke-width="1"><path fill="#20323F" d="M13.53743 18.08987l-3.7202-6.492c-.5977 1.21289-1.05423 2.97377-1.06967 5.5831l3.2028 5.58979c.17423.304.49668.49155.84514.49155h1.48429c.34847 0 .67002-.18667.84426-.49067 1.6841-2.93955 4.44977-7.76622 7.00284-12.22133.13188-.23022-.03353-.51778-.2973-.51778h-3.2597c-.25716 0-.49491.13823-.62327.36311l-4.4092 7.69423z"/><path fill="#E72076" d="M28.17197 0C20.85463 12.76978 7.62176 0 7.62176 15.21644L.2012 2.26622C-.05772 1.81467-.07625 1.24.2012.75556.47865.2711.98238 0 1.49979 0h26.67218z"/><path fill="#20323F" d="M32.27624 19.58684c.70046-.656 1.04407-1.62133 1.04407-2.87155 0-1.24978-.35596-2.22756-1.05598-2.93333-.70046-.70534-1.5725-1.06445-2.59188-1.06445-1.00746 0-1.85525.34667-2.53057 1.03956-.67532.69333-1.01937 1.65866-1.01937 2.884 0 1.23733.34405 2.2031 1.03172 2.896.68767.69333 1.54737 1.04 2.56718 1.04 1.00746 0 1.8548-.33423 2.55483-.99023zm4.09028-9.5551c.3198 0 .47903.16088.47903.48266v12.26533c0 .32178-.15924.48267-.47903.48267H33.9224c-.23334 0-.39302-.16089-.47903-.48267l-.19673-1.62133c-1.20375 1.60889-2.70216 2.41333-4.4833 2.41333-1.69513 0-3.14457-.6311-4.33597-1.88133-1.19184-1.24978-1.7935-2.93289-1.7935-5.04933 0-2.11645.60166-3.79956 1.80585-5.06223 1.1914-1.24977 2.61614-1.88088 4.24996-1.88088 1.75644 0 3.2919.75466 4.58166 2.26488l.17203-1.44844c.04896-.32178.20864-.48267.47903-.48267h2.4441z"/><path fill="#20323F" d="M41.23384 21.54213c-1.26507-1.33689-1.89142-2.98266-1.89142-4.92577 0-1.91823.63826-3.552 1.90377-4.8889 1.26506-1.33644 2.87418-2.00488 4.85205-2.00488 1.06878 0 2.0511.21022 2.94785.6311.89674.43334 1.60911.97779 2.1371 1.65868.20908.26.17203.48266-.09836.68044l-1.63338 1.23778c-.23334.16089-.45433.136-.65105-.07422-.74899-.75512-1.62147-1.13867-2.59188-1.13867-1.04408 0-1.87907.37111-2.53013 1.12622-.6515.75511-.97041 1.68311-.97041 2.79689 0 1.12667.31891 2.05467.97041 2.79733.65106.74267 1.4984 1.11378 2.55483 1.11378.6387 0 1.13008-.17289 1.5478-.33378.24525-.0991.56505-.32222.67576-.42089.06087-.03733.14689-.11155.2576-.21022l.18438-.14889c.23334-.18577.46712-.21066.67576-.04933l1.60867 1.16311c.23334.18578.28275.40845.12307.656-.50373.68089-1.22845 1.23778-2.17416 1.67067-.94571.44578-1.96508.66889-3.05856.66889-1.96552 0-3.5742-.6689-4.8397-2.00534"/><path fill="#20323F" d="M65.90137 10.03196c.31936 0 .47903.16088.47903.48266v12.26534c0 .32177-.15967.48266-.47903.48266h-2.54291c-.2704 0-.43007-.16089-.47903-.48266l-.17203-1.28712c-1.24036 1.38578-2.77582 2.07912-4.58122 2.07912-3.15737 0-4.85206-2.228-4.85206-6.3369v-6.72044c0-.32178.15924-.48266.4786-.48266h2.7392c.3198 0 .47903.16088.47903.48266v6.72045c0 1.89377.98276 3.00755 2.66554 3.00755 1.73218 0 2.93593-1.22533 3.04665-3.79955v-5.92845c0-.32178.15968-.48266.47903-.48266h2.7392z"/><path fill="#20323F" d="M82.09356 10.03196c.31936 0 .4786.16088.4786.48266v12.26534c0 .32177-.15924.48266-.4786.48266h-2.54291c-.26996 0-.43007-.16089-.47904-.48266l-.17202-1.28712c-1.2408 1.38578-2.77626 2.07912-4.58167 2.07912-3.15692 0-4.8516-2.228-4.8516-6.3369v-6.72044c0-.32178.15923-.48266.47858-.48266h2.7392c.3198 0 .47904.16088.47904.48266v6.72045c0 1.89377.98276 3.00755 2.66554 3.00755 1.73174 0 2.93593-1.22533 3.0462-3.79955v-5.92845c0-.32178.15968-.48266.47948-.48266h2.7392z"/><path fill="#20323F" d="M107.01892 11.40564c.92145 1.12623 1.37578 2.67334 1.37578 4.6289v6.74533c0 .32177-.15968.48266-.47903.48266h-2.7392c-.31936 0-.47904-.16089-.47904-.48266v-6.74534c0-1.89333-.96997-2.98266-2.6404-2.98266-1.78158 0-2.97298 1.20044-3.07135 3.77466v5.95334c0 .32177-.15923.48266-.47903.48266h-2.66554c-.31935 0-.47903-.16089-.47903-.48266v-6.74534c0-1.89333-.98232-2.98266-2.66554-2.98266-1.7807 0-2.97255 1.20044-3.07091 3.77466v5.95334c0 .32177-.15968.48266-.47903.48266h-2.7392c-.31936 0-.4786-.16089-.4786-.48266V10.51453c0-.32177.15924-.48266.4786-.48266H88.975c.23334 0 .39258.16089.47903.48266l.14733 1.26223c1.1914-1.37378 2.61614-2.05423 4.29936-2.05423 2.0511 0 3.51289.91556 4.38493 2.74756 1.2408-1.832 2.88698-2.74756 4.95042-2.74756 1.59677 0 2.86183.5569 3.78284 1.68311"/><path fill="#20323F" d="M111.96144 23.2624c-.22054 0-.3317-.11111-.31935-.33422V5.19262c0-.22266.11072-.33422.31936-.33422h1.79305c.22143 0 .3317.11156.3198.33422v17.73556c0 .2231-.11028.33422-.3198.33422h-1.79305z"/><path fill="#20323F" d="M127.1939 20.30449c.87248-.81689 1.31402-1.93067 1.31402-3.35422 0-1.43556-.44154-2.62356-1.33872-3.56445-.89675-.928-2.00214-1.39866-3.31616-1.39866-1.26507 0-2.32193.44577-3.16928 1.32444-.84778.89111-1.27741 2.04222-1.27741 3.46533 0 1.42356.42963 2.56223 1.2902 3.4409.85926.87866 1.94039 1.32444 3.25441 1.32444 1.27786 0 2.35854-.40845 3.24294-1.23778zm3.30425-10.04978c.22099 0 .3317.11156.3198.33422v12.33911c0 .22312-.11116.33423-.3198.33423h-1.41283c-.15924 0-.26995-.11111-.33127-.33423l-.17247-1.89333c-1.28932 1.69556-3.00915 2.53733-5.13391 2.53733-1.83055 0-3.35365-.6311-4.5821-1.89377-1.24037-1.26267-1.85481-2.896-1.85481-4.90134 0-2.02933.61444-3.67555 1.8548-4.95066 1.22846-1.26223 2.7273-1.89334 4.50845-1.89334 2.1124 0 3.99192.97778 5.20757 2.61156l.17247-1.95556c.03661-.22266.14689-.33422.33127-.33422h1.41283z"/><path fill="#20323F" d="M144.82353 20.21791c.8597-.87867 1.28976-2.01733 1.28976-3.44089 0-1.4231-.43006-2.57422-1.27785-3.46533-.85926-.87867-1.91524-1.32445-3.18118-1.32445-1.31403 0-2.4075.47067-3.30425 1.39867-.89631.94089-1.35064 2.12889-1.35064 3.56445 0 1.42355.44198 2.53733 1.32638 3.35422.87204.82933 1.95317 1.23733 3.23058 1.23733 1.31403 0 2.39471-.44533 3.2672-1.324m1.8301-8.39155c1.22846 1.2751 1.84246 2.92088 1.84246 4.95066 0 2.01778-.614 3.65156-1.84245 4.90134-1.24036 1.26222-2.76347 1.89333-4.59402 1.89333-2.21077 0-3.95442-.90311-5.23228-2.69778l-.19628 2.05422c-.04985.22311-.16056.33423-.33215.33423h-1.41239c-.22099 0-.3317-.11112-.31935-.33423V5.19258c0-.22267.11027-.33422.31935-.33422h1.79306c.22143 0 .3317.11155.3198.33422v7.25289c1.32637-1.67111 3.03385-2.51245 5.13435-2.51245 1.7807 0 3.27954.63111 4.5199 1.89334"/><path fill="#20323F" d="M152.6633 23.00262c-.89674-.37155-1.58441-.85378-2.0511-1.46044-.14732-.1489-.16011-.30934-.0247-.48267l.65106-.99022c.13498-.21067.29421-.22267.50374-.04933.82264 1.01466 2.12475 1.52222 3.9306 1.52222 1.95273 0 2.92314-.6809 2.91123-2.02978 0-.68089-.20952-1.08933-.86013-1.39867-.3317-.14844-.63871-.25955-.92145-.34622-.2823-.07467-.73663-.17333-1.36299-.30978-.72516-.14844-1.30211-.29689-1.75644-.43289-.45477-.13644-.92145-.33466-1.42518-.60622-1.00703-.54489-1.5231-1.41155-1.5231-2.63689 0-1.17555.45432-2.116 1.37577-2.80889.9091-.69333 2.11285-1.04 3.61125-1.04 1.73175 0 3.26764.54445 4.63107 1.64623.20864.1111.23334.27244.07366.48266l-.6634.9409c-.11072.18533-.2704.22221-.46713.09866-.94527-.74267-2.0877-1.11422-3.45113-1.11422-1.87951 0-2.81287.56977-2.81287 1.72044 0 .384.14733.70578.44198.96578.28274.26.60165.44533.9457.54444.34406.11156.82353.22267 1.42519.33423.11027.01244.20864.03688.28274.06177 1.55972.32178 2.73877.75511 3.5495 1.29956.79838.55689 1.20375 1.41111 1.20375 2.57422 0 1.23778-.45433 2.228-1.35152 2.97067-.90821.74266-2.17372 1.11378-3.80754 1.11378-1.14244 0-2.16225-.18578-3.05856-.56934"/></g></svg>