<svg xmlns="http://www.w3.org/2000/svg" role="img" viewBox="-8.91 -8.91 463.32 337.32"><title>Wrath of the Jungle logo</title><g fill="#fff" opacity=".4"><path d="M127.102 260.983C125.559 261.001 124.007 260.975 122.481 261.176 122.226 261.159 121.973 261.127 121.717 261.142 118.485 261.124 115.253 261.048 112.022 261.113 111.085 261.136 110.151 261.165 109.218 261.247 108.559 261.373 107.924 261.618 107.344 261.954 106.815 261.381 106.02 261.08 105.245 261.135 100.274 261.104 95.3014 261.046 90.3311 261.161 89.772 261.185 89.1849 261.336 88.6444 261.532 88.4009 261.621 88.1645 261.729 87.9333 261.846 87.5568 261.653 87.1904 261.441 86.8082 261.259 81.0776 261.222 75.346 261.164 69.6159 261.278 68.9148 261.358 68.1956 261.531 67.5378 261.837 67.3602 261.921 67.2161 261.752 67.0568 261.701 66.4236 261.415 65.7669 261.24 65.0744 261.136 63.983 260.97 62.881 261.037 61.7772 261.021 52.9313 261.01 44.0855 261.032 35.2397 261.047 34.1659 261.053 33.0907 261.045 32.0177 261.066 30.2011 261.357 28.3658 261.865 26.8061 262.88 25.8205 263.579 25.0329 264.525 24.3968 265.545 24.0155 266.172 23.6796 266.818 23.4192 267.506 23.2757 267.927 23.204 268.34 23.1622 268.789 23.0894 269.654 23.1382 270.535 23.125 271.408 23.125 275.639 23.0555 279.871 23.0567 284.102 23.3032 286.307 24.6733 288.32 26.5419 289.476 28.1678 290.527 29.9193 291.373 31.611 292.299 32.3199 292.667 33.0289 293.033 33.7377 293.401 33.7492 298.348 33.7183 303.295 33.8164 308.241 33.8789 309.23 34.1768 310.186 34.5077 311.114 35.0059 312.458 35.6447 313.744 36.2659 315.035 36.7825 316.044 37.473 316.994 38.4198 317.639 39.6598 318.544 41.1008 319.124 42.5525 319.594 43.6578 319.925 44.8015 320.005 45.9482 319.976 47.2807 319.965 48.6132 319.99 49.9458 319.993 52.5787 320.008 55.2149 320.011 57.8435 319.844 59.9753 319.546 61.9528 318.438 63.3999 316.854 64.5106 317.959 65.8519 318.837 67.3162 319.369 68.3528 319.751 69.4543 319.952 70.5591 319.956 71.8194 319.983 73.08 319.955 74.3403 319.975 79.9904 319.99 85.642 320.043 91.2908 319.894 92.6743 319.805 94.0622 319.446 95.2852 318.811 95.8208 318.534 96.3231 318.203 96.7964 317.82 97.719 318.514 98.8151 318.993 99.9382 319.288 102.118 319.875 104.387 319.722 106.622 319.722 110.057 319.729 113.493 319.725 116.929 319.724 116.999 319.6 117.121 319.434 117.28 319.476 117.885 319.788 118.563 319.903 119.222 319.929 120.098 319.943 120.975 319.908 121.851 319.91 125.756 319.881 129.66 319.858 133.564 319.803 134.339 319.71 134.995 319.221 135.552 318.72 135.636 318.663 135.723 318.834 135.808 318.871 136.491 319.423 137.349 319.731 138.227 319.714 139.378 319.74 140.53 319.7 141.681 319.721 154.509 319.722 167.337 319.723 180.165 319.724 180.865 319.357 181.56 318.981 182.263 318.621 182.863 318.987 183.488 319.324 184.188 319.495 184.813 319.641 185.461 319.595 186.098 319.619 187.825 319.633 189.552 319.612 191.278 319.619 194.643 319.608 198.015 319.617 201.368 319.32 202.411 319.125 203.409 318.594 204.189 317.861 204.858 317.24 205.381 316.468 205.71 315.626 206.452 313.983 206.751 312.11 206.408 310.326 206.205 309.334 205.845 308.359 205.462 307.42 204.886 306.048 204.281 304.688 203.594 303.368 202.761 301.746 201.854 300.161 200.956 298.572 202.14 297.578 202.921 296.171 203.268 294.672 203.585 293.279 203.558 291.808 203.487 290.373 203.411 288.913 203.367 287.453 203.299 285.993 203.155 282.677 203.002 279.357 202.616 276.061 202.471 274.976 202.067 273.952 201.562 272.984 200.743 271.438 199.67 270.041 198.485 268.763 196.205 266.31 193.401 264.37 190.384 262.926 189.274 262.402 188.148 261.907 186.984 261.514 186.099 261.217 185.173 261.017 184.252 261.016 183.031 260.986 181.811 261.041 180.59 261.012 162.761 260.991 144.932 260.978 127.102 260.983zM237.33 261.076C232.586 261.081 227.842 261.056 223.098 261.113 222.114 261.199 221.263 261.746 220.415 262.201 218.957 263.009 217.427 263.746 216.19 264.886 215.047 266.015 214.38 267.54 214.034 269.09 213.592 271.102 213.704 273.176 213.692 275.221 213.696 282.15 213.695 289.078 213.763 296.006 213.805 301.04 213.857 306.073 213.936 311.106 213.957 311.891 213.959 312.679 214.03 313.461 214.398 315.648 215.923 317.57 217.91 318.527 219.567 319.421 221.483 319.723 223.349 319.665 229.874 319.646 236.4 319.692 242.925 319.583 244.311 319.502 245.731 319.202 246.903 318.424 247.083 318.292 247.257 318.154 247.419 318.001 247.99 318.691 248.738 319.306 249.645 319.46 250.524 319.622 251.42 319.514 252.307 319.546 267.731 319.546 283.155 319.547 298.579 319.547 299.298 318.493 299.932 317.375 300.771 316.413 301.495 317.291 302.071 318.276 302.705 319.217 302.769 319.32 302.846 319.468 302.99 319.43 319.302 319.43 335.613 319.43 351.925 319.43 352.178 318.958 352.407 318.471 352.64 317.99 352.86 318.429 353.054 318.897 353.384 319.267 353.74 319.581 354.246 319.564 354.69 319.547 360.432 319.547 366.174 319.547 371.916 319.547 371.982 319.509 372.024 319.445 372.051 319.376 373.003 319.656 374.004 319.52 374.98 319.55 381.58 319.549 388.18 319.548 394.78 319.547 395.539 319.885 396.387 319.771 397.193 319.785 406.528 319.781 415.863 319.78 425.198 319.78 427.754 318.908 430.375 318.161 432.772 316.89 434.424 315.808 435.874 314.363 436.783 312.598 437.137 311.518 436.984 310.369 437.031 309.256 437.051 304.724 437.097 300.191 436.985 295.66 436.783 294.075 435.799 292.661 434.506 291.756 434.384 291.671 434.265 291.583 434.141 291.502 434.1 289.938 434.076 288.37 434.279 286.817 435.654 285.732 436.699 284.208 437.143 282.508 437.362 281.386 437.192 280.241 437.247 279.109 437.249 276.344 437.295 273.577 437.165 270.814 436.942 268.495 435.956 266.214 434.253 264.599 432.591 263.01 430.448 261.958 428.201 261.505 426.449 261.183 424.661 261.335 422.891 261.306 416.185 261.314 409.48 261.295 402.774 261.357 401.537 261.404 400.338 261.817 399.251 262.392 398.779 262.647 398.326 262.936 397.888 263.245 397.325 262.864 396.764 262.472 396.13 262.217 394.673 261.583 393.065 261.372 391.486 261.412 390.134 261.437 388.782 261.424 387.431 261.427 384.611 261.426 381.791 261.416 378.973 261.515 377.502 261.696 376.076 262.239 374.863 263.092 373.448 262.764 372.242 261.904 370.885 261.421 370.335 261.229 369.749 261.16 369.168 261.189 365.457 261.2 361.745 261.166 358.035 261.254 357.321 261.266 356.612 261.373 355.927 261.574 354.829 261.884 353.78 262.401 352.91 263.145 352.013 262.373 350.93 261.804 349.767 261.568 348.527 261.272 347.241 261.326 345.979 261.397 341.979 261.433 337.98 261.398 333.98 261.409 309.756 261.4 285.532 261.379 261.308 261.399 258.905 261.413 256.499 261.398 254.1 261.551 252.379 261.729 250.645 262.216 249.222 263.231 248.883 263.477 248.572 263.758 248.264 264.041 247.723 263.967 247.345 263.531 246.927 263.224 245.179 261.865 242.985 261.028 240.756 261.074 239.614 261.075 238.472 261.075 237.33 261.076z"/><path d="M266.684 0.000268191C264.421 0.0250216 262.13 -0.0477692 259.904 0.432348C257.911 0.936773 256.056 2.11544 254.897 3.83181C254.114 4.95681 253.718 6.28751 253.355 7.59355C250.367 16.5292 247.41 25.4755 244.302 34.3702C244.22 34.5663 244.011 34.6722 243.806 34.675C243.121 34.7994 242.415 34.7664 241.715 34.7802C241.336 34.7708 240.963 34.7358 240.594 34.6462C240.328 29.5947 240.085 24.5251 239.235 19.5309C238.865 17.6791 237.973 15.9556 236.782 14.4989C234.878 11.9976 232.633 9.78539 230.402 7.58133C228.883 6.10637 227.35 4.64374 225.754 3.25267C224.294 2.14866 222.548 1.51799 220.816 0.982082C219.605 0.608038 218.328 0.480714 217.064 0.537947C192.22 0.52331 167.376 0.49276 142.532 0.493278C136.059 0.496243 129.587 0.489388 123.114 0.522387C121.251 0.537394 119.387 0.549209 117.526 0.631492C114.817 0.933684 112.306 2.67029 111.103 5.12069C110.252 6.74929 109.937 8.60241 109.89 10.4238C109.76 13.0198 109.654 15.6153 109.459 18.207C108.034 17.4352 106.419 16.9828 104.793 17.019C103.255 17.0088 101.717 17.0109 100.179 16.9995C90.0162 16.9666 79.8525 16.9046 69.69 17.0352C68.0116 17.1029 66.3132 17.4317 64.8189 18.2247C63.5844 14.1004 62.2646 9.98675 60.4773 6.06379C59.7697 4.63754 58.7274 3.34155 57.3514 2.51431C55.2359 1.12091 52.7059 0.364913 50.1718 0.38648C48.6575 0.364469 47.1431 0.407673 45.6288 0.388515C34.6083 0.388515 23.5877 0.385179 12.5673 0.424273C10.1229 0.543649 7.64475 0.962633 5.44004 2.06961C3.30933 3.13864 1.52861 4.96649 0.67379 7.20768C-0.173515 9.39895 -0.185115 11.8585 0.434432 14.1093C2.0002 20.5405 3.56915 26.9795 5.09824 33.414C8.9763 50.6345 12.8226 67.8621 16.6821 85.0868C20.726 103.146 24.7692 121.205 28.8134 139.263C29.2235 140.606 30.0051 141.786 30.5992 143.048C32.8858 147.513 35.1844 151.986 37.9239 156.194C38.2713 156.682 38.6441 157.154 39.07 157.575C38.4313 159.162 38.3652 160.934 38.5994 162.605C40.0076 176.2 41.4053 189.797 42.8064 203.393C33.843 203.328 24.8767 203.179 15.915 203.436C14.2936 203.539 12.6545 204.006 11.3482 204.999C9.68102 206.207 8.52541 208.045 7.97223 210.007C7.33999 211.989 7.18792 214.129 7.58734 216.174C8.41863 221.349 9.22802 226.528 10.083 231.698C10.264 232.621 10.723 233.459 11.2144 234.25C11.797 235.164 12.4638 236.019 13.1161 236.883C15.9359 240.546 19.0562 243.961 22.0208 247.504C24.6245 250.562 27.1797 253.663 29.777 256.726C31.8157 258.861 34.751 260.059 37.6897 260.102C41.0355 260.194 44.3829 260.2 47.7294 260.254C53.5576 260.318 59.3896 260.393 65.2152 260.165C66.7648 260.059 68.3065 259.61 69.6134 258.758C71.6139 257.531 73.2775 255.852 74.911 254.188C76.1137 252.956 77.2594 251.666 78.5974 250.576C79.4355 250.024 80.412 249.795 81.3747 249.536C82.4035 249.288 83.45 249.127 84.4992 249.03C87.4739 251.675 90.4369 254.333 93.4067 256.984C99.7748 258.551 106.136 260.152 112.521 261.647C116.214 262.2 119.952 262.636 123.692 262.422C126.137 262.232 128.467 261.361 130.676 260.338C133.827 258.894 136.855 257.199 139.853 255.462C140.899 256.866 142.374 257.921 143.989 258.571C145.328 259.152 146.739 259.613 148.2 259.744C149.691 259.824 151.183 259.687 152.675 259.7C160.555 259.532 168.442 259.445 176.308 258.916C178.989 258.677 181.685 258.3 184.235 257.406C185.538 256.886 186.567 255.746 186.969 254.404C187.001 254.295 187.022 254.176 187.133 254.303C188.251 255.057 189.429 255.749 190.687 256.232C192.176 256.86 193.709 257.406 195.298 257.717C196.797 257.902 198.309 257.775 199.814 257.831C205.436 257.858 211.059 257.931 216.679 257.756C220.138 257.464 223.478 255.869 225.85 253.329C227.004 254.196 228.137 255.091 229.323 255.914C229.996 256.224 230.727 256.374 231.423 256.623C236.52 258.241 241.626 259.824 246.643 261.674C248.271 262.227 250.018 262.297 251.72 262.181C254.177 262.028 256.591 261.517 259.02 261.152C263.196 260.476 267.371 259.801 271.547 259.125C272.962 258.271 274.377 257.416 275.792 256.561C276.773 257.824 278.17 258.724 279.678 259.23C281.28 259.834 283.012 260.021 284.715 259.952C299.688 259.949 314.66 259.948 329.633 259.949C330.763 261.672 332.428 263.014 334.302 263.855C335.242 264.323 336.221 264.789 337.281 264.882C339.281 264.96 341.282 264.894 343.282 264.92C370.016 264.912 396.75 264.901 423.484 264.887C425.868 264.764 428.285 264.413 430.475 263.421C432.02 262.713 433.256 261.456 434.159 260.036C437.217 255.767 440.34 251.546 443.373 247.259C444.352 245.724 445.173 244.054 445.517 242.255C445.656 240.686 445.5 239.11 445.56 237.538C445.548 230.182 445.553 222.827 445.513 215.472C444.995 212.264 444.504 209.029 443.452 205.943C442.622 204.099 441.035 202.66 439.21 201.828C437.227 200.903 435.054 200.299 432.852 200.362C429.347 200.72 425.849 201.155 422.344 201.52C418.757 201.912 415.168 202.283 411.578 202.651C413.413 199.788 415.304 196.964 417.199 194.141C418.294 192.276 419.126 190.261 419.728 188.186C419.975 186.917 419.817 185.62 419.863 184.338C419.857 178.134 419.881 171.929 419.802 165.725C419.809 165.644 419.736 165.473 419.878 165.547C421.966 165.964 424.035 166.462 426.073 167.083C427.802 167.492 429.653 167.12 431.187 166.257C433.056 165.276 434.564 163.693 435.62 161.879C437.86 158.325 440.198 154.831 442.293 151.189C443.08 149.681 443.702 148.089 444.163 146.453C444.461 145.371 444.685 144.261 444.734 143.138C444.921 135.956 445.059 128.772 445.079 121.587C445.076 118.581 445.054 115.573 444.865 112.573C444.729 111.047 444.275 109.524 443.388 108.262C441.925 106.074 439.479 104.599 436.882 104.241C436.662 104.204 436.44 104.173 436.218 104.149C438.037 101.569 439.909 99.0238 441.59 96.3513C442.64 94.5453 443.078 92.4412 443.114 90.3679C443.117 89.2858 443.089 88.2037 443.105 87.1215C443.159 63.4667 443.268 39.8118 443.175 16.1569C443.154 13.7831 443.144 11.4065 442.988 9.03707C442.765 6.75501 441.809 4.51109 440.161 2.89502C438.45 1.20471 436.025 0.290353 433.627 0.365966C431.411 0.375971 429.194 0.355232 426.978 0.350971C419.744 0.325124 412.508 0.286871 405.275 0.409527C403.613 0.518212 401.929 0.961873 400.564 1.94438C399.72 2.54798 399.014 3.33819 398.487 4.23098C397.461 2.82402 395.996 1.80387 394.459 1.02223C393.608 0.597658 392.659 0.33152 391.702 0.382861C382.649 0.392866 373.596 0.388037 364.544 0.42563C364.197 0.420072 363.853 0.474907 363.518 0.557579C362.7 0.162877 361.767 0.198563 360.883 0.220334C338.188 0.226448 315.494 0.232193 292.799 0.244421C291.081 0.321442 289.4 0.914573 287.978 1.87481C287.045 1.032 285.923 0.338683 284.668 0.12939C283.395 -0.0328415 282.109 0.0909014 280.83 0.0364105C276.115 0.0126761 271.397 -0.00232573 266.684 0.000268191Z"/><path d="M25.439 251.427L29.777 256.726C29.777 256.726 32.8367 260.437 26.8061 262.88C20.7755 265.323 165.851 307.216 165.851 307.216L187.285 317.13L195.528 318.532L197.342 319.521L230.812 319.686L349.77 284.402L351.419 239.226L323.06 60.5003L248.467 21.9604C248.467 21.9604 243.167 24.0625 239.256 21.5894C235.346 19.1162 215.595 40.149 215.595 40.149L25.439 251.427Z"/></g><path fill="#1E242B" d="M13.537 3.94795H50.8496C50.8496 3.94795 53.6525 4.11285 55.9608 6.09136C58.269 8.06988 63.2153 26.7009 63.2153 26.7009C63.2153 26.7009 63.2153 20.7654 69.6455 20.6005C76.0757 20.4356 105.589 20.6005 105.589 20.6005C105.589 20.6005 107.897 21.0951 109.216 22.579C110.535 24.0629 110.7 26.2063 111.854 25.7116C113.008 25.217 113.503 9.71865 113.503 9.71865C113.503 9.71865 113.503 4.27771 118.449 4.11283C123.395 3.94795 218.694 4.11283 218.694 4.11283C218.694 4.11283 222.486 4.93723 223.97 6.4211C225.454 7.90499 234.192 15.6542 235.346 19.1166C236.501 22.579 236.995 36.9233 236.995 36.9233C236.995 36.9233 238.974 38.4071 241.612 38.4071C244.25 38.4071 246.723 38.4071 247.877 35.4394C249.031 32.4716 257.275 7.57524 257.275 7.57524C257.275 7.57524 257.605 3.78307 262.716 3.61819C267.827 3.45333 284.315 3.61819 284.315 3.61819C284.315 3.61819 285.634 4.11285 286.953 6.09136C288.272 8.06988 289.096 3.78307 293.383 3.78307C297.67 3.78307 361.972 3.78307 361.972 3.78307C361.972 3.78307 362.466 5.59673 363.126 5.59673C363.785 5.59673 363.29 3.94795 365.104 3.94795C366.918 3.94795 392.474 3.94795 392.474 3.94795C392.474 3.94795 395.936 5.26696 396.266 7.57524C396.596 9.88349 396.925 11.5323 398.904 11.5323C400.882 11.5323 401.377 7.74014 401.377 7.74014C401.377 7.74014 401.377 4.11283 405.829 3.94795C410.28 3.78307 434.847 3.94795 434.847 3.94795C434.847 3.94795 439.299 4.27772 439.628 9.8835C439.958 15.4893 439.628 90.0135 439.628 90.0135C439.628 90.0135 439.958 92.6515 438.144 95.2895C436.331 97.9275 431.384 104.852 431.384 104.852C431.384 104.852 430.065 106.501 429.406 106.831C428.746 107.161 429.076 108.315 433.528 107.82C437.98 107.325 440.453 109.139 441.277 111.777C442.101 114.415 441.277 143.763 441.277 143.763C441.277 143.763 440.618 147.39 438.804 150.358C436.99 153.326 431.879 161.24 431.879 161.24C431.879 161.24 429.241 164.373 426.768 163.383C424.295 162.394 414.567 160.745 414.567 160.745C414.567 160.745 416.381 163.383 416.381 166.846C416.381 170.308 416.381 187.455 416.381 187.455C416.381 187.455 415.062 191.412 413.743 193.061C412.424 194.71 404.51 207.241 404.51 207.241L422.151 205.427L433.693 204.108C433.693 204.108 439.463 204.603 440.453 207.9C441.442 211.198 442.101 216.144 442.101 216.144V241.04C442.101 241.04 442.761 242.524 439.299 247.141C435.836 251.757 430.56 259.177 430.56 259.177C430.56 259.177 429.169 261.351 422.445 261.351C415.721 261.351 337.57 261.351 337.57 261.351C337.57 261.351 334.932 260.331 333.778 259.177C332.623 258.023 331.964 256.374 331.964 256.374H282.831C282.831 256.374 279.863 255.879 278.874 254.56C277.884 253.241 277.39 251.428 277.39 251.428L270.3 255.714L252.988 258.517C252.988 258.517 249.196 259.012 247.547 258.187C245.898 257.363 231.06 252.747 231.06 252.747L226.938 249.614C226.938 249.614 225.289 246.646 224.465 248.954C223.64 251.263 220.013 254.066 216.056 254.23C212.099 254.395 195.776 254.23 195.776 254.23C195.776 254.23 191.324 253.076 189.016 251.263C186.708 249.449 183.905 248.625 183.905 248.625C183.905 248.625 183.905 253.736 182.916 254.066C181.926 254.395 180.937 254.89 175.826 255.385C170.715 255.879 148.127 256.209 148.127 256.209C148.127 256.209 144.17 255.385 142.851 253.571C141.532 251.757 141.037 249.944 141.037 249.944C141.037 249.944 139.223 251.757 136.75 253.076C134.277 254.395 129.331 257.363 125.374 258.517C121.417 259.671 112.349 258.023 112.349 258.023L95.0365 253.736L85.6385 245.327C85.6385 245.327 78.384 245.492 75.4162 248.295C72.4484 251.098 68.6563 256.044 65.5236 256.539C62.391 257.033 37.3297 256.539 37.3297 256.539C37.3297 256.539 33.8673 256.539 31.7239 253.736C29.5805 250.933 19.1933 238.897 19.1933 238.897C19.1933 238.897 13.5875 232.467 13.4226 230.983C13.2578 229.499 10.7846 214.33 10.7846 214.33C10.7846 214.33 10.6197 207.57 15.7309 207.241C20.8421 206.911 45.2438 207.241 45.2438 207.241H46.7277L42.1111 162.394C42.1111 162.394 41.1219 158.272 44.2545 156.953C47.3872 155.634 43.595 157.118 41.4516 154.975C39.3082 152.831 32.2186 138.487 32.2186 138.487L8.14659 30.9877L3.69492 12.6864C3.69492 12.6864 0.9558 3.94795 13.537 3.94795Z"/><path fill="url(#paint0_linear_5783_12764)" d="M40.25 137.003L46.1913 149.787L77.7772 149.321L93.0552 87.044L104.793 137.003L111.129 148.855H142.141L165.691 45.3268L162.786 11.5371L124.537 76.3385L119.091 73.411L114.277 51.156L104.179 27.8591L63.9792 62.1242L63.2882 65.3707L62.3155 69.9413L63.0961 46.959L51.5385 11.5371L40.25 137.003Z"/><path fill="url(#paint1_linear_5783_12764)" d="M168.392 89.8485L171.539 100.071H196.27L194.431 89.8485L193.492 79.6262L204.388 100.236H232.089V89.4416L218.943 63.6511L229.594 59.3464L231.059 55.3894L230.695 35.7135L201.381 56.5435L188.026 50.35L190.7 32.4715L198.578 32.3067L204.514 36.2637V43.8022L206.328 48.4645L216.22 36.5935L213.912 23.898L195.116 18.9517L180.277 23.898L179.947 50.35L168.392 89.8485Z"/><path fill="url(#paint2_linear_5783_12764)" d="M243.425 80.662L235.137 89.8482L235.676 100.26H266.178L264.386 89.8482L263.45 82.4694H283.662L282.835 89.8482L281.511 100.26L311.204 100.565V89.8482L289.92 69.8982L268.156 60.3871L273.17 48.2993L277.884 60.3871L282.336 64.9519L286.787 61.3246L285.963 37.5824L274.916 21.5894L256.945 53.7403L243.425 80.662Z"/><path fill="url(#paint3_linear_5783_12764)" d="M304.429 15.1596L294.959 10.8516L289.096 16.8083V41.8695L312.352 35.6379L313.003 100.59H333.777L336.655 89.8486V35.4394L357.519 42.8588L360.989 33.1393L343.67 16.9732L304.429 15.1596Z"/><path fill="url(#paint4_linear_5783_12764)" d="M379.943 45.6617L365.914 10.8516L359.168 28.3497L359.003 100.615H384.394L390.399 89.8486L387.32 65.2049H404.344L397.42 100.615H426.108L431.944 89.8486L425.449 35.6042L407.403 10.8516L404.015 26.7009L408.137 42.2116L403.355 48.2997L379.943 45.6617Z"/><path fill="#2C353C" d="M40.25 137.003L46.1913 149.787 77.7772 149.321 71.5303 137.003H40.25zM104.792 137.003L111.129 148.854H142.141L136.159 137.003H104.792zM168.392 89.8486L171.539 100.071H196.27L194.431 89.8486H168.392zM204.461 89.8486L204.389 100.236H232.089V89.8486H204.461zM190.701 32.4714L198.579 32.3066 201.625 25.2251 190.701 25.5549V32.4714zM215.595 57.1858L218.943 63.6506 229.594 59.3459 228.98 51.1992 215.595 57.1858zM235.137 89.8486L235.676 100.26H266.178L264.386 89.8486H235.137zM282.836 89.8486L281.512 100.26 311.204 100.566V89.8486C311.204 89.8486 282.836 89.8486 282.836 89.8486zM283.662 82.4697H263.45L262.514 75.0908H284.489L283.662 82.4697zM277.884 60.3872L273.171 48.2994 273.062 32.9878 281.58 60.3872H277.884zM294.959 32.4795L289.096 41.8692 312.352 35.6376 318.235 27.0386 294.959 32.4795zM337.279 26.5444L360.989 33.1395 357.519 42.859 336.655 35.4395 337.279 26.5444zM318.236 89.8486L313.003 100.59H333.777L337.279 89.8486H318.236zM365.914 89.8486L359.003 100.615H384.394L390.399 89.8486H365.914zM431.944 89.8486L426.108 100.615H397.419L407.403 89.8486H431.944zM387.32 65.2049H404.344L412.514 56.8608H386.277L387.32 65.2049z"/><path fill="url(#paint5_linear_5783_12764)" d="M118.407 90.2118L121.606 11.5371H162.786L136.159 137.003H104.792L87.9889 65.4805L71.5301 137.003H40.2498L13.5366 11.5371H51.5383L58.0012 90.2118L71.2716 27.8591H104.179L118.407 90.2118Z"/><path fill="url(#paint6_linear_5783_12764)" d="M194.714 61.9609H192.1L194.432 89.8486H168.393V10.8516H199.481C208.85 10.8516 219.477 11.9799 219.477 11.9799L229.026 21.9342L230.696 35.7135L228.98 51.1997C228.98 51.1997 220.334 54.9438 215.595 57.1864L232.089 89.0347V89.8486H204.461L194.714 61.9609ZM190.701 47.2575L200.306 46.9277L209.433 40.1494L208.903 32.5034L201.625 25.2252L190.701 25.555V47.2575Z"/><path fill="url(#paint7_linear_5783_12764)" d="M284.489 75.0909H262.513L264.386 89.8486H235.137L264.11 10.8516H282.014L311.204 89.8486H282.835L284.489 75.0909ZM264.598 60.3875H281.58L273.062 32.9881L264.598 60.3875Z"/><path fill="url(#paint8_linear_5783_12764)" d="M360.989 33.1393L337.279 26.5443V89.8486H318.235V27.0389L294.959 32.4798V10.8516H360.989V33.1393Z"/><path fill="url(#paint9_linear_5783_12764)" d="M431.944 89.8486H407.403L412.514 56.8608H386.277L390.399 89.8486H365.914V10.8516H390.564L386.112 42.2116H412.019L407.403 10.8516H431.944V89.8486Z"/><path fill="#fff" d="M13.5366 11.5371L14.2355 14.8197H45.0786L56.9954 77.9679 51.5383 11.5371H13.5366zM71.2719 27.8594L70.4995 31.4887H99.9214L115.976 80.6625 104.179 27.8594H71.2719zM121.606 11.5371L121.466 14.983H156.535L151.463 64.8903 162.786 11.5371H121.606zM194.714 61.9604L204.461 89.8481H207.487L194.714 61.9604zM168.393 10.8516V14.0822L203.122 13.7324 216.756 15.1315 225.033 24.1085C225.033 24.1085 229.452 36.5972 229.022 36.9029 228.592 37.2085 228.98 51.1997 228.98 51.1997L230.696 35.7135 229.026 21.9342 219.477 11.9799 203.122 10.8516H168.393z"/><path fill="#fff" d="M190.701 25.5541L201.625 25.2244 208.903 32.5026 209.433 40.1485 209.469 31.3359 201.949 23.583H190.582L190.701 25.5541zM264.11 10.8516L262.905 14.1354H279.203L297.991 54.0912 282.014 10.8516H264.11zM273.062 32.9878L281.58 60.3872H283.543L273.062 32.9878zM294.959 10.8516V14.7474L357.849 14.9833 360.989 25.7116V10.8516H294.959zM337.279 26.5444V89.8488H335.839V29.355L337.279 26.5444zM365.914 10.8516V14.9122L388.269 14.9833 386.686 38.1692 390.564 10.8516H365.914zM386.112 42.2114L386.771 43.8808H411.585L412.019 42.2114H386.112zM407.403 10.8516L408.206 14.9833H429.983L431.944 35.934V10.8516H407.403z"/><path fill="url(#paint10_linear_5783_12764)" d="M71.9532 160.868L79.5378 175.09L77.7771 237.578L63.8746 249.614H37.3295L25.1286 238.971L21.0145 229.658L17.48 214.508H43.3381L46.8923 223.234L44.7166 226.301L57.1146 228.18L71.9532 160.868Z"/><path fill="url(#paint11_linear_5783_12764)" d="M89.76 169.979L102.37 160.868L108.893 179.047L104.764 221.42L107.732 225.377L116.635 229.994L127.022 218.782L140.009 160.868L146.477 175.09V233.951L137.244 244.503L118.284 251.428L96.8497 247.635L85.4165 234.617L89.76 169.979Z"/><path fill="url(#paint12_linear_5783_12764)" d="M152.578 178.882L145.548 239.865L147.962 249.638L178.536 248.79L172.237 204.132L192.588 239.865L197.805 248.9H216.88V170.803L211.524 160.868L192.148 200.366L175.661 168.989L164.592 160.868L152.578 178.882Z"/><path fill="url(#paint13_linear_5783_12764)" d="M274.751 195.04L248.131 197.864L244.909 203.778L248.206 222.739L261.396 216.144L264.034 223.069L261.726 230.818L238.478 226.531L231.883 200.604L234.896 193.066L235.511 186.961L241.281 182.179L248.371 181.85L249.195 192.731L274.586 185.642L277.565 178.554L250.514 169.484L225.453 176.738L220.837 199.491L215.682 205.186L222.156 235.599L232.708 245.327L251.339 249.944L273.102 245.492L284.314 238.237L288.865 222.332L274.751 195.04Z"/><path fill="url(#paint14_linear_5783_12764)" d="M305.748 181.025L290.164 160.868L284.314 176.739L283.49 249.664L336.58 249.969L342.359 239.721L304.099 229.499L305.748 181.025Z"/><path fill="url(#paint15_linear_5783_12764)" d="M378.109 120.516L433.781 145.197L428.241 157.016L377.425 147.689L371.348 175.203L408.504 187.217L400.727 200.366H377.425L373.213 226.034L433.609 240.385L425.443 254.015H338.237V145.591L347.178 114.919L376.71 120.516H378.109Z"/><path fill="#2C353C" d="M21.0142 229.658L25.1282 238.972 37.3291 249.615H63.8742L77.7768 237.579 70.4047 227.372 57.0113 238.849 32.5154 238.972 21.0142 229.658zM98.752 220.2L104.764 221.42 107.732 225.377 103.276 225.12 98.752 220.2zM85.4165 234.616L96.8497 247.635 118.284 251.427 137.244 244.502 129.644 235.607C129.644 235.607 125.14 237.633 124.955 237.705 124.771 237.777 121.139 239.019 121.139 239.019L117.955 239.811 113.644 240.411 109.364 240.464 103.316 239.714 94.4475 237.438 85.4165 234.616zM145.548 239.865L147.962 249.639 178.536 248.79 168.714 239.865H145.548zM192.588 239.865L197.805 248.9H216.88L211.524 239.865H192.588zM234.14 193.224L234.896 193.066 235.51 186.961 241.281 182.179 248.371 181.85 249.461 174.985 241.702 176.258 234.562 183.673 234.14 193.224zM277.565 178.554L274.587 185.641 249.196 192.731 254.905 185.608 277.565 178.554zM248.206 222.739L250.856 218.243 265.787 208.057 261.396 216.144 248.206 222.739zM233.934 235.882L232.708 245.327 251.339 249.944 273.103 245.492 284.314 238.238 288.866 222.333 283.49 227.783 274.843 234.186 271.392 236.557 248.14 241.11 233.934 235.882zM342.359 239.722L336.58 249.969 283.49 249.664 290.165 239.865 342.359 239.722zM377.424 139.591L433.781 145.197 428.241 157.016 377.424 147.689V139.591zM377.424 187.217V200.366H400.727L408.503 187.217H377.424zM338.237 254.015L347.178 240.385H433.609L425.443 254.015H338.237z"/><path fill="url(#paint16_linear_5783_12764)" d="M49.5011 160.868H71.9532V215.07C71.9532 220.097 70.405 227.371 70.405 227.371L57.0117 238.849L32.5157 238.971L21.0145 229.658C21.0145 229.658 17.48 222.466 17.48 214.508H43.3381L40.5663 222.54L44.7166 226.301L50.7933 223.371C50.7933 223.371 53.0139 218.608 52.7986 215.07L49.5011 160.868Z"/><path fill="url(#paint17_linear_5783_12764)" d="M140.009 160.868V218.015L136.266 227.82L129.645 235.607C112.509 244.15 102.741 240.01 85.4169 234.617L77.7773 219.054V160.868H102.371L98.2488 213.333L98.7523 220.2L103.276 225.121L115.784 224.859L120.447 219.507L120.141 212.63L115.854 160.868H140.009Z"/><path fill="url(#paint18_linear_5783_12764)" d="M211.524 239.865H192.588L164.592 190.709L168.714 239.865H145.548V160.868H164.592L192.534 210.024L189.237 160.868H211.524V239.865Z"/><path fill="url(#paint19_linear_5783_12764)" d="M288.866 222.332C286.879 226.235 271.392 236.557 271.392 236.557L248.14 241.109L233.934 235.882C222.432 227.329 218.767 218.328 215.683 205.186L215.389 182.982L223.128 168.144C236.288 158.54 247.564 160.021 263.132 160.428C263.132 160.428 274.38 170.158 277.566 178.554L254.906 185.609C254.168 183.903 255.283 181.108 254.335 179.198C253.008 176.523 249.693 174.947 249.693 174.947L241.703 176.258L234.563 183.673L235.231 202.458L236.466 207.07L244.951 223.22L257.808 225.963C257.808 225.963 266.862 221.341 268.631 218.582L265.788 208.057L250.857 218.243L248.132 197.864L280.469 189.179L288.866 222.332Z"/><path fill="url(#paint20_linear_5783_12764)" d="M309.208 225.216L342.162 221.918L342.359 239.865H290.164V160.868H319.101L309.208 225.216Z"/><path fill="url(#paint21_linear_5783_12764)" d="M408.504 187.217H377.424V217.119L433.608 210.689V240.385H347.178V114.919H433.781V145.197L377.424 139.591V164.727H408.504V187.217Z"/><path fill="#fff" d="M49.501 160.868L49.7233 164.522H67.6666L71.9531 191.413V160.868H49.501zM17.48 214.508H43.3381L40.5663 222.54 40.5446 216.309H17.5383L17.48 214.508zM77.7769 160.868V164.373H99.587L100.146 189.176 102.37 160.868H77.7769zM115.854 160.868L116.259 164.522H137.536L140.009 192.982V160.868H115.854zM145.548 160.868V164.373H162.255L182.751 192.984 164.592 160.868H145.548zM168.714 239.865H166.922L164.592 190.709 168.714 239.865zM189.236 160.868L189.494 164.709H209.639L211.524 200.366V160.868H189.236zM215.389 182.982L223.128 168.144 229.594 163.894 238.557 160.867 251.498 160.099 263.132 160.428 268.108 165.229 273.395 171.4 275.906 175.149 277.565 178.554 269.685 169.484 262.69 164.521H244.736 234.943L226.315 169.484 215.389 182.982zM250.857 218.244L248.132 197.865 280.468 189.18 250.565 200.605 250.857 218.244z"/><path fill="#fff" d="M234.562 183.673L235.23 202.458 236.466 207.07 244.95 223.22 257.807 225.963 243.861 223.877 234.884 207.555 233.718 202.775 234.562 183.673zM290.164 160.868V179.212L292.228 164.522H314.322L311.883 207.817 319.101 160.868H290.164zM309.208 225.215L342.162 221.918 342.26 230.891 340.802 223.295 309.208 225.215zM347.178 114.919V120.516L426.767 119.987 433.781 145.197V114.919H347.178zM377.424 164.727H408.503V187.217L405.004 169.484H377.14L377.424 164.727zM395.793 215.016L433.609 210.688 433.781 233.786 429.736 215.319 395.793 215.016z"/><path fill="url(#paint22_linear_5783_12764)" d="M184.133 117.833L182.928 134.869L183.412 140.346L186.676 143.049L192.855 144.215L200.241 142.933L203.122 139.762L203.9 134.662L196.586 137.493H189.241L186.093 132.44L188.969 123.338L193.492 121.714L197.587 123.038L200.241 121.714L196.936 117.051L184.133 117.833Z"/><path fill="url(#paint23_linear_5783_12764)" d="M209.76 117.026L206.656 139.762L207.312 142.933H214.715L214.774 132.207H218.794L218.905 129.581L215.862 124.842H214.529L214.704 121.047L223.753 123.479V119.637L209.76 117.026Z"/><path fill="url(#paint24_linear_5783_12764)" d="M244.909 117.462L235.245 117.633V121.061V125.128L240.54 123.315L240.21 142.958H246.888L248.936 139.763V123.315L254.802 125.211L256.607 120.944L248.619 116.997L244.909 117.462Z"/><path fill="url(#paint25_linear_5783_12764)" d="M262.469 122.16L259.205 114.205L257.275 117.296V142.982H265.354L266.765 139.762L265.761 132.104H272.114L269.886 142.982H278.709L280.568 139.762L277.967 118.451L272.926 114.205L270.383 116.971L272.279 124.35L266.508 126.53L262.469 122.16Z"/><path fill="url(#paint26_linear_5783_12764)" d="M298.411 116.971L284.464 114.205L282.253 119.357L282.336 143.007H299.565L302.07 139.762L288.189 136.175L287.859 132.135L290.626 130.808H293.877L295.302 128.932L290.626 124.35V121.656L302.106 124.221V118.683L298.411 116.971Z"/><path fill="#2C353C" d="M188.969 123.339L193.493 121.715 197.588 123.038 197.525 119.317 193.484 118.376 189.229 119.268 188.969 123.339zM182.928 134.869L183.412 140.346 186.676 143.049 192.855 144.215 200.241 142.933 203.122 139.762 203.9 134.171 199.653 138.947 193.279 139.856 187.175 139.004 182.928 134.379V134.869zM206.656 139.272L207.312 142.933H214.715L212.818 139.272H206.656zM212.818 129.091L214.774 132.207H218.794L218.906 129.091H212.818zM212.818 118.471L214.705 121.047 223.754 123.479V119.637L212.818 118.471zM235.245 120.569V125.127L240.54 123.314 242.775 118.471 235.245 120.569zM248.936 118.471L256.607 120.453 254.802 125.21 248.936 123.314V118.471zM242.775 139.272L240.21 142.958H246.887L248.936 139.763V139.272H242.775zM259.205 139.272L257.275 142.982H265.354L266.765 139.763V139.272H259.205zM272.693 139.272L269.886 142.982H278.709L280.568 139.763V139.272H272.693zM265.761 132.103H272.114L274.441 128.6H265.366L265.761 132.103zM290.625 130.808H293.876L295.302 128.932V128.441H290.625V130.808zM282.336 143.007H299.566L302.07 139.763V139.272H284.464L282.336 143.007zM290.625 121.655L302.105 124.22V119.986L290.625 118.471V121.655z"/><path fill="url(#paint27_linear_5783_12764)" d="M204.388 127.305L203.9 134.171L199.653 138.947L193.279 139.856L187.175 139.004L182.928 134.379L182.596 127.489V125.941L182.815 118.824L187.062 114.048L193.367 113.246L199.596 114.03L203.844 118.768L204.388 126.041V127.305ZM197.649 125.778L197.525 119.317L193.484 118.376L189.229 119.268L188.708 126.428L189.296 134.143L193.405 134.853L197.508 134.002L197.649 127.042V125.778Z"/><path fill="url(#paint28_linear_5783_12764)" d="M218.905 129.091H212.817V139.272H206.656V113.714H223.753V119.637L212.817 118.471V124.351H218.905V129.091Z"/><path fill="url(#paint29_linear_5783_12764)" d="M256.607 120.453L248.936 118.471V139.272H242.775V118.471L235.245 120.569V113.714H256.607V120.453Z"/><path fill="url(#paint30_linear_5783_12764)" d="M280.568 139.272H272.693L274.442 128.599H265.366L266.765 139.272H259.205V113.714H266.882L265.366 123.86H274.442L272.926 113.714H280.568V139.272Z"/><path fill="url(#paint31_linear_5783_12764)" d="M295.302 128.441H290.626V134.532L302.071 133.017V139.272H284.464V113.714H302.106V119.986L290.626 118.471V123.86H295.302V128.441Z"/><path fill="#fff" d="M182.815 118.824L187.062 114.048L193.367 113.246L199.596 114.03L203.844 118.768L198.743 115.161L193.414 115.001L187.434 115.394L182.815 118.824Z"/><path fill="#fff" d="M189.229 119.268L193.492 117.756 197.956 118.844 198.247 126.552 197.507 134.003 197.649 126.411 197.525 119.317 193.483 118.376 189.229 119.268zM206.656 113.714V115.281H222.774L223.753 119.637V113.714H206.656zM212.817 124.352V125.215H218.034L218.905 129.091V124.352H212.817zM235.244 113.714V115.239H255.337L256.607 120.453V113.714H235.244zM259.205 113.714V115.239H265.807L265.489 123.038 266.882 113.714H259.205zM272.926 113.714L273.141 115.157H279.698L280.568 123.854V113.714H272.926zM284.464 113.714V115.239H301.008L302.106 119.986V113.714H284.464zM290.625 123.86V124.351H294.537L295.302 128.442V123.86H290.625z"/><g style="mix-blend-mode:color-burn" fill="#D1D3DE"><path d="M60.8431 108.759H49.8387C48.0832 108.759 46.6602 110.182 46.6602 111.938V112.552C46.6602 114.308 48.0832 115.731 49.8387 115.731H60.8431C62.5985 115.731 64.0216 114.308 64.0216 112.552V111.938C64.0216 110.182 62.5985 108.759 60.8431 108.759Z"/><path d="M66.8504 103.025H55.846C54.0906 103.025 52.6675 104.448 52.6675 106.204V106.818C52.6675 108.574 54.0906 109.997 55.846 109.997H66.8504C68.6059 109.997 70.0289 108.574 70.0289 106.818V106.204C70.0289 104.448 68.6059 103.025 66.8504 103.025zM140.927 44.1396H130.123C128.399 44.1396 127.002 45.5369 127.002 47.2605V47.8638C127.002 49.5874 128.399 50.9847 130.123 50.9847H140.927C142.651 50.9847 144.048 49.5874 144.048 47.8638V47.2605C144.048 45.5369 142.651 44.1396 140.927 44.1396z"/><path d="M146.826 38.5093H136.021C134.298 38.5093 132.9 39.9065 132.9 41.6301V42.2335C132.9 43.9571 134.298 45.3543 136.021 45.3543H146.826C148.549 45.3543 149.947 43.9571 149.947 42.2335V41.6301C149.947 39.9065 148.549 38.5093 146.826 38.5093zM183.147 71.0103H175.198C173.93 71.0103 172.902 72.0382 172.902 73.3062V73.75C172.902 75.018 173.93 76.046 175.198 76.046H183.147C184.415 76.046 185.443 75.018 185.443 73.75V73.3062C185.443 72.0382 184.415 71.0103 183.147 71.0103z"/><path d="M187.486 66.8682H179.538C178.27 66.8682 177.242 67.8961 177.242 69.1641V69.6079C177.242 70.876 178.27 71.9039 179.538 71.9039H187.486C188.754 71.9039 189.782 70.876 189.782 69.6079V69.1641C189.782 67.8961 188.754 66.8682 187.486 66.8682zM316.749 18.0645H308.801C307.533 18.0645 306.505 19.0924 306.505 20.3604V20.8042C306.505 22.0722 307.533 23.1002 308.801 23.1002H316.749C318.018 23.1002 319.045 22.0722 319.045 20.8042V20.3604C319.045 19.0924 318.018 18.0645 316.749 18.0645zM420.671 75.6475H428.248C429.457 75.6475 430.437 76.6274 430.437 77.8361V78.2592C430.437 79.468 429.457 80.4478 428.248 80.4478H420.671C419.462 80.4478 418.483 79.468 418.483 78.2592V77.8361C418.483 76.6274 419.462 75.6475 420.671 75.6475z"/><path d="M416.535 71.6992H424.112C425.321 71.6992 426.301 72.6791 426.301 73.8879V74.311C426.301 75.5197 425.321 76.4996 424.112 76.4996H416.535C415.326 76.4996 414.346 75.5197 414.346 74.311V73.8879C414.346 72.6791 415.326 71.6992 416.535 71.6992zM32.3724 222.529H25.5483C24.4597 222.529 23.5771 223.412 23.5771 224.5V224.881C23.5771 225.97 24.4597 226.853 25.5483 226.853H32.3724C33.4611 226.853 34.3436 225.97 34.3436 224.881V224.5C34.3436 223.412 33.4611 222.529 32.3724 222.529zM93.3695 174.252H83.4062C81.8168 174.252 80.5283 175.54 80.5283 177.13V177.686C80.5283 179.276 81.8168 180.564 83.4062 180.564H93.3695C94.9589 180.564 96.2474 179.276 96.2474 177.686V177.13C96.2474 175.54 94.9589 174.252 93.3695 174.252zM134.207 207.228H126.326C125.069 207.228 124.049 208.247 124.049 209.504V209.944C124.049 211.201 125.069 212.221 126.326 212.221H134.207C135.464 212.221 136.484 211.201 136.484 209.944V209.504C136.484 208.247 135.464 207.228 134.207 207.228zM204.444 223.715H196.563C195.306 223.715 194.287 224.735 194.287 225.992V226.432C194.287 227.689 195.306 228.708 196.563 228.708H204.444C205.702 228.708 206.721 227.689 206.721 226.432V225.992C206.721 224.735 205.702 223.715 204.444 223.715z"/><path d="M95.296 179.858H87.4147C86.1574 179.858 85.1382 180.877 85.1382 182.134V182.574C85.1382 183.832 86.1574 184.851 87.4147 184.851H95.296C96.5533 184.851 97.5725 183.832 97.5725 182.574V182.134C97.5725 180.877 96.5533 179.858 95.296 179.858zM239.398 223.715H231.517C230.259 223.715 229.24 224.735 229.24 225.992V226.432C229.24 227.689 230.259 228.708 231.517 228.708H239.398C240.655 228.708 241.675 227.689 241.675 226.432V225.992C241.675 224.735 240.655 223.715 239.398 223.715zM276.331 197.995H268.449C267.192 197.995 266.173 199.014 266.173 200.271V200.711C266.173 201.968 267.192 202.988 268.449 202.988H276.331C277.588 202.988 278.607 201.968 278.607 200.711V200.271C278.607 199.014 277.588 197.995 276.331 197.995zM366.524 224.833H355.519C353.764 224.833 352.341 226.256 352.341 228.011V228.626C352.341 230.381 353.764 231.804 355.519 231.804H366.524C368.279 231.804 369.702 230.381 369.702 228.626V228.011C369.702 226.256 368.279 224.833 366.524 224.833z"/><path d="M372.531 219.099H361.527C359.771 219.099 358.348 220.522 358.348 222.277V222.892C358.348 224.647 359.771 226.07 361.527 226.07H372.531C374.287 226.07 375.71 224.647 375.71 222.892V222.277C375.71 220.522 374.287 219.099 372.531 219.099zM417.378 126.108H406.373C404.618 126.108 403.195 127.531 403.195 129.287V129.901C403.195 131.657 404.618 133.08 406.373 133.08H417.378C419.133 133.08 420.556 131.657 420.556 129.901V129.287C420.556 127.531 419.133 126.108 417.378 126.108z"/></g><path fill="#1E242B" d="M26.9547 272.764V268.916C26.9547 268.916 27.7708 266.701 29.1699 265.885 30.5689 265.069 32.6674 264.836 32.6674 264.836H63.7957C63.7957 264.836 65.5445 264.836 66.1274 265.652 66.7103 266.468 67.5264 267.284 67.5264 267.284 67.5264 267.284 67.9928 265.186 70.0913 265.069 72.1898 264.953 85.8645 265.069 85.8645 265.069L88.4293 266.434C88.4293 266.434 89.2113 265.069 90.6103 264.953 92.0093 264.836 104.834 264.953 104.834 264.953 104.834 264.953 105.883 266.468 107.515 266.352 109.147 266.235 108.448 265.069 110.313 264.953 112.179 264.836 120.573 264.953 120.573 264.953 120.573 264.953 120.806 266.585 121.855 266.585 122.904 266.585 122.555 264.953 123.721 264.836 124.886 264.719 184.928 264.836 184.928 264.836 184.928 264.836 188.892 266.002 192.506 268.567 196.12 271.132 198.335 274.396 198.801 276.261 199.268 278.127 199.734 292.467 199.734 292.467 199.734 292.467 199.734 294.449 198.685 295.498 197.636 296.547 195.304 296.314 196.003 297.596 196.703 298.879 199.851 304.242 200.667 305.991 201.483 307.739 202.882 310.771 202.765 311.936 202.649 313.102 202.182 315.201 200.783 315.551 199.384 315.9 184.97 315.798 184.97 315.798 184.97 315.798 183.062 314.501 182.363 314.501 181.663 314.501 179.215 315.9 179.215 315.9H138.177C138.177 315.9 136.414 313.973 135.598 314.089 134.782 314.206 132.822 316.017 132.822 316.017L119.051 316.099C119.051 316.099 118.343 314.351 117.061 314.351 115.779 314.351 114.86 315.9 114.86 315.9H102.502C102.502 315.9 99.0103 315.585 98.4274 313.953 97.8444 312.32 95.7318 313.261 95.4986 313.494 95.2654 313.728 94.4576 316.017 90.4937 316.134 86.5298 316.25 69.7415 316.134 69.7415 316.134 69.7415 316.134 67.2933 315.667 65.8942 313.918 64.4952 312.17 61.2308 313.398 61.2308 313.398 61.2308 313.398 59.8318 316.017 56.684 316.134 53.5362 316.25 44.326 316.134 44.326 316.134 44.326 316.134 40.4786 315.201 39.7791 313.569 39.0796 311.936 37.564 309.372 37.564 307.506V292.467C37.564 292.467 37.4474 290.835 35.5821 290.018 33.7167 289.202 29.403 286.754 29.403 286.754 29.403 286.754 26.7216 285.588 26.8382 283.256 26.9548 280.925 26.9547 272.764 26.9547 272.764zM217.222 291.301V272.181C217.222 272.181 217.105 268.217 219.204 266.934 221.302 265.652 223.401 264.603 223.401 264.603H241.705C241.705 264.603 243.687 264.952 245.202 266.351 246.718 267.75 248.7 267.75 249.749 267.401 250.798 267.051 250.682 265.069 255.928 264.952 261.175 264.836 346.748 264.952 346.748 264.952 346.748 264.952 349.196 264.369 350.829 266.002 352.461 267.634 352.811 267.284 353.86 266.934 354.909 266.584 355.142 264.719 358.873 264.719H369.715L372.63 266.118C372.63 266.118 375.078 267.051 376.011 266.584 376.944 266.118 377.527 264.952 380.441 264.952H392.916C392.916 264.952 394.781 265.185 395.83 266.118 396.88 267.051 398.862 267.051 398.862 267.051 398.862 267.051 400.844 264.836 403.292 264.836H426.726C426.726 264.836 429.407 264.952 431.739 267.051 434.07 269.149 433.721 272.764 433.721 272.764V281.857C433.721 281.857 432.905 283.839 431.506 284.422 430.107 285.005 430.689 293.632 430.689 293.632 430.689 293.632 433.371 294.682 433.488 296.081 433.604 297.48 433.488 311.353 433.488 311.353 433.488 311.353 432.205 313.335 430.456 314.151 428.708 314.967 424.627 316.25 424.627 316.25H396.49C396.49 316.25 395.831 313.802 394.548 314.035 393.266 314.268 392.671 316.017 392.671 316.017H373.096C373.096 316.017 371.931 314.268 370.881 314.268 369.832 314.268 369.482 316.017 369.482 316.017H355.609C355.609 316.017 354.25 313.102 352.617 313.102 350.985 313.102 349.728 315.9 349.728 315.9H304.766C304.766 315.9 302.586 312.289 300.797 312.286 298.942 312.282 296.67 316.017 296.67 316.017H265.022 250.372C250.372 316.017 249.283 314.967 249.166 313.802 249.05 312.636 247.576 311.916 246.177 313.782 244.778 315.647 245.708 316.133 239.995 316.133H221.885C221.885 316.133 217.455 315.667 217.455 312.286 217.455 308.905 217.222 291.301 217.222 291.301z"/><path fill="url(#paint32_linear_5783_12764)" d="M37.1643 273.915L32.4858 282.085L37.9887 285.951L43.4205 282.901V307.755L46.8096 311.59H56.3724V283.066L65.1109 286.776L66.1826 287.188V276.389L65.8624 275.194L63.5057 270.644L37.1643 273.915Z"/><path fill="url(#paint33_linear_5783_12764)" d="M75.9927 276.141L70.0571 279.191L66.207 299.306L64.4863 301.09L71.1288 310.188L79.6199 311.614L89.1003 309.858L94.2939 304.665L95.1183 303.675V281.335L88.3944 271.964L87.8638 296.338L80.4443 304.17L76.3558 298.95L75.7453 291.115L76.8995 283.478H84.9784L82.4228 277.213L75.9927 276.141Z"/><path fill="url(#paint34_linear_5783_12764)" d="M100.889 274.657L100.724 294.855L101.155 307.755L103.609 311.639H113.172L117.334 295.359L120.246 307.755L121.746 311.639H131.803L139.553 277.13L137.4 270.644L125.126 301.78L124.582 287.021L122.405 275.894L119.099 270.644L113.255 281.994L107.983 286.712C107.983 286.712 107.885 278.78 107.896 276.966L104.952 270.644L100.889 274.657Z"/><path fill="url(#paint35_linear_5783_12764)" d="M142.768 274.163L138.181 307.755L140.048 311.664H165.851V302.769L163.746 298.308L149.887 300.447V294.937H163.295L163.46 289.199L161.198 285.376H149.61V280.181L165.172 283.89L166.923 283.726L166.84 274.657L163.797 270.644L142.768 274.163Z"/><path fill="url(#paint36_linear_5783_12764)" d="M172.445 274.162L167.746 297.657L165.172 307.755L165.85 311.663H178.628V299.141V298.152H180.524L184.812 307.755L185.223 311.687H197.589L195.795 307.372L189.725 296.228L195.252 291.565C196.06 288.986 194.754 279.351 194.754 279.351L192.548 275.673L182.833 289.908L176.321 287.703V280.757H179.782L182.75 282.282L184.201 283.373L186.666 282.076L184.053 275.619L172.445 274.162Z"/><path fill="#A14E1A" d="M43.4209 307.755L46.8099 311.59H56.3728L52.3675 307.755H43.4209zM32.4858 282.084L37.9887 285.95 43.4205 282.9 43.4205 278.787 32.4858 282.084zM52.3672 278.787L56.3725 283.065 65.6468 286.981 63.5058 281.672 52.3672 278.787zM74.4043 280.461L76.8996 283.478H83L82.6214 280.518 78.5818 279.863 74.4043 280.461zM64.4863 301.09L71.1288 310.188 79.6199 311.614 89.1003 309.858 95.1183 303.676 92.2273 301.222 88.1411 305.857 79.457 308.265 70.4686 306.923 64.4863 301.09zM101.155 307.755L103.61 311.639H113.172L110.407 307.755H101.155zM120.246 307.755L121.746 311.639H131.804L129.524 307.755H120.246zM138.181 307.755L140.048 311.664 165.851 311.664 163.746 307.755H138.181zM147.127 292.028L149.887 294.937H163.295L161.197 292.028H147.127zM147.127 277.551L149.61 280.181 165.172 283.891 163.797 280.466 147.127 277.551z"/><path fill="#A14E1A" d="M165.172 307.755L165.85 311.664H178.628L175.401 307.755H165.172zM175.401 294.653L178.629 298.152H180.524L178.962 294.653H175.401zM184.812 307.755L185.223 311.688H197.589L195.795 307.373 195.096 307.755H184.812zM188.28 293.577L189.725 296.229 195.253 291.565 194.107 288.865 188.28 293.577zM175.285 277.551L176.321 280.758H179.783L182.75 282.283 184.201 283.374 183.717 279.977 179.777 277.551H175.285z"/><path fill="url(#paint37_linear_5783_12764)" d="M63.5057 281.673L52.3671 278.788V307.755H43.4205V278.788L32.4858 282.085V270.644H63.5057V281.673Z"/><path fill="url(#paint38_linear_5783_12764)" d="M92.922 289.717L92.2274 301.222L88.1411 305.857L79.457 308.265L70.4686 306.923L64.4863 301.09L64.8184 289.644V287.553L64.9929 277.614L69.5738 271.743L79.406 270.134L88.3944 271.965L92.4806 278.115L92.922 288.009V289.717ZM83.4103 287.585L82.6213 280.518L78.5817 279.864L74.4042 280.461L73.5312 287.319L73.5057 290.047L74.0789 298.35L78.6326 299.55L83.0335 298.236L83.4103 289.293V287.585Z"/><path fill="url(#paint39_linear_5783_12764)" d="M124.273 293.915L125.315 270.644H137.4L129.524 307.755H120.246L115.276 286.6L110.407 307.755H101.155L93.2534 270.644H104.952L106.406 293.915L111.503 270.644H119.099L124.273 293.915Z"/><path fill="url(#paint40_linear_5783_12764)" d="M161.198 292.029H147.128V300.873L163.746 298.308V307.755H138.181V270.644H163.797V280.466L147.128 277.551V285.376H161.198V292.029Z"/><path fill="url(#paint41_linear_5783_12764)" d="M178.962 294.654H175.401V307.755H165.172V270.644H183.975C188.376 270.644 192.549 275.673 192.549 275.673L193.822 281.859L194.107 288.865L188.28 293.577L195.796 307.373L195.096 307.755H184.813L178.962 294.654ZM175.285 287.747L180.943 287.513C182.879 286.194 183.188 285.384 184.201 283.374L183.717 279.977L179.777 277.551H175.285V287.747Z"/><path fill="#fff" d="M32.4858 270.644L32.4858 272.761H61.7309L63.5057 281.673 63.5058 270.644H32.4858zM64.9932 277.614L69.574 271.743 79.4063 270.134 88.3947 271.965 92.4809 278.115 85.9679 272.919 79.2904 271.965 70.8817 272.919 64.9932 277.614zM74.4043 280.461L78.5818 279.863 82.6214 280.518 83.4104 287.584 83.7008 280.345 78.3835 278.787 74.4043 280.461zM93.2534 270.644L93.7172 272.919H104.063C104.063 272.919 105.787 284.012 105.777 283.845 105.766 283.678 104.952 270.644 104.952 270.644H93.2534zM111.503 270.644L110.994 272.969 118.16 272.919 121.938 283.413 119.099 270.644H111.503zM125.315 270.644L125.216 272.846 135.431 272.919 134.17 285.863 137.4 270.644H125.315zM138.181 270.644V272.939H162.059L163.797 278.243V270.644H138.181zM147.127 285.376H161.197V286.229L147.127 286.2V285.376zM165.172 270.644V272.851H184.928L191.479 277.24 193.822 281.859 192.549 275.673 190.794 273.899 189.539 272.872 187.614 271.649 186.509 271.148 184.928 270.644H183.975 165.172z"/><path fill="#fff" d="M175.285 277.551H179.777L183.717 279.976L184.201 283.373L184.028 279.583L179.886 276.677L175.285 276.615V277.551Z"/><path fill="#D17132" d="M227.679 274.163L223.511 270.644C223.511 270.644 222.815 274.163 222.733 274.163 222.65 274.163 222.733 311.755 222.733 311.755H240.457L251.621 303.511C251.621 303.511 252.564 279.173 250.893 277.9 249.222 276.627 242.601 300.213 242.601 300.213L229.594 302.521 233.244 299.595V283.198L236.633 283.431 240.364 285.18 242.146 288.954 245.202 282.615 242.579 276.902 227.679 274.163zM259.253 274.74L254.016 270.644 252.658 275.07V311.755H277.472L279.581 307.755 264.655 300.683V294.69H275.741L277.032 292.029 264.859 285.376V281.005L278.296 282.984 279.632 279.65 259.253 274.74zM287.364 274.163L282.991 270.644 280.439 278.12V311.755H290.002L291.937 307.755V296.421H303.522L306.364 292.972 291.937 286.09V280.593L306.325 282.942 307.817 279.533 287.364 274.163z"/><path fill="#D17132" d="M314.486 276.553L310.027 270.644L307.232 278.367V311.755H332.705L335.593 307.755L319.103 305.077L318.974 295.555H330.15L333.044 292.029L316.96 286.229L318.974 279.992L333.982 283.081L335.644 279.3C335.644 279.3 322.789 274.163 322.381 274.163C321.973 274.163 314.486 276.553 314.486 276.553Z"/><path fill="#D17132" d="M349.77 278.779L338.222 270.644L334.107 277.79V311.755H346.225L349.617 307.755L348.169 294.099L356.695 311.779H367.33L369.216 307.755L357.847 270.644L354.634 275.894L356.578 287.198L349.77 278.779Z"/><path fill="#D17132" d="M382.333 273.585L373.435 274.163L369.216 279.686V287.188L370.859 290.65L380.437 294.937L386.867 298.317L388.104 299.224L386.382 301.536L384.806 304.5L370.859 295.724L366.535 299.004L369.216 307.755L370.859 309.199L376.233 311.803L385.531 312.496L395.276 309.941L400.202 301.467L394.204 291.194C394.204 291.194 376.645 284.302 377.304 284.138C377.964 283.973 380.876 280.635 380.876 280.635L384.312 279.686L387.444 279.851L389.753 285.374L398.161 285.127L400.12 281.655L382.333 273.585Z"/><path fill="#D17132" d="M422.398 276.141L402.596 270.644L398.361 275.639L396.513 277.955V311.755H423.058L428.162 307.755C428.162 307.755 408.961 303.593 409.043 303.181C409.126 302.769 411.543 296.451 411.543 296.451H420.008L425.613 292.029C425.613 292.029 408.301 286.528 408.796 286.199C409.291 285.869 411.543 280.225 411.543 280.225L426.084 283.664L428.213 279.883L422.398 276.141Z"/><path fill="#A14E1A" d="M226.195 301.202L223.511 307.754 222.733 311.754H240.457L251.621 303.51 251.319 299.372 241.872 306.743 239.253 307.395 233.945 304.169 229.594 298.646 232.457 283.395 233.244 283.197 236.633 283.43 240.364 285.179 242.146 288.953 241.48 281.677 236.631 279.532 232.457 278.949 226.374 293.457 226.195 301.202zM259.253 274.739L255.708 305.406 254.016 307.755 252.658 311.754H277.472L279.581 307.755 261.726 304.005 262.963 292.028 264.655 294.689H275.741L277.032 292.028 262.056 288.177 262.963 277.551 264.859 281.005 278.296 282.983 279.632 279.649 259.253 274.739zM290.332 274.162L282.991 307.755 280.439 311.754H290.002L291.937 307.755V296.42H303.522L306.364 292.971 291.937 286.089V280.592L306.325 282.942 307.817 279.532 290.414 274.709 290.332 274.162zM314.981 274.157L310.027 307.755 307.232 311.754H332.705L335.593 307.755C335.593 307.755 315.064 304.17 315.311 303.675 315.558 303.181 318.974 295.555 318.974 295.555H330.15L333.044 292.028 316.96 286.229 318.974 279.992 333.982 283.081 335.644 279.3 314.981 274.157z"/><path fill="#A14E1A" d="M345.439 275.728L338.222 307.755 334.107 311.755H346.225L349.617 307.755 346.143 283.231 352.573 286.776 361.064 305.489 360.321 307.755 356.695 311.779H367.33L369.216 307.755 357.519 291.211 347.222 276.984 345.439 275.728zM379.942 303.84L378.2 306.659 376.233 311.803 385.531 312.496 395.276 309.941 400.203 301.467C400.203 301.467 396.018 294.888 395.111 293.041 394.204 291.194 380.425 285.633 380.425 285.633L380.876 280.635 384.312 279.686 387.444 279.851 389.797 278.137 391.227 277.62 391.199 281.655 389.753 285.374 398.161 285.127 400.12 281.655 393.215 273.585 380.932 275.687 374.749 282.241 372.807 287.078 370.859 290.65 380.437 294.937 386.867 298.317C386.867 298.317 386.867 298.317 387.486 298.77 388.104 299.224 391.173 297.891 391.173 297.891L393.215 301.779 382.498 305.077 379.942 303.84z"/><path fill="#A14E1A" d="M407.395 276.966L402.596 307.755L396.513 311.754H423.058L428.162 307.755L409.043 303.181L411.543 296.451H420.008L425.613 292.029L410.329 286.922L411.543 280.225L426.084 283.664L428.213 279.883L411.022 273.559L407.395 276.966Z"/><path fill="url(#paint42_linear_5783_12764)" d="M223.511 307.755V270.644H235.465L244.31 272.887L250.893 277.9L251.621 289.098V290.806L251.32 299.373L241.872 306.744C241.872 306.744 238.931 307.738 235.72 307.755H223.511ZM232.457 278.95V299.591H235.567L241.48 296.864L242.146 289.756V288.151L241.48 281.677L236.631 279.533L232.457 278.95Z"/><path fill="url(#paint43_linear_5783_12764)" d="M277.032 292.029H262.962V300.873L279.581 299.008V307.755H254.016V270.644H279.632V279.65L262.962 277.551V285.376H277.032V292.029Z"/><path fill="url(#paint44_linear_5783_12764)" d="M306.364 292.972H291.937V307.755H282.991V270.644H307.817V279.533L291.937 277.551V286.09H306.364V292.972Z"/><path fill="url(#paint45_linear_5783_12764)" d="M333.044 292.029H318.974V300.873L335.593 299.241V307.755H310.027V270.644H335.644V279.3L318.974 277.551V285.376H333.044V292.029Z"/><path fill="url(#paint46_linear_5783_12764)" d="M369.216 307.755H360.321L347.168 284.662L349.617 307.755H338.222V270.644H347.168L360.295 293.736L357.847 270.644H369.216V307.755Z"/><path fill="url(#paint47_linear_5783_12764)" d="M391.173 297.891L389.03 295.162C385.601 293.421 382.762 291.713 379.194 290.295L372.807 287.078L371.98 280.559L373.435 274.163L379.11 270.584L386.254 270.134L393.416 271.561C393.416 271.561 397.189 273.872 398.361 275.639C399.534 277.39 400.12 279.395 400.12 281.655H391.199C391.199 280.142 389.797 278.137 389.797 278.137C386.874 276.656 386.054 276.955 383.077 277.794L380.876 280.635L382.405 283.235L387.783 285.631L394.105 288.282L399.43 292.513L400.203 301.467L396.367 306.476L386.382 308.265L378.2 306.659L372.694 302.224C372.694 302.224 370.859 298.172 370.859 295.725H379.831L381.36 300.134L386.382 301.536L389.874 300.593L391.173 297.891Z"/><path fill="url(#paint48_linear_5783_12764)" d="M425.612 292.029H411.542V300.873L428.161 298.542V307.755H402.596V270.644H428.212V279.883L411.542 277.551V285.376H425.612V292.029Z"/><path fill="#fff" d="M223.511 270.644L223.511 272.679L234.769 272.919L242.766 274.74L249.526 278.95L251.621 289.098L250.893 277.9L244.31 272.887L235.465 270.644H223.511Z"/><path fill="#fff" d="M232.458 278.949L236.631 279.532 241.481 281.677 242.146 288.953 241.588 280.72 236.779 278.563 232.466 278.184 232.458 278.949zM254.016 270.644V273.05H278.255L279.632 277.666V270.644H254.016zM262.963 285.376H277.033V286.137L262.901 286.075 262.963 285.376zM282.991 270.644V272.88L306.351 272.919 307.817 277.252V270.644H282.991zM291.938 286.089H306.365V286.724H291.866L291.938 286.089zM310.028 270.644V272.926H334.107L335.644 276.512V270.644H310.028zM318.975 285.376H333.044V286.034H318.914L318.975 285.376zM338.222 270.644V272.88L346.573 272.919 355.9 286.058 347.169 270.644H338.222zM357.847 270.644L358.079 272.826 367.85 272.919 369.217 283.437V270.644H357.847zM373.435 274.163L379.11 270.584 386.254 270.134 393.417 271.561 396.513 273.559 392.129 272.268 386.154 271.685 379.625 271.977 373.435 274.163zM389.797 278.136C389.797 278.136 390.641 279.618 390.687 279.721 390.733 279.824 391.094 280.864 391.094 280.864L391.199 281.654H400.12L391.814 280.406 389.797 278.136zM371.981 280.559L372.808 287.079 379.194 290.296 389.03 295.163 373.575 286.611 371.981 280.559zM402.597 270.644V272.926L426.479 272.919 428.213 277.708V270.644H402.597zM411.543 285.376H425.613V286.287H411.482L411.543 285.376z"/><path fill="#1E242B" d="M149.835 131.366L126.751 92.6602 158.696 108.982 149.835 131.366zM254.529 27.8381L265.022 36.2322 258.493 17.5786 254.529 27.8381zM433.837 29.938L424.277 52.0892 434.304 44.8609 433.837 29.938zM49.106 178.933L60.5313 200.385 48.6396 192.224 49.106 178.933zM220.253 165.643L222.818 187.094 235.176 157.715 220.253 165.643zM361.088 112.713C361.321 114.345 360.622 139.061 361.554 137.895 362.487 136.729 379.509 112.247 379.509 112.247L361.088 112.713z"/><path fill="#3C4A55" d="M143.577 101.257L149.946 112.013L152.059 105.254L143.577 101.257Z"/><path fill="#2C353C" d="M126.751 92.6602L133.5 103.977 149.946 112.013 143.577 101.257 126.751 92.6602zM265.022 36.2331L260.036 21.9604 258.8 25.8763 261.997 33.8131 265.022 36.2331zM424.277 52.0881L431.944 33.9546C431.944 33.9546 431.944 39.5604 431.944 39.8901 431.944 40.2199 425.842 50.9604 425.842 50.9604L424.277 52.0881zM377.425 114.918C377.425 114.918 370.962 119.986 370.281 119.986 369.599 119.986 361.053 134.048 361.053 134.048V136.961L361.554 137.895 370.627 125.091 377.425 115.511 377.876 114.918H377.425zM222.818 187.095L233.136 162.67 228.181 169.484 222.542 184.784 222.818 187.095zM50.6846 182.355L52.3333 189.66 56.1751 197.396 60.5313 200.385 50.7602 181.562 50.6846 182.355z"/><defs><linearGradient id="paint0_linear_5783_12764" x1="217.46" x2="220.692" y1="14.099" y2="148.405" gradientUnits="userSpaceOnUse"><stop stop-color="#526474"/><stop offset="1" stop-color="#303C44"/></linearGradient><linearGradient id="paint1_linear_5783_12764" x1="217.459" x2="220.691" y1="14.099" y2="148.405" gradientUnits="userSpaceOnUse"><stop stop-color="#526474"/><stop offset="1" stop-color="#303C44"/></linearGradient><linearGradient id="paint2_linear_5783_12764" x1="217.459" x2="220.692" y1="14.099" y2="148.405" gradientUnits="userSpaceOnUse"><stop stop-color="#526474"/><stop offset="1" stop-color="#303C44"/></linearGradient><linearGradient id="paint3_linear_5783_12764" x1="217.459" x2="220.692" y1="14.099" y2="148.405" gradientUnits="userSpaceOnUse"><stop stop-color="#526474"/><stop offset="1" stop-color="#303C44"/></linearGradient><linearGradient id="paint4_linear_5783_12764" x1="217.46" x2="220.692" y1="14.099" y2="148.405" gradientUnits="userSpaceOnUse"><stop stop-color="#526474"/><stop offset="1" stop-color="#303C44"/></linearGradient><linearGradient id="paint5_linear_5783_12764" x1="85.353" x2="83.508" y1="21.107" y2="137.226" gradientUnits="userSpaceOnUse"><stop stop-color="#AFB8BD"/><stop offset="1" stop-color="#606D75"/></linearGradient><linearGradient id="paint6_linear_5783_12764" x1="235.584" x2="234.205" y1="17.323" y2="90.072" gradientUnits="userSpaceOnUse"><stop stop-color="#AFB8BD"/><stop offset="1" stop-color="#606D75"/></linearGradient><linearGradient id="paint7_linear_5783_12764" x1="308.926" x2="307.08" y1="11.726" y2="90.072" gradientUnits="userSpaceOnUse"><stop stop-color="#AFB8BD"/><stop offset="1" stop-color="#606D75"/></linearGradient><linearGradient id="paint8_linear_5783_12764" x1="364.767" x2="364.787" y1="12.193" y2="90.072" gradientUnits="userSpaceOnUse"><stop stop-color="#AFB8BD"/><stop offset="1" stop-color="#606D75"/></linearGradient><linearGradient id="paint9_linear_5783_12764" x1="431.707" x2="431.727" y1="13.125" y2="90.072" gradientUnits="userSpaceOnUse"><stop stop-color="#AFB8BD"/><stop offset="1" stop-color="#606D75"/></linearGradient><linearGradient id="paint10_linear_5783_12764" x1="253.449" x2="252.841" y1="114.982" y2="252.553" gradientUnits="userSpaceOnUse"><stop stop-color="#516372"/><stop offset="1" stop-color="#303C44"/></linearGradient><linearGradient id="paint11_linear_5783_12764" x1="253.448" x2="252.84" y1="114.982" y2="252.553" gradientUnits="userSpaceOnUse"><stop stop-color="#516372"/><stop offset="1" stop-color="#303C44"/></linearGradient><linearGradient id="paint12_linear_5783_12764" x1="253.449" x2="252.84" y1="114.982" y2="252.553" gradientUnits="userSpaceOnUse"><stop stop-color="#516372"/><stop offset="1" stop-color="#303C44"/></linearGradient><linearGradient id="paint13_linear_5783_12764" x1="253.448" x2="252.84" y1="114.982" y2="252.553" gradientUnits="userSpaceOnUse"><stop stop-color="#516372"/><stop offset="1" stop-color="#303C44"/></linearGradient><linearGradient id="paint14_linear_5783_12764" x1="253.448" x2="252.84" y1="114.982" y2="252.553" gradientUnits="userSpaceOnUse"><stop stop-color="#516372"/><stop offset="1" stop-color="#303C44"/></linearGradient><linearGradient id="paint15_linear_5783_12764" x1="253.449" x2="252.841" y1="114.982" y2="252.553" gradientUnits="userSpaceOnUse"><stop stop-color="#516372"/><stop offset="1" stop-color="#303C44"/></linearGradient><linearGradient id="paint16_linear_5783_12764" x1="88.687" x2="87.308" y1="167.339" y2="240.088" gradientUnits="userSpaceOnUse"><stop stop-color="#AFB8BD"/><stop offset="1" stop-color="#606D75"/></linearGradient><linearGradient id="paint17_linear_5783_12764" x1="145.707" x2="143.861" y1="161.742" y2="240.088" gradientUnits="userSpaceOnUse"><stop stop-color="#AFB8BD"/><stop offset="1" stop-color="#606D75"/></linearGradient><linearGradient id="paint18_linear_5783_12764" x1="211.341" x2="211.361" y1="162.209" y2="240.088" gradientUnits="userSpaceOnUse"><stop stop-color="#AFB8BD"/><stop offset="1" stop-color="#606D75"/></linearGradient><linearGradient id="paint19_linear_5783_12764" x1="255.47" x2="257.763" y1="162.313" y2="240.919" gradientUnits="userSpaceOnUse"><stop stop-color="#AFB8BD"/><stop offset="1" stop-color="#606D75"/></linearGradient><linearGradient id="paint20_linear_5783_12764" x1="355.957" x2="355.977" y1="162.209" y2="240.088" gradientUnits="userSpaceOnUse"><stop stop-color="#AFB8BD"/><stop offset="1" stop-color="#606D75"/></linearGradient><linearGradient id="paint21_linear_5783_12764" x1="411.326" x2="409.48" y1="124.489" y2="240.608" gradientUnits="userSpaceOnUse"><stop stop-color="#AFB8BD"/><stop offset="1" stop-color="#606D75"/></linearGradient><linearGradient id="paint22_linear_5783_12764" x1="246.351" x2="246.611" y1="115.219" y2="143.666" gradientUnits="userSpaceOnUse"><stop stop-color="#516373"/><stop offset="1" stop-color="#303C44"/></linearGradient><linearGradient id="paint23_linear_5783_12764" x1="246.351" x2="246.611" y1="115.22" y2="143.667" gradientUnits="userSpaceOnUse"><stop stop-color="#516373"/><stop offset="1" stop-color="#303C44"/></linearGradient><linearGradient id="paint24_linear_5783_12764" x1="246.351" x2="246.611" y1="115.22" y2="143.667" gradientUnits="userSpaceOnUse"><stop stop-color="#516373"/><stop offset="1" stop-color="#303C44"/></linearGradient><linearGradient id="paint25_linear_5783_12764" x1="246.351" x2="246.611" y1="115.22" y2="143.667" gradientUnits="userSpaceOnUse"><stop stop-color="#516373"/><stop offset="1" stop-color="#303C44"/></linearGradient><linearGradient id="paint26_linear_5783_12764" x1="246.351" x2="246.611" y1="115.22" y2="143.667" gradientUnits="userSpaceOnUse"><stop stop-color="#516373"/><stop offset="1" stop-color="#303C44"/></linearGradient><linearGradient id="paint27_linear_5783_12764" x1="192.329" x2="192.831" y1="114.168" y2="140.747" gradientUnits="userSpaceOnUse"><stop stop-color="#AFB8BD"/><stop offset="1" stop-color="#606D75"/></linearGradient><linearGradient id="paint28_linear_5783_12764" x1="192.411" x2="192.877" y1="115.036" y2="139.752" gradientUnits="userSpaceOnUse"><stop stop-color="#AFB8BD"/><stop offset="1" stop-color="#606D75"/></linearGradient><linearGradient id="paint29_linear_5783_12764" x1="246.041" x2="246.507" y1="115.036" y2="139.752" gradientUnits="userSpaceOnUse"><stop stop-color="#AFB8BD"/><stop offset="1" stop-color="#606D75"/></linearGradient><linearGradient id="paint30_linear_5783_12764" x1="246.04" x2="246.507" y1="115.036" y2="139.752" gradientUnits="userSpaceOnUse"><stop stop-color="#AFB8BD"/><stop offset="1" stop-color="#606D75"/></linearGradient><linearGradient id="paint31_linear_5783_12764" x1="246.04" x2="246.507" y1="115.036" y2="139.752" gradientUnits="userSpaceOnUse"><stop stop-color="#AFB8BD"/><stop offset="1" stop-color="#606D75"/></linearGradient><linearGradient id="paint32_linear_5783_12764" x1="120.752" x2="121.746" y1="273.269" y2="311.639" gradientUnits="userSpaceOnUse"><stop stop-color="#DB7434"/><stop offset="1" stop-color="#B45B21"/></linearGradient><linearGradient id="paint33_linear_5783_12764" x1="120.752" x2="121.746" y1="273.268" y2="311.639" gradientUnits="userSpaceOnUse"><stop stop-color="#DB7434"/><stop offset="1" stop-color="#B45B21"/></linearGradient><linearGradient id="paint34_linear_5783_12764" x1="120.752" x2="121.746" y1="273.269" y2="311.639" gradientUnits="userSpaceOnUse"><stop stop-color="#DB7434"/><stop offset="1" stop-color="#B45B21"/></linearGradient><linearGradient id="paint35_linear_5783_12764" x1="120.753" x2="121.746" y1="273.269" y2="311.639" gradientUnits="userSpaceOnUse"><stop stop-color="#DB7434"/><stop offset="1" stop-color="#B45B21"/></linearGradient><linearGradient id="paint36_linear_5783_12764" x1="120.752" x2="121.746" y1="273.268" y2="311.638" gradientUnits="userSpaceOnUse"><stop stop-color="#DB7434"/><stop offset="1" stop-color="#B45B21"/></linearGradient><linearGradient id="paint37_linear_5783_12764" x1="65.608" x2="65.455" y1="270.551" y2="303.408" gradientUnits="userSpaceOnUse"><stop stop-color="#C87D22"/><stop offset="1" stop-color="#ECBB3F"/></linearGradient><linearGradient id="paint38_linear_5783_12764" x1="95.999" x2="95.133" y1="271.055" y2="307.86" gradientUnits="userSpaceOnUse"><stop stop-color="#C87D22"/><stop offset="1" stop-color="#ECBB3F"/></linearGradient><linearGradient id="paint39_linear_5783_12764" x1="126.43" x2="126.44" y1="271.274" y2="307.86" gradientUnits="userSpaceOnUse"><stop stop-color="#C87D22"/><stop offset="1" stop-color="#ECBB3F"/></linearGradient><linearGradient id="paint40_linear_5783_12764" x1="169.09" x2="169.099" y1="271.712" y2="307.86" gradientUnits="userSpaceOnUse"><stop stop-color="#C87D22"/><stop offset="1" stop-color="#ECBB3F"/></linearGradient><linearGradient id="paint41_linear_5783_12764" x1="196.081" x2="196.09" y1="271.712" y2="307.86" gradientUnits="userSpaceOnUse"><stop stop-color="#C87D22"/><stop offset="1" stop-color="#ECBB3F"/></linearGradient><linearGradient id="paint42_linear_5783_12764" x1="254.747" x2="254.594" y1="270.551" y2="303.408" gradientUnits="userSpaceOnUse"><stop stop-color="#C87D22"/><stop offset="1" stop-color="#ECBB3F"/></linearGradient><linearGradient id="paint43_linear_5783_12764" x1="285.8" x2="284.934" y1="271.055" y2="307.86" gradientUnits="userSpaceOnUse"><stop stop-color="#C87D22"/><stop offset="1" stop-color="#ECBB3F"/></linearGradient><linearGradient id="paint44_linear_5783_12764" x1="313.899" x2="313.909" y1="271.274" y2="307.86" gradientUnits="userSpaceOnUse"><stop stop-color="#C87D22"/><stop offset="1" stop-color="#ECBB3F"/></linearGradient><linearGradient id="paint45_linear_5783_12764" x1="340.936" x2="340.945" y1="271.712" y2="307.86" gradientUnits="userSpaceOnUse"><stop stop-color="#C87D22"/><stop offset="1" stop-color="#ECBB3F"/></linearGradient><linearGradient id="paint46_linear_5783_12764" x1="369.13" x2="369.14" y1="271.712" y2="307.86" gradientUnits="userSpaceOnUse"><stop stop-color="#C87D22"/><stop offset="1" stop-color="#ECBB3F"/></linearGradient><linearGradient id="paint47_linear_5783_12764" x1="402.94" x2="402.949" y1="271.712" y2="307.86" gradientUnits="userSpaceOnUse"><stop stop-color="#C87D22"/><stop offset="1" stop-color="#ECBB3F"/></linearGradient><linearGradient id="paint48_linear_5783_12764" x1="433.504" x2="433.514" y1="271.712" y2="307.86" gradientUnits="userSpaceOnUse"><stop stop-color="#C87D22"/><stop offset="1" stop-color="#ECBB3F"/></linearGradient></defs></svg>