<svg width="1689" height="414" viewBox="0 0 1689 414" fill="none" xmlns="http://www.w3.org/2000/svg">
<g clip-path="url(#clip0_115_682)">
<path d="M664.251 160.33C664.34 168.487 663.055 176.6 660.451 184.33C657.987 191.533 653.787 198.017 648.221 203.21C642.614 208.49 635.331 212.607 626.371 215.56C617.411 218.513 606.501 219.993 593.641 220H515.641V275H468.641V100.91H593.641C606.481 100.91 617.377 102.367 626.331 105.28C635.284 108.193 642.567 112.29 648.181 117.57C653.737 122.748 657.936 129.21 660.411 136.39C663.033 144.096 664.332 152.191 664.251 160.33V160.33ZM616.741 161.09C616.824 157.531 616.245 153.987 615.031 150.64C613.904 147.746 611.941 145.253 609.391 143.48C606.287 141.423 602.795 140.021 599.131 139.36C593.98 138.382 588.743 137.926 583.501 138H515.591V182.86H583.501C588.718 182.929 593.933 182.568 599.091 181.78C602.729 181.277 606.222 180.024 609.351 178.1C611.881 176.476 613.85 174.112 614.991 171.33C616.213 168.058 616.793 164.582 616.701 161.09H616.741Z" fill="black"/>
<path d="M865.25 242.06H768.25L751.86 275H699.4L790.5 100.91H842.96L934.06 275H881.6L865.25 242.06ZM785.04 208.06H848.65L816.98 144L785.04 208.06Z" fill="black"/>
<path d="M993.701 275V100.91H1040.7V275H993.701Z" fill="black"/>
<path d="M1347.67 275V152.73L1283.06 275H1237.95L1173.33 152.73V275H1126.33V100.91H1190.18L1260.5 232.68L1330.82 100.91H1394.43V275H1347.67Z" fill="black"/>
<path d="M1619.92 242.06H1522.87L1506.53 275H1454.07L1545.17 100.91H1597.63L1688.72 275H1636.25L1619.92 242.06ZM1539.72 208.06H1603.33L1571.65 144L1539.72 208.06Z" fill="black"/>
<path d="M155.41 12.0701C83.1202 13.7201 23.0102 59.8101 3.41017 123.07C0.450166 111 -2.09983 73.5401 3.91017 62.9001C18.7002 36.6701 70.0302 -1.94995 134.6 0.0800517C150.03 0.550052 180.35 6.55005 183.48 12.6301C183.87 13.3801 168.18 11.7801 155.41 12.0701Z" fill="#00B477"/>
<path d="M386.921 252.74L386.671 252.64C386.56 252.57 386.438 252.52 386.311 252.49C386.168 252.475 386.027 252.445 385.891 252.4C385.727 252.39 385.564 252.39 385.401 252.4C385.241 252.4 385.081 252.4 384.891 252.4H384.351H383.781C383.601 252.4 383.391 252.48 383.191 252.5C382.791 252.6 382.401 252.65 381.991 252.78C381.148 253.027 380.322 253.331 379.521 253.69C378.676 254.041 377.854 254.445 377.061 254.9C376.223 255.334 375.409 255.811 374.621 256.33L372.251 257.91L369.941 259.67L368.781 260.56L367.671 261.5L365.431 263.4C363.951 264.7 362.551 266.08 361.091 267.4L356.671 271.55C355.191 272.93 353.671 274.22 352.111 275.55C345.942 280.763 339.364 285.472 332.441 289.63C329.011 291.73 325.441 293.63 321.881 295.44C318.293 297.243 314.603 298.835 310.831 300.21C314.486 298.59 318.046 296.76 321.491 294.73C324.931 292.73 328.311 290.59 331.561 288.28C338.086 283.741 344.235 278.684 349.951 273.16C351.361 271.76 352.801 270.41 354.141 268.96L358.211 264.6C359.601 263.13 360.951 261.6 362.391 260.17L364.591 258.03L365.701 256.96L366.861 255.96L369.191 253.96L371.701 252.05C372.543 251.412 373.417 250.818 374.321 250.27C375.23 249.666 376.175 249.119 377.151 248.63C378.642 247.897 380.191 247.285 381.781 246.8C381.814 246.788 381.844 246.767 381.867 246.739C381.89 246.712 381.906 246.68 381.913 246.645C381.92 246.609 381.918 246.573 381.907 246.539C381.896 246.505 381.877 246.474 381.851 246.45C361.341 227.32 350.791 249 316.291 249.45C312.5 249.499 308.711 249.282 304.951 248.8L304.371 248.73C281.771 245.73 253.591 233.64 240.571 223.73C233.691 218.46 228.221 213.83 224.241 211.39C222.901 210.433 221.337 209.837 219.701 209.66C212.803 209.772 205.918 210.289 199.081 211.21L110.821 210.86C108 210.868 105.211 211.459 102.629 212.596C100.048 213.734 97.7297 215.393 95.8206 217.47C94.3127 219.143 92.5305 220.547 90.5506 221.62C87.5338 223.201 84.1658 223.992 80.7606 223.92C75.6106 223.92 68.1606 221.6 61.9406 210.58C58.1206 203.79 55.2606 194.41 53.6606 183.43C51.164 165.22 51.9804 146.709 56.0706 128.79C61.0706 108.1 70.2506 94.48 82.5006 89.45C101.091 81.79 114.121 88.03 126.701 94.05C136.701 98.86 147.091 103.83 162.281 103.83C177.471 103.83 187.841 98.83 197.871 94.05C210.451 88.05 223.461 81.79 242.071 89.45C254.331 94.45 263.451 108.1 268.501 128.79C272.598 146.708 273.411 165.221 270.901 183.43C269.311 194.43 266.451 203.79 262.621 210.58C261.104 213.346 259.21 215.888 256.991 218.13C256.708 218.39 256.487 218.71 256.344 219.066C256.2 219.423 256.139 219.806 256.163 220.19C256.186 220.573 256.296 220.946 256.482 221.282C256.669 221.617 256.928 221.907 257.241 222.13C265.841 228.3 280.551 234.75 294.041 238.59C297.041 239.46 300.041 240.17 302.891 240.73L303.161 240.8C304.801 241.11 306.411 241.4 307.921 241.61L307.971 241.52L308.531 241.58C318.594 242.458 328.734 241.647 338.531 239.18C335.011 216.96 325.781 197.25 322.301 191.74C321.998 191.208 321.629 190.717 321.201 190.28C317.624 195.652 313.072 200.305 307.781 204C318.411 188.56 325.271 184.22 321.901 157.84C318.483 124.69 304.807 93.4314 282.781 68.422C260.754 43.4127 231.474 25.8984 199.021 18.32L198.331 18.16L196.681 17.79C195.851 17.62 195.031 17.44 194.201 17.28L191.201 16.71L190.731 16.63C189.661 16.44 188.571 16.26 187.481 16.09C186.741 15.98 185.991 15.86 185.241 15.77C184.491 15.68 183.911 15.58 183.241 15.5L181.241 15.25C179.901 15.1 178.551 14.97 177.241 14.84L175.241 14.67C171.141 14.35 167.001 14.19 162.821 14.19C138.754 14.1399 114.988 19.5453 93.3106 30C91.5639 30.84 89.8306 31.7167 88.1106 32.63C86.9706 33.24 85.8406 33.86 84.7006 34.49L83.2506 35.32C80.2839 37.02 77.3673 38.82 74.5006 40.72L72.6506 42C72.0606 42.4 71.4706 42.8 70.8906 43.22C70.3106 43.64 69.6406 44.1 69.0206 44.55C57.05 53.2015 46.332 63.4652 37.1706 75.05C37.2406 74.94 37.2906 74.83 37.3606 74.72C26.608 88.2083 18.1082 103.347 12.1906 119.55H12.3306C12.2806 119.67 12.2406 119.82 12.1906 119.95C12.1406 120.08 11.9006 120.46 11.7206 120.85C11.3561 121.677 11.0617 122.534 10.8406 123.41V123.41C10.7306 123.81 10.6306 124.26 10.5406 124.73C-2.55343 165.114 0.922594 209.044 20.2047 246.865C39.4868 284.687 72.9971 313.305 113.371 326.43C135.021 292.92 167.541 275.6 196.581 263.66C162.361 283.96 164.771 303.34 175.391 320.92C169.321 317.28 158.121 300.92 158.121 300.92C158.121 300.92 142.561 306.05 125.261 329.78C125.131 329.96 125.001 330.13 124.881 330.31C120.332 336.668 116.258 343.353 112.691 350.31C107.531 399.69 191.741 424.53 180.231 408.17C168.721 391.81 189.061 335.92 189.061 335.92C189.061 335.92 198.111 352.35 238.141 352.12C278.171 351.89 327.461 333 348.901 318.74C360.861 310.77 398.551 275 386.921 252.74ZM277.781 286.24C276.09 287.148 274.148 287.477 272.252 287.175C270.357 286.873 268.613 285.958 267.287 284.57C265.962 283.182 265.129 281.397 264.915 279.49C264.702 277.582 265.12 275.657 266.105 274.011C267.091 272.364 268.59 271.085 270.371 270.372C272.153 269.659 274.12 269.55 275.97 270.062C277.819 270.574 279.45 271.678 280.612 273.206C281.774 274.734 282.402 276.601 282.401 278.52C282.408 279.788 282.131 281.042 281.591 282.19C280.795 283.919 279.458 285.341 277.781 286.24V286.24Z" fill="#00B477"/>
<path d="M282.38 278.53C282.382 280.269 281.868 281.97 280.903 283.417C279.937 284.864 278.565 285.992 276.958 286.659C275.352 287.326 273.583 287.5 271.877 287.162C270.171 286.823 268.604 285.985 267.374 284.755C266.144 283.526 265.307 281.958 264.968 280.252C264.629 278.546 264.804 276.778 265.471 275.172C266.137 273.565 267.266 272.192 268.713 271.227C270.16 270.262 271.86 269.748 273.6 269.75C275.928 269.75 278.162 270.675 279.808 272.322C281.455 273.968 282.38 276.201 282.38 278.53V278.53Z" fill="black"/>
<path d="M209.73 159.88C213.657 159.88 216.84 156.697 216.84 152.77C216.84 148.843 213.657 145.66 209.73 145.66C205.803 145.66 202.62 148.843 202.62 152.77C202.62 156.697 205.803 159.88 209.73 159.88Z" fill="#00B477"/>
<path d="M235.06 159.88C238.987 159.88 242.17 156.697 242.17 152.77C242.17 148.843 238.987 145.66 235.06 145.66C231.133 145.66 227.95 148.843 227.95 152.77C227.95 156.697 231.133 159.88 235.06 159.88Z" fill="#00B477"/>
<path d="M222.39 147.22C226.317 147.22 229.5 144.037 229.5 140.11C229.5 136.183 226.317 133 222.39 133C218.464 133 215.28 136.183 215.28 140.11C215.28 144.037 218.464 147.22 222.39 147.22Z" fill="#00B477"/>
<path d="M222.39 172.55C226.317 172.55 229.5 169.367 229.5 165.44C229.5 161.513 226.317 158.33 222.39 158.33C218.464 158.33 215.28 161.513 215.28 165.44C215.28 169.367 218.464 172.55 222.39 172.55Z" fill="#00B477"/>
<path d="M114.35 145.67H108.79V140.11C108.826 139.155 108.669 138.202 108.328 137.308C107.987 136.415 107.469 135.6 106.806 134.911C106.143 134.222 105.347 133.675 104.468 133.3C103.588 132.926 102.641 132.733 101.685 132.733C100.729 132.733 99.7827 132.926 98.9028 133.3C98.0229 133.675 97.2275 134.222 96.5642 134.911C95.9009 135.6 95.3834 136.415 95.0424 137.308C94.7015 138.202 94.5443 139.155 94.5802 140.11V145.67H89.0202C87.1819 145.739 85.442 146.518 84.1658 147.843C82.8897 149.168 82.1768 150.935 82.1768 152.775C82.1768 154.615 82.8897 156.382 84.1658 157.707C85.442 159.032 87.1819 159.811 89.0202 159.88H94.5802V165.44C94.6491 167.278 95.4279 169.018 96.7528 170.294C98.0777 171.57 99.8456 172.283 101.685 172.283C103.525 172.283 105.293 171.57 106.618 170.294C107.942 169.018 108.721 167.278 108.79 165.44V159.88H114.35C115.306 159.916 116.259 159.759 117.152 159.418C118.045 159.077 118.86 158.559 119.549 157.896C120.238 157.233 120.786 156.437 121.16 155.557C121.534 154.677 121.727 153.731 121.727 152.775C121.727 151.819 121.534 150.873 121.16 149.993C120.786 149.113 120.238 148.317 119.549 147.654C118.86 146.991 118.045 146.473 117.152 146.132C116.259 145.791 115.306 145.634 114.35 145.67V145.67Z" fill="#00B477"/>
</g>
<defs>
<clipPath id="clip0_115_682">
<rect width="1688.47" height="413.15" fill="white" transform="translate(0.25)"/>
</clipPath>
</defs>
</svg>
